<svg width="76" height="44" viewBox="0 0 76 44" fill="none" xmlns="http://www.w3.org/2000/svg">
<path d="M26.862 24.4937C26.862 25.5983 25.9666 26.4937 24.862 26.4937H2.13769C1.03312 26.4937 0.137695 25.5983 0.137695 24.4937V19.5078C0.137695 18.4032 1.03313 17.5078 2.1377 17.5078H24.862C25.9666 17.5078 26.862 18.4032 26.862 19.5078V24.4937Z" fill="#D02C22"/>
<path d="M45.4012 21.6318L59.3293 4.39906C60.5145 2.9326 62.8848 3.7707 62.8848 5.65625V17.5966C62.8848 18.7012 63.7802 19.5966 64.8848 19.5966H71.6343C73.3228 19.5966 74.2515 21.5599 73.1805 22.8652L59.386 39.6779C58.1947 41.1299 55.8398 40.2875 55.8398 38.4093V27.0867C55.8398 26.0043 54.9787 25.1183 53.8968 25.0875L46.8998 24.8881C45.2452 24.841 44.3608 22.9191 45.4012 21.6318Z" fill="#D02C22"/>
</svg>
