<svg width="580" height="713" viewBox="0 0 580 713" fill="none" xmlns="http://www.w3.org/2000/svg">
<path d="M565 607.787C565 628.997 539.866 648.712 511.591 665.109C463.63 692.947 381.703 713 288.707 713C195.712 713 113.776 692.947 65.8152 665.109C37.5307 648.703 15 624.718 15 603.517C15 546.347 140.876 506 288.707 506C436.539 506 565 550.617 565 607.787Z" fill="#EFCEC5"/>
<path opacity="0.3" d="M565 607.787C565 628.997 539.866 648.712 511.591 665.109C463.63 692.947 381.703 713 288.707 713C195.712 713 113.776 692.947 65.8152 665.109C37.5307 648.703 15 624.718 15 603.517C15 546.347 140.876 506 288.707 506C436.539 506 565 550.617 565 607.787Z" fill="#9B562E"/>
<path d="M580 589.504C580 611.942 562.096 632.802 531.482 650.122C479.562 679.584 390.752 699 289.991 699C189.23 699 100.438 679.629 48.4736 650.167C40.6475 645.802 33.2139 640.774 26.2554 635.137C21.1047 630.963 16.4036 626.266 12.2281 621.124C6.28411 613.662 2.38116 605.907 0.823557 597.884C0.277078 595.139 0.0012495 592.347 0 589.549C0 558.67 33.8106 530.785 88.2013 510.871C97.9408 507.305 108.343 503.998 119.326 500.967C167.218 487.782 226.21 480 290.009 480C354.855 480 414.733 488.023 463.037 501.626C533.988 521.55 580 553.49 580 589.504Z" fill="white"/>
<path d="M567 589.5C567 610.503 549.933 630.016 520.661 646.271C471.024 673.835 386.235 692 290 692C193.765 692 108.976 673.835 59.3394 646.271C30.0668 630.034 13 610.503 13 589.5C13 532.881 137.016 487 290 487C442.984 487 567 532.881 567 589.5Z" fill="#F1D8D1"/>
<path d="M291 673C406.98 673 501 638.526 501 596C501 553.474 406.98 519 291 519C175.02 519 81 553.474 81 596C81 638.526 175.02 673 291 673Z" fill="url(#paint0_radial_613_8883)"/>
<path opacity="0.1" d="M290 639C352.96 639 404 619.972 404 596.5C404 573.028 352.96 554 290 554C227.04 554 176 573.028 176 596.5C176 619.972 227.04 639 290 639Z" fill="#42210B"/>
<path d="M462.449 501.117C436.441 562.122 385.791 618 290.017 618C197.297 618 146.46 561.729 119.612 500.429C117.416 495.445 115.383 490.434 113.514 485.397C89.4078 420.792 89.8721 355.25 94.488 347.363C109.05 322.478 199.431 309.384 289.83 309.009C380.782 308.616 471.752 321.094 485.546 347.363C489.698 355.232 492.091 431.51 462.449 501.117Z" fill="#EFCEC5"/>
<path d="M486.964 349.433C486.812 343.844 484.278 338.441 479.756 333.295C478.861 332.303 477.912 331.32 476.882 330.346C452.616 307.477 387.179 290.542 308.257 288.266C302.24 288.089 296.152 288 289.991 288C181.189 288 93 315.758 93 350C93 362.701 105.133 374.499 125.951 384.33C143.501 392.621 167.239 399.511 195.095 404.347C223.238 409.219 255.589 412 290.009 412C346.313 412 397.1 404.551 432.998 392.629C440.175 390.286 447.202 387.514 454.04 384.33C474.858 374.499 487 362.701 487 350C486.964 349.805 486.964 349.619 486.964 349.433Z" fill="white"/>
<path d="M477 349.5C477 360.666 465.416 371.043 445.55 379.683C411.862 394.341 354.352 404 289 404C223.648 404 166.138 394.341 132.45 379.683C112.584 371.043 101 360.666 101 349.5C101 319.37 185.152 295 289 295C392.848 295 477 319.397 477 349.5Z" fill="#999999"/>
<path d="M477 349.5C477 360.666 465.416 371.043 445.55 379.683C434.118 384.655 419.938 389.059 403.635 392.692C371.908 399.782 332.15 404 289.045 404C245.939 404 206.137 399.782 174.454 392.692C158.152 389.059 143.971 384.655 132.539 379.683C112.584 371.043 101 360.666 101 349.5C101 319.37 185.152 295 289 295C392.848 295 477 319.397 477 349.5Z" fill="#F1D8D1"/>
<path opacity="0.2" d="M226 298C154.53 305.815 101 325.776 101 349.168C101 360.371 112.659 370.782 132.653 379.451C141.721 383.288 151.055 386.479 160.585 389C165.243 349.168 189.301 317.267 226 298Z" fill="#9B562E"/>
<path d="M447 379.688C413.215 394.343 355.54 404 290 404C224.46 404 166.785 394.343 133 379.688C136.124 355.403 205.22 336 290 336C374.78 336 443.876 355.403 447 379.688Z" fill="#614867"/>
<path d="M86 400.896C86 400.896 99.496 401.239 100.929 422.776C103.051 454.712 139.086 444.874 130.751 420.562C121.518 393.615 86 400.896 86 400.896Z" fill="#EFCEC5"/>
<path d="M170.594 558.782C169.52 560.057 167.265 563 167.265 563L162.334 557.408C162.334 557.408 146.663 549.578 143.924 545.03C134.804 529.869 117.486 531.653 93.7428 526.864C60.9331 520.211 21.062 486.18 25.3132 438.736C27.649 412.73 42.7651 392.148 72.9436 385.281C74.9394 384.826 76.8636 384.469 78.7341 384.184C105.977 381.829 121.245 402.662 128.36 414.505C118.516 406.586 105.091 402.073 93.0089 404.107C69.4085 408.075 48.8689 426.741 61.1389 464.402C78.8952 518.936 144.873 515.627 161.421 525.678C173.852 533.196 179.642 547.911 170.594 558.782Z" fill="#EFCEC5"/>
<path opacity="0.3" d="M88 400.917C88 400.917 101.203 401.268 102.605 423.305C104.681 455.984 139.932 445.918 131.778 421.04C122.746 393.466 88 400.917 88 400.917Z" fill="#9B562E"/>
<path d="M170.594 558.782C169.52 560.057 167.265 563 167.265 563L162.334 557.408C162.334 557.408 146.663 549.578 143.924 545.03C134.804 529.869 117.486 531.653 93.7428 526.864C60.9331 520.211 21.062 486.18 25.3132 438.736C27.649 412.73 42.7651 392.148 72.9436 385.281C74.9394 384.826 76.8636 384.469 78.7341 384.184C105.977 381.829 122.14 402.662 129.255 414.505C119.411 406.586 105.091 402.073 93.0089 404.107C69.4085 408.075 49.7638 426.741 62.0339 464.402C79.7902 518.936 144.873 515.627 161.421 525.678C173.852 533.196 179.642 547.911 170.594 558.782Z" fill="#EFCEC5"/>
<path opacity="0.3" d="M170.248 559.7C165.214 565 160.109 565 160.109 565L155.129 559.503C155.129 559.503 146.212 550.491 143.443 545.918C134.284 530.673 116.89 532.467 93.043 527.651C60.09 520.962 20.0448 486.743 24.3145 439.037C26.6606 412.889 41.8427 392.193 72.153 385.288C74.1575 384.83 76.0901 384.472 77.9688 384.185C105.331 381.817 120.666 402.765 127.812 414.673C117.924 406.71 105.34 402.173 93.2048 404.218C69.5013 408.208 49.7709 426.976 62.0945 464.845C79.9284 519.68 144.396 516.353 161.016 526.459C173.52 533.973 180.073 549.424 170.248 559.7Z" fill="#9B562E"/>
<path d="M163.056 558.225C157.366 560.585 151.983 557.51 147.078 549.628C139.865 538.081 119.605 537.071 91.1304 528.697C58.7968 519.179 17.0138 487.024 21.3057 439.479C23.65 413.419 38.8881 392.792 69.2921 385.911C72.6958 385.115 76.1517 384.557 79.6342 384.24C107.081 381.88 121.832 397.431 128.991 409.263C131.427 413.136 133.092 417.434 133.896 421.927C125.15 406.35 109.614 399.504 93.8083 400.603C68.2192 402.391 42.5128 425.234 55.641 465.334C73.5299 519.975 143.535 516.069 159.666 526.946C170.359 534.194 174.741 553.328 163.056 558.225Z" fill="#EFCEC5"/>
<path d="M404 392.575C372.436 399.738 332.884 404 290 404C247.116 404 207.519 399.738 176 392.575C176 374.033 227.06 359 290.045 359C353.03 359 404 374.033 404 392.575Z" fill="url(#paint1_radial_613_8883)"/>
<path opacity="0.4" d="M304.797 0C353.147 40.1205 129 35.431 129 90.7387C129 133.821 223.354 112.701 223.354 145.178C223.354 183.384 155.306 175.365 155.306 212.031C155.306 255.964 316.025 249.619 316.025 275.993C316.025 304.631 259.617 303.548 259.617 329.242C259.617 358.829 303.356 389.982 303.347 390C303.338 390.018 267.675 340.429 304.833 328.795C318.47 324.526 413.173 303.843 413.173 267.571C413.173 233.885 304.833 236.248 304.833 208.576C304.833 181.451 466 186.588 466 131.45C466 63.0938 304.833 90.685 304.833 55.3793C304.833 27.4838 395.266 18.1853 304.833 0.0357987L304.797 0Z" fill="white"/>
<path opacity="0.8" d="M413.5 369C417.09 369 420 368.105 420 367C420 365.895 417.09 365 413.5 365C409.91 365 407 365.895 407 367C407 368.105 409.91 369 413.5 369Z" fill="#EFCEC5"/>
<path opacity="0.8" d="M166.5 382C171.747 382 176 380.657 176 379C176 377.343 171.747 376 166.5 376C161.253 376 157 377.343 157 379C157 380.657 161.253 382 166.5 382Z" fill="#EFCEC5"/>
<path opacity="0.8" d="M407 359.504C407 360.221 406.172 360.882 404.741 361.439C403.77 361.798 402.764 362.078 401.735 362.275C396.302 363.242 390.707 363.242 385.274 362.275C384.242 362.078 383.233 361.798 382.259 361.439C380.837 360.882 380 360.221 380 359.504C380 357.569 386.048 356 393.5 356C400.952 356 407 357.569 407 359.504Z" fill="#EFCEC5"/>
<path opacity="0.3" d="M486.415 350C486.415 350.188 486.415 350.375 486.415 350.572C486.415 363.384 474.29 375.286 453.501 385.203C446.672 388.415 439.655 391.211 432.487 393.575C433.909 401.983 434.624 410.495 434.625 419.021C434.625 517.162 340.861 596.682 225.19 596.682C216.442 596.685 207.7 596.226 199 595.306C223.527 609.396 253.429 618 289.696 618C385.588 618 436.341 562.104 462.362 501.052C489.992 436.435 489.858 366.056 486.415 350Z" fill="#9B562E"/>
<defs>
<radialGradient id="paint0_radial_613_8883" cx="0" cy="0" r="1" gradientUnits="userSpaceOnUse" gradientTransform="translate(291 615.777) scale(199.859 73.1784)">
<stop offset="0.15" stop-color="#310904"/>
<stop offset="0.41" stop-color="#73514B"/>
<stop offset="0.69" stop-color="#B79993"/>
<stop offset="0.9" stop-color="#E1C7C0"/>
<stop offset="1" stop-color="#F1D8D1"/>
</radialGradient>
<radialGradient id="paint1_radial_613_8883" cx="0" cy="0" r="1" gradientUnits="userSpaceOnUse" gradientTransform="translate(311.537 418.055) rotate(175.525) scale(193.089 43.8336)">
<stop stop-color="#D45D79"/>
<stop offset="0.43" stop-color="#D25D79"/>
<stop offset="0.59" stop-color="#CB5B77"/>
<stop offset="0.7" stop-color="#C05875"/>
<stop offset="0.79" stop-color="#AF5571"/>
<stop offset="0.87" stop-color="#99506C"/>
<stop offset="0.93" stop-color="#7E4A67"/>
<stop offset="0.99" stop-color="#5E4360"/>
<stop offset="1" stop-color="#5A425F"/>
</radialGradient>
</defs>
</svg>
