<svg width="1300" height="840" viewBox="0 0 1300 840" fill="none" xmlns="http://www.w3.org/2000/svg">
<mask id="mask0_841_3891" style="mask-type:alpha" maskUnits="userSpaceOnUse" x="0" y="0" width="1300" height="840">
<rect width="1300" height="840" fill="#D9D9D9"/>
</mask>
<g mask="url(#mask0_841_3891)">
<path fill-rule="evenodd" clip-rule="evenodd" d="M885.914 239.445C855.211 227.407 790.481 202.697 716.944 176.653C635.082 147.661 573.703 125.136 553.247 117.498C551.168 116.864 547.593 114.107 549.923 108.146L553.564 98.8324C554.076 97.0642 556.834 94.3127 563.767 97.4521C572.433 101.376 693.511 148.704 741.659 166.988C774.274 179.373 845.818 205.923 892.233 223.097C905.536 200.346 933.774 190.01 959.096 199.908C1021.96 224.482 1062.91 266.685 1051.95 294.719C1040.99 322.753 975.762 323.453 919.413 301.427C894.224 291.581 880.492 265.062 885.914 239.445Z" fill="#E9E2D0"/>
<path d="M959.348 305.5C913.725 297.651 898.848 271.667 897.348 258C907.181 261.5 933.348 268.4 959.348 268C985.348 267.6 1013.85 258.167 1024.85 253.5C1031.51 259.833 1043.85 275.9 1039.85 289.5C1034.85 306.5 1005.85 313.5 959.348 305.5Z" fill="#AB9CA1"/>
<path d="M1187.22 647.389C1185.81 667.144 1161.31 683.855 1134.13 697.269C1088.02 720.046 1011.08 733.339 925.254 727.227C839.43 721.114 765.142 697.051 722.726 667.969C697.711 650.829 678.508 627.008 679.915 607.26C683.707 554.01 802.553 524.703 938.986 534.42C1075.42 544.137 1191.01 594.138 1187.22 647.389Z" fill="#EFCEC5"/>
<path opacity="0.3" d="M1187.22 647.389C1185.81 667.144 1161.31 683.855 1134.13 697.269C1088.02 720.046 1011.08 733.339 925.254 727.227C839.43 721.114 765.142 697.051 722.726 667.969C697.711 650.829 678.508 627.008 679.915 607.26C683.707 554.01 802.553 524.703 938.986 534.42C1075.42 544.137 1191.01 594.138 1187.22 647.389Z" fill="#9B562E"/>
<path d="M1203.03 631.584C1201.55 652.442 1183.6 670.652 1154.12 684.736C1104.12 708.701 1020.65 720.896 927.402 714.255C834.155 707.614 753.266 683.755 707.127 652.942C700.174 648.369 693.627 643.205 687.561 637.507C683.071 633.286 679.031 628.611 675.507 623.555C670.501 616.228 667.402 608.761 666.492 601.2C666.168 598.612 666.097 595.999 666.281 593.398C668.326 564.693 701.461 541 753.115 526.073C762.364 523.4 772.209 521.011 782.575 518.918C827.768 509.818 882.876 506.472 941.918 510.677C1001.93 514.951 1056.81 526.355 1100.61 542.185C1164.95 565.382 1205.42 598.106 1203.03 631.584Z" fill="white"/>
<path d="M1191.44 630.748C1190.05 650.247 1172.94 667.235 1144.72 680.392C1096.88 702.704 1017.07 713.969 927.85 707.614C838.629 701.26 761.221 678.798 717.025 649.931C690.959 632.925 676.427 613.667 677.816 594.168C681.56 541.605 799.57 507.2 941.404 517.302C1083.24 527.403 1195.18 578.186 1191.44 630.748Z" fill="#F1D8D1"/>
<path d="M929.91 690.389C1037.07 698.02 1126.23 672.011 1129.06 632.295C1131.88 592.579 1047.31 554.196 940.153 546.565C832.996 538.933 743.835 564.942 741.007 604.658C738.178 644.374 822.753 682.757 929.91 690.389Z" fill="url(#paint0_radial_841_3891)"/>
<path opacity="0.1" d="M931.33 658.748C989.98 662.925 1038.78 648.688 1040.33 626.949C1041.88 605.21 995.587 584.201 936.937 580.024C878.287 575.847 829.487 590.084 827.938 611.823C826.39 633.562 872.68 654.571 931.33 658.748Z" fill="#42210B"/>
<g style="mix-blend-mode:screen" filter="url(#filter0_f_841_3891)">
<path fill-rule="evenodd" clip-rule="evenodd" d="M1171.91 606.392C1190.57 590.6 1202.48 575.051 1207.28 560.332C1212.08 545.613 1209.7 531.979 1200.11 519.976C1190.49 507.945 1173.83 497.874 1151.06 490.448C1105.54 475.602 1036.75 471.7 955.429 482.6C874.109 493.5 796.359 517.044 736.544 546.009C706.623 560.498 681.568 576.16 662.857 591.989C644.19 607.78 632.287 623.329 627.484 638.048C622.681 652.767 625.06 666.401 634.657 678.404C644.277 690.435 660.934 700.506 683.704 707.933C729.222 722.779 798.015 726.681 879.335 715.781C960.654 704.881 1038.4 681.336 1098.22 652.371C1128.14 637.882 1153.19 622.22 1171.91 606.392ZM1099.84 664.502C1037.48 694.701 957.58 718.752 874.741 729.856C791.903 740.96 721.109 737.107 673.651 721.628C649.933 713.892 631.754 703.158 620.945 689.64C610.114 676.094 606.472 659.435 612.809 640.015C619.147 620.595 634.492 601.391 655.56 583.569C676.584 565.784 703.751 548.972 734.92 533.878C797.284 503.679 877.183 479.628 960.022 468.524C1042.86 457.421 1113.65 461.273 1161.11 476.752C1184.83 484.488 1203.01 495.222 1213.82 508.74C1224.65 522.286 1228.29 538.946 1221.95 558.365C1215.62 577.785 1200.27 596.99 1179.2 614.811C1158.18 632.597 1131.01 649.409 1099.84 664.502Z" fill="url(#paint1_linear_841_3891)"/>
</g>
<path d="M1097.92 512.109C1079.2 570.883 1037.21 627.076 948.515 635.497C862.651 643.649 810.626 596.015 780.375 541.615C777.903 537.193 775.58 532.732 773.407 528.232C745.404 470.531 740.071 409.801 743.653 402.092C754.95 377.77 837.496 357.699 921.177 349.404C1005.37 341.043 1090.71 344.599 1105.79 367.709C1110.33 374.631 1119.25 445.05 1097.92 512.109Z" fill="#EFCEC5"/>
<path d="M1106.86 370.15C1106.22 364.945 1103.4 360.122 1098.77 355.713C1097.86 354.865 1096.89 354.031 1095.86 353.211C1071.42 333.984 1009.5 323.908 936.422 328.701C930.85 329.063 925.22 329.514 919.532 330.054C819.067 339.593 740.097 373.244 743.132 405.218C744.258 417.078 756.508 427.03 776.602 434.385C793.543 440.588 816.072 444.941 842.222 447.015C868.641 449.097 898.76 448.857 930.542 445.84C982.531 440.904 1028.77 429.496 1060.86 415.217C1067.28 412.399 1073.52 409.195 1079.55 405.622C1097.9 394.617 1108.07 382.536 1106.94 370.676C1106.89 370.498 1106.87 370.324 1106.86 370.15Z" fill="white"/>
<path d="M1098.56 370.64C1099.55 381.061 1089.77 391.761 1072.19 401.567C1042.38 418.2 990.12 432.258 929.763 437.988C869.407 443.719 815.437 439.747 783.026 429.021C763.913 422.7 752.295 414.031 751.306 403.61C748.636 375.49 824.196 345.367 920.105 336.261C1016.01 327.155 1095.89 342.545 1098.56 370.64Z" fill="#999999"/>
<path d="M1098.56 370.64C1099.55 381.061 1089.77 391.761 1072.19 401.567C1062.07 407.209 1049.37 412.563 1034.63 417.383C1005.96 426.782 969.615 434.205 929.804 437.984C889.994 441.764 852.861 441.318 822.972 437.479C807.594 435.518 794.107 432.651 783.108 429.014C763.913 422.7 752.295 414.031 751.306 403.61C748.636 375.49 824.196 345.367 920.105 336.261C1016.01 327.155 1095.89 342.545 1098.56 370.64Z" fill="#F1D8D1"/>
<path opacity="0.2" d="M861.489 345.121C796.597 358.618 749.24 381.849 751.306 403.608C752.295 414.029 763.913 422.698 783.026 429.02C791.685 431.799 800.533 433.954 809.5 435.469C810.257 398.011 829.515 366.241 861.489 345.121Z" fill="#9B562E"/>
<path d="M1072.19 401.566C1042.38 418.199 990.119 432.257 929.763 437.987C869.406 443.718 815.437 439.746 783.025 429.02C783.75 406.078 845.661 381.924 923.736 374.511C1001.81 367.098 1067.16 379.169 1072.19 401.566Z" fill="url(#paint2_radial_841_3891)"/>
<path d="M741.473 451.801C741.473 451.801 753.807 450.955 757.038 471.111C761.828 500.999 793.798 488.617 784.026 466.445C773.2 441.871 741.473 451.801 741.473 451.801Z" fill="#EFCEC5"/>
<path d="M833.055 591.574C832.175 592.851 830.351 595.778 830.351 595.778L825.303 591.025C825.303 591.025 810.136 585.138 807.205 581.16C797.446 567.9 781.604 571.073 759.247 568.715C728.351 565.423 688.521 537.359 688.27 492.988C688.139 468.666 700.291 448.252 727.566 439.236C729.37 438.64 731.116 438.14 732.819 437.711C757.779 433.138 773.719 451.119 781.335 461.478C771.543 454.997 758.743 451.99 747.761 454.935C726.307 460.686 708.976 479.798 723.627 513.648C744.833 562.664 805.493 553.809 821.666 561.678C833.812 567.56 840.457 580.699 833.055 591.574Z" fill="#EFCEC5"/>
<path opacity="0.3" d="M743.206 452.469C743.206 452.469 755.539 451.623 758.771 471.779C763.561 501.666 795.53 489.285 785.758 467.113C774.932 442.539 743.206 452.469 743.206 452.469Z" fill="#9B562E"/>
<path d="M833.055 591.574C832.175 592.851 830.351 595.778 830.351 595.778L825.303 591.025C825.303 591.025 810.136 585.138 807.205 581.16C797.446 567.9 781.604 571.073 759.247 568.715C728.351 565.423 688.521 537.359 688.27 492.988C688.139 468.666 700.291 448.252 727.566 439.236C729.37 438.64 731.116 438.14 732.819 437.711C757.779 433.138 774.546 451.04 782.162 461.4C772.369 454.919 758.743 451.99 747.761 454.935C726.307 460.686 709.802 479.719 724.454 513.569C745.659 562.586 805.493 553.809 821.666 561.678C833.812 567.56 840.457 580.699 833.055 591.574Z" fill="#EFCEC5"/>
<path opacity="0.3" d="M832.228 591.652C828.062 596.98 823.366 597.425 823.366 597.425L818.304 592.791C818.304 592.791 809.313 585.257 806.366 581.281C796.606 568.021 780.765 571.194 758.408 568.836C727.512 565.544 687.681 537.481 687.431 493.109C687.299 468.787 699.452 448.373 726.727 439.357C728.53 438.761 730.277 438.261 731.98 437.832C756.94 433.259 772.88 451.24 780.495 461.599C770.703 455.118 758.731 452.033 747.748 454.978C726.295 460.728 709.79 479.762 724.441 513.612C745.647 562.629 804.654 553.93 820.826 561.8C832.985 567.638 840.365 581.316 832.228 591.652Z" fill="#9B562E"/>
<path d="M825.462 591.384C820.452 594.063 815.246 591.686 810.056 584.819C802.427 574.761 783.76 575.591 756.914 570.32C726.429 564.327 685.289 538.207 685.047 493.835C684.907 469.514 697.068 449.099 724.343 440.084C727.394 439.051 730.514 438.233 733.68 437.637C758.64 433.064 773.533 446.17 781.137 456.497C783.711 459.868 785.615 463.701 786.748 467.789C777.359 454.135 762.512 449.153 748.115 451.546C724.807 455.428 703.242 478.805 718.804 514.772C740.008 563.78 803.858 554.072 819.605 562.732C830.048 568.509 835.747 585.834 825.462 591.384Z" fill="#EFCEC5"/>
<path d="M1034.63 417.376C1005.96 426.774 969.614 434.197 929.803 437.977C889.993 441.756 852.86 441.31 822.971 437.471C821.345 420.343 867.427 401.957 925.898 396.405C984.37 390.854 1033.01 400.247 1034.63 417.376Z" fill="url(#paint3_radial_841_3891)"/>
<path opacity="0.8" d="M1040.33 394.863C1043.53 394.56 1046.03 393.388 1045.92 392.246C1045.81 391.104 1043.13 390.424 1039.94 390.728C1036.74 391.031 1034.24 392.203 1034.34 393.345C1034.45 394.487 1037.13 395.167 1040.33 394.863Z" fill="#EFCEC5"/>
<path opacity="0.8" d="M813.583 428.563C818.149 428.129 821.728 426.482 821.576 424.883C821.424 423.285 817.599 422.34 813.033 422.774C808.467 423.207 804.888 424.855 805.04 426.453C805.192 428.052 809.017 428.996 813.583 428.563Z" fill="#EFCEC5"/>
<path opacity="0.8" d="M1033.13 386.225C1033.21 386.97 1032.51 387.728 1031.25 388.432C1030.39 388.89 1029.5 389.268 1028.57 389.563C1023.68 391.04 1018.54 391.528 1013.45 390.999C1012.48 390.884 1011.53 390.681 1010.6 390.393C1009.24 389.938 1008.4 389.325 1008.33 388.58C1008.14 386.571 1013.54 384.414 1020.39 383.764C1027.23 383.114 1032.94 384.216 1033.13 386.225Z" fill="#EFCEC5"/>
<path opacity="0.3" d="M1106.86 370.151C1106.87 370.324 1106.89 370.498 1106.91 370.68C1108.03 382.54 1097.87 394.621 1079.52 405.626C1073.49 409.199 1067.24 412.403 1060.82 415.22C1062.88 422.878 1064.29 430.694 1065.04 438.587C1073.66 529.43 993.951 611.269 886.996 621.424C878.907 622.196 870.783 622.538 862.658 622.45C886.576 633.339 914.98 638.678 948.515 635.494C1037.18 627.076 1079.2 570.88 1097.89 512.083C1117.76 449.846 1111.45 384.711 1106.86 370.151Z" fill="#9B562E"/>
<path opacity="0.4" d="M647.955 489.218C686.23 415.551 729.426 388.551 746.24 384.26C613.61 369.29 569.831 568.945 554.084 621.526C538.338 674.108 493.234 730.688 450.84 753.807C488.845 759.033 517.197 753.755 558.256 703.039C599.315 652.324 600.11 581.301 647.955 489.218Z" fill="white"/>
<g opacity="0.4" filter="url(#filter1_b_841_3891)">
<path d="M409.639 705.502C136.574 755.769 42.6391 595.001 71.1392 468.502C72.6844 475.965 103.604 498.76 136.574 485.458C203.139 436.001 124.565 388.627 239.347 274.002C391.348 122.211 732.348 147.002 919.322 370.124C885.479 334.957 781.812 338.767 701.511 392.915C621.21 447.063 631.099 664.735 409.639 705.502Z" fill="white"/>
</g>
<path opacity="0.4" d="M81.5992 313.77C95.1093 263.85 87.2284 223.123 81.5992 209C106.163 222.096 150.225 257.379 129.96 293.741C109.695 330.102 89.2756 391.064 81.5992 417C75.9701 403.39 68.0892 363.69 81.5992 313.77Z" fill="white"/>
<path opacity="0.4" d="M480.14 95C464.14 120.2 468.473 141.167 472.64 148.5C483.44 106.9 517.473 69.1667 533.14 55.5C522.14 58.1668 496.14 69.8003 480.14 95Z" fill="white"/>
<path opacity="0.4" d="M763.157 247.751C838.193 254.651 875.212 284.038 884.342 297.869C853.774 169.978 669.973 206.489 620.19 212.222C570.408 217.955 507.651 198.193 474.189 168.05C482.153 205.058 495.885 229.134 552.343 247.429C608.801 265.723 669.362 239.126 763.157 247.751Z" fill="white"/>
<g filter="url(#filter2_dddddd_841_3891)">
<path d="M926.996 150.856L945.541 187.63L985.499 177.649L948.725 196.194L958.706 236.152L940.161 199.378L900.203 209.359L936.977 190.814L926.996 150.856Z" fill="white"/>
</g>
<g filter="url(#filter3_dddddd_841_3891)">
<path d="M761.827 692.601L746.36 729.303L778.748 752.482L742.047 737.014L718.868 769.402L734.335 732.701L701.947 709.522L738.649 724.989L761.827 692.601Z" fill="white"/>
</g>
</g>
<defs>
<filter id="filter0_f_841_3891" x="602.838" y="455.303" width="629.086" height="287.772" filterUnits="userSpaceOnUse" color-interpolation-filters="sRGB">
<feFlood flood-opacity="0" result="BackgroundImageFix"/>
<feBlend mode="normal" in="SourceGraphic" in2="BackgroundImageFix" result="shape"/>
<feGaussianBlur stdDeviation="3.42846" result="effect1_foregroundBlur_841_3891"/>
</filter>
<filter id="filter1_b_841_3891" x="32.2495" y="143.805" width="921.073" height="605.141" filterUnits="userSpaceOnUse" color-interpolation-filters="sRGB">
<feFlood flood-opacity="0" result="BackgroundImageFix"/>
<feGaussianBlur in="BackgroundImageFix" stdDeviation="17"/>
<feComposite in2="SourceAlpha" operator="in" result="effect1_backgroundBlur_841_3891"/>
<feBlend mode="normal" in="SourceGraphic" in2="effect1_backgroundBlur_841_3891" result="shape"/>
</filter>
<filter id="filter2_dddddd_841_3891" x="828.383" y="79.0355" width="228.936" height="228.937" filterUnits="userSpaceOnUse" color-interpolation-filters="sRGB">
<feFlood flood-opacity="0" result="BackgroundImageFix"/>
<feColorMatrix in="SourceAlpha" type="matrix" values="0 0 0 0 0 0 0 0 0 0 0 0 0 0 0 0 0 0 127 0" result="hardAlpha"/>
<feOffset/>
<feGaussianBlur stdDeviation="0.855"/>
<feColorMatrix type="matrix" values="0 0 0 0 1 0 0 0 0 1 0 0 0 0 1 0 0 0 1 0"/>
<feBlend mode="normal" in2="BackgroundImageFix" result="effect1_dropShadow_841_3891"/>
<feColorMatrix in="SourceAlpha" type="matrix" values="0 0 0 0 0 0 0 0 0 0 0 0 0 0 0 0 0 0 127 0" result="hardAlpha"/>
<feOffset/>
<feGaussianBlur stdDeviation="1.71"/>
<feColorMatrix type="matrix" values="0 0 0 0 1 0 0 0 0 1 0 0 0 0 1 0 0 0 1 0"/>
<feBlend mode="normal" in2="effect1_dropShadow_841_3891" result="effect2_dropShadow_841_3891"/>
<feColorMatrix in="SourceAlpha" type="matrix" values="0 0 0 0 0 0 0 0 0 0 0 0 0 0 0 0 0 0 127 0" result="hardAlpha"/>
<feOffset/>
<feGaussianBlur stdDeviation="5.985"/>
<feColorMatrix type="matrix" values="0 0 0 0 1 0 0 0 0 1 0 0 0 0 1 0 0 0 1 0"/>
<feBlend mode="normal" in2="effect2_dropShadow_841_3891" result="effect3_dropShadow_841_3891"/>
<feColorMatrix in="SourceAlpha" type="matrix" values="0 0 0 0 0 0 0 0 0 0 0 0 0 0 0 0 0 0 127 0" result="hardAlpha"/>
<feOffset/>
<feGaussianBlur stdDeviation="11.97"/>
<feColorMatrix type="matrix" values="0 0 0 0 1 0 0 0 0 1 0 0 0 0 1 0 0 0 1 0"/>
<feBlend mode="normal" in2="effect3_dropShadow_841_3891" result="effect4_dropShadow_841_3891"/>
<feColorMatrix in="SourceAlpha" type="matrix" values="0 0 0 0 0 0 0 0 0 0 0 0 0 0 0 0 0 0 127 0" result="hardAlpha"/>
<feOffset/>
<feGaussianBlur stdDeviation="20.52"/>
<feColorMatrix type="matrix" values="0 0 0 0 1 0 0 0 0 1 0 0 0 0 1 0 0 0 1 0"/>
<feBlend mode="normal" in2="effect4_dropShadow_841_3891" result="effect5_dropShadow_841_3891"/>
<feColorMatrix in="SourceAlpha" type="matrix" values="0 0 0 0 0 0 0 0 0 0 0 0 0 0 0 0 0 0 127 0" result="hardAlpha"/>
<feOffset/>
<feGaussianBlur stdDeviation="35.91"/>
<feColorMatrix type="matrix" values="0 0 0 0 1 0 0 0 0 1 0 0 0 0 1 0 0 0 1 0"/>
<feBlend mode="normal" in2="effect5_dropShadow_841_3891" result="effect6_dropShadow_841_3891"/>
<feBlend mode="normal" in="SourceGraphic" in2="effect6_dropShadow_841_3891" result="shape"/>
</filter>
<filter id="filter3_dddddd_841_3891" x="630.127" y="620.782" width="220.441" height="220.441" filterUnits="userSpaceOnUse" color-interpolation-filters="sRGB">
<feFlood flood-opacity="0" result="BackgroundImageFix"/>
<feColorMatrix in="SourceAlpha" type="matrix" values="0 0 0 0 0 0 0 0 0 0 0 0 0 0 0 0 0 0 127 0" result="hardAlpha"/>
<feOffset/>
<feGaussianBlur stdDeviation="0.855"/>
<feColorMatrix type="matrix" values="0 0 0 0 1 0 0 0 0 1 0 0 0 0 1 0 0 0 1 0"/>
<feBlend mode="normal" in2="BackgroundImageFix" result="effect1_dropShadow_841_3891"/>
<feColorMatrix in="SourceAlpha" type="matrix" values="0 0 0 0 0 0 0 0 0 0 0 0 0 0 0 0 0 0 127 0" result="hardAlpha"/>
<feOffset/>
<feGaussianBlur stdDeviation="1.71"/>
<feColorMatrix type="matrix" values="0 0 0 0 1 0 0 0 0 1 0 0 0 0 1 0 0 0 1 0"/>
<feBlend mode="normal" in2="effect1_dropShadow_841_3891" result="effect2_dropShadow_841_3891"/>
<feColorMatrix in="SourceAlpha" type="matrix" values="0 0 0 0 0 0 0 0 0 0 0 0 0 0 0 0 0 0 127 0" result="hardAlpha"/>
<feOffset/>
<feGaussianBlur stdDeviation="5.985"/>
<feColorMatrix type="matrix" values="0 0 0 0 1 0 0 0 0 1 0 0 0 0 1 0 0 0 1 0"/>
<feBlend mode="normal" in2="effect2_dropShadow_841_3891" result="effect3_dropShadow_841_3891"/>
<feColorMatrix in="SourceAlpha" type="matrix" values="0 0 0 0 0 0 0 0 0 0 0 0 0 0 0 0 0 0 127 0" result="hardAlpha"/>
<feOffset/>
<feGaussianBlur stdDeviation="11.97"/>
<feColorMatrix type="matrix" values="0 0 0 0 1 0 0 0 0 1 0 0 0 0 1 0 0 0 1 0"/>
<feBlend mode="normal" in2="effect3_dropShadow_841_3891" result="effect4_dropShadow_841_3891"/>
<feColorMatrix in="SourceAlpha" type="matrix" values="0 0 0 0 0 0 0 0 0 0 0 0 0 0 0 0 0 0 127 0" result="hardAlpha"/>
<feOffset/>
<feGaussianBlur stdDeviation="20.52"/>
<feColorMatrix type="matrix" values="0 0 0 0 1 0 0 0 0 1 0 0 0 0 1 0 0 0 1 0"/>
<feBlend mode="normal" in2="effect4_dropShadow_841_3891" result="effect5_dropShadow_841_3891"/>
<feColorMatrix in="SourceAlpha" type="matrix" values="0 0 0 0 0 0 0 0 0 0 0 0 0 0 0 0 0 0 127 0" result="hardAlpha"/>
<feOffset/>
<feGaussianBlur stdDeviation="35.91"/>
<feColorMatrix type="matrix" values="0 0 0 0 1 0 0 0 0 1 0 0 0 0 1 0 0 0 1 0"/>
<feBlend mode="normal" in2="effect5_dropShadow_841_3891" result="effect6_dropShadow_841_3891"/>
<feBlend mode="normal" in="SourceGraphic" in2="effect6_dropShadow_841_3891" result="shape"/>
</filter>
<radialGradient id="paint0_radial_841_3891" cx="0" cy="0" r="1" gradientUnits="userSpaceOnUse" gradientTransform="translate(933.716 636.947) rotate(4.07375) scale(185.123 68.5161)">
<stop offset="0.15" stop-color="#310904"/>
<stop offset="0.41" stop-color="#73514B"/>
<stop offset="0.69" stop-color="#B79993"/>
<stop offset="0.9" stop-color="#E1C7C0"/>
<stop offset="1" stop-color="#F1D8D1"/>
</radialGradient>
<linearGradient id="paint1_linear_841_3891" x1="983.63" y1="697.267" x2="940.764" y2="551.818" gradientUnits="userSpaceOnUse">
<stop stop-color="#127BB8"/>
<stop offset="1" stop-color="#1079B5" stop-opacity="0"/>
</linearGradient>
<radialGradient id="paint2_radial_841_3891" cx="0" cy="0" r="1" gradientUnits="userSpaceOnUse" gradientTransform="translate(958.96 455.22) rotate(169.602) scale(246.168 62.0641)">
<stop stop-color="#D45D79"/>
<stop offset="0.43" stop-color="#D25D79"/>
<stop offset="0.59" stop-color="#CB5B77"/>
<stop offset="0.7" stop-color="#C05875"/>
<stop offset="0.79" stop-color="#AF5571"/>
<stop offset="0.87" stop-color="#99506C"/>
<stop offset="0.93" stop-color="#7E4A67"/>
<stop offset="0.99" stop-color="#5E4360"/>
<stop offset="1" stop-color="#5A425F"/>
</radialGradient>
<radialGradient id="paint3_radial_841_3891" cx="0" cy="0" r="1" gradientUnits="userSpaceOnUse" gradientTransform="translate(951.03 449.061) rotate(170.123) scale(180.053 40.6734)">
<stop stop-color="#D45D79"/>
<stop offset="0.43" stop-color="#D25D79"/>
<stop offset="0.59" stop-color="#CB5B77"/>
<stop offset="0.7" stop-color="#C05875"/>
<stop offset="0.79" stop-color="#AF5571"/>
<stop offset="0.87" stop-color="#99506C"/>
<stop offset="0.93" stop-color="#7E4A67"/>
<stop offset="0.99" stop-color="#5E4360"/>
<stop offset="1" stop-color="#5A425F"/>
</radialGradient>
</defs>
</svg>
