<svg width="76" height="44" viewBox="0 0 76 44" fill="none" xmlns="http://www.w3.org/2000/svg">
<path d="M26.862 24.4957C26.862 25.6003 25.9666 26.4957 24.862 26.4957H19.9928C18.8882 26.4957 17.9928 27.3912 17.9928 28.4957V33.3649C17.9928 34.4695 17.0974 35.3649 15.9928 35.3649H11.0069C9.90233 35.3649 9.0069 34.4695 9.0069 33.3649V28.4957C9.0069 27.3912 8.11146 26.4957 7.0069 26.4957H2.1377C1.03313 26.4957 0.137695 25.6003 0.137695 24.4957V19.5098C0.137695 18.4053 1.03313 17.5098 2.1377 17.5098H7.00689C8.11146 17.5098 9.0069 16.6144 9.0069 15.5098V10.6406C9.0069 9.53606 9.90233 8.64062 11.0069 8.64062H15.9928C17.0974 8.64062 17.9928 9.53606 17.9928 10.6406V15.5098C17.9928 16.6144 18.8882 17.5098 19.9928 17.5098H24.862C25.9666 17.5098 26.862 18.4053 26.862 19.5098V24.4957Z" fill="#69AB46"/>
<path d="M45.4012 21.6318L59.3293 4.39906C60.5145 2.9326 62.8848 3.7707 62.8848 5.65625V17.5966C62.8848 18.7012 63.7802 19.5966 64.8848 19.5966H71.6343C73.3228 19.5966 74.2515 21.5599 73.1805 22.8652L59.386 39.6779C58.1947 41.1299 55.8398 40.2875 55.8398 38.4093V27.0867C55.8398 26.0043 54.9787 25.1183 53.8968 25.0875L46.8998 24.8881C45.2452 24.841 44.3608 22.9191 45.4012 21.6318Z" fill="#69AB46"/>
</svg>
