<svg width="204" height="144" viewBox="0 0 204 144" fill="none" xmlns="http://www.w3.org/2000/svg">
<path d="M0 0H203.865V113.642C203.865 130.21 190.434 143.642 173.865 143.642H0V0Z" fill="white"/>
<path fill-rule="evenodd" clip-rule="evenodd" d="M47.0037 48.0415C48.2752 40.37 53.3613 35 63.0247 35C74.7225 35 80.0628 42.6715 80.3171 52.9001C80.3171 63.1287 74.9768 70.8001 63.279 70.8001C53.3613 70.8001 48.2752 65.1744 47.0037 56.9915H42.6806V70.2887H32V35.7671H42.6806V48.0415H47.0037ZM56.6672 53.1558C56.6672 58.5258 58.193 62.3615 63.0247 62.3615C67.8564 62.1058 69.3822 58.2701 69.3822 53.1558C69.3822 47.7857 67.8564 43.95 63.0247 43.95C58.193 43.95 56.6672 47.7857 56.6672 53.1558ZM127.871 35.7671V55.4571C127.871 59.8043 129.651 60.8272 132.957 60.8272H137.535V35.7671H147.961V70.0329H132.194C122.277 70.0329 117.445 65.43 117.445 55.4571V35.7671H127.871ZM89.2177 107.623V87.933C89.2177 83.8416 87.4376 82.563 84.1316 82.563H79.5542V107.623H69.1279V73.3573H84.8945C94.8123 73.3573 99.644 77.9601 99.644 87.933V107.623H89.2177ZM103.204 48.0414H93.2865V35.7671H82.8601V70.0329H93.5408V56.9915H103.204V70.0329H113.885V35.7671H103.204V48.0414ZM154.827 72.5902C143.129 72.5902 137.789 80.2617 137.789 90.4903C137.789 100.975 143.129 108.39 154.827 108.39C166.525 108.39 171.865 100.719 171.865 90.4903C171.865 80.2617 166.525 72.5902 154.827 72.5902ZM154.827 99.9516C149.996 99.9516 148.47 96.1158 148.47 90.7458C148.47 85.3758 150.25 81.5401 154.827 81.5401C159.659 81.5401 161.185 85.3758 161.185 90.7458C161.185 95.8601 159.659 99.9516 154.827 99.9516ZM113.885 107.879H117.954C129.397 107.879 135.755 102.253 135.755 90.7459C135.755 79.2387 129.397 73.6129 117.954 73.6129H103.204V119.642H113.631V107.879H113.885ZM113.885 98.4174V82.5631H117.445C122.277 82.5631 125.074 84.3531 125.074 90.4903C125.074 96.3717 122.277 98.4174 117.445 98.4174H113.885Z" fill="#0078DC"/>
</svg>
