<svg width="775" height="317" viewBox="0 0 775 317" fill="none" xmlns="http://www.w3.org/2000/svg">
<mask id="mask0_806_5192" style="mask-type:alpha" maskUnits="userSpaceOnUse" x="0" y="0" width="775" height="317">
<rect width="775" height="317" fill="#D9D9D9"/>
</mask>
<g mask="url(#mask0_806_5192)">
<path d="M122.701 288.396V206.229C122.701 188.348 135.375 172.976 152.927 169.566L607.16 81.3263C630.213 76.848 651.63 94.5048 651.63 117.989V194.453C651.63 212.525 638.692 228.004 620.907 231.209L154.789 315.218C138.072 318.231 122.701 305.383 122.701 288.396Z" fill="url(#paint0_linear_806_5192)"/>
<g filter="url(#filter0_d_806_5192)">
<path d="M737.143 60.1878L751.428 57.669C755.369 56.9741 758.563 53.167 758.563 49.1654V34.6604C758.563 30.6589 755.369 27.9783 751.428 28.6732L737.143 31.1919C733.202 31.8868 730.008 35.694 730.008 39.6955V54.2005C730.008 58.202 733.202 60.8826 737.143 60.1878ZM737.143 93.3052L751.428 90.7864C755.369 90.0915 758.563 86.2844 758.563 82.2828V67.7778C758.563 63.7763 755.369 61.0957 751.428 61.7906L737.143 64.3093C733.202 65.0042 730.008 68.8114 730.008 72.8129V87.3179C730.008 91.3194 733.202 94 737.143 93.3052Z" fill="white" stroke="#0078DC" stroke-width="5.43405"/>
<path d="M702.02 99.4987L715.961 97.0406C720.913 96.1674 724.359 90.563 722.666 86.136L692.523 7.3079C691.498 4.62584 688.818 3.19268 685.818 3.72169L674.661 5.68885C671.661 6.21786 668.982 8.59603 667.956 11.6398L637.813 101.098C636.12 106.122 639.566 110.511 644.518 109.638L658.517 107.17C661.596 106.627 664.327 104.14 665.293 101.001L667.783 92.9039C668.024 92.1192 668.707 91.4975 669.477 91.3618L691.202 87.531C691.983 87.3934 692.673 87.7875 692.905 88.5037L695.208 95.6083C696.136 98.4731 698.897 100.049 702.02 99.4987ZM682.384 56.4395L684.17 61.8688C684.533 62.9722 683.675 64.3129 682.469 64.5255L678.777 65.1765C677.557 65.3916 676.697 64.3277 677.087 63.0851L678.992 57.0048C679.543 55.2469 681.864 54.8601 682.384 56.4395Z" fill="white" stroke="#0078DC" stroke-width="5.43405"/>
<path d="M567.672 123.185L581.313 120.78C585.253 120.085 588.448 116.278 588.448 112.277V85.2534C588.448 83.3898 590.886 82.311 591.786 83.7762L609.233 112.166C610.497 114.223 612.873 115.215 615.45 114.761L631.444 111.941C637.017 110.958 640.439 104.157 637.531 99.8418L613.095 63.5757C612.74 63.049 612.746 62.305 613.11 61.6575L634.348 23.9215C637.362 18.5662 633.949 12.865 628.323 13.857L613.115 16.5386C610.551 16.9907 608.184 18.8047 606.915 21.2905L591.782 50.9308C590.876 52.7056 588.448 52.4807 588.448 50.622V28.1335C588.448 24.1319 585.253 21.4513 581.313 22.1462L567.672 24.5513C563.732 25.2462 560.537 29.0533 560.537 33.0549V117.198C560.537 121.2 563.732 123.88 567.672 123.185Z" fill="white" stroke="#0078DC" stroke-width="5.43405"/>
<path d="M526.524 130.439L540.164 128.034C544.104 127.339 547.299 123.532 547.299 119.53V35.3873C547.299 31.3857 544.104 28.7051 540.164 29.4L527.452 31.6414C524.922 32.0875 522.582 33.8602 521.3 36.3008L501.506 73.9954C500.585 75.7492 498.184 75.5093 498.184 73.6635V44.0475C498.184 40.046 494.99 37.3654 491.049 38.0603L477.409 40.4654C473.468 41.1602 470.273 44.9674 470.273 48.9689V133.112C470.273 137.114 473.468 139.794 477.409 139.099L490.12 136.858C492.65 136.412 494.991 134.639 496.272 132.199L516.066 94.5039C516.987 92.7501 519.388 92.99 519.388 94.8359V124.452C519.388 128.453 522.583 131.134 526.524 130.439Z" fill="white" stroke="#0078DC" stroke-width="5.43405"/>
<path d="M428.339 74.9746L456.03 70.0919C459.971 69.3971 463.166 65.5899 463.166 61.5884V50.2249C463.166 46.2234 459.971 43.5428 456.03 44.2377L405.78 53.0982C401.839 53.793 398.645 57.6002 398.645 61.6017V145.745C398.645 149.746 401.839 152.427 405.78 151.732L419.42 149.327C423.361 148.632 426.555 144.825 426.555 140.824V77.1005C426.555 76.1001 427.354 75.1484 428.339 74.9746Z" fill="white" stroke="#0078DC" stroke-width="5.43405"/>
<path d="M323.247 155.767L323.251 155.77C330.515 162.149 339.619 164.188 350.96 162.188C362.034 160.235 371.279 154.966 378.423 146.029C388.137 134.017 388.442 121.233 388.442 109.273V97.2299C388.442 83.3067 385.491 74.6746 378.413 68.4482L378.412 68.447C371.144 62.0648 361.909 60.0526 350.702 62.0286C339.63 63.9809 330.387 69.2486 323.243 78.1828C319.361 82.9527 316.799 87.6531 315.252 93.586C313.733 99.4086 313.221 106.314 313.221 115.468V122.274C313.221 133.529 313.252 146.951 323.247 155.767ZM360.531 106.471V112.885C360.531 118.806 360.304 122.947 359.811 125.992C359.323 129.004 358.607 130.735 357.761 131.971C356.25 134.151 353.699 135.851 350.831 136.356C347.963 136.862 345.412 136.062 343.901 134.414C343.056 133.477 342.339 131.998 341.851 129.159C341.358 126.287 341.131 122.226 341.131 116.306V109.892C341.131 105.583 341.354 101.781 341.852 98.6593C342.358 95.4883 343.1 93.3429 343.919 92.0897C345.399 89.9677 347.791 88.3962 350.831 87.8601C353.871 87.324 356.263 88.052 357.744 89.6518C358.562 90.6164 359.304 92.5002 359.81 95.493C360.308 98.4392 360.531 102.162 360.531 106.471Z" fill="white" stroke="#0078DC" stroke-width="5.43405"/>
<path d="M282.227 173.521L295.867 171.116C299.808 170.421 303.002 166.614 303.002 162.612V78.4688C303.002 74.4673 299.808 71.7867 295.867 72.4816L244.456 81.5467C240.515 82.2415 237.321 86.0487 237.321 90.0502V130.289C237.321 142.069 235.915 148.668 233.931 152.381C232.99 154.141 231.938 155.214 230.821 155.938C229.658 156.692 228.24 157.186 226.461 157.499C223.488 158.024 221.078 160.896 221.078 163.914V177.057C221.078 181.059 224.273 183.74 228.213 183.045L232.391 182.308C242.73 180.485 251.159 176.522 256.741 167.242C262.101 158.331 264.458 145.065 264.458 125.504V105.685C264.458 104.685 265.257 103.733 266.242 103.559L273.308 102.314C274.293 102.14 275.092 102.81 275.092 103.81V167.533C275.092 171.535 278.286 174.216 282.227 173.521Z" fill="white" stroke="#0078DC" stroke-width="5.43405"/>
<path d="M211.29 176.924L211.301 176.909L211.312 176.895C214.468 172.85 216.593 168.835 217.894 163.955C219.171 159.162 219.623 153.648 219.623 146.627C219.623 139.669 219.171 134.317 217.894 129.961C216.596 125.528 214.474 122.228 211.312 119.289L211.301 119.279L211.29 119.269C206.719 115.143 199.075 111.536 187.04 113.658C175.005 115.78 167.361 122.083 162.79 127.821L162.779 127.835L162.768 127.849C159.606 131.902 157.484 135.951 156.186 140.841C154.909 145.648 154.457 151.16 154.457 158.117C154.457 165.138 154.909 170.493 156.186 174.835C157.487 179.257 159.612 182.522 162.768 185.455L162.779 185.465L162.79 185.475C167.361 189.601 175.005 193.209 187.04 191.086C199.075 188.964 206.719 182.662 211.29 176.924ZM190.82 138.966C191.63 139.646 192.253 140.848 192.641 142.965C193.03 145.09 193.13 147.837 193.13 151.298C193.13 154.76 193.03 157.542 192.641 159.804C192.253 162.058 191.63 163.48 190.82 164.445C190.186 165.201 189.16 165.906 187.04 166.279C184.92 166.653 183.894 166.31 183.26 165.778C182.45 165.099 181.827 163.896 181.439 161.78C181.05 159.654 180.95 156.908 180.95 153.446C180.95 149.984 181.05 147.202 181.439 144.94C181.827 142.686 182.45 141.264 183.26 140.299C183.894 139.544 184.92 138.839 187.04 138.465C189.16 138.091 190.186 138.434 190.82 138.966Z" fill="white" stroke="#0078DC" stroke-width="5.43405"/>
<path d="M94.1705 206.682L106.522 204.505C110.462 203.81 113.657 200.003 113.657 196.001V181.989C113.657 180.097 116.154 179.031 117.02 180.554L126.438 197.114C127.67 199.282 130.104 200.346 132.756 199.879L147 197.367C152.523 196.393 155.952 189.69 153.144 185.355L136.607 159.823C136.262 159.291 136.279 158.548 136.649 157.906L151.654 131.891C154.748 126.526 151.343 120.744 145.677 121.743L132.262 124.108C129.701 124.56 127.336 126.371 126.066 128.854L116.99 146.598C116.083 148.371 113.657 148.146 113.657 146.288V134.634C113.657 130.633 110.462 127.952 106.522 128.647L94.1705 130.825C90.2298 131.52 87.0352 135.327 87.0352 139.328V200.695C87.0352 204.697 90.2298 207.377 94.1705 206.682Z" fill="white" stroke="#0078DC" stroke-width="5.43405"/>
<path d="M25.1123 184.362L11.2474 186.807C6.96116 187.563 3.25559 192.232 4.56695 196.65C7.0557 205.036 11.832 210.898 18.1988 214.253C24.5445 217.596 32.3186 218.37 40.6768 216.897C52.0846 214.885 60.887 209.383 68.0931 200.795C78.2081 188.74 78.1839 175.167 78.1605 162.065C78.1594 161.437 78.1583 160.811 78.1583 160.185C78.1583 159.56 78.1594 158.933 78.1605 158.305C78.1839 145.194 78.2081 131.613 68.0931 123.125C60.887 117.079 52.0846 114.68 40.6768 116.692C32.3186 118.166 24.5445 121.682 18.1988 127.263C11.832 132.863 7.0557 140.409 4.56695 149.673C3.25558 154.554 6.96117 157.916 11.2474 157.16L25.1123 154.715C28.353 154.144 30.8347 151.519 32.0219 148.82C32.7924 147.068 33.7721 145.616 35.0509 144.505C36.3106 143.41 38.0439 142.487 40.5479 142.045C44.019 141.433 46.4405 142.485 47.711 143.914C48.6797 145.031 49.5282 146.309 50.0965 150.612C50.202 151.411 49.5397 152.435 48.4387 152.629L33.2767 155.303C29.3359 155.998 26.1413 159.805 26.1413 163.807V174.646C26.1413 178.648 29.3359 181.328 33.2767 180.634L48.5763 177.936C49.6757 177.742 50.3337 178.531 50.2285 179.362C49.9211 181.789 49.5289 183.359 49.1182 184.486C48.7233 185.57 48.2753 186.344 47.711 187.194C46.4405 189.071 44.019 190.977 40.5479 191.589C38.0439 192.03 36.3106 191.718 35.0509 191.068C33.7721 190.408 32.7924 189.301 32.0219 187.821C30.8347 185.54 28.353 183.791 25.1123 184.362Z" fill="white" stroke="#0078DC" stroke-width="5.43405"/>
</g>
<path d="M202.242 274.389L195.838 275.519V269.944L182.723 272.257V277.831L176.319 278.96V267.347L178.987 266.876C180.893 261.392 181.732 255.786 181.732 246.031V244.869L199.154 241.797V263.321L202.242 262.776V274.389ZM192.483 264.497V249.013L188.213 249.765V250.54C188.213 257.082 187.184 261.405 185.773 265.68L192.483 264.497ZM224.162 264.95L205.711 268.203V240.641L224.162 237.388V243.427L212.382 245.504V250.11L222.447 248.336V254.375L212.382 256.149V260.988L224.162 258.911V264.95ZM246.136 226.313C246.021 230.901 242.514 232.836 239.579 233.353C236.643 233.871 233.136 233.173 233.022 228.625L237.558 227.825C237.635 229.36 238.511 229.709 239.579 229.521C240.646 229.333 241.523 228.675 241.599 227.113L246.136 226.313ZM250.101 260.376L243.429 261.553V246.533L234.737 263.085L228.904 264.114V236.552L235.576 235.375V250.395L244.268 233.843L250.101 232.814V260.376ZM275.307 247.183C274.316 253.435 270.161 257.071 265.014 257.979C261.85 258.537 259.448 257.876 257.466 256.213C254.607 253.814 254.721 249.923 254.721 245.78C254.721 241.638 254.607 237.788 257.466 234.38C259.448 232.018 261.85 230.51 265.014 229.952C270.161 229.045 274.316 231.215 275.307 237.118L268.521 238.315C268.102 236.84 267.263 235.595 265.052 235.984C263.832 236.199 262.917 236.864 262.422 237.61C261.812 238.53 261.392 239.572 261.392 244.604C261.392 249.637 261.812 250.53 262.422 251.236C262.917 251.806 263.832 252.148 265.052 251.933C267.263 251.543 268.102 250.002 268.521 248.379L275.307 247.183ZM296.87 230.606L290.198 231.783V253.306L283.527 254.482V232.959L276.855 234.135V228.097L296.87 224.567V230.606ZM321.038 239.777C321.038 244.694 317.721 248.453 312.575 249.36L300.757 251.444V223.882L312.003 221.899C317.302 220.965 320.657 223.393 320.657 228.115C320.657 230.554 319.78 232.412 317.683 234.33C320.085 235.455 321.038 236.99 321.038 239.777ZM313.985 229.872C313.985 228.479 313.108 227.782 311.583 228.051L307.428 228.783V233.274L311.583 232.541C313.108 232.272 313.985 231.266 313.985 229.872ZM314.366 240.528C314.366 239.018 313.451 238.289 311.927 238.558L307.428 239.351V244.19L311.927 243.397C313.451 243.128 314.366 242.038 314.366 240.528ZM345.83 215.934L336.299 240.338C335.27 242.958 333.287 245.708 329.818 246.32L326.12 246.972V240.933L328.484 240.516C330.543 240.153 331.229 238.445 331.496 237.314L322.918 219.974L329.933 218.738L334.698 229.433L339.006 217.138L345.83 215.934ZM365.79 205.215C365.676 209.803 362.169 211.737 359.233 212.255C356.298 212.773 352.79 212.075 352.676 207.527L357.213 206.727C357.289 208.262 358.166 208.611 359.233 208.423C360.301 208.234 361.177 207.577 361.254 206.015L365.79 205.215ZM369.755 239.278L363.084 240.454V225.434L354.392 241.987L348.559 243.015V215.453L355.23 214.277V229.297L363.922 212.744L369.755 211.716V239.278ZM404.137 233.215L397.465 234.392V212.869L390.375 214.119V235.642L383.703 236.818V209.256L404.137 205.653V233.215ZM429.629 210.023C429.629 215.172 425.779 219.567 420.365 220.521L416.286 221.241V231.073L409.615 232.25V204.688L420.365 202.792C425.74 201.844 429.629 204.875 429.629 210.023ZM422.958 211.2C422.958 209.612 421.738 208.627 420.06 208.923L416.286 209.589V215.163L420.06 214.498C421.738 214.202 422.958 212.787 422.958 211.2ZM453.766 224.464L446.79 225.695L445.532 221.813L437.183 223.285L435.849 227.624L428.872 228.854L438.746 199.551L443.892 198.643L453.766 224.464ZM443.778 216.47L441.491 209.519L439.051 217.304L443.778 216.47ZM476.805 212.312C476.805 217.228 473.488 220.987 468.341 221.894L456.523 223.978V196.416L467.769 194.433C473.069 193.499 476.423 195.927 476.423 200.649C476.423 203.088 475.546 204.946 473.45 206.864C475.851 207.989 476.805 209.524 476.805 212.312ZM469.752 202.407C469.752 201.013 468.875 200.316 467.35 200.585L463.195 201.317V205.808L467.35 205.075C468.875 204.806 469.752 203.8 469.752 202.407ZM470.133 213.062C470.133 211.552 469.218 210.823 467.693 211.092L463.195 211.886V216.724L467.693 215.931C469.218 215.662 470.133 214.572 470.133 213.062ZM502.626 215.849L495.954 217.026V202.006L487.262 218.558L481.43 219.587V192.025L488.101 190.848V205.868L496.793 189.316L502.626 188.287V215.849ZM528.404 211.304L521.733 212.48V190.957L517.005 191.79V198.991C517.005 210.526 514.184 213.811 508.313 214.846L505.759 215.297V209.258L506.56 209.117C508.923 208.7 510.563 207.133 510.563 200.127V186.888L528.404 183.742V211.304ZM553.9 197.943C553.9 203.092 550.202 207.46 544.827 208.408L533.885 210.337V182.775L540.557 181.599V191.431L544.827 190.679C550.24 189.724 553.9 192.795 553.9 197.943ZM547.228 199.12C547.228 197.533 546.008 196.548 544.331 196.843L540.557 197.509V203.122L544.331 202.457C546.008 202.161 547.228 200.707 547.228 199.12ZM578.22 202.52L571.549 203.696V192.78L564.458 194.03V204.946L557.787 206.123V178.561L564.458 177.384V187.991L571.549 186.741V176.134L578.22 174.958V202.52ZM603.484 181.845V185.407C603.484 188.968 603.369 192.434 600.739 195.685C598.795 198.118 596.278 199.568 593.191 200.112C590.026 200.67 587.548 200.101 585.566 198.36C582.859 195.973 582.821 192.341 582.821 188.973V186.96C582.821 181.579 583.431 179.149 585.566 176.527C587.51 174.094 590.026 172.644 593.114 172.099C596.24 171.548 598.756 172.111 600.739 173.852C602.645 175.529 603.484 177.858 603.484 181.845ZM596.812 186.196V184.299C596.812 181.706 596.545 179.701 595.821 178.861C595.211 178.194 594.258 177.937 593.152 178.131C592.047 178.326 591.094 178.92 590.484 179.802C589.759 180.898 589.493 182.996 589.493 185.59V187.487C589.493 191.009 589.759 192.511 590.484 193.312C591.094 193.979 592.085 194.268 593.152 194.08C594.22 193.892 595.211 193.253 595.821 192.371C596.545 191.314 596.812 189.719 596.812 186.196Z" fill="#19426B"/>
</g>
<defs>
<filter id="filter0_d_806_5192" x="1.61328" y="0.851562" width="771.863" height="231.754" filterUnits="userSpaceOnUse" color-interpolation-filters="sRGB">
<feFlood flood-opacity="0" result="BackgroundImageFix"/>
<feColorMatrix in="SourceAlpha" type="matrix" values="0 0 0 0 0 0 0 0 0 0 0 0 0 0 0 0 0 0 127 0" result="hardAlpha"/>
<feOffset dx="12.2383" dy="12.2383"/>
<feComposite in2="hardAlpha" operator="out"/>
<feColorMatrix type="matrix" values="0 0 0 0 0.0980392 0 0 0 0 0.258824 0 0 0 0 0.419608 0 0 0 1 0"/>
<feBlend mode="normal" in2="BackgroundImageFix" result="effect1_dropShadow_806_5192"/>
<feBlend mode="normal" in="SourceGraphic" in2="effect1_dropShadow_806_5192" result="shape"/>
</filter>
<linearGradient id="paint0_linear_806_5192" x1="370.637" y1="283.897" x2="346.157" y2="139.066" gradientUnits="userSpaceOnUse">
<stop stop-color="white"/>
<stop offset="0.640518" stop-color="white"/>
<stop offset="1" stop-color="white" stop-opacity="0"/>
</linearGradient>
</defs>
</svg>
