<svg width="401" height="410" viewBox="0 0 401 410" fill="none" xmlns="http://www.w3.org/2000/svg">
<mask id="mask0_851_5920" style="mask-type:luminance" maskUnits="userSpaceOnUse" x="0" y="0" width="401" height="410">
<path d="M0 409.238H400.032V0.971394L11.5174 0L0 409.238Z" fill="white"/>
</mask>
<g mask="url(#mask0_851_5920)">
<path d="M394.137 429.153L398.258 0.964844H-31.9766L-27.8627 429.153H394.137Z" fill="#7C5481"/>
<path d="M373.259 429.155L376.983 10.5703H-12.0762L-8.35235 429.155H373.259Z" fill="url(#paint0_radial_851_5920)"/>
<path d="M374.686 264.362L-8.66016 267.105L-8.65536 267.775L374.69 265.032L374.686 264.362Z" fill="#A27EA8"/>
<path d="M375.219 185.589L-10.8711 188.352L-10.8663 189.021L375.224 186.258L375.219 185.589Z" fill="#A27EA8"/>
<path d="M377.1 93.5787L-10.9336 96.3555L-10.9288 97.0251L377.105 94.2483L377.1 93.5787Z" fill="#A27EA8"/>
<path d="M376.633 44.6334L-11.4004 47.4102L-11.3956 48.0799L376.638 45.3031L376.633 44.6334Z" fill="#A27EA8"/>
<path d="M376.04 221.077L376.047 220.4L-10.4731 213.07L-10.4805 213.74L376.04 221.077Z" fill="#A27EA8"/>
<path d="M375.612 141.558L375.619 140.888L-10.9668 138.879V139.549L375.612 141.558Z" fill="#A27EA8"/>
<path d="M178.508 139.748C178.508 140.331 178.68 140.9 179.004 141.384C179.327 141.868 179.787 142.245 180.325 142.468C180.863 142.691 181.455 142.749 182.026 142.636C182.597 142.522 183.121 142.242 183.533 141.83C183.945 141.418 184.225 140.894 184.339 140.323C184.452 139.752 184.394 139.16 184.171 138.622C183.948 138.084 183.571 137.624 183.087 137.301C182.603 136.977 182.034 136.805 181.452 136.805C180.671 136.805 179.922 137.115 179.37 137.667C178.818 138.219 178.508 138.968 178.508 139.748Z" fill="#7C5481"/>
<path d="M179.707 265.35C179.707 265.932 179.88 266.501 180.203 266.985C180.527 267.469 180.986 267.847 181.524 268.07C182.062 268.292 182.654 268.351 183.225 268.237C183.796 268.124 184.321 267.843 184.732 267.431C185.144 267.02 185.424 266.495 185.538 265.924C185.651 265.353 185.593 264.761 185.37 264.223C185.147 263.686 184.77 263.226 184.286 262.902C183.802 262.579 183.233 262.406 182.651 262.406C181.87 262.406 181.121 262.716 180.569 263.268C180.017 263.821 179.707 264.569 179.707 265.35Z" fill="#7C5481"/>
<path d="M179.539 95.4867C179.539 96.0689 179.712 96.6381 180.035 97.1222C180.359 97.6063 180.818 97.9836 181.356 98.2064C181.894 98.4292 182.486 98.4875 183.057 98.3739C183.628 98.2604 184.153 97.98 184.564 97.5683C184.976 97.1566 185.256 96.6321 185.37 96.061C185.484 95.49 185.425 94.8982 185.202 94.3603C184.98 93.8224 184.602 93.3626 184.118 93.0391C183.634 92.7157 183.065 92.543 182.483 92.543C181.702 92.543 180.953 92.8532 180.401 93.4052C179.849 93.9573 179.539 94.706 179.539 95.4867Z" fill="#7C5481"/>
<path d="M179.539 46.7758C179.539 47.358 179.712 47.9271 180.035 48.4112C180.359 48.8953 180.818 49.2727 181.356 49.4955C181.894 49.7183 182.486 49.7765 183.057 49.6629C183.628 49.5493 184.153 49.269 184.564 48.8573C184.976 48.4456 185.256 47.9211 185.37 47.3501C185.484 46.7791 185.425 46.1871 185.202 45.6492C184.98 45.1113 184.602 44.6516 184.118 44.3281C183.634 44.0046 183.065 43.832 182.483 43.832C181.702 43.832 180.953 44.1422 180.401 44.6943C179.849 45.2463 179.539 45.995 179.539 46.7758Z" fill="#7C5481"/>
<path d="M368.747 10.5703L363.949 429.155H373.259L376.983 10.5703H368.747Z" fill="url(#paint1_radial_851_5920)"/>
<path d="M-5.21727 10.5703L0.272803 429.155H-9.33114L-12.0762 10.5703H-5.21727Z" fill="url(#paint2_radial_851_5920)"/>
<path d="M260.609 62.1875L258.321 122.115L102.332 121.651V63.5563L260.609 62.1875Z" fill="url(#paint3_linear_851_5920)"/>
<path d="M251.373 67.7031L249.232 119.277L103.502 118.887V68.8806L251.373 67.7031Z" fill="#FFEDD7"/>
<path style="mix-blend-mode:multiply" opacity="0.5" d="M260.609 62.1875L251.373 67.6996L103.502 68.8771L102.332 63.5563L260.609 62.1875Z" fill="url(#paint4_linear_851_5920)"/>
<path style="mix-blend-mode:multiply" opacity="0.5" d="M398.258 0.96362L376.982 10.5676L373.259 429.152L347.994 430.241L332.216 26.7581L5.59318 28.8114V429.557L-9.33156 429.152L-12.0766 10.5676L-36.9512 -0.0078125L398.258 0.96362Z" fill="url(#paint5_linear_851_5920)"/>
<path d="M-2.8418 178.109L365.744 180.678L363.948 429.151H0.271205L-2.8418 178.109Z" fill="#FFEDD7"/>
<path d="M232.635 47.3941C232.665 47.5545 232.741 47.7029 232.853 47.8219C232.965 47.941 233.108 48.0256 233.266 48.0662C233.425 48.1068 233.591 48.1015 233.747 48.051C233.902 48.0005 234.04 47.9069 234.144 47.7811C234.248 47.6552 234.314 47.5023 234.335 47.3402C234.355 47.1782 234.329 47.0136 234.26 46.8658C234.19 46.718 234.08 46.593 233.942 46.5054C233.804 46.4178 233.644 46.3712 233.481 46.3711C233.233 46.3953 233.006 46.5165 232.847 46.7082C232.689 46.8998 232.612 47.1464 232.635 47.3941Z" fill="url(#paint6_linear_851_5920)"/>
<path d="M123.525 45.8335C123.482 46.1299 123.53 46.4325 123.663 46.7009C123.796 46.9692 124.008 47.1906 124.27 47.3354C124.532 47.4802 124.833 47.5415 125.131 47.5112C125.429 47.4808 125.71 47.3603 125.938 47.1656C126.166 46.9709 126.329 46.7113 126.405 46.4217C126.481 46.132 126.467 45.8259 126.365 45.5443C126.263 45.2628 126.077 45.0191 125.833 44.8459C125.588 44.6727 125.297 44.5782 124.997 44.5751C124.818 44.56 124.637 44.5807 124.466 44.636C124.294 44.6912 124.135 44.7799 123.998 44.897C123.862 45.014 123.749 45.1571 123.668 45.3178C123.587 45.4786 123.538 45.6539 123.525 45.8335Z" fill="url(#paint7_linear_851_5920)"/>
<path d="M12.2673 -92.8367L-33.0221 -93.293L-37.5996 438.265H-2.14966L12.2673 -92.8367Z" fill="url(#paint8_radial_851_5920)"/>
<path d="M-23.1311 -51.3828L-27.4805 -46.8053V15.6387H2.48678L5.91623 11.4071L-23.1311 -51.3828Z" fill="#7C5481"/>
<path d="M7.29153 -51.2664L5.91534 11.4058H-23.8164V-51.7227L7.29153 -51.2664Z" fill="url(#paint9_radial_851_5920)"/>
<path d="M-4.946 4.99609L3.28906 4.99609L3.28906 1.44893L-4.946 1.44893V4.99609Z" fill="#F43D88"/>
<path d="M3.75984 208.016C3.98288 207.988 4.19685 207.911 4.38644 207.79C4.57603 207.669 4.73652 207.508 4.85637 207.317C14.4898 195.042 9.22048 75.8058 8.73476 70.853L7.74863 70.9929C7.86638 72.1998 13.4373 194.468 4.17191 206.28C3.79659 206.758 3.57585 206.626 3.48018 206.567C-2.81206 202.703 -8.59649 89.5016 -10.9515 14.3553L-11.4004 14.1641C-10.7969 33.394 -5.80731 202.364 3.11221 207.84C3.30585 207.961 3.53124 208.023 3.75984 208.016Z" fill="#7C5481"/>
<path d="M-19.3042 298.208C-18.8386 298.185 -18.3836 298.062 -17.9697 297.847C-17.5558 297.632 -17.1928 297.332 -16.9051 296.965C3.70111 274.607 -2.63529 25.957 -2.9223 15.3816L-3.87169 15.2933C-3.80545 17.8765 1.67727 273.842 -18.3917 295.596C-19.0687 296.332 -19.3925 296.2 -19.4956 296.155C-32.3229 291.077 -35.1489 73.7781 -33.9126 -71.0391H-35.929C-36.2455 -34.0216 -38.4827 290.834 -20.2389 298.054C-19.9396 298.163 -19.6226 298.215 -19.3042 298.208Z" fill="#7C5481"/>
<path style="mix-blend-mode:color-dodge" opacity="0.2" d="M-34.7656 252.082L2.00165 290.402L1.11853 323.136L-34.7656 289.813V252.082Z" fill="url(#paint10_linear_851_5920)"/>
<path style="mix-blend-mode:color-dodge" opacity="0.2" d="M5.22457 171.535L2.09685 285.862L-34.7734 232.875L-32.7275 117.605C-32.7275 117.605 -9.61187 150.141 5.22457 171.535Z" fill="url(#paint11_linear_851_5920)"/>
<path style="mix-blend-mode:multiply" opacity="0.5" d="M-0.94194 27.5835L-29.7832 27.9147L-27.4797 -46.8047L-26.4789 15.2125L1.37625 14.7415L-0.94194 27.5835Z" fill="url(#paint12_linear_851_5920)"/>
<path d="M403.035 438.265L407.605 -93.293L401.887 -85.7423L396.396 438.493L403.035 438.265Z" fill="#7C5481"/>
</g>
<defs>
<radialGradient id="paint0_radial_851_5920" cx="0" cy="0" r="1" gradientUnits="userSpaceOnUse" gradientTransform="translate(182.453 303.399) rotate(180) scale(523.735 523.735)">
<stop stop-color="#F5DBA0"/>
<stop offset="1" stop-color="#F5B293"/>
</radialGradient>
<radialGradient id="paint1_radial_851_5920" cx="0" cy="0" r="1" gradientUnits="userSpaceOnUse" gradientTransform="translate(370.462 219.87) rotate(180) scale(148.062 148.063)">
<stop stop-color="#E3E1EA"/>
<stop offset="0.98" stop-color="#9781B8"/>
</radialGradient>
<radialGradient id="paint2_radial_851_5920" cx="0" cy="0" r="1" gradientUnits="userSpaceOnUse" gradientTransform="translate(-5.90169 219.87) rotate(180) scale(148.055 148.055)">
<stop stop-color="#E3E1EA"/>
<stop offset="0.98" stop-color="#9781B8"/>
</radialGradient>
<linearGradient id="paint3_linear_851_5920" x1="181.717" y1="130.718" x2="181.371" y2="77.5391" gradientUnits="userSpaceOnUse">
<stop stop-color="#D1574F"/>
<stop offset="1" stop-color="#D87B7F"/>
</linearGradient>
<linearGradient id="paint4_linear_851_5920" x1="172.349" y1="151.383" x2="166.498" y2="208.182" gradientUnits="userSpaceOnUse">
<stop stop-color="#A94D5E"/>
<stop offset="1" stop-color="white"/>
</linearGradient>
<linearGradient id="paint5_linear_851_5920" x1="180.591" y1="-35.3474" x2="181.496" y2="477.238" gradientUnits="userSpaceOnUse">
<stop stop-color="#A94D5E"/>
<stop offset="1" stop-color="white"/>
</linearGradient>
<linearGradient id="paint6_linear_851_5920" x1="233.591" y1="49.1014" x2="233.724" y2="51.1105" gradientUnits="userSpaceOnUse">
<stop stop-color="#764D88"/>
<stop offset="1" stop-color="white"/>
</linearGradient>
<linearGradient id="paint7_linear_851_5920" x1="125.093" y1="47.9383" x2="125.255" y2="50.4258" gradientUnits="userSpaceOnUse">
<stop stop-color="#764D88"/>
<stop offset="1" stop-color="white"/>
</linearGradient>
<radialGradient id="paint8_radial_851_5920" cx="0" cy="0" r="1" gradientUnits="userSpaceOnUse" gradientTransform="translate(-71.4526 224.182) rotate(180) scale(327.27 327.27)">
<stop stop-color="#E3E1EA"/>
<stop offset="0.98" stop-color="#9781B8"/>
</radialGradient>
<radialGradient id="paint9_radial_851_5920" cx="0" cy="0" r="1" gradientUnits="userSpaceOnUse" gradientTransform="translate(80.7083 55.893) rotate(180) scale(207.725 207.725)">
<stop stop-color="#E3E1EA"/>
<stop offset="0.98" stop-color="#9781B8"/>
</radialGradient>
<linearGradient id="paint10_linear_851_5920" x1="16.1316" y1="338.024" x2="-29.0033" y2="271.511" gradientUnits="userSpaceOnUse">
<stop/>
<stop offset="1" stop-color="#A9A76A"/>
</linearGradient>
<linearGradient id="paint11_linear_851_5920" x1="52.8616" y1="301.861" x2="-37.9234" y2="168.076" gradientUnits="userSpaceOnUse">
<stop/>
<stop offset="1" stop-color="#A9A76A"/>
</linearGradient>
<linearGradient id="paint12_linear_851_5920" x1="-6.44434" y1="-38.624" x2="-39.7759" y2="86.3902" gradientUnits="userSpaceOnUse">
<stop stop-color="#764D88"/>
<stop offset="1" stop-color="white"/>
</linearGradient>
</defs>
</svg>
