<svg width="62" height="152" viewBox="0 0 62 152" fill="none" xmlns="http://www.w3.org/2000/svg">
<path d="M46.1183 1.69253C46.1183 2.11548 46.1319 2.53844 46.1183 3.42331C46.0895 5.30676 46.0578 7.1979 45.8147 9.0679C45.2073 9.22742 44.625 9.46957 44.011 9.60315C43.0923 9.80879 39.9049 10.9976 29.3427 10.9976C18.7805 10.9976 14.468 10.074 13.6934 10.1163C13.6934 8.03659 13.7985 4.17771 13.6937 2.96116C13.612 2.09631 14.9626 0.846402 27.6512 0.423671C35.6873 0.155937 40.5268 0.42365 41.1857 0.42365C41.8445 0.42365 44.9922 0.846623 46.1183 1.69253Z" fill="#038DCB"/>
<path d="M28.1533 0.194047C32.2527 0.117171 36.3578 -0.14901 40.4534 0.112366C42.0063 0.181554 43.5678 0.287258 45.0851 0.646652C45.6771 0.801364 46.3142 0.934935 46.7937 1.34141C47.1473 1.64796 47.106 2.15726 47.131 2.58103C47.1242 3.70245 47.0637 4.82388 47.0416 5.94434C46.9907 7.34828 46.9628 8.76375 46.6947 10.1475L46.5275 10.2042C45.8548 10.4444 45.1822 10.7049 44.4788 10.8346C43.5822 11.0479 42.653 11.0748 41.7564 11.2728C41.0993 11.3785 40.4363 11.4427 39.7711 11.465C38.2384 11.5486 36.7115 11.7196 35.1778 11.7753C34.212 11.8484 33.2444 11.783 32.2786 11.8301C30.4884 11.9262 28.6943 11.8013 26.9031 11.8762C25.5578 11.9387 24.2125 11.7965 22.8671 11.8397C21.8428 11.8676 20.8203 11.7677 19.7921 11.7811C19.2473 11.7888 18.7072 11.7014 18.1652 11.6514C17.0553 11.5476 15.9435 11.4294 14.8519 11.1921C14.8423 11.1709 14.824 11.1277 14.8154 11.1065C14.2907 11.1584 13.7795 11.0104 13.2894 10.8432C12.955 10.7058 13.0444 10.2667 12.9886 9.97838C12.8281 8.44087 12.8108 6.90336 12.8185 5.35624C12.8272 4.43085 12.7715 3.50162 12.857 2.57911C12.8887 2.10537 13.2798 1.76231 13.669 1.54802C14.258 1.23667 14.9182 1.09445 15.5582 0.93013C16.4749 0.694699 17.4301 0.744668 18.3603 0.603409C19.6633 0.418908 20.9837 0.446775 22.3002 0.385275C24.247 0.273805 26.1987 0.170984 28.1533 0.194047ZM31.6857 0.819622C29.8676 0.834036 28.0485 0.785028 26.2333 0.90995C24.3114 0.926286 22.3895 1.13001 20.4677 1.16076C18.7822 1.31739 17.0861 1.47499 15.4342 1.86225C14.9355 2.01023 14.3772 2.15053 14.0245 2.55509C14.4175 2.91256 14.9432 3.04901 15.4381 3.20084C16.7642 3.56216 18.1393 3.68131 19.5058 3.77741C21.0087 3.90233 22.5183 3.91867 24.0222 3.95711C26.7474 4.03879 29.4717 3.85525 32.1969 3.8908C34.2466 3.81392 36.2992 3.74474 38.3422 3.55351C38.6863 3.53294 39.0285 3.48863 39.3665 3.4209C39.6055 3.42956 39.8447 3.41702 40.0815 3.38342C41.4691 3.14126 42.8682 2.94811 44.2385 2.62331C44.7767 2.47917 45.3475 2.33503 45.7674 1.95065C44.4653 1.31547 42.9951 1.22706 41.5777 1.0858C40.8483 1.02719 40.1305 0.865747 39.3983 0.835958C38.2451 0.784067 37.092 0.835958 35.9456 0.774457C34.5253 0.770613 33.1002 0.698543 31.6857 0.821543V0.819622ZM44.3808 3.90329C43.563 4.09548 42.7183 4.11662 41.8977 4.2944C40.9367 4.48659 39.9479 4.48659 38.9774 4.61343C38.7974 4.59133 38.6154 4.59133 38.4354 4.61343C37.2899 4.71625 36.1435 4.79889 34.9942 4.84886C34.0592 4.91036 33.1214 4.84886 32.1854 4.89787C30.423 4.98724 28.6578 4.86808 26.8954 4.93919C25.5847 5.00165 24.274 4.8652 22.9632 4.90075C21.9062 4.93342 20.8491 4.82964 19.7921 4.84213C19.2261 4.85367 18.6688 4.74604 18.1057 4.7076C16.6642 4.60286 15.244 4.3338 13.8198 4.0974C13.7388 4.93519 13.7269 5.77822 13.7843 6.61796C13.864 7.69326 13.8727 8.77336 13.9765 9.84673C15.2689 10.3032 16.6441 10.4156 17.9971 10.5655C20.7021 10.8538 23.4245 10.8951 26.144 10.9163C28.2225 10.8682 30.301 10.8106 32.3805 10.8202C34.5657 10.7337 36.7537 10.651 38.9312 10.4358C39.7058 10.3935 40.4687 10.2311 41.2327 10.1129C42.1619 9.95916 43.0921 9.80541 44.0108 9.59977C44.6248 9.4662 45.2072 9.22404 45.8145 9.06452C46.0576 7.19453 46.0893 5.30339 46.1181 3.41994C45.5425 3.59291 44.9727 3.79086 44.3808 3.90329Z" fill="#097AAC"/>
<path d="M26.2342 0.912854C28.0494 0.787931 29.8684 0.836939 31.6866 0.822525C32.8781 0.874416 34.0716 0.778322 35.2642 0.844627C37.0083 1.0003 38.7793 1.16462 40.4484 1.72774C40.7483 1.84881 41.0971 1.98815 41.2374 2.3043C41.321 2.51763 41.1144 2.68868 40.9635 2.80111C40.483 3.11726 39.9113 3.25852 39.3655 3.42572C39.0275 3.49346 38.6852 3.53777 38.3411 3.55833C36.2981 3.75052 34.2456 3.81875 32.1959 3.89563C29.4706 3.86007 26.7463 4.04361 24.0211 3.96193C22.5143 3.92349 21.0047 3.90716 19.5047 3.78223C18.1382 3.68037 16.7631 3.5641 15.437 3.20567C14.9421 3.05384 14.4165 2.91738 14.0234 2.55991C14.3799 2.15343 14.9344 2.01506 15.4331 1.86707C17.085 1.48269 18.7811 1.32222 20.4666 1.16558C22.3894 1.13291 24.3084 0.92919 26.2342 0.912854Z" fill="#03A4EC"/>
<path d="M34.9951 4.85096C36.1482 4.80099 37.2908 4.71835 38.4363 4.61553C38.6152 4.59271 38.7962 4.59174 38.9753 4.61264C39.4395 5.33527 39.821 6.13766 39.9027 7.00251C40.0074 8.21907 39.6144 9.43851 38.9292 10.436C36.7517 10.6551 34.5636 10.7377 32.3785 10.8203C30.299 10.8098 28.2205 10.8674 26.1419 10.9164C23.4225 10.8953 20.7001 10.8549 17.995 10.5657C17.9701 9.80655 17.9595 9.04644 17.922 8.28826C17.8653 7.09092 17.9816 5.89647 18.1036 4.70778C18.6667 4.74333 19.2241 4.85384 19.7901 4.84231C20.8471 4.82982 21.9042 4.9384 22.9612 4.90093C24.2719 4.86537 25.5827 4.99702 26.8934 4.93937C28.6558 4.86826 30.421 4.98741 32.1834 4.89804C33.1222 4.85096 34.0601 4.91246 34.9951 4.85096Z" fill="#03A4EC"/>
<path d="M13.7847 6.62212C13.7273 5.78238 13.7392 4.93935 13.8202 4.10156C15.2443 4.33795 16.6637 4.60702 18.106 4.71176C17.984 5.90045 17.8677 7.0949 17.9244 8.29224C17.9619 9.05043 17.9725 9.81053 17.9974 10.5697C16.6444 10.4198 15.2693 10.3073 13.9769 9.85089C13.8731 8.77752 13.8644 7.69742 13.7847 6.62212Z" fill="#12B6FF"/>
<path d="M41.8059 12.0128C42.3638 11.9438 42.9272 11.9309 43.4876 11.9744C42.911 12.1521 42.3297 12.2982 41.7425 12.4222C41.0622 12.5442 40.3828 12.6662 39.7044 12.7941C38.2956 13.0055 36.884 13.2207 35.4628 13.3178C34.4365 13.3572 33.415 13.5224 32.3877 13.4571C31.2 13.4206 30.0094 13.5176 28.8255 13.4052C27.6868 13.3543 26.5356 13.3504 25.4199 13.0852C27.0314 12.9151 28.6545 13.0458 30.2688 12.9238C32.4992 12.9488 34.7199 12.7095 36.9455 12.6057C37.9064 12.5461 38.8597 12.3703 39.8178 12.2578C40.4821 12.1899 41.1448 12.1083 41.8059 12.0128Z" fill="#5189C3"/>
<path d="M41.7615 11.2754C42.6609 11.0775 43.5873 11.0506 44.4838 10.8372L44.7077 10.7969C45.0489 11.262 45.1507 11.8462 45.118 12.4122C44.1215 12.8129 43.0463 12.9888 41.9873 13.131C41.9066 12.8937 41.8249 12.6563 41.7461 12.4199C42.3332 12.2959 42.9175 12.1499 43.4912 11.9721C42.9307 11.9287 42.3674 11.9415 41.8095 12.0105C41.7916 11.7658 41.7756 11.5208 41.7615 11.2754Z" fill="#D5EBF9"/>
<path d="M35.1794 11.783C36.7169 11.7273 38.24 11.5563 39.7727 11.4727C39.7872 11.734 39.8016 11.9954 39.8179 12.2568C38.857 12.3692 37.9085 12.5451 36.9456 12.6046C34.7201 12.7084 32.4994 12.9477 30.269 12.9227C28.6546 13.0448 27.0316 12.9141 25.4201 13.0842C26.5357 13.3494 27.6869 13.3532 28.8257 13.4042C30.0096 13.5166 31.2002 13.4195 32.3879 13.456C33.4151 13.5214 34.4366 13.36 35.4629 13.3167C36.8841 13.2206 38.2958 13.0044 39.7045 12.793C39.9159 12.9573 39.8775 13.2446 39.9207 13.4791C39.0126 13.6473 38.0901 13.7049 37.1811 13.8635C35.7397 13.9836 34.2886 13.9961 32.8684 14.2738C35.2275 14.5554 37.6029 14.2632 39.9582 14.0816C39.9582 15.1579 40.0043 16.238 39.8957 17.3114C38.5821 17.468 37.257 17.4401 35.9376 17.467C33.3757 17.5372 30.8129 17.7092 28.2501 17.6054C27.5457 17.5814 26.8404 17.6112 26.136 17.5968C24.2785 17.5237 22.4162 17.6035 20.5625 17.4641C19.7265 17.393 18.8809 17.3623 18.064 17.1432C17.9151 16.0744 17.8266 14.998 17.7988 13.9192C19.7207 14.1508 21.6637 14.4525 23.5952 14.1777C22.7608 13.9701 21.9102 13.8338 21.0526 13.7703C19.965 13.6881 18.8839 13.5353 17.8161 13.3129C17.964 12.7706 18.0808 12.2204 18.1659 11.6648C18.7079 11.7148 19.2479 11.8023 19.7928 11.7946C20.8172 11.7811 21.8396 11.8811 22.8678 11.8532C24.2131 11.8099 25.5585 11.9493 26.9038 11.8897C28.695 11.8148 30.4891 11.9349 32.2793 11.8436C33.246 11.7907 34.2137 11.8561 35.1794 11.783Z" fill="#D5EBF9"/>
<path d="M41.9539 13.9244C42.7226 13.8033 43.526 13.7726 44.2602 14.0541C44.6868 14.2079 45.1942 14.4174 45.3364 14.893C45.4325 15.3639 45.3979 15.9337 45.0299 16.2854C44.5936 16.6842 43.9911 16.8101 43.4222 16.8812C42.885 16.9389 42.3546 17.0407 41.8203 17.1099C41.9683 16.0538 41.8578 14.9843 41.9539 13.9244Z" fill="#D5EBF9"/>
<path d="M14.6279 11.2914C14.7019 11.2568 14.7778 11.2261 14.8547 11.1953C15.9464 11.4327 17.0582 11.5509 18.1681 11.6546C18.0829 12.2102 17.9661 12.7604 17.8183 13.3027C16.9919 13.122 16.1232 13.0595 15.3515 12.6857C14.8374 12.4369 14.626 11.8315 14.6279 11.2914Z" fill="#F4FCFF"/>
<path d="M15.5193 14.273C16.1612 13.7685 17.0348 13.7819 17.8006 13.9136C17.8284 14.9924 17.9169 16.0687 18.0658 17.1376C17.4259 16.9656 16.7542 16.9454 16.1209 16.7532C15.1129 16.5033 14.6631 14.9332 15.5193 14.273Z" fill="#F4FCFF"/>
<path d="M39.7734 11.4734C40.4386 11.4512 41.1017 11.387 41.7587 11.2812C41.7741 11.5266 41.7901 11.7717 41.8068 12.0164C41.1457 12.1125 40.4829 12.1941 39.8186 12.2614C39.8023 11.9962 39.7879 11.7348 39.7734 11.4734Z" fill="#C6DBE8"/>
<path d="M39.7051 12.7899C40.3835 12.662 41.0629 12.54 41.7432 12.418C41.822 12.6544 41.9037 12.8917 41.9844 13.1291C41.2935 13.2252 40.6084 13.3578 39.9213 13.476C39.878 13.2415 39.9165 12.9542 39.7051 12.7899Z" fill="#C6DBE8"/>
<path d="M39.959 14.0757C40.6249 14.0536 41.2937 14.0401 41.9529 13.9258C41.8568 14.9828 41.9683 16.0552 41.8203 17.1113C41.1794 17.1815 40.5355 17.2199 39.8984 17.3035C40.0051 16.232 39.958 15.1519 39.959 14.0757Z" fill="#C6DBE8"/>
<path d="M41.5195 17.9455C42.1922 17.9359 42.8578 17.8254 43.5285 17.7773C43.5863 18.0274 43.6185 18.2895 43.6246 18.5461C43.6246 20.5343 43.6438 22.5215 43.6486 24.504C43.6419 25.5206 43.8795 26.5296 44.2072 27.4829C44.678 29.0406 45.4458 30.4839 46.2252 31.9032C48.6967 36.2823 51.1439 40.6497 53.2926 45.1883C54.7494 48.3479 56.1441 51.543 57.3136 54.8218C58.3764 57.8622 59.2684 60.9968 59.7219 64.191C60.0193 66.3272 60.1225 68.4745 60.0297 70.6293C59.899 75.5301 59.7828 80.4309 59.6454 85.3317C59.5915 86.6108 59.6697 87.8965 59.5928 89.1755C59.5861 90.3642 59.5188 91.5423 59.4967 92.731C59.4967 95.3256 59.3905 97.9201 59.3646 100.515C59.2589 105.191 59.1956 109.867 59.0688 114.544C58.9833 119.287 58.9121 124.029 58.791 128.766C58.7699 129.982 58.7055 131.198 58.7189 132.418C58.6661 134.325 58.3848 136.239 58.0283 138.112C57.6525 139.932 57.0666 141.721 56.1604 143.349C55.4311 144.614 54.5938 145.846 53.3917 146.712C52.5807 147.341 51.6149 147.709 50.7011 148.153C39.1283 150.539 29.9266 150.539 19.646 149.307C18.8398 148.929 17.9527 148.796 17.0965 148.586C15.3563 148.154 13.5828 147.77 11.954 147C10.8857 146.494 9.9467 145.736 9.20627 144.814C8.64604 144.142 8.19343 143.39 7.76485 142.628C7.21423 141.645 6.92216 140.545 6.57719 139.481C6.26872 138.528 6.125 137.552 5.92705 136.574C5.56861 134.767 5.46723 132.914 5.43456 131.073C5.26159 126.591 5.14652 122.106 5.00814 117.619C4.86496 112.43 4.6159 107.246 4.46311 102.052C4.32858 98.6889 4.22359 95.3323 4.12077 91.9623C4.03621 89.9443 3.952 87.9224 3.91357 85.9083C3.81747 83.7289 3.76012 81.5543 3.69285 79.3739C3.60925 76.7476 3.47892 74.1223 3.48565 71.4941C3.48565 70.341 3.46811 69.1821 3.45562 68.0347C3.39604 66.1359 3.76426 64.2534 4.07272 62.3892C4.53782 60.2886 5.03367 58.1889 5.70633 56.1431C6.24734 54.5556 6.75574 52.9585 7.4015 51.4104C8.5085 48.4468 9.74542 45.5342 11.0696 42.6658C11.9345 40.7948 12.8058 38.9181 13.7542 37.0923C14.7748 35.0897 15.8308 33.1015 16.7332 31.0384C17.229 29.7507 17.7558 28.4688 17.9749 27.0985C18.1219 26.2413 18.0864 25.3688 18.119 24.504C18.1738 22.7743 18.197 21.0446 18.3037 19.3149C18.3124 18.868 18.3999 18.4048 18.2452 17.9695C19.751 18.0945 21.2581 18.2521 22.7706 18.2578C24.5964 18.3039 26.4222 18.3107 28.248 18.3539C29.5292 18.3302 30.8105 18.3107 32.0918 18.3299C32.6683 18.3241 33.2446 18.2665 33.826 18.2818C35.3308 18.326 36.8316 18.1675 38.3364 18.1617C39.405 18.179 40.4577 17.9695 41.5195 17.9455Z" fill="#BDE3F6"/>
<path d="M17.1359 17.8789C17.5049 17.9029 17.8749 17.9346 18.2448 17.9548C18.4005 18.3882 18.3121 18.8514 18.3034 19.3001C18.1968 21.0298 18.1737 22.7595 18.1189 24.4892C18.0863 25.3541 18.1189 26.2286 17.9748 27.0838C17.7557 28.4541 17.2291 29.7466 16.7333 31.0342C15.8309 33.0935 14.7749 35.0817 13.7543 37.0882C12.8059 38.9198 11.9381 40.7926 11.0704 42.6617C9.74623 45.5339 8.5095 48.4466 7.40249 51.4063C6.75674 52.9543 6.24936 54.5543 5.70738 56.1418C5.028 58.1848 4.53503 60.2844 4.07378 62.3879C3.76532 64.2522 3.40112 66.127 3.45589 68.0258C3.46838 69.1789 3.49049 70.3321 3.48664 71.4794C3.47992 74.1076 3.60964 76.7329 3.69324 79.3592C3.76051 81.5396 3.81721 83.7209 3.91426 85.9003C3.9527 87.9183 4.0363 89.9267 4.12086 91.9399C4.22368 95.3032 4.32939 98.6665 4.46392 102.037C4.61671 107.226 4.86559 112.415 5.00878 117.609C5.14523 122.091 5.26247 126.576 5.43544 131.062C5.46811 132.9 5.56901 134.747 5.92744 136.555C6.12539 137.533 6.26954 138.526 6.578 139.479C6.92298 140.543 7.21414 141.636 7.76476 142.619C8.19623 143.381 8.64883 144.137 9.20618 144.814C9.94815 145.731 10.888 146.469 11.9554 146.972C13.5842 147.741 15.3572 148.131 17.0975 148.563C17.9537 148.773 18.8406 148.897 19.6468 149.275C20.6885 149.743 21.7705 150.111 22.818 150.557L22.4605 150.609C21.2766 150.539 20.1196 150.256 18.953 150.058C16.9293 149.651 14.9036 149.239 12.9135 148.687C11.6835 148.323 10.4689 147.841 9.41375 147.103C8.53833 146.418 7.73594 145.619 7.13247 144.681C6.78941 144.182 6.42713 143.692 6.16191 143.144C5.7218 142.311 5.4633 141.402 5.12217 140.528C4.7522 139.487 4.55906 138.397 4.32843 137.321C3.93767 135.357 3.74675 133.357 3.75859 131.354C3.6625 129.913 3.67595 128.471 3.58946 127.03C3.61061 126.228 3.51451 125.429 3.52604 124.627C3.50105 123.186 3.40016 121.745 3.39824 120.303C3.30983 119.15 3.37037 117.997 3.28292 116.844C3.30406 115.944 3.18683 115.051 3.21566 114.153C3.0965 109.896 2.9168 105.64 2.83128 101.381C2.78227 99.8436 2.70347 98.3004 2.69674 96.759C2.61795 95.8596 2.68137 94.9563 2.6093 94.0568C2.55068 93.1997 2.61891 92.3396 2.54011 91.4834C2.48053 89.9459 2.469 88.4084 2.40654 86.8651C2.41615 85.2315 2.25759 83.5979 2.26624 81.9643C2.11345 78.2445 2.01832 74.5237 1.84919 70.8049C1.71754 69.0444 1.79057 67.2743 1.95394 65.5197C2.18168 63.5555 2.47861 61.5942 2.98215 59.679C3.44172 57.8022 3.99658 55.95 4.64458 54.1296C5.0943 53.0014 5.43928 51.8348 5.9457 50.7298C6.25832 49.8969 6.59081 49.0747 6.94316 48.263C7.67828 46.3844 8.53833 44.5595 9.3657 42.7203C10.4775 40.4428 11.5557 38.1462 12.7607 35.9139C13.4516 34.5686 14.1752 33.2329 14.8882 31.8962C15.1861 31.1669 15.6407 30.5124 15.9059 29.7696C16.4584 28.3176 17.0254 26.834 17.1032 25.2657C17.1657 22.7989 16.9937 20.337 17.1359 17.8789Z" fill="white"/>
<path fill-rule="evenodd" clip-rule="evenodd" d="M19.3995 26.5718C19.2835 26.5279 19.1675 26.484 19.0512 26.4417C19.0468 26.473 19.0424 26.5043 19.038 26.5356C19.0066 26.759 18.9752 26.9825 18.9542 27.2076C18.8192 28.6951 18.8347 30.188 18.8501 31.6802C18.8531 31.9732 18.8562 32.2662 18.8581 32.5591C18.8569 32.7094 18.8574 32.8597 18.8579 33.0099C18.8598 33.6344 18.8618 34.257 18.7495 34.872C18.5496 36.0242 18.0979 37.111 17.6329 38.1767C17.3092 38.9166 16.9085 39.6176 16.508 40.3181C16.3555 40.5848 16.2031 40.8514 16.055 41.1201C15.7723 41.6418 15.485 42.161 15.1976 42.6801C14.4302 44.0668 13.663 45.4531 12.9848 46.8858C11.3944 49.7696 10.1336 52.8244 8.89595 55.8744C7.3642 59.6414 6.04002 63.5197 5.35391 67.5384C5.11559 68.7059 4.95896 69.8985 4.98779 71.0939C5.0037 71.9088 5.00422 72.7229 5.00474 73.5366C5.0057 75.0316 5.00665 76.525 5.1031 78.0185C5.1312 78.3896 5.12186 78.7607 5.11252 79.1318C5.10493 79.4334 5.09734 79.7349 5.10983 80.0364C5.12046 80.2939 5.13114 80.5514 5.14182 80.809C5.29437 84.4863 5.44711 88.1683 5.44711 91.8503C5.50043 92.8344 5.52836 93.819 5.5563 94.8037C5.57116 95.3276 5.58602 95.8515 5.60471 96.3754C5.62249 97.8642 5.67677 99.352 5.73106 100.84C5.78536 102.328 5.83966 103.817 5.85744 105.306C5.87275 105.887 5.87202 106.468 5.8713 107.05C5.87034 107.818 5.86938 108.587 5.90549 109.353C5.91558 109.595 5.92669 109.837 5.93779 110.079C5.97742 110.943 6.01699 111.805 6.01023 112.67C6.05602 113.115 6.0606 113.562 6.06518 114.009C6.06925 114.406 6.07332 114.804 6.10633 115.2C6.13924 115.655 6.13486 116.111 6.13047 116.567C6.12897 116.723 6.12747 116.88 6.12747 117.037C6.12445 117.373 6.13908 117.709 6.15371 118.044C6.16702 118.349 6.18032 118.653 6.18032 118.959C6.18304 119.414 6.20362 119.869 6.22418 120.324C6.25433 120.99 6.28443 121.656 6.25815 122.322C6.24191 123.357 6.29225 124.391 6.34257 125.425C6.35479 125.676 6.36701 125.927 6.37827 126.178C6.40342 126.654 6.41348 127.131 6.42354 127.608C6.43769 128.279 6.45183 128.949 6.508 129.618C6.49687 131.691 6.73268 133.758 7.21045 135.775C7.57548 137.406 8.18144 138.974 9.00838 140.426C9.85881 141.852 10.9966 143.173 12.4995 143.932C12.6442 143.998 12.7882 144.067 12.9322 144.136C13.496 144.404 14.0598 144.673 14.6645 144.837C16.5595 145.325 18.4708 145.782 20.4033 146.117C20.8007 146.177 21.195 146.255 21.5891 146.333C22.272 146.469 22.9546 146.604 23.6522 146.643C24.8493 146.854 26.0597 146.937 27.2702 147.021C28.1869 147.084 29.1036 147.148 30.0146 147.266C31.4764 147.377 32.9457 147.337 34.3994 147.148C35.5173 147.019 36.6384 146.914 37.7627 146.834C38.1707 146.809 38.571 146.732 38.9711 146.654C39.3967 146.572 39.822 146.49 40.2564 146.471C40.6931 146.455 41.1075 146.332 41.5221 146.209C41.8062 146.125 42.0904 146.041 42.382 145.991C43.735 145.752 45.0861 145.483 46.4026 145.088C46.7519 144.984 47.1117 144.912 47.4714 144.839C48.1339 144.705 48.7965 144.572 49.395 144.245C49.7755 144.028 50.1733 143.846 50.5721 143.668C51.1315 143.423 51.5903 143.017 52.0432 142.617C52.0711 142.592 52.099 142.568 52.1269 142.543C52.662 142.068 53.0578 141.468 53.4486 140.876L53.4847 140.821C53.97 140.084 54.3752 139.297 54.6936 138.474C55.3648 136.704 55.8078 134.855 56.012 132.973C56.0417 132.717 56.0767 132.462 56.1117 132.207C56.208 131.504 56.3043 130.802 56.2888 130.09C56.2702 129.554 56.2893 129.017 56.3085 128.481C56.326 127.99 56.3435 127.498 56.332 127.006C56.4126 124.534 56.4619 122.062 56.5112 119.589C56.5589 117.195 56.6067 114.8 56.6828 112.407C56.755 111.427 56.7417 110.442 56.7283 109.459L56.7279 109.428C56.7906 108.742 56.7887 108.053 56.7868 107.363C56.7852 106.805 56.7837 106.247 56.8163 105.688C56.8145 105.221 56.843 104.753 56.8715 104.286C56.9035 103.761 56.9356 103.236 56.9249 102.709C56.9402 102.278 56.9491 101.846 56.958 101.414C56.9715 100.757 56.9851 100.099 57.021 99.4418C57.042 98.8023 57.0455 98.1628 57.0491 97.5236C57.0533 96.7852 57.0574 96.0472 57.0883 95.3097C57.0836 94.6676 57.1193 94.0272 57.155 93.3867C57.1921 92.7208 57.2292 92.0548 57.2209 91.3871C57.2593 90.5501 57.2737 89.7122 57.2593 88.8752C57.2593 87.4818 57.3051 86.0872 57.3508 84.6923C57.3629 84.3249 57.375 83.9574 57.3862 83.59C57.3897 83.146 57.422 82.702 57.4543 82.258C57.4918 81.7411 57.5294 81.2241 57.5217 80.7072C57.5167 79.4723 57.5546 78.2397 57.5926 77.0065C57.6137 76.3205 57.6348 75.6342 57.6485 74.9473C57.6588 74.8105 57.6983 74.6797 57.7379 74.5491C57.7836 74.3981 57.8292 74.2474 57.8292 74.0882C57.8279 73.8133 57.8244 73.5384 57.8208 73.2635C57.8136 72.7015 57.8063 72.1396 57.8186 71.5782C57.8351 71.3415 57.7736 71.1172 57.712 70.8927C57.6586 70.6978 57.6051 70.5028 57.6024 70.2992C57.5732 69.2207 57.3807 68.1531 57.1889 67.0897C57.1467 66.856 57.1046 66.6225 57.0643 66.3891C56.9731 65.8979 56.8371 65.4181 56.701 64.938C56.586 64.5324 56.471 64.1266 56.3829 63.7138C55.9825 62.2786 55.5051 60.8659 54.9531 59.4818C53.6779 56.4203 52.371 53.3683 50.8546 50.4172C49.2091 47.159 47.3765 44.0011 45.5453 40.8458L45.4022 40.5993C44.6296 39.303 43.9012 37.9701 43.4063 36.5402C43.1123 35.6639 42.8144 34.7625 42.85 33.8256C42.8611 33.3746 42.8563 32.9235 42.8515 32.4726C42.8447 31.8313 42.8379 31.1902 42.8769 30.5497C42.9174 29.7376 42.8774 28.9265 42.8373 28.1152C42.809 27.5432 42.7808 26.9711 42.7808 26.3984C41.8073 26.7453 40.8137 27.0644 39.7807 27.172C38.7857 27.2772 37.7854 27.3248 36.7847 27.3724C36.0853 27.4057 35.3858 27.439 34.6877 27.492C34.3608 27.4943 34.0339 27.5027 33.7072 27.5112C32.944 27.5309 32.1815 27.5505 31.4205 27.492C31.0308 27.4681 30.6411 27.4948 30.2514 27.5214C29.9684 27.5408 29.6855 27.5602 29.4025 27.5602C28.9408 27.5672 28.4785 27.5391 28.0161 27.511C27.8377 27.5001 27.6591 27.4893 27.4806 27.4805C27.3801 27.4769 27.2796 27.4734 27.179 27.4699C25.0659 27.3961 22.9473 27.3222 20.8549 27.0048C20.3499 26.9314 19.8741 26.7514 19.3995 26.5718Z" fill="white"/>
<path d="M21.9709 24.7354C23.4863 24.5778 24.9969 24.351 26.5209 24.2972C29.4038 24.2914 32.2924 24.2693 35.1781 24.2578C36.1698 24.2636 37.1557 24.3885 38.1416 24.4788C39.2781 24.5774 40.4036 24.7764 41.5049 25.0737C41.9143 25.1995 42.3487 25.3379 42.6581 25.6502C42.8435 25.8491 42.7743 26.1432 42.7849 26.3892C41.8115 26.7361 40.8179 27.0551 39.7849 27.1627C38.0917 27.3415 36.386 27.3549 34.6918 27.4827C33.6031 27.4943 32.5134 27.5702 31.4246 27.4827C30.752 27.4414 30.0793 27.55 29.4067 27.551C28.7638 27.5606 28.1228 27.5029 27.4848 27.4712C25.2746 27.3934 23.051 27.328 20.859 26.9955C20.2306 26.9043 19.6473 26.6477 19.0554 26.4324C19.0198 26.6871 18.9823 26.9417 18.9593 27.2012C18.9358 26.6545 18.9705 26.1069 19.063 25.5676C19.9481 25.0823 20.9782 24.918 21.9709 24.7354Z" fill="#E3F4FC"/>
<path d="M40.5824 43.5565C41.5422 43.3849 42.5316 43.5593 43.3749 44.0485C43.8727 44.3368 44.2629 44.7692 44.6674 45.1718C45.6678 46.1827 46.5566 47.3138 47.1976 48.5889C48.0221 50.1995 48.6179 51.9167 49.1531 53.6416C49.8498 55.9478 50.2534 58.3319 50.6147 60.7122C51.1644 64.4195 51.4469 68.1595 51.6535 71.9005C51.9523 77.4903 52.0984 83.0878 52.1234 88.6863C52.2195 89.997 52.0542 91.3068 52.0946 92.6185C52.1061 93.8677 52.0878 95.1169 52.1128 96.3661C52.1734 97.6471 52.2589 98.9261 52.3117 100.21C52.3963 101.453 52.378 102.708 52.5039 103.945C52.7634 104.827 52.6538 105.749 52.673 106.654C52.673 107.26 52.6875 107.867 52.6894 108.474C52.6913 109.081 52.4386 109.678 52.4588 110.3C52.4703 111.533 52.2743 112.758 51.9869 113.951C51.8658 114.406 51.6986 114.905 51.2845 115.177C51.0202 115.369 50.6762 115.182 50.4917 114.968C50.0881 114.497 49.8267 113.925 49.6096 113.35C49.0695 111.828 48.8158 110.226 48.5708 108.635C48.2196 106.134 47.9996 103.616 47.9116 101.091C47.5906 95.7627 47.5445 90.4246 47.3235 85.0894C47.0996 79.1316 46.7911 73.1641 46.0685 67.2409C45.9618 66.2799 45.7658 65.3267 45.6264 64.3686C45.3554 62.5073 44.9173 60.6747 44.4416 58.8576C44.1024 57.7045 43.817 56.5379 43.3471 55.4328C42.9627 54.5228 42.6235 53.5974 42.2478 52.6854C41.9076 51.8408 41.5011 51.022 41.209 50.1582C40.6958 48.6504 40.1923 47.1254 39.9886 45.5399C39.9332 45.0918 39.9287 44.6388 39.9751 44.1897C40.0045 44.0369 40.0775 43.8957 40.1852 43.7834C40.293 43.671 40.4309 43.5922 40.5824 43.5565Z" fill="#E3F4FC"/>
<path d="M18.2854 47.4037C18.7855 47.3235 19.2937 47.3071 19.7979 47.3547C20.2957 47.3854 20.657 47.8236 20.805 48.2676C20.9501 48.7375 21.0731 49.2333 20.9972 49.7282C20.8674 50.4585 20.7492 51.1956 20.4946 51.8961C20.1813 52.8638 19.9584 53.866 19.5231 54.7905C19.1108 55.6553 18.7332 56.5307 18.2738 57.3687C17.4715 59.1041 16.6691 60.8579 16.227 62.7279C15.6793 64.4874 15.5947 66.3401 15.2046 68.1332C15.048 68.8798 14.8202 69.6457 14.3397 70.2473C14.0332 70.5596 13.6286 70.8469 13.178 70.8652C11.6049 70.5913 10.3701 69.0394 10.4431 67.4423C10.495 65.8087 10.3211 64.1654 10.6017 62.5491C10.8582 60.9588 11.1619 59.378 11.4857 57.7992C11.922 55.589 12.3909 53.3471 13.3653 51.2974C14.3176 49.364 16.1473 47.8246 18.2854 47.4037Z" fill="#E3F4FC"/>
<path d="M10.3114 116.503C10.6151 116.407 11.0024 116.4 11.2349 116.652C11.7807 117.2 11.9306 117.998 12.0604 118.73C12.3842 120.748 12.5043 122.794 12.7955 124.817C12.9723 125.96 13.0761 127.112 13.3009 128.247C13.4095 129.347 13.5988 130.438 13.6757 131.542C13.7247 132.119 13.9265 132.688 13.8295 133.272C13.7631 133.718 13.6573 134.158 13.5133 134.585C13.2779 135.285 12.4957 135.693 11.7836 135.621C11.036 135.525 10.4517 134.949 10.0895 134.322C9.38413 133.046 9.00552 131.621 8.7278 130.199C8.55291 129.277 8.35304 128.352 8.35208 127.412C8.34439 125.747 8.3415 124.08 8.33093 122.415C8.31627 121.804 8.35906 121.192 8.45874 120.589C8.63267 119.498 8.84312 118.384 9.41392 117.418C9.63301 117.045 9.90015 116.666 10.3114 116.503Z" fill="#E3F4FC"/>
<path d="M44.481 10.8374C45.1873 10.7077 45.8571 10.4473 46.5298 10.207C46.9153 10.8224 47.0613 11.558 46.9401 12.274C46.7863 12.7545 46.4913 13.2033 46.4596 13.7231C46.6326 14.1719 47.0362 14.5034 47.1323 14.9868C47.2668 15.5941 46.9872 16.186 46.72 16.7165C46.425 17.1969 45.909 17.5131 45.3747 17.6774C45.3411 19.7588 45.4958 21.8364 45.5554 23.9159C45.5669 25.2564 45.8936 26.5748 46.3385 27.8317C46.9372 29.2289 47.7252 30.5329 48.4766 31.8513C50.5907 35.6058 52.6683 39.3823 54.5306 43.2664C54.915 43.991 55.1946 44.7674 55.5694 45.4987C55.9211 46.1944 56.1796 46.9314 56.5082 47.6377C56.9704 48.6333 57.3173 49.6769 57.7718 50.6763C59.6265 55.4618 61.188 60.4039 61.8414 65.5104C61.9001 66.0591 61.9962 66.6058 62 67.1584C61.1471 89.0619 61.3885 111.048 60.6845 132.983C60.7239 134.932 60.3241 136.854 59.8686 138.738C59.4571 140.418 58.9032 142.059 58.2129 143.645C57.2424 145.72 55.8644 147.696 53.8887 148.93C44.6491 153.485 12.995 150.565 10.3954 149.655C8.84975 149.115 7.48363 148.157 6.44779 146.889C5.56907 145.775 4.82224 144.564 4.22224 143.279C3.04206 140.601 2.25928 137.766 1.89868 134.862C0.776482 112.59 -0.0105665 90.2354 0.0161919 67.9367C0.0161919 67.044 -0.0289751 66.1494 0.0315644 65.2576C0.486091 61.7694 1.32115 58.3388 2.41183 54.9957C2.97398 53.1488 3.63607 51.3316 4.3635 49.5433C5.74246 45.9032 7.3972 42.3756 9.08751 38.8768C10.6673 35.6009 12.4412 32.4241 14.0988 29.1876C14.699 27.9249 15.0799 26.5691 15.2251 25.1785C15.3663 22.6926 15.4797 20.2009 15.4278 17.7101C14.9646 17.6274 14.4035 17.738 14.0431 17.367C13.5924 16.9384 13.1417 16.4272 13.0514 15.7882C12.995 15.4556 12.9705 15.1184 12.9784 14.7811C13.0283 14.3237 13.357 13.9691 13.5011 13.5444C13.4242 12.939 12.9861 12.4278 12.9966 11.8041C12.9889 11.462 13.1437 11.1497 13.2916 10.8518C13.7817 11.019 14.2929 11.167 14.8176 11.1151C14.8263 11.1363 14.8445 11.1795 14.8541 11.2006C14.7773 11.2285 14.7013 11.2593 14.6274 11.2967C14.6274 11.8368 14.8368 12.4422 15.3509 12.694C16.1197 13.0678 16.9913 13.1302 17.8177 13.3109C18.8855 13.5334 19.9666 13.6862 21.0542 13.7683C21.9126 13.8301 22.7641 13.9647 23.5997 14.1709C21.6682 14.4458 19.7223 14.144 17.8033 13.9124C17.0345 13.7808 16.1639 13.7673 15.522 14.2718C14.6639 14.932 15.1155 16.5022 16.1235 16.7501C16.7568 16.9471 17.4285 16.9644 18.0685 17.1345C18.8824 17.3536 19.728 17.3843 20.567 17.4554C22.4225 17.5948 24.2848 17.515 26.1404 17.588C26.8448 17.6025 27.5501 17.5727 28.2545 17.5967C30.8173 17.7005 33.3802 17.5285 35.9421 17.4583C37.2614 17.4314 38.5866 17.4583 39.9002 17.3026C40.5392 17.2171 41.1831 17.1787 41.8221 17.1105C42.3564 17.0413 42.8868 16.9394 43.424 16.8818C43.9929 16.8106 44.5954 16.6896 45.0316 16.286C45.3997 15.9343 45.4324 15.3644 45.3382 14.8936C45.196 14.4179 44.6886 14.2084 44.2619 14.0547C43.5268 13.7731 42.7196 13.8038 41.9557 13.9249C41.2964 14.0393 40.6276 14.0527 39.9617 14.0748C37.6064 14.2603 35.231 14.5553 32.8718 14.267C34.2921 13.9893 35.746 13.9787 37.1846 13.8567C38.0936 13.7001 39.0161 13.6424 39.9242 13.4723C40.6113 13.3541 41.2964 13.2244 41.9874 13.1254C43.0444 12.9794 44.1216 12.8073 45.1181 12.4066C45.1508 11.8406 45.0489 11.2535 44.7078 10.7913L44.481 10.8374ZM41.5194 17.9484C40.4575 17.9763 39.4053 18.1588 38.3425 18.1406C36.8377 18.1464 35.3367 18.3184 33.8318 18.2742C33.2553 18.2588 32.6787 18.3232 32.0973 18.3289C30.8161 18.311 29.5348 18.3132 28.2535 18.3357C26.4278 18.2886 24.602 18.2818 22.7762 18.2396C21.2636 18.2338 19.7559 18.082 18.2501 17.957C17.8802 17.9369 17.5102 17.9052 17.1412 17.8811C16.999 20.3392 17.171 22.8012 17.1133 25.2602C17.0355 26.8285 16.4685 28.3122 15.916 29.7642C15.6508 30.507 15.1962 31.1614 14.8983 31.8907C14.1853 33.2274 13.4617 34.5602 12.7708 35.9085C11.5658 38.1407 10.4876 40.4374 9.37579 42.7148C8.54842 44.5541 7.68837 46.3789 6.95325 48.2576C6.59962 49.0712 6.26714 49.8934 5.95579 50.7243C5.44937 51.8294 5.10439 52.996 4.65467 54.1241C4.00496 55.9454 3.44849 57.7986 2.98743 59.6765C2.4839 61.5916 2.18696 63.5529 1.95922 65.5171C1.79586 67.2727 1.72283 69.0428 1.85448 70.8023C2.02361 74.5211 2.11874 78.2419 2.27153 81.9617C2.26288 83.5953 2.42144 85.2289 2.41183 86.8625C2.47429 88.4 2.48582 89.9376 2.5454 91.4808C2.6242 92.337 2.55597 93.1971 2.61458 94.0542C2.68665 94.9537 2.62324 95.857 2.70203 96.7564C2.70876 98.2939 2.78755 99.8372 2.83656 101.379C2.92016 105.637 3.09986 109.894 3.22094 114.15C3.19211 115.05 3.30935 115.944 3.28821 116.841C3.37565 117.994 3.31511 119.147 3.40352 120.301C3.40352 121.742 3.50634 123.183 3.53132 124.625C3.51979 125.426 3.61589 126.226 3.59475 127.027C3.68123 128.469 3.66586 129.91 3.76388 131.351C3.75203 133.355 3.94295 135.354 4.33372 137.319C4.56434 138.394 4.75749 139.485 5.12746 140.526C5.46859 141.399 5.72709 142.308 6.1672 143.141C6.43242 143.689 6.79469 144.179 7.13775 144.679C7.74122 145.617 8.54361 146.415 9.41903 147.1C15.5715 150.873 49.802 149.912 53.3976 146.695C54.5998 145.83 55.4377 144.581 56.1671 143.312C57.0752 141.684 57.6584 139.894 58.0342 138.074C58.3907 136.201 58.6723 134.306 58.7251 132.399C58.7116 131.182 58.776 129.967 58.7972 128.747C58.9182 124.006 58.9894 119.264 59.0749 114.525C59.2017 109.85 59.2671 105.174 59.3718 100.495C59.3978 97.9009 59.5015 95.3064 59.5035 92.7118C59.5217 91.5231 59.589 90.3354 59.5996 89.1467C59.6764 87.8677 59.5996 86.5867 59.6524 85.3077C59.7898 80.4069 59.9061 75.5061 60.0368 70.6053C60.1296 68.4504 60.0267 66.2916 59.7293 64.1554C59.2757 60.9612 58.384 57.8439 57.3202 54.8035C56.1507 51.5248 54.7564 48.3315 53.2996 45.172C51.1481 40.6315 48.7005 36.2448 46.2338 31.8706C45.4506 30.4513 44.6828 29.0079 44.2158 27.4502C43.8881 26.4893 43.6508 25.4957 43.6575 24.479C43.6575 22.4917 43.6325 20.5045 43.6325 18.5211C43.6264 18.2645 43.5942 18.0092 43.5364 17.7591C42.857 17.8187 42.192 17.9378 41.5194 17.9474V17.9484Z" fill="#5189C3"/>
</svg>
