<svg width="166" height="266" viewBox="0 0 166 266" fill="none" xmlns="http://www.w3.org/2000/svg">
<path d="M155.942 12.6819L24.2051 0L4.00221e-05 251.437L131.737 264.118L155.942 12.6819Z" fill="#D1D3D4"/>
<path d="M165.551 13.6077L33.8145 0.925781L9.60942 252.362L141.346 265.044L165.551 13.6077Z" fill="#F1F2F2"/>
<path d="M127.443 71.9485L60.0918 65.4648L47.7167 194.014L115.068 200.498L127.443 71.9485Z" fill="#D1D3D4"/>
<path d="M132.478 72.4368L65.127 65.9531L52.7519 194.503L120.103 200.986L132.478 72.4368Z" fill="#E6E7E8"/>
<path d="M74.9004 85.4766L65.8938 179.035L87.522 95.5777L74.9004 85.4766Z" fill="#D1D3D4"/>
<path d="M87.5229 95.5754L126.248 99.3034L105.677 180.611L65.6886 176.761L87.5229 95.5754Z" fill="white"/>
<path d="M74.9004 85.4766L113.626 89.2046L126.248 99.3057L87.522 95.5777L74.9004 85.4766Z" fill="#D1D3D4"/>
<path d="M114.261 105.758C114.212 106.267 113.963 106.735 113.569 107.06C113.175 107.385 112.668 107.54 112.159 107.491L98.2553 106.152C97.7468 106.103 97.2785 105.854 96.9536 105.46C96.6286 105.066 96.4735 104.559 96.5224 104.05C96.5714 103.542 96.8204 103.073 97.2146 102.749C97.6088 102.424 98.116 102.268 98.6245 102.317L112.528 103.656C112.78 103.68 113.025 103.754 113.248 103.872C113.472 103.991 113.669 104.153 113.83 104.348C113.991 104.543 114.112 104.768 114.186 105.01C114.26 105.252 114.286 105.506 114.261 105.758Z" fill="#231F20"/>
<path d="M114.259 105.761L113.78 105.714C113.743 106.096 113.556 106.447 113.261 106.691C112.965 106.935 112.585 107.052 112.203 107.015L98.2994 105.677C97.9179 105.64 97.5666 105.453 97.3228 105.158C97.079 104.862 96.9626 104.481 96.9993 104.1C97.0361 103.718 97.2229 103.367 97.5186 103.123C97.8144 102.879 98.1949 102.763 98.5764 102.8L112.48 104.138C112.862 104.175 113.213 104.362 113.456 104.657C113.7 104.953 113.816 105.333 113.78 105.714L114.739 105.807C114.799 105.171 114.605 104.538 114.199 104.045C113.793 103.552 113.208 103.241 112.573 103.179L98.6688 101.84C98.033 101.779 97.3989 101.973 96.906 102.379C96.4132 102.785 96.1019 103.371 96.0407 104.007C95.9795 104.642 96.1734 105.277 96.5797 105.769C96.986 106.262 97.5714 106.574 98.2072 106.635L112.111 107.973C112.747 108.034 113.381 107.841 113.874 107.434C114.367 107.028 114.678 106.443 114.739 105.807L114.259 105.761Z" fill="#BAB7B5"/>
</svg>
