<svg width="162" height="612" viewBox="0 0 162 612" fill="none" xmlns="http://www.w3.org/2000/svg">
<path d="M86.5006 441.868C89.5491 421.672 81.7374 398.841 77.4505 389.949C81.2611 389.949 90.3112 390.902 96.0271 394.712C109.364 422.815 102.219 467.59 103.648 484.261C104.791 497.598 114.286 521.256 118.891 531.417C111.111 518.556 96.4081 486.738 99.8376 462.35C103.267 437.963 92.3753 407.097 86.5006 394.712C88.4059 404.874 92.0259 428.531 91.2638 441.868C90.3112 458.54 51.729 551.423 48.8711 573.81C48.8711 549.994 82.69 467.114 86.5006 441.868Z" fill="#536D09"/>
<path d="M63.6368 443.454C69.1469 437.854 82.2974 430.859 88.1839 428.062C88.697 428.88 89.1736 431.674 86.9758 436.306C84.2285 442.096 69.501 457.523 57.3368 460.529C61.4109 458.418 62.1605 455.594 62.026 454.446L43.3031 456.573C47.7852 454.533 58.1268 449.053 63.6368 443.454Z" fill="#79A400"/>
<path d="M24.5792 577.78C30.0892 572.181 43.2398 565.186 49.1263 562.388C49.6394 563.206 50.116 566.001 47.9182 570.632C45.1709 576.422 30.4434 591.849 18.2792 594.855C22.3533 592.744 23.1029 589.92 22.9684 588.772L4.2455 590.9C8.72757 588.859 19.0692 583.379 24.5792 577.78Z" fill="#79A400"/>
<path d="M77.0539 517.423C79.9218 504.587 92.408 483.001 98.2926 473.812C99.7462 474.52 102.899 478.068 103.879 486.595C105.104 497.253 97.8471 532.215 83.2288 547.261C87.1468 540.653 85.7103 535.977 84.5023 534.465L59.7882 554.072C64.3484 547.204 74.1859 530.258 77.0539 517.423Z" fill="#618106"/>
<path d="M87.97 479.368C88.6143 474.971 85.5251 461.121 83.8999 454.746C79.6792 456.505 69.0991 467.109 64.3366 472.19C65.2283 472.679 69.034 472.813 77.1237 469.441C54.5921 489.669 55.4363 499.122 56.0223 496.814C56.4911 494.967 67.5261 486.858 72.9851 483.035C72.7041 484.011 70.9993 487.68 66.4279 494.541C60.7135 503.116 62.069 505.13 59.799 519.493C63.7265 517.031 71.6683 504.224 75.1482 498.129C75.894 504.871 77.9059 517.621 79.9867 514.69C82.0675 511.758 81.3881 489.164 80.7884 478.233L85.553 489.664C86.0902 488.064 87.3256 483.765 87.97 479.368Z" fill="#79A400"/>
<path d="M86.4488 544.436C84.4388 538.956 72.1978 524.901 66.3285 518.558C62.5573 523.233 56.983 542.101 54.6673 550.951C56.0027 550.957 60.4804 548.728 67.7087 539.768C54.364 577.235 61.2593 587.62 60.49 584.588C59.8746 582.162 67.5366 565.889 71.4445 558.055C71.7319 559.359 72.0614 564.662 71.0802 575.446C69.8538 588.927 72.6801 590.403 79.0553 608.408C82.0475 603.105 83.1958 583.345 83.3959 574.128C88.4795 581.444 98.7883 594.906 99.3547 590.218C99.9211 585.53 84.9851 559.869 77.4463 547.624L90.107 557.838C89.7251 555.654 88.4588 549.916 86.4488 544.436Z" fill="#638505"/>
<path d="M131.015 519.456C128.003 516.189 115.295 509.875 109.318 507.126C108.029 511.513 109.612 526.408 110.565 533.308C111.506 532.922 114.004 530.048 116.474 521.639C118.017 551.88 125.895 557.172 124.47 555.264C123.33 553.737 123.972 540.059 124.435 533.41C125.018 534.243 126.796 537.876 129.251 545.746C132.321 555.584 134.739 555.798 144.473 566.6C145.031 561.998 140.075 547.767 137.528 541.227C143.237 544.89 154.412 551.349 153.443 547.888C152.474 544.426 134.486 530.736 125.614 524.324L137.496 527.814C136.59 526.389 134.027 522.724 131.015 519.456Z" fill="#79A400"/>
<path d="M88.2238 441.222C86.9936 449.166 91.9886 467.176 94.6399 475.187C95.3722 470.754 96.8222 463.337 96.764 469.141C96.7057 474.945 102.604 485.629 105.56 490.245C106.122 486.227 107.618 477.106 109.113 472.767C110.981 467.344 104.237 453.642 98.3005 446.827C93.5513 441.376 91.5817 434.834 91.1905 432.245C91.2028 433.1 90.6267 436.093 88.2238 441.222Z" fill="#79A400"/>
<path d="M98.9477 434.562C96.8074 448.383 105.498 479.718 110.111 493.657C111.385 485.943 113.908 473.04 113.807 483.138C113.706 493.237 123.968 511.825 129.112 519.857C130.088 512.865 132.692 496.995 135.292 489.447C138.542 480.011 126.809 456.17 116.48 444.314C108.217 434.829 104.79 423.447 104.11 418.942C104.131 420.43 103.129 425.636 98.9477 434.562Z" fill="url(#paint0_linear_613_9665)"/>
<path d="M62.46 494.041C54.605 497.874 41.6291 513.514 36.1231 520.855C40.5355 518.756 48.0561 515.446 42.8388 518.997C37.6215 522.549 31.746 534.447 29.4605 539.951C33.3962 537.958 42.4678 533.631 47.2684 532.272C53.2692 530.573 61.315 516.046 63.7126 506.516C65.6307 498.892 70.2473 493.073 72.3158 491.116C71.5603 491.658 68.5313 493.001 62.46 494.041Z" fill="#6A8D04"/>
<path d="M17.2035 278.489C18.1562 192.275 78.6492 0.316406 87.223 0.316406C100.084 0.316406 160.577 188.464 160.577 278.489C160.577 368.514 137.713 395.664 87.223 397.57C36.7328 399.475 16.2509 364.703 17.2035 278.489Z" fill="#F4530A"/>
<path d="M124.376 372.801C113.897 388.044 98.6547 395.665 73.4095 398.046C9.10595 387.09 17.2034 284.682 18.6324 245.147C20.0614 205.612 78.1728 8.89045 86.2703 1.7456C94.3678 -5.39924 129.139 150.358 137.713 213.709C146.287 277.06 138.8 351.821 124.376 372.801Z" fill="#FF6000"/>
<path d="M70.5517 388.994C54.9283 390.137 45.3066 383.437 42.4487 379.944C30.5406 372.7 9.58238 333.264 19.5852 244.192C29.5879 155.12 81.0308 1.26726 85.794 4.1252C94.8442 7.93578 115.802 227.522 116.755 280.87C117.708 334.219 90.0809 387.565 70.5517 388.994Z" fill="url(#paint1_linear_613_9665)"/>
<path d="M83.6445 292.874C144.614 289.918 155.093 247.528 150.33 292.874C137.227 297.871 100.413 294.956 83.6445 292.874Z" fill="#F4530A"/>
<path opacity="0.6" d="M91.5107 303.359C102.942 300.236 106.436 298.674 109.611 303.359C106.054 308.356 96.0623 305.441 91.5107 303.359Z" fill="#F4530A"/>
<path d="M79.126 369.09C93.5661 365.966 97.9783 364.405 101.989 369.09C97.497 374.087 84.8753 371.172 79.126 369.09Z" fill="#F4530A"/>
<path d="M72.458 311.404C83.8898 309.843 87.3828 309.062 90.5583 311.404C87.0017 313.903 77.0095 312.445 72.458 311.404Z" fill="#F4530A"/>
<path d="M93.416 338.08C108.458 336.518 113.054 335.738 117.232 338.08C112.552 340.578 99.4049 339.121 93.416 338.08Z" fill="#F4530A"/>
<path opacity="0.6" d="M22.0054 255.573C19.1447 315.376 18.9398 362.038 47.7446 380.743C69.1992 394.675 64.7297 174.218 58.4721 155.213C52.2145 136.208 25.5812 180.818 22.0054 255.573Z" fill="url(#paint2_linear_613_9665)"/>
<path opacity="0.6" d="M39.1143 251.421C76.4179 248.818 87.8162 247.517 98.1783 251.421C86.5727 255.585 53.9666 253.156 39.1143 251.421Z" fill="#F4530A"/>
<path opacity="0.6" d="M63.6367 89.4717C100.94 86.8691 112.339 85.5677 122.701 89.4717C111.095 93.636 78.4891 91.2068 63.6367 89.4717Z" fill="#F4530A"/>
<path opacity="0.6" d="M46.4893 120.909C66.9461 118.307 73.1968 117.005 78.8792 120.909C72.5149 125.073 54.6341 122.644 46.4893 120.909Z" fill="#F4530A"/>
<path opacity="0.6" d="M34.1055 355.818C78.6291 350.613 92.2336 348.01 104.601 355.818C90.7495 364.147 51.8325 359.289 34.1055 355.818Z" fill="#F4530A"/>
<defs>
<linearGradient id="paint0_linear_613_9665" x1="135.72" y1="517.102" x2="96.1832" y2="422.246" gradientUnits="userSpaceOnUse">
<stop stop-color="#79A400"/>
<stop offset="1" stop-color="#475C0B"/>
</linearGradient>
<linearGradient id="paint1_linear_613_9665" x1="42.6804" y1="200.848" x2="131.276" y2="200.848" gradientUnits="userSpaceOnUse">
<stop stop-color="#FF7200"/>
<stop offset="1" stop-color="#FF7200" stop-opacity="0"/>
</linearGradient>
<linearGradient id="paint2_linear_613_9665" x1="25.9492" y1="232.768" x2="63.6355" y2="232.768" gradientUnits="userSpaceOnUse">
<stop stop-color="#FFE472"/>
<stop offset="1" stop-color="#FFE472" stop-opacity="0"/>
</linearGradient>
</defs>
</svg>
