<svg width="206" height="542" viewBox="0 0 206 542" fill="none" xmlns="http://www.w3.org/2000/svg">
<path style="mix-blend-mode:multiply" d="M7.41215 0.539062L0 4.41995L4.85986 538.089L199.242 539.278L200.664 13.6502L7.41215 0.539062Z" fill="url(#paint0_linear_613_8641)"/>
<path d="M200.664 13.7185L202.01 541.654L9.71973 538.082L12.3944 5.54297L98.1062 6.62682L197.174 10.1231L200.664 13.7185Z" fill="#FFE8DD"/>
<path d="M201.969 9.1465L200.25 541.51L189.429 541.557L191.818 128.836L193.566 17.2987L97.488 13.9131C54.6467 12.3922 17.5917 10.9121 13.4544 10.749L12.8076 4.55469L201.969 9.1465Z" fill="#BD502F"/>
<path d="M202.057 541.655L205.437 8.81939V8.68538L7.40625 0.527344L8.97376 537.914L202.057 541.655ZM16.3743 538.072L16.5374 7.74136L198.578 13.1198V13.6676L195.74 541.562L16.3743 538.072Z" fill="#F8A96D"/>
<path style="mix-blend-mode:color-dodge" opacity="0.73" d="M204.032 95.8881L197.442 98.5919L197.354 78.0919L204.213 71.0469L204.032 95.8881Z" fill="url(#paint1_linear_613_8641)"/>
<path style="mix-blend-mode:color-dodge" opacity="0.73" d="M203.829 107.999L197.483 107.952L197.448 100.785L203.998 97.9414L203.829 107.999Z" fill="url(#paint2_linear_613_8641)"/>
<path d="M17.4348 7.92208L7.41211 0.539062L16.5899 8.64465L17.4348 7.92208Z" fill="#BD502F"/>
<path d="M196.801 13.2058L204.767 9.44141L198.584 13.637L196.801 13.2058Z" fill="#BD502F"/>
<path d="M56.7802 318.593C56.7802 321.279 55.7134 323.856 53.8142 325.756C51.9151 327.656 49.3391 328.724 46.6526 328.726C46.1904 328.728 45.7287 328.695 45.2715 328.627C42.8499 328.291 40.6316 327.09 39.0261 325.246C37.4205 323.403 36.5361 321.04 36.5361 318.595C36.5361 316.151 37.4205 313.788 39.0261 311.945C40.6316 310.101 42.8499 308.9 45.2715 308.564C45.7287 308.496 46.1904 308.463 46.6526 308.465C49.3386 308.465 51.9146 309.532 53.8139 311.431C55.7132 313.331 56.7802 315.907 56.7802 318.593Z" fill="#F8A96D"/>
<path d="M179.133 33.504V289.025H33.7568V26.4531L179.133 33.504Z" fill="url(#paint3_radial_613_8641)"/>
<path style="mix-blend-mode:multiply" opacity="0.47" d="M179.127 33.4496V288.982H176.004V47.1551L33.7568 40.3024V26.457L179.127 33.4496Z" fill="url(#paint4_linear_613_8641)"/>
<path style="mix-blend-mode:multiply" opacity="0.3" d="M179.133 284.845V289.023H33.7568V282.672L179.133 284.845Z" fill="url(#paint5_linear_613_8641)"/>
<path d="M48.039 328.627C47.5796 328.692 47.1162 328.725 46.6522 328.726C44.0075 328.663 41.4924 327.567 39.6443 325.674C37.7963 323.782 36.7617 321.241 36.7617 318.595C36.7617 315.95 37.7963 313.409 39.6443 311.516C41.4924 309.624 44.0075 308.528 46.6522 308.465C47.1163 308.463 47.58 308.496 48.039 308.564C45.6174 308.9 43.3991 310.101 41.7936 311.945C40.188 313.788 39.3036 316.151 39.3036 318.595C39.3036 321.04 40.188 323.403 41.7936 325.246C43.3991 327.09 45.6174 328.291 48.039 328.627Z" fill="#BD502F"/>
<path d="M48.0392 315.297H94.1146V320.786L52.3571 318.595L46.6523 320.786L48.0392 315.297Z" fill="#F8A96D"/>
<path d="M45.9235 322.441L52.8578 320.786H94.1141L53.9591 318.677C53.9591 318.677 50.3172 317.511 52.7354 315.297H46.6519C46.6519 315.297 43.814 316.264 45.9235 322.441Z" fill="#BD502F"/>
<defs>
<linearGradient id="paint0_linear_613_8641" x1="-98.887" y1="383.681" x2="164.915" y2="235.065" gradientUnits="userSpaceOnUse">
<stop stop-color="#D9B8E1"/>
<stop offset="1" stop-color="#EDCED8"/>
</linearGradient>
<linearGradient id="paint1_linear_613_8641" x1="156.879" y1="104.46" x2="220.319" y2="76.2679" gradientUnits="userSpaceOnUse">
<stop stop-color="#BE9976"/>
<stop offset="1"/>
</linearGradient>
<linearGradient id="paint2_linear_613_8641" x1="166.931" y1="119.374" x2="223.874" y2="94.0664" gradientUnits="userSpaceOnUse">
<stop stop-color="#BE9976"/>
<stop offset="1"/>
</linearGradient>
<radialGradient id="paint3_radial_613_8641" cx="0" cy="0" r="1" gradientUnits="userSpaceOnUse" gradientTransform="translate(106.445 158.014) scale(52.4736 461.243)">
<stop stop-color="#FEF8F1"/>
<stop offset="1" stop-color="#F3DFDE"/>
</radialGradient>
<linearGradient id="paint4_linear_613_8641" x1="33.7568" y1="157.72" x2="179.127" y2="157.72" gradientUnits="userSpaceOnUse">
<stop stop-color="#E7CBD4"/>
<stop offset="1" stop-color="#BC596F"/>
</linearGradient>
<linearGradient id="paint5_linear_613_8641" x1="33.7568" y1="285.848" x2="179.133" y2="285.848" gradientUnits="userSpaceOnUse">
<stop stop-color="#E7CBD4"/>
<stop offset="1" stop-color="#BC596F"/>
</linearGradient>
</defs>
</svg>
