<svg width="97" height="581" viewBox="0 0 97 581" fill="none" xmlns="http://www.w3.org/2000/svg">
<path d="M74.4592 219.246L12.5919 219.18C10.9428 219.178 9.31024 219.508 7.7915 220.151C6.27276 220.794 4.89893 221.736 3.7519 222.921C2.60487 224.105 1.7081 225.509 1.11503 227.048C0.521958 228.587 0.244706 230.229 0.299836 231.877L10.6001 566.502C10.7384 570.315 12.3495 573.926 15.0947 576.576C17.84 579.226 21.5056 580.709 25.3211 580.712L60.9612 580.75C64.7768 580.755 68.4457 579.281 71.1968 576.637C73.9479 573.993 75.567 570.386 75.7138 566.573L86.7236 231.969C86.7825 230.321 86.5089 228.678 85.9192 227.138C85.3296 225.598 84.4358 224.192 83.2914 223.005C82.1469 221.818 80.775 220.873 79.2576 220.227C77.7402 219.581 76.1083 219.247 74.4592 219.246Z" fill="#E6252E"/>
<path d="M32.1642 570.952C30.6901 570.955 29.2728 570.385 28.2122 569.361C27.1516 568.337 26.5311 566.941 26.4822 565.468L16.1754 230.842C16.1372 229.678 18.2225 221.163 19.4139 221.164L81.2812 221.23C82.4739 221.23 84.5408 229.75 84.4974 230.94L73.4955 565.511C73.4435 566.984 72.8203 568.379 71.7578 569.401C70.6953 570.423 69.277 570.991 67.803 570.985L32.1642 570.952Z" fill="#DE3A6B"/>
<path d="M42.1725 547.441L33.3256 245.755C33.0123 237.182 39.891 221.28 48.4653 221.289L66.8145 221.309C75.3915 221.318 82.236 237.238 81.9055 245.806L72.4189 547.472C72.2673 551.383 70.6062 555.083 67.7843 557.795C64.9625 560.507 61.1995 562.02 57.2858 562.016L57.27 562.016C53.3569 562.011 49.5978 560.49 46.7825 557.772C43.9672 555.055 42.3148 551.351 42.1725 547.441Z" fill="#FF6A97"/>
<path d="M74.7239 219.245L12.3262 219.18L12.3366 209.18L74.7344 209.245L74.7239 219.245Z" fill="#DE3A6B"/>
<path d="M5.95422 415.594L10.6001 566.505C10.7384 570.318 12.3495 573.929 15.0947 576.579C17.84 579.229 21.5056 580.711 25.3211 580.715L60.9612 580.753C64.7768 580.758 68.4457 579.283 71.1968 576.64C73.9479 573.996 75.567 570.388 75.7138 566.576L80.6836 415.674L5.95422 415.594Z" fill="#B4CBDB"/>
<path d="M25.3227 580.71C19.804 580.71 15.3279 571.852 15.1265 566.332L11.7115 415.594L74.9229 415.661L71.1867 566.399C70.9747 571.913 66.4802 580.756 60.9615 580.749L25.3227 580.71Z" fill="#CAD4DB"/>
<path d="M25.3231 580.715C25.1729 580.718 25.0236 580.691 24.8837 580.636C24.7439 580.581 24.6164 580.499 24.5086 580.395C24.4007 580.29 24.3146 580.165 24.2554 580.027C24.1961 579.889 24.1648 579.741 24.1632 579.59L21.1156 415.609L65.5195 415.658L62.1217 579.635C62.12 579.785 62.0885 579.933 62.029 580.071C61.9695 580.209 61.8832 580.333 61.7751 580.437C61.6671 580.541 61.5394 580.623 61.3996 580.677C61.2597 580.731 61.1104 580.757 60.9605 580.753L25.3231 580.715Z" fill="#DCE8F0"/>
<path d="M67.7754 33.0097C67.7885 20.0172 61.6142 8.82047 52.6765 3.52027L52.6765 0.255365L41.1151 0.242201C26.3704 0.22772 14.4074 14.8711 14.3903 32.9505C14.3732 51.0299 26.3124 65.7022 41.0479 65.718C55.7834 65.7338 67.7556 51.0891 67.7754 33.0097Z" fill="#94C6E8"/>
<path d="M17.3826 32.9583C17.4024 14.8789 29.3627 0.234216 44.1074 0.250013L41.1164 0.250013C26.3716 0.235533 14.4087 14.8789 14.3916 32.9583C14.3744 51.0377 26.3124 65.7047 41.0479 65.7205C41.5548 65.7205 42.0471 65.6626 42.5448 65.6283C28.5044 64.6568 17.3602 50.4189 17.3826 32.9583Z" fill="#88BDE3"/>
<path d="M60.6729 209.227L25.4843 209.19L30.6186 63.0977C32.0089 60.1198 36.323 60.9913 37.9146 61.4113C38.2753 61.514 38.5308 61.6167 38.5308 61.6167L46.9563 62.9095L51.3258 63.5835L54.1509 63.9969L55.8979 64.2602L60.6729 209.227Z" fill="#A7CFEB"/>
<path d="M58.7256 204.708L32.9382 204.68L37.9184 61.4141C38.2791 61.5168 38.5346 61.6194 38.5346 61.6194L46.9601 62.9122L51.3256 63.5863L54.1508 63.9996L58.7256 204.708Z" fill="#BDDCF3"/>
<path d="M55.8027 200.18L39.3637 200.162L44.1333 62.9063L46.9585 62.9089L51.3253 63.5816L55.8027 200.18Z" fill="#D4ECFF"/>
<path d="M63.7942 209.231L22.3721 209.188L22.3825 199.187L63.8046 199.231L63.7942 209.231Z" fill="#DE3A6B"/>
<path d="M78.1904 33.0227C78.172 51.1021 66.2103 65.7467 51.4656 65.731C36.7209 65.7152 24.7895 51.0455 24.8093 32.9661C24.829 14.8867 36.7893 0.242031 51.5341 0.257828C66.2788 0.273624 78.2102 14.9433 78.1904 33.0227Z" fill="#B6D9F2"/>
<path d="M74.3984 33.016C74.3826 48.5269 64.1166 61.0902 51.4691 61.0771C38.8215 61.0639 28.5832 48.4782 28.599 32.9673C28.6148 17.4564 38.8821 4.89178 51.5283 4.90626C64.1745 4.92074 74.4142 17.5051 74.3984 33.016Z" fill="#C0E5FF"/>
<path d="M89.0975 22.228C86.8305 24.4911 67.9651 24.4661 65.7021 22.203C65.1637 21.6638 64.7369 21.0237 64.4459 20.3195C64.155 19.6152 64.0056 18.8605 64.0063 18.0985C64.0071 17.3366 64.1579 16.5822 64.4502 15.8785C64.7425 15.1748 65.1706 14.5356 65.71 13.9973C67.9783 11.7343 86.8436 11.7593 89.1067 14.0223C89.6449 14.5617 90.0717 15.2018 90.3625 15.9061C90.6534 16.6104 90.8026 17.3651 90.8018 18.1271C90.8009 18.8891 90.6499 19.6434 90.3575 20.3471C90.0651 21.0507 89.6369 21.6899 89.0975 22.228Z" fill="#E6252E"/>
<path d="M65.6692 52.0233C64.5825 50.9339 63.973 49.4574 63.9747 47.9186C63.9764 46.3798 64.5893 44.9047 65.6784 43.8176C67.9467 41.5546 86.8108 41.5796 89.0751 43.8427C90.1618 44.9319 90.7713 46.4082 90.7695 47.9468C90.7678 49.4853 90.155 50.9602 89.0659 52.047C86.7989 54.3114 67.9336 54.2903 65.6692 52.0233Z" fill="#E6252E"/>
<path d="M71.8633 37.1164C70.7753 36.0282 70.1642 34.5524 70.1642 33.0136C70.1642 31.4748 70.7753 29.999 71.8633 28.9107C74.1316 26.649 92.9969 26.6727 95.26 28.9371C96.3468 30.0261 96.9566 31.5023 96.9551 33.0409C96.9536 34.5795 96.341 36.0545 95.2521 37.1414C92.9904 39.4058 74.125 39.3848 71.8633 37.1164Z" fill="#E6252E"/>
<path d="M50.7991 16.0094C49.7124 14.9201 49.1029 13.4438 49.1047 11.9053C49.1064 10.3667 49.7192 8.89177 50.8083 7.80497C53.0766 5.54061 71.942 5.56035 74.205 7.82999C75.2917 8.91923 75.9011 10.3955 75.8994 11.9341C75.8977 13.4727 75.2849 14.9476 74.1958 16.0344C71.9275 18.2974 53.0608 18.2777 50.7991 16.0094Z" fill="#DE3A6B"/>
<path d="M50.7531 58.1796C49.6663 57.0901 49.0568 55.6136 49.0586 54.0748C49.0603 52.536 49.6731 51.0609 50.7623 49.9739C53.0306 47.7108 71.8959 47.7359 74.159 49.9989C75.2457 51.0884 75.8552 52.5649 75.8535 54.1037C75.8518 55.6425 75.239 57.1176 74.1498 58.2046C71.8815 60.4677 53.0174 60.4479 50.7531 58.1796Z" fill="#DE3A6B"/>
<path d="M75.3459 38.9571C67.8868 38.9493 61.8428 36.2823 61.8462 33.0003C61.8497 29.7183 67.8993 27.064 75.3584 27.0718C82.8175 27.0796 88.8615 29.7466 88.858 33.0286C88.8546 36.3106 82.805 38.9649 75.3459 38.9571Z" fill="#DE3A6B"/>
<path d="M59.9202 27.9665C59.6059 27.6522 59.3565 27.2791 59.1864 26.8684C59.0163 26.4577 58.9288 26.0176 58.9288 25.5731C58.9288 25.1286 59.0163 24.6885 59.1864 24.2778C59.3565 23.8671 59.6059 23.494 59.9202 23.1797C61.2446 21.8632 83.3261 21.883 84.6465 23.2074C84.9608 23.5214 85.21 23.8943 85.3801 24.3048C85.5502 24.7152 85.6377 25.1551 85.6377 25.5994C85.6377 26.0437 85.5502 26.4836 85.3801 26.8941C85.21 27.3045 84.9608 27.6774 84.6465 27.9915C83.3169 29.3119 61.2393 29.2882 59.9202 27.9665Z" fill="#DE3A6B"/>
<path d="M59.903 42.8169C59.2689 42.182 58.9128 41.3214 58.9128 40.4242C58.9128 39.5269 59.2689 38.6663 59.903 38.0314C61.2274 36.7149 83.3089 36.7347 84.6294 38.0578C85.2637 38.6925 85.6201 39.5531 85.6201 40.4505C85.6201 41.3479 85.2637 42.2085 84.6294 42.8432C83.3063 44.1637 61.2234 44.14 59.903 42.8169Z" fill="#DE3A6B"/>
<path d="M52.4766 45.8872C52.1623 45.573 51.913 45.2 51.7429 44.7894C51.5729 44.3789 51.4853 43.9389 51.4853 43.4945C51.4853 43.0501 51.5729 42.6101 51.7429 42.1995C51.913 41.789 52.1623 41.4159 52.4766 41.1018C53.7931 39.7853 75.8825 39.805 77.2017 41.1281C77.516 41.4421 77.7654 41.8149 77.9356 42.2254C78.1058 42.6358 78.1934 43.0758 78.1934 43.5201C78.1934 43.9645 78.1058 44.4044 77.9356 44.8149C77.7654 45.2253 77.516 45.5982 77.2017 45.9122C75.8799 47.2327 53.7957 47.2116 52.4766 45.8872Z" fill="#FF6A97"/>
<path d="M52.4991 24.8872C51.8648 24.2525 51.5084 23.3919 51.5084 22.4945C51.5084 21.5971 51.8648 20.7365 52.4991 20.1017C53.8235 18.7853 75.9051 18.805 77.2255 20.1281C77.5398 20.4423 77.7891 20.8153 77.9592 21.2258C78.1292 21.6364 78.2168 22.0764 78.2168 22.5208C78.2168 22.9652 78.1292 23.4052 77.9592 23.8158C77.7891 24.2263 77.5398 24.5993 77.2255 24.9135C75.9024 26.2327 53.8196 26.209 52.4991 24.8872Z" fill="#FF6A97"/>
<path d="M78.8346 38.0518C76.0528 40.8283 52.6232 40.8032 49.8467 38.0215C49.186 37.3605 48.6622 36.5758 48.3051 35.7121C47.948 34.8485 47.7647 33.9229 47.7656 32.9883C47.7666 32.0538 47.9519 31.1286 48.3108 30.2657C48.6697 29.4028 49.1952 28.6191 49.8573 27.9595C52.6429 25.1844 76.0699 25.2081 78.8411 27.9885C79.5023 28.6492 80.0266 29.4339 80.3842 30.2975C80.7417 31.1611 80.9254 32.0868 80.9248 33.0215C80.9242 33.9562 80.7393 34.8816 80.3806 35.7448C80.0219 36.6079 79.4966 37.3919 78.8346 38.0518Z" fill="#E6252E"/>
<path d="M45.0557 42.8013C44.7415 42.4871 44.4921 42.1141 44.322 41.7035C44.152 41.293 44.0644 40.8529 44.0644 40.4085C44.0644 39.9641 44.152 39.5241 44.322 39.1136C44.4921 38.703 44.7415 38.33 45.0557 38.0158C46.3788 36.6993 68.4616 36.7191 69.7821 38.0421C70.4156 38.6777 70.7708 39.5389 70.7695 40.4362C70.7683 41.3336 70.4107 42.1938 69.7755 42.8276C68.459 44.148 46.3762 44.1243 45.0557 42.8013Z" fill="#FF6A97"/>
<path d="M45.0714 27.9577C44.437 27.323 44.0807 26.4623 44.0807 25.5649C44.0807 24.6676 44.437 23.8069 45.0714 23.1722C46.3879 21.8557 68.4773 21.8755 69.7978 23.1972C70.4319 23.8323 70.7881 24.6931 70.7881 25.5906C70.7881 26.4881 70.4319 27.3489 69.7978 27.984C68.4747 29.3084 46.3919 29.2807 45.0714 27.9577Z" fill="#FF6A97"/>
<path d="M42.0726 35.3729C41.7583 35.0586 41.509 34.6855 41.3389 34.2748C41.1688 33.8641 41.0812 33.424 41.0812 32.9795C41.0812 32.535 41.1688 32.0949 41.3389 31.6842C41.509 31.2736 41.7583 30.9004 42.0726 30.5861C43.3957 29.2696 65.4772 29.2894 66.7977 30.6125C67.112 30.9268 67.3613 31.2999 67.5314 31.7105C67.7015 32.1212 67.7891 32.5613 67.7891 33.0058C67.7891 33.4503 67.7015 33.8905 67.5314 34.3011C67.3613 34.7118 67.112 35.0849 66.7977 35.3992C65.4746 36.7183 43.3931 36.6946 42.0726 35.3729Z" fill="#FF6A97"/>
<path d="M35.8509 51.9921C34.7644 50.9026 34.1548 49.4263 34.1563 47.8876C34.1578 46.3489 34.7702 44.8738 35.8588 43.7864C38.1285 41.5233 56.9925 41.5484 59.2555 43.8114C59.7938 44.3506 60.2206 44.9905 60.5116 45.6947C60.8025 46.3988 60.9519 47.1534 60.9512 47.9152C60.9504 48.6771 60.7996 49.4314 60.5073 50.135C60.215 50.8386 59.787 51.4777 59.2476 52.0158C56.9793 54.2788 38.114 54.2604 35.8509 51.9921Z" fill="#DE3A6B"/>
<path d="M35.882 22.1658C34.7951 21.0767 34.1854 19.6005 34.1869 18.0619C34.1884 16.5234 34.8009 15.0484 35.8899 13.9614C38.1595 11.697 57.0235 11.7168 59.2879 13.9851C60.3746 15.0745 60.9841 16.551 60.9824 18.0898C60.9807 19.6286 60.3678 21.1038 59.2787 22.1908C57.0117 24.4538 38.145 24.4315 35.882 22.1658Z" fill="#DE3A6B"/>
<path d="M29.7826 37.0694C29.2443 36.5302 28.8175 35.8903 28.5265 35.1862C28.2356 34.482 28.0862 33.7275 28.087 32.9656C28.0877 32.2037 28.2385 31.4494 28.5308 30.7458C28.8231 30.0423 29.2511 29.4031 29.7905 28.865C32.0588 26.6007 50.9241 26.627 53.1872 28.89C53.7255 29.4292 54.1523 30.0691 54.4433 30.7733C54.7342 31.4774 54.8835 32.232 54.8828 32.9939C54.8821 33.7557 54.7313 34.51 54.439 35.2136C54.1467 35.9172 53.7186 36.5563 53.1793 37.0944C50.911 39.3575 32.0457 39.3364 29.7826 37.0694Z" fill="#DE3A6B"/>
</svg>
