<svg width="191" height="601" viewBox="0 0 191 601" fill="none" xmlns="http://www.w3.org/2000/svg">
<path fill-rule="evenodd" clip-rule="evenodd" d="M6.99875 0.117188L1.13881 2.27623L0.569336 600.998H9.681L6.99875 0.117188Z" fill="url(#paint0_linear_801_2371)"/>
<path fill-rule="evenodd" clip-rule="evenodd" d="M185.252 593.025L10.0971 601L10.0117 573.867L6.83398 0L190.536 27.2529L185.252 593.025Z" fill="url(#paint1_linear_801_2371)"/>
<path fill-rule="evenodd" clip-rule="evenodd" d="M169.363 591.574H69.4765H69.0722H26.3556L26.2873 573.117L23.6904 20.2422L33.8101 21.4442L33.9126 21.4556L171.783 40.7673L173.68 41.0066L173.668 42.2485L169.363 591.574Z" fill="url(#paint2_linear_801_2371)"/>
<path style="mix-blend-mode:multiply" opacity="0.5" fill-rule="evenodd" clip-rule="evenodd" d="M22.9043 594.955V600.999H24.2938V589.15L24.271 406.953V405.404L24.2426 20.6328H23.7073V20.7183L22.9271 589.099L22.9043 594.955Z" fill="url(#paint3_linear_801_2371)"/>
<path style="mix-blend-mode:multiply" opacity="0.5" fill-rule="evenodd" clip-rule="evenodd" d="M173.247 587.853V593.595H174.637V582.338L174.614 409.222V407.747L174.585 42.1562H174.05V42.236L173.27 582.287L173.247 587.853Z" fill="url(#paint4_linear_801_2371)"/>
<g style="mix-blend-mode:multiply" opacity="0.12">
<path fill-rule="evenodd" clip-rule="evenodd" d="M150.359 388.718L157.21 58.3108L48.7471 47.5156L49.7323 385.699L150.359 388.718Z" fill="#FFBEA7"/>
</g>
<path style="mix-blend-mode:multiply" opacity="0.3" fill-rule="evenodd" clip-rule="evenodd" d="M157.211 58.3125L150.36 388.72L147.706 385.325L152.12 61.4685L157.211 58.3125Z" fill="url(#paint5_linear_801_2371)"/>
<path fill-rule="evenodd" clip-rule="evenodd" d="M49.7324 385.699L150.359 388.718L147.706 385.323L51.8338 382.406L49.7324 385.699Z" fill="url(#paint6_linear_801_2371)"/>
<path style="mix-blend-mode:multiply" opacity="0.3" fill-rule="evenodd" clip-rule="evenodd" d="M157.21 58.3095L152.119 61.4655L51.475 50.6247L49.5615 48.0156L157.21 58.3095Z" fill="url(#paint7_linear_801_2371)"/>
<path fill-rule="evenodd" clip-rule="evenodd" d="M52.1867 381.41L51.4749 50.626L48.7471 47.5156L49.7323 385.699L52.1867 381.41Z" fill="url(#paint8_linear_801_2371)"/>
<path style="mix-blend-mode:multiply" opacity="0.35" fill-rule="evenodd" clip-rule="evenodd" d="M149.152 561.618L150.16 417.68L49.163 418.705L48.4512 560.894L149.152 561.618Z" fill="url(#paint9_linear_801_2371)"/>
<path style="mix-blend-mode:multiply" opacity="0.3" fill-rule="evenodd" clip-rule="evenodd" d="M150.16 417.68L149.152 561.618L146.51 558.576L145.098 420.801L150.16 417.68Z" fill="url(#paint10_linear_801_2371)"/>
<path fill-rule="evenodd" clip-rule="evenodd" d="M48.4512 560.893L149.152 561.616L146.51 558.574L50.5412 557.828L48.4512 560.893Z" fill="url(#paint11_linear_801_2371)"/>
<path style="mix-blend-mode:multiply" opacity="0.3" fill-rule="evenodd" clip-rule="evenodd" d="M150.16 417.68L145.098 420.801L51.7999 420.87L49.1006 418.198L150.16 417.68Z" fill="url(#paint12_linear_801_2371)"/>
<path fill-rule="evenodd" clip-rule="evenodd" d="M50.8942 556.91L51.7997 420.867L49.1004 418.195L48.4512 560.891L50.8942 556.91Z" fill="url(#paint13_linear_801_2371)"/>
<path style="mix-blend-mode:multiply" opacity="0.4" fill-rule="evenodd" clip-rule="evenodd" d="M150.564 376.645C150.496 386.677 154.038 394.943 158.48 395.103C162.922 395.262 166.572 387.275 166.647 377.255C166.721 367.234 163.184 358.969 158.742 358.792C154.3 358.615 150.638 366.608 150.564 376.645Z" fill="url(#paint14_linear_801_2371)"/>
<path fill-rule="evenodd" clip-rule="evenodd" d="M156.606 360.731C156.606 363.22 159.579 365.356 163.286 365.499C166.994 365.641 170.001 363.744 170.018 361.261C170.035 358.777 167.051 356.641 163.349 356.492C159.647 356.344 156.606 358.241 156.606 360.731Z" fill="#702336"/>
<path fill-rule="evenodd" clip-rule="evenodd" d="M161.732 360.302C161.675 368.579 166.612 375.478 172.763 375.683C178.913 375.888 183.93 369.417 183.993 361.157C184.056 352.896 179.135 345.992 172.991 345.741C166.846 345.491 161.772 352.019 161.732 360.302Z" fill="url(#paint15_radial_801_2371)"/>
<path style="mix-blend-mode:multiply" opacity="0.15" fill-rule="evenodd" clip-rule="evenodd" d="M47.9612 168.062L24.3506 191.909L26.1558 478.879L49.3849 455.637L47.9612 168.062Z" fill="url(#paint16_linear_801_2371)"/>
<path style="mix-blend-mode:multiply" opacity="0.15" fill-rule="evenodd" clip-rule="evenodd" d="M25.4952 43.9464L171.589 59.7376L171.772 39.7195L22.084 17.6562L25.4952 43.9464Z" fill="url(#paint17_linear_801_2371)"/>
<path style="mix-blend-mode:multiply" opacity="0.35" fill-rule="evenodd" clip-rule="evenodd" d="M152.114 61.4679L147.706 385.324L84.8926 383.416L51.8344 382.408L51.4756 50.6328L87.2047 54.4781L152.114 61.4679Z" fill="url(#paint18_linear_801_2371)"/>
<path style="mix-blend-mode:multiply" opacity="0.7" fill-rule="evenodd" clip-rule="evenodd" d="M9.8406 600.128H0.27335L0.26196 579.358L0.170844 381.752L0.165149 372.728L0.119591 282.253L0.0797271 205.929L0 35.0628V35.0287L8.96929 21.2997V21.2085H9.01485L9.47044 20.5078L9.49321 51.3155L9.58433 195.51L9.6185 253.269L9.62989 261.774L9.71531 399.952V401.502L9.8349 580.816V586.376L9.8406 600.128Z" fill="url(#paint19_linear_801_2371)"/>
<defs>
<linearGradient id="paint0_linear_801_2371" x1="-71.4071" y1="-219.291" x2="62.274" y2="704.317" gradientUnits="userSpaceOnUse">
<stop stop-color="#FDCFB8"/>
<stop offset="1" stop-color="#EA92A3"/>
</linearGradient>
<linearGradient id="paint1_linear_801_2371" x1="192.416" y1="110.937" x2="-42.1045" y2="562.233" gradientUnits="userSpaceOnUse">
<stop stop-color="#FDF0E1"/>
<stop offset="1" stop-color="#EAC3C2"/>
</linearGradient>
<linearGradient id="paint2_linear_801_2371" x1="189.477" y1="126.924" x2="-30.85" y2="550.908" gradientUnits="userSpaceOnUse">
<stop stop-color="#FDF0E1"/>
<stop offset="1" stop-color="#EAC3C2"/>
</linearGradient>
<linearGradient id="paint3_linear_801_2371" x1="-4.33386" y1="319.054" x2="-64.9352" y2="336.668" gradientUnits="userSpaceOnUse">
<stop stop-color="#880041"/>
<stop offset="1" stop-color="white"/>
</linearGradient>
<linearGradient id="paint4_linear_801_2371" x1="147.393" y1="325.714" x2="89.7812" y2="342.452" gradientUnits="userSpaceOnUse">
<stop stop-color="#880041"/>
<stop offset="1" stop-color="white"/>
</linearGradient>
<linearGradient id="paint5_linear_801_2371" x1="137.621" y1="226.712" x2="26.8428" y2="248.585" gradientUnits="userSpaceOnUse">
<stop stop-color="#880041"/>
<stop offset="1" stop-color="white"/>
</linearGradient>
<linearGradient id="paint6_linear_801_2371" x1="47.016" y1="349.069" x2="182.445" y2="444.452" gradientUnits="userSpaceOnUse">
<stop stop-color="#FDF0E1"/>
<stop offset="1" stop-color="#EAC3C2"/>
</linearGradient>
<linearGradient id="paint7_linear_801_2371" x1="101.675" y1="58.7767" x2="101.675" y2="76.4421" gradientUnits="userSpaceOnUse">
<stop stop-color="#880041"/>
<stop offset="1" stop-color="white"/>
</linearGradient>
<linearGradient id="paint8_linear_801_2371" x1="88.5593" y1="241.721" x2="218.169" y2="324.449" gradientUnits="userSpaceOnUse">
<stop stop-color="#FDF0E1"/>
<stop offset="1" stop-color="#EAC3C2"/>
</linearGradient>
<linearGradient id="paint9_linear_801_2371" x1="65.359" y1="584.228" x2="149.264" y2="350.864" gradientUnits="userSpaceOnUse">
<stop stop-color="#E3A4B7"/>
<stop offset="0.26" stop-color="#E59DBA"/>
<stop offset="0.63" stop-color="#EB8AC1"/>
<stop offset="1" stop-color="#F470CC"/>
</linearGradient>
<linearGradient id="paint10_linear_801_2371" x1="143.839" y1="491.958" x2="148.89" y2="491.958" gradientUnits="userSpaceOnUse">
<stop stop-color="#880041"/>
<stop offset="1" stop-color="white"/>
</linearGradient>
<linearGradient id="paint11_linear_801_2371" x1="93.497" y1="579.578" x2="114.022" y2="508.783" gradientUnits="userSpaceOnUse">
<stop stop-color="#FDF0E1"/>
<stop offset="1" stop-color="#EAC3C2"/>
</linearGradient>
<linearGradient id="paint12_linear_801_2371" x1="98.3662" y1="429.979" x2="98.3662" y2="434.402" gradientUnits="userSpaceOnUse">
<stop stop-color="#880041"/>
<stop offset="1" stop-color="white"/>
</linearGradient>
<linearGradient id="paint13_linear_801_2371" x1="29.8121" y1="469.084" x2="76.0247" y2="518.63" gradientUnits="userSpaceOnUse">
<stop stop-color="#FDF0E1"/>
<stop offset="1" stop-color="#EAC3C2"/>
</linearGradient>
<linearGradient id="paint14_linear_801_2371" x1="161.926" y1="371.883" x2="136.169" y2="457.368" gradientUnits="userSpaceOnUse">
<stop stop-color="#880041"/>
<stop offset="1" stop-color="white"/>
</linearGradient>
<radialGradient id="paint15_radial_801_2371" cx="0" cy="0" r="1" gradientUnits="userSpaceOnUse" gradientTransform="translate(175.28 351.757) rotate(180) scale(25.655 25.6635)">
<stop offset="0.02" stop-color="#EF7346"/>
<stop offset="0.99" stop-color="#C84841"/>
</radialGradient>
<linearGradient id="paint16_linear_801_2371" x1="72.5798" y1="333.443" x2="-156.51" y2="269.178" gradientUnits="userSpaceOnUse">
<stop stop-color="#FA8E6B"/>
<stop offset="1" stop-color="#860050"/>
</linearGradient>
<linearGradient id="paint17_linear_801_2371" x1="150.308" y1="56.3367" x2="-78.7818" y2="-7.92212" gradientUnits="userSpaceOnUse">
<stop stop-color="#FA8E6B"/>
<stop offset="1" stop-color="#860050"/>
</linearGradient>
<linearGradient id="paint18_linear_801_2371" x1="130.559" y1="37.2798" x2="74.6856" y2="363.073" gradientUnits="userSpaceOnUse">
<stop stop-color="#E3A4B7"/>
<stop offset="0.26" stop-color="#E59DBA"/>
<stop offset="0.63" stop-color="#EB8AC1"/>
<stop offset="1" stop-color="#F470CC"/>
</linearGradient>
<linearGradient id="paint19_linear_801_2371" x1="-118.059" y1="460.4" x2="257.23" y2="19.6738" gradientUnits="userSpaceOnUse">
<stop stop-color="#AD5B8F"/>
<stop offset="0.08" stop-color="#B76F9C"/>
<stop offset="0.31" stop-color="#D0A2BF"/>
<stop offset="0.52" stop-color="#E5CADB"/>
<stop offset="0.71" stop-color="#F3E7EF"/>
<stop offset="0.88" stop-color="#FCF9FB"/>
<stop offset="1" stop-color="white"/>
</linearGradient>
</defs>
</svg>
