<svg width="125" height="237" viewBox="0 0 125 237" fill="none" xmlns="http://www.w3.org/2000/svg">
<path fill-rule="evenodd" clip-rule="evenodd" d="M47.7768 44.2866C47.7768 44.2866 40.5603 89.5109 35.5423 113.955C10.8186 113.676 0 115.688 0 115.688C0 115.688 7.72577 181.27 0 232.649C33.2196 241.915 124.774 232.649 124.774 232.649C124.774 232.649 111.943 206.41 110.49 183.586C109.036 160.763 120.035 103.782 120.035 103.782L83.0645 109.422C83.0645 109.422 88.3992 14.0045 64.2531 0C69.0537 20.7428 79.6052 37.1943 74.5872 110.204C65.4768 111.137 56.3186 111.523 47.1619 111.359L56.0615 48.6773L47.7768 44.2866Z" fill="url(#paint0_linear_613_9759)"/>
<path fill-rule="evenodd" clip-rule="evenodd" d="M47.7768 44.2866C47.7768 44.2866 48.6711 96.8516 43.653 121.296C28.9324 121.162 14.2795 119.286 0 115.706C0 115.706 7.72577 181.289 0 232.667C33.2196 241.933 124.774 232.667 124.774 232.667C124.774 232.667 117.321 202.174 115.887 179.357C115.551 174.184 110.502 174.588 111.179 166.936C113.489 140.933 120.023 103.776 120.023 103.776L92.6968 115.787C92.6968 115.787 88.3992 14.0045 64.2531 0C69.0537 20.7428 89.2624 43.5662 84.2444 116.57C69.1779 118.116 55.2728 118.7 55.2728 118.7L56.0615 48.6773L47.7768 44.2866Z" fill="white"/>
<path style="mix-blend-mode:multiply" opacity="0.8" fill-rule="evenodd" clip-rule="evenodd" d="M51.3789 205.222C51.3789 205.222 92.8645 190.721 109.322 171.611C111.943 172.232 115.887 179.337 115.887 179.337C115.887 179.337 82.2634 199.037 51.3789 205.222Z" fill="url(#paint1_linear_613_9759)"/>
<path fill-rule="evenodd" clip-rule="evenodd" d="M38.5791 186.755L42.5724 191.102C42.5724 191.102 49.8013 187.488 53.8194 181.457C58.2102 200.337 89.5108 178.768 82.6545 145.102C82.1452 157.373 30.3316 165.596 52.8444 180.054C48.05 187.854 38.5791 186.755 38.5791 186.755Z" fill="#B8AE00"/>
<defs>
<linearGradient id="paint0_linear_613_9759" x1="0" y1="118.383" x2="124.774" y2="118.383" gradientUnits="userSpaceOnUse">
<stop offset="0.06" stop-color="#A995B0"/>
<stop offset="1" stop-color="#FFA98D"/>
</linearGradient>
<linearGradient id="paint1_linear_613_9759" x1="51.3789" y1="188.417" x2="115.887" y2="188.417" gradientUnits="userSpaceOnUse">
<stop stop-color="#D38BC7"/>
<stop offset="1" stop-color="white"/>
</linearGradient>
</defs>
</svg>
