<svg width="429" height="397" viewBox="0 0 429 397" fill="none" xmlns="http://www.w3.org/2000/svg">
<path d="M154.159 17.543L220.017 47.3793L236.204 96.7904L132.925 289.467L0 207.394L106.3 32.4239L154.159 17.543Z" fill="#EFDBAB"/>
<path d="M153.83 19.8242L217.704 48.7822L222.486 63.3146L187.788 68.8822L150.265 51.0733L136.881 25.0386L153.83 19.8242Z" fill="#F9E8BB"/>
<path d="M36.5341 153.508L5.12695 205.996L131.536 283.607L190.238 176.559C109.219 217.354 111.548 133.515 36.5341 153.508Z" fill="#D3A85B"/>
<path d="M40.0004 158.557C40.0004 158.557 23.7345 181.91 25.4215 193.956C28.9303 218.829 111.924 261.344 130.086 251.872C150.069 241.434 173.971 189.597 173.971 189.597C89.4906 220.14 111.087 141.627 40.0004 158.557Z" fill="#CC9B4C"/>
<path d="M163.045 288.433L141.133 274.11L236.205 96.793L163.045 288.433Z" fill="#D3BA89"/>
<path d="M161.092 283.592L142.525 271.509L179.291 202.941C185.021 204.508 192.694 202.672 192.694 202.672L161.092 283.592Z" fill="#AA8548"/>
<path d="M192.318 52.9073C191.784 54.0645 190.255 54.5013 188.902 53.8739L164.885 42.8038C163.528 42.1811 162.868 40.7357 163.402 39.5739C163.932 38.4167 165.466 37.9798 166.818 38.6072L190.836 49.6866C192.188 50.3094 192.853 51.7547 192.318 52.9398V52.9073Z" fill="#594E34"/>
<path d="M132.924 289.468L159.818 269.066L147.4 262.359L132.924 289.468Z" fill="#EFDBAB"/>
<path d="M132.924 289.468L152.197 264.948L147.4 262.359L132.924 289.468Z" fill="#D6BE92"/>
<path d="M159.82 269.066L163.045 288.432L147.602 278.338L159.82 269.066Z" fill="#BA9B70"/>
<path d="M399.699 283.614L368.301 274.008L314.889 302.389L305.287 333.792L333.678 387.181L365.081 396.792L418.475 368.41L428.081 337.008L399.699 283.614ZM349.893 303.668C349.071 304.103 348.138 304.286 347.213 304.192C346.287 304.097 345.411 303.731 344.694 303.138C343.976 302.546 343.451 301.754 343.184 300.863C342.917 299.972 342.92 299.021 343.193 298.132C343.466 297.243 343.997 296.455 344.718 295.867C345.439 295.279 346.318 294.918 347.244 294.83C348.17 294.742 349.102 294.931 349.921 295.372C350.739 295.814 351.409 296.488 351.845 297.31C352.429 298.412 352.551 299.701 352.185 300.893C351.819 302.085 350.995 303.083 349.893 303.668Z" fill="#6ABC00"/>
<path d="M395.332 290.466L368.084 282.129L321.759 306.76L313.426 334.003L338.057 380.333L365.3 388.666L411.63 364.035L419.967 336.787L395.332 290.466ZM349.894 303.665C349.072 304.101 348.139 304.283 347.214 304.189C346.289 304.095 345.412 303.728 344.695 303.136C343.978 302.543 343.452 301.751 343.185 300.86C342.918 299.969 342.921 299.019 343.194 298.13C343.467 297.24 343.998 296.452 344.719 295.864C345.44 295.277 346.319 294.916 347.245 294.828C348.171 294.74 349.103 294.928 349.922 295.37C350.741 295.811 351.41 296.485 351.846 297.307C352.43 298.409 352.552 299.698 352.186 300.89C351.82 302.083 350.996 303.081 349.894 303.665Z" fill="#BFED00"/>
<path d="M384.136 371.193C371.736 377.783 354.978 370.589 346.771 355.15C346.343 354.221 343.573 346.422 364.933 335.069C386.775 323.45 391.302 330.421 391.739 331.248C399.937 346.687 396.54 364.603 384.136 371.193ZM349.652 353.77C357.051 367.577 371.825 374.13 382.649 368.381C393.472 362.632 396.317 346.631 388.936 332.745C388.007 331.406 382.091 329.561 366.438 337.885C348.695 347.31 349.522 353.212 349.652 353.77Z" fill="white"/>
<path d="M373.67 351.082C351.65 362.784 347.18 355.892 346.715 355.07L349.531 353.573L348.137 354.321L349.499 353.503C350.461 354.898 356.4 356.65 372.173 348.27C390.498 338.511 388.825 332.544 388.802 332.469L391.753 331.266C392.129 332.125 394.755 339.873 373.67 351.082Z" fill="white"/>
<path d="M394.104 355.484L389.457 342.968L391.409 334.138C392.477 332.713 393.823 331.518 395.364 330.625C397.846 329.305 400.476 329.904 402.563 332.27C407.164 337.461 401.898 348.182 397.502 352.286L394.104 355.484ZM393.733 336.397C394.495 338.353 392.548 354.187 398.44 346.119C400.852 342.006 402.34 337.526 400.165 334.333C399.82 333.793 399.294 333.394 398.681 333.209C398.068 333.024 397.409 333.065 396.823 333.325C394.36 334.496 393.733 336.392 393.733 336.392V336.397Z" fill="white"/>
<path d="M349.214 307.898C349.214 307.898 346.695 311.565 351.264 316.728C355.832 321.892 362.548 323.416 362.004 331.967C365.122 326.293 360.21 318.439 355.14 315.269C350.209 312.169 349.214 307.898 349.214 307.898Z" fill="white"/>
<path d="M345.213 316.91C345.213 316.91 343.042 320.066 346.974 324.523C350.906 328.979 356.683 330.281 356.222 337.619C358.904 332.735 354.67 326 350.311 323.249C346.026 320.591 345.213 316.91 345.213 316.91Z" fill="white"/>
<path d="M359.923 309.098C359.923 309.098 357.757 312.253 361.689 316.715C365.621 321.176 371.402 322.468 370.933 329.806C373.614 324.922 369.385 318.188 365.026 315.437C360.764 312.769 359.923 309.098 359.923 309.098Z" fill="white"/>
<path d="M390.836 331.41C398.839 346.463 396.139 363.556 383.865 370.086C371.592 376.615 355.131 369.705 347.123 354.647C347.123 354.647 355.618 359.666 372.684 350.604C389.247 341.783 390.836 331.41 390.836 331.41Z" fill="white"/>
<path d="M332.711 302.314C320.656 302.314 301.458 300.125 286.135 288.241C273.122 278.161 265.561 263.034 263.619 243.278C260.3 209.556 277.245 189.503 295.142 168.283C306.481 154.856 318.207 140.97 324.783 123.045C334.784 95.8018 333.701 67.8337 321.73 44.29C312.179 25.5191 296.425 11.405 279.568 6.59492C250.42 -1.73787 227.202 6.00005 212.855 13.9006C197.249 22.5448 188.688 33.0247 188.605 33.1316L185.816 31.8675C186.184 31.4027 195.227 20.2862 211.312 11.3539C226.184 3.10472 250.211 -4.91204 280.414 3.71353C298.028 8.74667 314.47 23.4046 324.393 42.919C336.741 67.211 337.87 96.0248 327.585 124.053C320.828 142.471 308.931 156.562 297.424 170.188C279.922 190.915 263.391 210.49 266.588 242.966C268.447 261.867 275.632 276.297 287.966 285.857C310.669 303.475 343.531 298.665 343.856 298.614C343.856 298.614 345.366 298.507 345.529 299.855C345.692 301.203 344.242 301.57 344.242 301.57C340.421 302.091 336.568 302.339 332.711 302.314Z" fill="#D1B98B"/>
</svg>
