<svg width="246" height="164" viewBox="0 0 246 164" fill="none" xmlns="http://www.w3.org/2000/svg">
<path fill-rule="evenodd" clip-rule="evenodd" d="M145.399 160.648H111.643L111.596 160.549L110.926 159.185L102.919 142.817L101.923 140.777L101.591 140.101H101.585L101.404 139.734H135.173L135.324 140.043L135.499 140.41L138.209 145.952L145.096 160.03L145.399 160.648Z" fill="url(#paint0_linear_613_8581)"/>
<path fill-rule="evenodd" clip-rule="evenodd" d="M140.073 160.549H106.322L105.757 159.063L99.4639 142.52L98.8287 140.842L98.5374 140.072L98.4092 139.734H132.16L132.3 140.107L132.405 140.387L134.398 145.608L139.829 159.902L140.073 160.549Z" fill="url(#paint1_linear_613_8581)"/>
<path style="mix-blend-mode:multiply" opacity="0.52" fill-rule="evenodd" clip-rule="evenodd" d="M138.208 145.954L134.397 145.61L102.919 142.819L99.4636 142.522L98.8285 140.843L98.5371 140.074L101.585 140.103H101.591L123.407 140.307L132.405 140.389L135.499 140.412L138.208 145.954Z" fill="url(#paint2_linear_613_8581)"/>
<path fill-rule="evenodd" clip-rule="evenodd" d="M177.839 160.835V163.544H67.8223V158.125L93.9571 158.772L96.6784 158.836L105.757 159.063L110.926 159.186L139.829 159.902L145.096 160.03L150.754 160.17L177.839 160.835Z" fill="url(#paint3_linear_613_8581)"/>
<path fill-rule="evenodd" clip-rule="evenodd" d="M241.046 0L234.217 136.158L53.1554 140.417L20.028 141.192H20.0163L0 141.664L5.52998 15.6518L241.046 0Z" fill="url(#paint4_linear_613_8581)"/>
<path fill-rule="evenodd" clip-rule="evenodd" d="M245.504 4.13146L238.483 137.783L135.324 140.044L132.3 140.108L123.408 140.306L101.923 140.778L98.8287 140.843L5.59991 142.888L0 141.664L20.0163 141.192H20.028L53.1554 140.417L234.217 136.158L241.046 0L245.504 4.13146Z" fill="url(#paint5_linear_613_8581)"/>
<path fill-rule="evenodd" clip-rule="evenodd" d="M177.839 160.836V163.54H150.789C150.789 162.462 150.789 161.25 150.789 160.172L177.839 160.836Z" fill="url(#paint6_linear_613_8581)"/>
<path fill-rule="evenodd" clip-rule="evenodd" d="M239.275 1.97656L239.187 3.31098L238.348 19.4464L232.789 126.352L4.73129 129.044L2.93652 129.061L6.65425 27.9774L7.05633 17.0864L239.275 1.97656Z" fill="url(#paint7_radial_613_8581)"/>
<path fill-rule="evenodd" clip-rule="evenodd" d="M98.0713 131.023L98.5958 133.459L91.778 133.593L91.7197 131.239L98.0713 131.023Z" fill="#FFF6ED"/>
<path fill-rule="evenodd" clip-rule="evenodd" d="M124.87 130.125L124.375 132.945L100.163 133.429L99.4521 130.976L124.87 130.125Z" fill="#FFF6ED"/>
<path style="mix-blend-mode:screen" opacity="0.59" fill-rule="evenodd" clip-rule="evenodd" d="M23.4537 128.898L20.0215 141.2L53.1023 140.728L55.1593 128.543L23.4537 128.898Z" fill="url(#paint8_linear_613_8581)"/>
<path style="mix-blend-mode:screen" opacity="0.78" fill-rule="evenodd" clip-rule="evenodd" d="M96.6785 158.838L96.0434 163.546L96.0317 163.645L82.332 163.546L82.7866 158.5L93.9572 158.774L96.6785 158.838Z" fill="url(#paint9_linear_613_8581)"/>
<path fill-rule="evenodd" clip-rule="evenodd" d="M239.275 1.97656L239.187 3.31098L9.4105 18.5665L4.73712 129.044L2.93652 129.067L7.05633 17.0864L239.275 1.97656Z" fill="url(#paint10_linear_613_8581)"/>
<path style="mix-blend-mode:multiply" opacity="0.52" fill-rule="evenodd" clip-rule="evenodd" d="M239.188 3.30859L238.349 19.444L150.883 23.3249L31.3679 28.6335L9.05566 29.6241L9.45774 18.7331L31.3679 17.2647L151.606 9.1882L239.188 3.30859Z" fill="url(#paint11_linear_613_8581)"/>
<path style="mix-blend-mode:multiply" opacity="0.52" fill-rule="evenodd" clip-rule="evenodd" d="M13.356 63.9955L67.0067 60.7148L65.1944 125.839H10.4424L13.356 63.9955Z" fill="url(#paint12_linear_613_8581)"/>
<path style="mix-blend-mode:multiply" opacity="0.52" fill-rule="evenodd" clip-rule="evenodd" d="M67.8686 29.6289L67.0702 58.3743L13.5244 60.3264L14.818 32.9038L67.8686 29.6289Z" fill="url(#paint13_linear_613_8581)"/>
<path style="mix-blend-mode:multiply" opacity="0.35" d="M229.383 47.7274L74.6523 56.2969L74.749 58.0423L229.479 49.4728L229.383 47.7274Z" fill="url(#paint14_linear_613_8581)"/>
<path style="mix-blend-mode:multiply" opacity="0.35" d="M226.472 76.2661L73.6387 80.5352L73.6875 82.2826L226.521 78.0136L226.472 76.2661Z" fill="url(#paint15_linear_613_8581)"/>
<g style="mix-blend-mode:multiply" opacity="0.52">
<path d="M72.74 95.6372L107.068 94.6641L106.095 108.102L71.8135 109.069L72.74 95.6372Z" fill="#EFAE6F"/>
</g>
<path style="mix-blend-mode:multiply" opacity="0.52" d="M227.644 91.2461L226.718 104.684L109.364 108.005L109.86 94.5851L227.644 91.2461Z" fill="url(#paint16_linear_613_8581)"/>
<path style="mix-blend-mode:multiply" opacity="0.28" fill-rule="evenodd" clip-rule="evenodd" d="M151.606 9.1875L150.883 23.3242L31.3682 28.6327L32.0499 17.2173L151.606 9.1875Z" fill="url(#paint17_linear_613_8581)"/>
<defs>
<linearGradient id="paint0_linear_613_8581" x1="177.14" y1="135.411" x2="167.968" y2="137.934" gradientUnits="userSpaceOnUse">
<stop offset="0.01" stop-color="#E9CBAC"/>
<stop offset="1" stop-color="#7A6BAB"/>
</linearGradient>
<linearGradient id="paint1_linear_613_8581" x1="-12.2137" y1="103.583" x2="198.199" y2="178.106" gradientUnits="userSpaceOnUse">
<stop offset="0.01" stop-color="#EDD7C0"/>
<stop offset="1" stop-color="#877BB0"/>
</linearGradient>
<linearGradient id="paint2_linear_613_8581" x1="109.778" y1="123.065" x2="120.855" y2="148.961" gradientUnits="userSpaceOnUse">
<stop offset="0.01" stop-color="#DFC09E"/>
<stop offset="1" stop-color="#7261A3"/>
</linearGradient>
<linearGradient id="paint3_linear_613_8581" x1="86.6848" y1="137.194" x2="188.829" y2="207.831" gradientUnits="userSpaceOnUse">
<stop offset="0.01" stop-color="#EDD7C0"/>
<stop offset="1" stop-color="#877BB0"/>
</linearGradient>
<linearGradient id="paint4_linear_613_8581" x1="126.391" y1="86.073" x2="174.191" y2="210.197" gradientUnits="userSpaceOnUse">
<stop offset="0.01" stop-color="#EDD7C0"/>
<stop offset="1" stop-color="#877BF2"/>
</linearGradient>
<linearGradient id="paint5_linear_613_8581" x1="88.299" y1="-7.63359" x2="154.577" y2="147.293" gradientUnits="userSpaceOnUse">
<stop offset="0.01" stop-color="#E9CBAC"/>
<stop offset="1" stop-color="#7A6BAB"/>
</linearGradient>
<linearGradient id="paint6_linear_613_8581" x1="166.552" y1="142.469" x2="165.753" y2="149.351" gradientUnits="userSpaceOnUse">
<stop offset="0.01" stop-color="#E9CBAC"/>
<stop offset="1" stop-color="#7A6BAB"/>
</linearGradient>
<radialGradient id="paint7_radial_613_8581" cx="0" cy="0" r="1" gradientUnits="userSpaceOnUse" gradientTransform="translate(105.483 122.171) scale(179.972 251.961)">
<stop offset="0.01" stop-color="#EAF8FF"/>
<stop offset="1" stop-color="#A08EE1"/>
</radialGradient>
<linearGradient id="paint8_linear_613_8581" x1="-12.2954" y1="88.0888" x2="55.877" y2="152.173" gradientUnits="userSpaceOnUse">
<stop offset="0.01" stop-color="#EDD7C0"/>
<stop offset="1" stop-color="#877BB0"/>
</linearGradient>
<linearGradient id="paint9_linear_613_8581" x1="82.332" y1="161.07" x2="96.6785" y2="161.07" gradientUnits="userSpaceOnUse">
<stop offset="0.01" stop-color="#EDD7C0"/>
<stop offset="1" stop-color="#877BB0"/>
</linearGradient>
<linearGradient id="paint10_linear_613_8581" x1="140.719" y1="113.702" x2="129.241" y2="85.6263" gradientUnits="userSpaceOnUse">
<stop offset="0.01" stop-color="#EDD7C0"/>
<stop offset="1" stop-color="#877BB0"/>
</linearGradient>
<linearGradient id="paint11_linear_613_8581" x1="9.05566" y1="16.4663" x2="239.188" y2="16.4663" gradientUnits="userSpaceOnUse">
<stop offset="0.01" stop-color="#DFC09E"/>
<stop offset="1" stop-color="#7261A3"/>
</linearGradient>
<linearGradient id="paint12_linear_613_8581" x1="43.9777" y1="39.8245" x2="27.0207" y2="238.443" gradientUnits="userSpaceOnUse">
<stop offset="0.01" stop-color="#DF519E"/>
<stop offset="1" stop-color="#7261A3"/>
</linearGradient>
<linearGradient id="paint13_linear_613_8581" x1="41.4598" y1="39.605" x2="24.497" y2="238.224" gradientUnits="userSpaceOnUse">
<stop offset="0.01" stop-color="#DFC09E"/>
<stop offset="1" stop-color="#7261A3"/>
</linearGradient>
<linearGradient id="paint14_linear_613_8581" x1="153.076" y1="41.1753" x2="151.077" y2="64.548" gradientUnits="userSpaceOnUse">
<stop offset="0.01" stop-color="#DF519E"/>
<stop offset="1" stop-color="#7261A3"/>
</linearGradient>
<linearGradient id="paint15_linear_613_8581" x1="151.449" y1="67.6779" x2="148.844" y2="90.7552" gradientUnits="userSpaceOnUse">
<stop offset="0.01" stop-color="#DF519E"/>
<stop offset="1" stop-color="#7261A3"/>
</linearGradient>
<linearGradient id="paint16_linear_613_8581" x1="159.612" y1="169.616" x2="166.307" y2="115.609" gradientUnits="userSpaceOnUse">
<stop offset="0.01" stop-color="#DFC09E"/>
<stop offset="1" stop-color="#7261A3"/>
</linearGradient>
<linearGradient id="paint17_linear_613_8581" x1="31.3682" y1="18.913" x2="151.606" y2="18.913" gradientUnits="userSpaceOnUse">
<stop offset="0.01" stop-color="#DF519E"/>
<stop offset="1" stop-color="#7261A3"/>
</linearGradient>
</defs>
</svg>
