<svg width="1167" height="494" viewBox="0 0 1167 494" fill="none" xmlns="http://www.w3.org/2000/svg">
<path d="M1024.37 174.678L1036.24 167.61L1072.44 163.727L615.547 154.793L622.294 177.568L1024.37 174.678Z" fill="#501837"/>
<path d="M618.03 159.235L1072.44 163.73L1078.28 144.848L618.121 148.505L618.03 159.235Z" fill="url(#paint0_linear_653_5688)"/>
<path d="M1108.49 349.109L1108.03 367.109L1100.05 481.089L1067.3 480.1L1068.47 350.68L1108.49 349.109Z" fill="url(#paint1_linear_653_5688)"/>
<path d="M1036.24 167.609L1032.92 281.66L1032.91 282.808L1011.26 286.22L1011.29 288.377L1011.39 294.226L1011.52 300.843L1014.43 471.594L1014.47 473.18L729.972 474.735L709.549 474.85L648.385 475.191L594.506 475.502L592.896 281.795L591.933 163.832L1036.24 167.609Z" fill="url(#paint2_linear_653_5688)"/>
<g style="mix-blend-mode:multiply" opacity="0.6">
<path d="M1034.65 181.631L611.207 182.524L615.145 164.57L1036.67 166.502L1034.65 181.631Z" fill="#733459"/>
</g>
<g style="mix-blend-mode:multiply" opacity="0.18">
<path d="M606.502 163.953L679.309 164.575L648.386 475.192L594.507 475.503L592.896 281.796L606.502 163.953Z" fill="#C04672"/>
</g>
<g style="mix-blend-mode:multiply" opacity="0.18">
<path d="M983.565 167.164L953.219 348.034L936.067 476.492L915.649 476.607L948.052 166.863L969.428 167.044L939.002 328.746L953.38 328.866L979.06 167.124L983.565 167.164Z" fill="#C04672"/>
</g>
<path d="M323.365 111.912L525.377 125.938L667.249 82.8668L459.994 76.7266L323.365 111.912Z" fill="#501837"/>
<path d="M465.357 86.0742L461.981 473.433H461.183L460.641 473.458L453.247 473.559L433.336 473.82L396.523 474.331L373.386 474.642V474.617L373.361 473.975V473.714L372.227 442.08L372.202 441.388L369.062 352.18V351.974L368.47 335.665V335.615L365.686 257.252L365.661 256.324L363.854 205.291L363.523 195.966L363.343 190.583L363.107 184.347L362.259 159.747L360.378 106.963L464.865 86.1745L465.357 86.0742Z" fill="url(#paint3_linear_653_5688)"/>
<path d="M624.255 87.4142L623.979 98.7063L622.986 181.178L622.981 181.885L622.474 203.115L622.464 204.178L621.897 229.271L621.857 230.299L621.712 237.287L621.677 238.025L620.734 279.275V279.305L611.839 284.949L611.704 290.643L611.463 301.433L611.413 303.997L611.142 467.349L616.414 468.157L616.279 473.409L616.239 475.029L548.238 474.332L519.688 474.031L517.36 474.011L468.558 473.504L460.506 473.439L462.277 323.992L464.113 170.447L464.86 86.0547L512.755 86.461L539.413 86.6918L593.613 87.1533L606.386 87.2587L607.178 87.2687L615.938 87.3389L619.535 87.369L624.255 87.4142Z" fill="url(#paint4_linear_653_5688)"/>
<path d="M395.435 473.695L327.504 473.75L105.386 473.915L105.747 363.683L106.469 150.477L315.6 158.062L397.783 161.041L395.435 473.695Z" fill="url(#paint5_linear_653_5688)"/>
<path d="M106.464 150.477L106.449 156.471L106.419 166.575L105.887 363.688L105.586 473.921L31.3441 473.976L31.3391 473.86L27.8826 236.901L26.8291 164.548L27.9127 164.357H27.9177L70.9257 156.757L106.464 150.477Z" fill="url(#paint6_linear_653_5688)"/>
<path d="M133.258 473.896L384.523 473.705L385.642 184.91L131.331 178.574L131.291 185.015L131.281 190.604L131.587 214.101L133.318 389.573L133.258 473.896Z" fill="url(#paint7_linear_653_5688)"/>
<path d="M133.258 473.892L379.667 473.706L380.941 190.981L131.291 185.012L131.281 190.6L131.587 214.097L133.318 389.57L133.258 473.892Z" fill="#D6EAFF"/>
<path d="M133.258 473.893L377.69 473.708L379.02 196.315L131.281 190.602L131.587 214.099L133.318 389.571L133.258 473.893Z" fill="url(#paint8_linear_653_5688)"/>
<path opacity="0.4" d="M336.95 473.739H338.169L337.326 196.623L336.122 196.562L336.95 473.739Z" fill="#FBC6AE"/>
<path opacity="0.4" d="M287.421 473.78L288.64 473.775L288.7 194.226L288.62 188.803L288.615 188.321L287.396 188.246L287.401 188.778L287.481 194.201L287.421 473.78Z" fill="#FBC6AE"/>
<path opacity="0.4" d="M230.21 473.819H231.439L231.79 190.186L230.546 190.121L230.21 473.819Z" fill="#FBC6AE"/>
<path opacity="0.4" d="M179.286 473.857H180.515L180.535 191.729L180.505 187.962L179.246 187.887L179.276 191.699L179.286 473.857Z" fill="#FBC6AE"/>
<path style="mix-blend-mode:screen" opacity="0.5" d="M143 219.145L277.216 227.408C277.216 227.408 270.925 366.716 271.517 391.523L369.453 389.967L367.446 196.049L131.286 190.602L131.587 214.099L133.323 389.571L141.249 387.233L143 219.145Z" fill="url(#paint9_linear_653_5688)"/>
<path opacity="0.4" d="M132.004 252.113L132.164 254.461L178.719 255.028L378.589 257.391L378.624 256.583L178.554 252.675L132.004 252.113Z" fill="#FBC6AE"/>
<path opacity="0.4" d="M133.354 442.621L133.469 444.477L179.923 444.021L379.387 442.009L379.437 441.367L179.808 442.16L133.354 442.621Z" fill="#FBC6AE"/>
<path d="M601.56 210.024L502.922 209.181L503.113 186.271L503.128 184.741L503.644 124.157V124.111L503.689 118.694L503.694 118.167V118.262L503.745 112.418L601.936 114.831L601.56 210.024Z" fill="url(#paint10_linear_653_5688)"/>
<path d="M596.859 209.986L502.922 209.183L503.113 186.273L503.128 184.743L503.644 124.158V124.113L503.689 118.695L597.235 120.933L596.859 209.986Z" fill="#D6EAFF"/>
<path d="M594.898 209.966L502.922 209.183L503.113 186.273L503.128 184.743L503.644 124.158V124.113V124.158L583.726 125.994L595.319 126.235L594.898 209.966Z" fill="url(#paint11_linear_653_5688)"/>
<path opacity="0.4" d="M553.822 186.851L553.872 209.621L552.673 209.611L552.577 186.841L552.588 185.692L552.417 126.492L553.616 126.552L553.787 185.747L553.822 186.851Z" fill="#FBC6AE"/>
<path opacity="0.4" d="M503.112 186.272L503.127 184.742L503.644 124.158V124.113L503.689 118.695L503.694 118.168V118.263L503.689 118.695V118.745L503.644 124.158L503.248 170.264L503.127 184.742L503.112 186.272Z" fill="#FBC6AE"/>
<path style="mix-blend-mode:screen" opacity="0.5" d="M584.593 209.882L502.922 209.185L503.113 186.274L503.128 184.744L503.644 124.16L583.726 125.996L584.363 186.345L584.353 187.208L584.593 209.882Z" fill="url(#paint12_linear_653_5688)"/>
<path opacity="0.4" d="M594.902 186.528L594.897 187.341L584.352 187.205L553.821 186.849L552.577 186.839L503.112 186.272L503.127 184.742L552.587 185.69L553.786 185.745L584.362 186.342L594.902 186.528Z" fill="#FBC6AE"/>
<path d="M611.152 467.337L616.4 468.15L483.944 468.36L483.704 392.405L483.538 332.85L483.528 330.366L483.483 314.996L483.408 295.477L483.393 290.967L483.458 285.243L483.558 278.927L483.563 278.656L526.2 278.862L603.121 279.233L620.739 279.313L611.83 284.947L611.699 290.641V290.646L611.458 301.431L611.398 304L611.152 467.337Z" fill="url(#paint13_linear_653_5688)"/>
<path d="M616.4 468.152L483.944 468.363L483.704 392.408L483.538 332.852L483.528 330.369L483.483 314.998L483.408 295.479L483.393 290.969L483.458 285.245L526.907 285.145L611.83 284.949L611.699 290.643V290.648L611.458 301.433L611.398 304.002L610.124 467.344L616.4 468.152Z" fill="#D6EAFF"/>
<path d="M616.4 468.15L483.944 468.36L483.704 392.405L483.538 332.849L483.528 330.366L483.483 314.996L483.408 295.477L483.393 290.967L527.59 291.162L535.857 291.202L537.242 291.207L592.661 290.786L594.045 290.771L611.699 290.641V290.646L611.458 301.431L611.398 304L611.152 467.337L616.4 468.15Z" fill="url(#paint14_linear_653_5688)"/>
<path opacity="0.4" d="M593.167 468.187L594.552 468.182L594.04 288.626L592.65 288.586L593.167 468.187Z" fill="#FBC6AE"/>
<path opacity="0.4" d="M535.771 468.275H537.156L537.241 291.202V287.32L535.857 287.27L535.852 291.197L535.771 468.275Z" fill="#FBC6AE"/>
<path style="mix-blend-mode:screen" opacity="0.5" d="M611.699 290.645L611.458 301.43L611.398 303.998L594.091 305.293L592.701 305.393L517.09 311.027L519.608 468.304L519.698 474.033L519.703 474.454L517.366 474.008L487.707 468.354L486.001 468.033L483.538 332.848L483.528 330.365L483.483 314.995L483.408 295.475L483.393 290.966L527.59 291.161L535.857 291.201L537.242 291.206L592.661 290.79L594.045 290.78L611.699 290.645Z" fill="url(#paint15_linear_653_5688)"/>
<path d="M1023.35 470.859L1028.57 471.671L1014.43 471.596L675.656 470.011L675.441 394.036L675.275 334.505L675.25 332.012L675.185 316.626L675.115 297.117L675.104 292.612L675.155 286.858L675.255 280.583V280.297L717.917 280.513L762.345 280.844L1015.32 282.755L1032.91 282.81L1024.04 288.439L1023.9 294.142L1023.74 300.804L1023.66 304.923L1023.59 307.511L1023.35 470.859Z" fill="url(#paint16_linear_653_5688)"/>
<path d="M1028.57 471.67L1014.43 471.595L675.656 470.01L675.441 394.035L675.275 334.504L675.25 332.011L675.185 316.625L675.115 297.116L675.104 292.611L675.155 286.857L675.441 286.862L718.629 286.797L1011.29 288.377L1024.04 288.437L1023.9 294.141L1023.74 300.803L1023.66 304.921L1023.59 307.51L1022.3 470.847L1028.57 471.67Z" fill="#D6EAFF"/>
<path d="M1028.57 471.672L1014.43 471.597L675.656 470.012L675.441 394.037L675.275 334.506L675.25 332.013L675.185 316.627L675.115 297.118L675.104 292.613L675.581 292.618L719.296 292.799L727.589 292.819L728.979 292.829L1004.87 294.314L1006.26 294.279L1011.39 294.229L1023.9 294.143L1023.74 300.805L1023.66 304.924L1023.59 307.512L1023.35 470.86L1028.57 471.672Z" fill="url(#paint17_linear_653_5688)"/>
<path opacity="0.4" d="M1005.36 471.691L1006.75 471.686L1006.24 292.13L1004.85 292.09L1005.36 471.691Z" fill="#FBC6AE"/>
<path opacity="0.4" d="M727.488 469.904H728.873L728.958 292.831V288.949L727.574 288.898V292.826L727.488 469.904Z" fill="#FBC6AE"/>
<path opacity="0.4" d="M946.17 471.382L946.697 471.397L944.645 299.296L944.6 295.523L944.068 295.453L944.113 299.271L946.17 471.382Z" fill="#FBC6AE"/>
<path opacity="0.4" d="M795.344 468.839L795.871 468.849L793.819 296.748L793.769 292.975L793.242 292.91L793.287 296.728L795.344 468.839Z" fill="#FBC6AE"/>
<path opacity="0.4" d="M886.874 469.232L887.401 469.252L888.023 297.141L888.033 293.368L887.506 293.293L887.491 297.111L886.874 469.232Z" fill="#FBC6AE"/>
<g style="mix-blend-mode:multiply" opacity="0.5">
<path d="M131.407 193.433L367.026 205.433L370.026 474.889L384.524 473.705L385.643 184.91L131.332 178.574L131.407 193.433Z" fill="#733459"/>
</g>
<g style="mix-blend-mode:multiply" opacity="0.5">
<path d="M620.734 279.275V279.305L611.839 284.948L611.704 290.642L611.463 301.433L594.1 300.635H594.07L592.686 300.565L537.231 297.971L535.847 297.926L528.301 297.57L483.402 295.478L482.931 295.443L483.452 278.934H483.568L526.215 279.034L603.13 279.245L620.734 279.275Z" fill="#733459"/>
</g>
<g style="mix-blend-mode:multiply" opacity="0.18">
<path d="M85.981 473.9V473.931L31.3443 473.976L31.3393 473.86L27.8828 236.901L34.4195 236.625L34.0634 359.068L37.1837 380.257L40.0533 366.577L41.1268 339.263L83.0211 332.736L85.981 473.9Z" fill="#C04672"/>
</g>
<g style="mix-blend-mode:multiply" opacity="0.18">
<path d="M106.941 363.706L111.37 473.914L95.7734 473.924L104.407 363.656L105.752 363.681L105.887 363.686L106.941 363.706Z" fill="#C04672"/>
</g>
<g style="mix-blend-mode:multiply" opacity="0.18">
<path d="M134.191 473.893L127.067 473.898L132.29 270.734L134.191 473.893Z" fill="#C04672"/>
</g>
<g style="mix-blend-mode:multiply" opacity="0.18">
<path d="M433.978 285.223L433.336 473.818L396.523 474.33L403.04 282.133L433.978 285.223Z" fill="#C04672"/>
</g>
<g style="mix-blend-mode:multiply" opacity="0.18">
<path d="M462.418 321.883L460.642 473.431V473.456L453.247 473.557L462.267 324.537L462.418 321.883Z" fill="#C04672"/>
</g>
<g style="mix-blend-mode:multiply" opacity="0.18">
<path d="M593.664 87.1523L607.169 87.2677L588.903 279.094L577.927 277.483L593.664 87.1523Z" fill="#C04672"/>
</g>
<g style="mix-blend-mode:multiply" opacity="0.18">
<path d="M619.534 87.366L613.635 272.876L615.937 87.3359L619.534 87.366Z" fill="#C04672"/>
</g>
<path d="M1028.87 468.566L669.396 465.492L669.314 475.078L1028.79 478.153L1028.87 468.566Z" fill="url(#paint18_linear_653_5688)"/>
<path style="mix-blend-mode:screen" opacity="0.4" d="M483.387 358.419L535.801 358.966L536.428 357.341L483.407 355.871L483.387 358.419Z" fill="url(#paint19_linear_653_5688)"/>
<g style="mix-blend-mode:multiply" opacity="0.5">
<path d="M1032.92 281.661L1032.91 282.809L1024.04 288.438L1023.9 294.142L1023.74 300.804L1011.52 300.844L675.797 301.436L675.581 292.617L675.44 286.863L675.255 280.582L762.344 280.843L1032.92 281.661Z" fill="#733459"/>
</g>
<path d="M319.016 59.1546L323.365 111.913L459.954 81.5182L667.249 82.8676L672.692 6.22548L455.856 0L319.016 59.1546Z" fill="url(#paint20_linear_653_5688)"/>
<path d="M1066.5 180.059L1061.09 251.91L1049.44 251.81L1050.84 183.856L1066.5 180.059Z" fill="url(#paint21_linear_653_5688)"/>
<path d="M1063.54 181.199L1058.13 253.051L1040.25 254.736L1041.64 186.783L1063.54 181.199Z" fill="#501837"/>
<path d="M1033.56 203.74L1047.55 202.074L1047.26 205.42L1028.34 206.704L1033.56 203.74Z" fill="url(#paint22_linear_653_5688)"/>
<path style="mix-blend-mode:multiply" opacity="0.5" d="M455.856 0L459.954 81.5182L323.365 111.913L319.016 59.1546L455.856 0Z" fill="url(#paint23_linear_653_5688)"/>
<g style="mix-blend-mode:multiply" opacity="0.6">
<path d="M624.862 103.959L464.609 109.095L464.86 86.0547L624.707 86.4159L624.862 103.959Z" fill="#733459"/>
</g>
<path d="M797.777 475.546L798.419 378.195L884.802 378.933L884.731 475.495L797.777 475.546Z" fill="#EAE3F8"/>
<path d="M800.632 449.377L801.033 380.109L882.946 380.807L883.076 449.543L800.632 449.377Z" fill="url(#paint24_linear_653_5688)"/>
<path d="M843.269 380.047L841.017 380.027L840.201 475.403L842.453 475.422L843.269 380.047Z" fill="#EAE3F8"/>
<path d="M1108.03 367.106L1100.05 481.086L1090.16 481.001L1095.12 366.996L1108.03 367.106Z" fill="#EAE3F8"/>
<path d="M92.5181 248.895L70.0342 248.703L70.0159 250.835L92.4999 251.027L92.5181 248.895Z" fill="#501837"/>
<path d="M91.9097 292.438L69.4258 292.246L69.4075 294.378L91.8915 294.57L91.9097 292.438Z" fill="#501837"/>
<path d="M0 220.688L73.7502 225.348L73.9509 318.399L8.24742 318.419L0 220.688Z" fill="url(#paint25_linear_653_5688)"/>
<path d="M3.13086 220.777L76.5951 225.423L76.555 318.313L11.0823 318.328L3.13086 220.777Z" fill="url(#paint26_linear_653_5688)"/>
<path d="M73.2135 314.901H70.3942L15.9481 314.806L8.93483 229.576L8.66895 226.375L72.9928 230.328L73.2135 314.901Z" fill="url(#paint27_linear_653_5688)"/>
<path d="M68.5076 314.81L15.9479 314.805L8.93457 229.574L67.9307 232.975L68.5076 314.81Z" fill="#DC3EF7"/>
<path d="M18.0352 291.96L64.8659 291.574L65.3776 307.236L19.6957 306.022L18.0352 291.96Z" fill="#FFCA6C"/>
<path d="M94.1226 362.259L71.6387 362.066L71.6204 364.198L94.1044 364.391L94.1226 362.259Z" fill="#501837"/>
<path d="M19.0234 348.62L75.9527 348.57L76.1433 398.229L20.4381 398.289L19.0234 348.62Z" fill="url(#paint28_linear_653_5688)"/>
<path d="M21.3311 348.542L78.2603 348.492L78.451 398.151L22.7458 398.211L21.3311 348.542Z" fill="url(#paint29_linear_653_5688)"/>
<path d="M75.5008 395.009L73.0225 395.024L26.8941 395.084L25.2437 354.837L25.1885 352.449L75.3252 352.479L75.5008 395.009Z" fill="url(#paint30_linear_653_5688)"/>
<path d="M73.6049 394.966L26.9899 395.086L25.2441 354.839L73.4143 354.809L73.6049 394.966Z" fill="#6AEAE6"/>
<path d="M34.4746 370.194L66.5212 369.672L66.787 377.513L35.0766 377.016L34.4746 370.194Z" fill="white"/>
<path d="M47.468 390.519L46.9463 358.469L54.7924 358.203L54.2907 389.912L47.468 390.519Z" fill="white"/>
<path d="M893.887 396.047L894.273 462.32L938.771 462.23L941.671 399.298L893.887 396.047Z" fill="#FFD4DC"/>
<path d="M951.017 412.156L951.202 444.347L972.814 444.302L974.224 413.736L951.017 412.156Z" fill="#FFD4DC"/>
<path d="M896.982 421.873L935.766 453.919L936.664 431.681L898.713 413.129L898.728 411.238L937.472 419.852L936.419 460.55L897.845 459.753L896.982 421.873Z" fill="#FF6C7E"/>
<path d="M953.756 416.125L953.856 439.527L968.997 439.557L970.08 417.063L953.756 416.125Z" fill="#AABFE8"/>
<path style="mix-blend-mode:screen" opacity="0.5" d="M782.627 472.421L782.868 295.699L970.938 297.932L967.552 473.364L985.863 472.255L993.107 348.132L961.763 346.928L968.811 297.52L1023.97 296.096L1023.35 470.86L782.627 472.421Z" fill="url(#paint31_linear_653_5688)"/>
<g style="mix-blend-mode:multiply" opacity="0.6">
<path d="M1022.56 407.083L611.037 424.882L610.791 342.516L1023.06 347.447L1022.56 407.083Z" fill="#733459"/>
</g>
<path d="M1167 343.576L1166.28 353.755L652.815 347.755L611.693 347.278L611.744 341.484L653.126 341.64L1167 343.576Z" fill="url(#paint32_linear_653_5688)"/>
<path style="mix-blend-mode:multiply" opacity="0.5" d="M653.126 341.64L652.815 347.755L611.693 347.278L611.744 341.484L653.126 341.64Z" fill="url(#paint33_linear_653_5688)"/>
<g style="mix-blend-mode:multiply" opacity="0.6">
<path d="M395.435 473.692L327.534 474.545L327.504 473.747L315.6 158.059L397.783 161.038L395.435 473.692Z" fill="#733459"/>
</g>
<g style="mix-blend-mode:multiply" opacity="0.4">
<path d="M633.607 5.33804L629.829 86.6906L630.501 86.7107L634.966 4.74609L633.607 5.33804Z" fill="#733459"/>
</g>
<g style="mix-blend-mode:multiply" opacity="0.4">
<path d="M564.366 3.19626L563.157 85.5221L563.669 85.5271L565.4 2.57422L564.366 3.19626Z" fill="#733459"/>
</g>
<g style="mix-blend-mode:multiply" opacity="0.4">
<path d="M499.044 2.00761L500.253 85.6227L500.77 85.6126L500.057 1.35547L499.044 2.00761Z" fill="#733459"/>
</g>
<path d="M565.4 2.57422L564.091 82.0908L629.729 82.6476L633.552 4.10425L565.4 2.57422Z" fill="url(#paint34_linear_653_5688)"/>
<g style="mix-blend-mode:multiply" opacity="0.6">
<path d="M1100.05 481.087C1096.74 480.31 968.319 477.46 968.319 477.46L968.977 468.581L986.078 468.25L985.968 475.158L1099.32 480.31L1100.05 481.087Z" fill="#733459"/>
</g>
<path d="M595.339 454.822L593.056 469.947L568.675 469.927L540.753 469.997L535.952 444.087L535.686 442.627L535.646 442.431L536.453 442.401L561.772 441.579L564.562 441.488L595.339 454.822Z" fill="#D0BEFC"/>
<path d="M588.612 488.22L587.052 488.054L585.512 487.171L568.55 474.274L567.116 473.451L567.086 473.436L563.835 473.471L561.648 473.491L549.041 473.632L541.405 487.427L539.027 487.407L539.664 486.283L539.996 485.702L540.006 485.686L547.671 472.232L567.076 471.801L567.106 471.816L567.176 471.861L568.716 472.799L568.756 472.819L569.559 473.311L585.908 486.579L588.612 488.22Z" fill="#381F37"/>
<path d="M603.462 487.955L602.278 487.82L600.126 486.586L582.312 473.192L569.559 473.312L568.721 473.317L563.895 473.362L563.835 473.473L561.758 477.23L556.255 487.158L553.877 487.138L554.895 485.347L558.788 478.519L561.648 473.493L562.521 471.968L567.176 471.862L568.701 471.827L581.93 471.531L600.417 486.104L603.462 487.955Z" fill="#381F37"/>
<path d="M541.159 489.641C541.163 490.415 540.979 491.178 540.622 491.864C540.457 492.245 540.191 492.574 539.852 492.815C539.513 493.055 539.115 493.198 538.701 493.228C537.366 493.228 536.293 491.593 536.308 489.601C536.323 487.61 537.427 486.01 538.766 486.02C539.084 486.025 539.394 486.117 539.664 486.285C539.809 486.371 539.943 486.476 540.06 486.596C540.309 486.834 540.514 487.112 540.667 487.419C540.768 487.623 540.854 487.834 540.923 488.051C541.016 488.345 541.082 488.648 541.119 488.954C541.145 489.182 541.158 489.412 541.159 489.641Z" fill="#381F37"/>
<path d="M555.84 489.116C555.857 487.126 554.786 485.505 553.448 485.493C552.109 485.482 551.011 487.085 550.994 489.074C550.977 491.063 552.048 492.685 553.386 492.697C554.724 492.708 555.823 491.105 555.84 489.116Z" fill="#381F37"/>
<path d="M589.756 490.419C589.756 492.425 588.637 494.016 587.298 494.001C585.958 493.986 584.885 492.37 584.905 490.379C584.925 488.387 586.018 486.787 587.358 486.797C588.697 486.807 589.786 488.432 589.756 490.419Z" fill="#381F37"/>
<path d="M604.41 489.877C604.41 491.884 603.296 493.469 601.957 493.459C600.617 493.449 599.544 491.823 599.559 489.832C599.574 487.84 600.677 486.24 602.017 486.25C603.356 486.26 604.43 487.885 604.41 489.877Z" fill="#381F37"/>
<path d="M554.403 489.4C554.403 490.217 553.942 490.874 553.4 490.869C552.858 490.864 552.396 490.202 552.396 489.364C552.396 488.527 552.853 487.89 553.4 487.895C553.947 487.9 554.408 488.587 554.403 489.4Z" fill="#997E99"/>
<path d="M538.947 489.4C538.947 490.217 538.486 490.874 537.944 490.869C537.402 490.864 536.94 490.202 536.94 489.364C536.94 488.527 537.397 487.89 537.944 487.895C538.491 487.9 538.952 488.587 538.947 489.4Z" fill="#997E99"/>
<path d="M588.014 490.38C588.014 491.193 587.558 491.855 587.011 491.85C586.464 491.845 586.008 491.178 586.008 490.345C586.008 489.512 586.464 488.87 587.011 488.875C587.558 488.88 588.02 489.562 588.014 490.38Z" fill="#997E99"/>
<path d="M602.869 489.634C602.869 490.447 602.407 491.109 601.866 491.104C601.324 491.099 600.862 490.431 600.862 489.599C600.862 488.766 601.319 488.124 601.866 488.129C602.412 488.134 602.874 488.816 602.869 489.634Z" fill="#997E99"/>
<path d="M555.351 430.867H520.004L520.43 433.1L535.952 444.091L568.46 455.333L595.339 454.831L563.774 441.031L555.351 430.867ZM568.711 454.294L536.454 442.4L525.186 432.588L554.589 432.939L562.485 441.618L591.978 453.898L568.711 454.294Z" fill="#FF2F42"/>
<path style="mix-blend-mode:multiply" opacity="0.5" d="M540.753 469.997L535.952 444.087L520.43 433.096L520.004 430.863L535.686 442.627L568.455 455.329L568.676 469.927L540.753 469.997Z" fill="url(#paint35_linear_653_5688)"/>
<path style="mix-blend-mode:multiply" opacity="0.5" d="M568.781 474.209L568.591 474.289L567.131 473.451H567.101L563.85 473.486H561.663L549.061 473.627L541.42 487.422H540.683C540.784 487.626 540.87 487.837 540.939 488.054C541.032 488.349 541.098 488.651 541.135 488.957C541.135 489.078 541.135 489.203 541.135 489.323C541.14 490.196 540.97 491.061 540.633 491.867C540.468 492.248 540.202 492.577 539.863 492.818C539.524 493.058 539.126 493.201 538.711 493.231C537.377 493.231 536.303 491.596 536.319 489.604C536.334 487.613 537.437 486.013 538.777 486.023C539.095 486.028 539.405 486.12 539.675 486.288L540.006 485.707L540.036 485.742L547.711 472.272L567.106 471.836L567.201 471.896L568.706 471.861V472.834V473.336L568.781 474.209Z" fill="url(#paint36_linear_653_5688)"/>
<path style="mix-blend-mode:multiply" opacity="0.3" d="M563.067 442.66L565.37 468.891L591.457 469.137L593.779 454.73L563.067 442.66Z" fill="url(#paint37_linear_653_5688)"/>
<g style="mix-blend-mode:multiply" opacity="0.6">
<path d="M728.507 236.582L721.173 208.766H734.266L737.607 225.872H738.144L744.957 208.766H758.061L741.214 245.657H729.45L733.579 236.567L728.507 236.582Z" fill="#733459"/>
<path d="M769.915 232.344C769.915 232.344 773.577 230.473 774.119 227.799L776.908 213.633H804.711L802.794 232.344H807.339L805.834 247.314H793.538L794.136 241.434H778.895L778.298 247.314H766.002L767.507 232.344H769.915ZM790.764 232.344L791.768 222.718H786.942L785.888 227.799C785.351 230.473 781.739 231.813 781.739 231.813L781.684 232.349L790.764 232.344Z" fill="#733459"/>
<path d="M848.731 227.532C847.913 235.559 839.666 243.038 828.71 243.038C817.753 243.038 811.021 235.554 811.838 227.532C812.656 219.511 820.899 212.031 831.855 212.031C842.811 212.031 849.544 219.516 848.731 227.532ZM824.4 227.532C824.049 231.009 826.452 233.682 829.658 233.682C832.863 233.682 835.813 231.009 836.179 227.532C836.546 224.056 834.133 221.387 830.922 221.387C827.711 221.387 824.756 224.061 824.4 227.532Z" fill="#733459"/>
<path d="M883.824 213.634H896.656L893.832 241.44H881.536L882.865 228.337H882.333L874.272 236.625L867.896 228.332H867.359L866.029 241.435H853.733L856.558 213.629H869.391L875.767 221.916L883.824 213.634Z" fill="#733459"/>
<path d="M917.616 212.566C923.495 212.566 925.522 216.309 925.522 216.309H926.059L926.33 213.635H938.626L935.801 241.441H923.505L923.776 238.768H923.245C923.245 238.768 920.455 242.51 914.576 242.51C906.549 242.51 900.79 236.094 901.658 227.536C902.526 218.977 909.594 212.566 917.616 212.566ZM914.225 227.536C913.899 230.746 916.061 233.154 919 233.154C921.94 233.154 924.589 230.746 924.915 227.536C925.241 224.325 923.084 221.922 920.139 221.922C917.194 221.922 914.551 224.32 914.225 227.536Z" fill="#733459"/>
<path d="M792.961 191.711H796.814L795.74 202.281H792.038L792.615 196.617H792.464L789.339 199.863L786.876 196.617H786.725L786.153 202.281H782.451L783.525 191.711H787.378L789.841 194.957L792.961 191.711Z" fill="#733459"/>
<path d="M801.565 202.281H797.477L803.241 191.711H807.921L811.528 202.281H807.455L806.953 200.62H802.438L801.565 202.281ZM805.318 195.032H805.167L803.747 197.901H806.16L805.318 195.032Z" fill="#733459"/>
<path d="M820.989 196.09L821.125 194.731H817.729L816.961 202.281H813.264L814.337 191.711H824.978L824.536 196.09H820.989Z" fill="#733459"/>
<path d="M828.013 202.281H823.935L829.689 191.711H834.369L837.976 202.281H833.898L833.396 200.62H828.881L828.013 202.281ZM831.766 195.032H831.615L830.19 197.901H832.593L831.766 195.032Z" fill="#733459"/>
<path d="M843.599 195.94H840.052L840.479 191.711H851.806L851.495 194.721L849.378 196.983L851.189 199.251L850.883 202.261H839.405L839.837 198.032H843.383L843.263 199.241H847.036V199.09L845.365 196.973L847.317 194.861V194.711H843.69L843.599 195.94Z" fill="#733459"/>
<path d="M862.297 191.711H865.994L864.92 202.281H861.223L861.695 197.6H861.544L857.345 200.314L857.144 202.281H853.447L854.521 191.711H858.218L857.741 196.391H857.892L862.096 193.672L862.297 191.711Z" fill="#733459"/>
<path d="M879.489 202.281H875.787L876.128 198.96H872.115L871.779 202.281H868.076L869.15 191.711H872.852L872.421 195.94H876.434L876.86 191.711H880.563L879.489 202.281Z" fill="#733459"/>
<path d="M940.452 259.619H709.85C702.601 259.619 697.308 253.719 698.036 246.47L701.934 208.109C702.671 200.86 709.168 194.961 716.417 194.961H771.861L771.51 198.427H716.066C713.42 198.486 710.884 199.498 708.925 201.276C706.965 203.055 705.714 205.481 705.4 208.109L701.502 246.47C701.346 247.696 701.456 248.94 701.824 250.119C702.192 251.298 702.81 252.383 703.636 253.302C704.461 254.221 705.475 254.951 706.608 255.443C707.741 255.935 708.966 256.177 710.201 256.152H940.808C943.454 256.094 945.989 255.082 947.949 253.303C949.908 251.524 951.16 249.098 951.473 246.47L955.366 208.109C955.522 206.884 955.412 205.64 955.044 204.461C954.676 203.282 954.058 202.196 953.233 201.278C952.407 200.359 951.393 199.629 950.261 199.137C949.128 198.645 947.902 198.403 946.667 198.427H889.527L889.878 194.961H947.018C954.273 194.961 959.56 200.86 958.833 208.109L954.94 246.47C954.202 253.719 947.706 259.619 940.452 259.619Z" fill="#733459"/>
</g>
<path d="M731.517 234.074L724.183 206.258H737.276L740.617 223.364H741.154L747.967 206.258H761.07L744.224 243.149H732.46L736.589 234.059L731.517 234.074Z" fill="white"/>
<path d="M772.925 229.837C772.925 229.837 776.587 227.965 777.129 225.292L779.918 211.125H807.72L805.804 229.837H810.349L808.844 244.806H796.548L797.145 238.926H781.905L781.308 244.806H769.012L770.517 229.837H772.925ZM793.774 229.837L794.777 220.21H789.951L788.898 225.292C788.361 227.965 784.749 229.305 784.749 229.305L784.694 229.842L793.774 229.837Z" fill="white"/>
<path d="M851.742 225.024C850.924 233.051 842.677 240.53 831.72 240.53C820.764 240.53 814.031 233.046 814.849 225.024C815.667 217.003 823.909 209.523 834.866 209.523C845.822 209.523 852.555 217.008 851.742 225.024ZM827.411 225.024C827.06 228.501 829.463 231.175 832.668 231.175C835.874 231.175 838.824 228.501 839.19 225.024C839.556 221.548 837.143 218.879 833.933 218.879C830.722 218.879 827.767 221.553 827.411 225.024Z" fill="white"/>
<path d="M886.833 211.126H899.666L896.842 238.933H884.546L885.875 225.829H885.343L877.282 234.117L870.905 225.824H870.369L869.039 238.928H856.743L859.568 211.121H872.4L878.777 219.408L886.833 211.126Z" fill="white"/>
<path d="M920.626 210.055C926.505 210.055 928.532 213.797 928.532 213.797H929.069L929.34 211.123H941.636L938.811 238.93H926.515L926.786 236.256H926.254C926.254 236.256 923.465 239.998 917.586 239.998C909.559 239.998 903.8 233.582 904.668 225.024C905.535 216.466 912.604 210.055 920.626 210.055ZM917.234 225.024C916.908 228.234 919.07 230.642 922.01 230.642C924.95 230.642 927.599 228.234 927.925 225.024C928.251 221.813 926.094 219.41 923.149 219.41C920.204 219.41 917.56 221.808 917.234 225.024Z" fill="white"/>
<path d="M795.972 189.203H799.825L798.751 199.773H795.049L795.626 194.109H795.475L792.35 197.355L789.887 194.109H789.736L789.164 199.773H785.462L786.535 189.203H790.388L792.851 192.449L795.972 189.203Z" fill="white"/>
<path d="M804.575 199.773H800.486L806.25 189.203H810.931L814.538 199.773H810.464L809.963 198.112H805.448L804.575 199.773ZM808.327 192.524H808.177L806.757 195.393H809.17L808.327 192.524Z" fill="white"/>
<path d="M823.999 193.583L824.135 192.223H820.738L819.971 199.773H816.273L817.347 189.203H827.987L827.546 193.583H823.999Z" fill="white"/>
<path d="M831.023 199.773H826.944L832.698 189.203H837.379L840.986 199.773H836.908L836.406 198.112H831.891L831.023 199.773ZM834.775 192.524H834.625L833.2 195.393H835.603L834.775 192.524Z" fill="white"/>
<path d="M846.61 193.432H843.063L843.49 189.203H854.817L854.506 192.213L852.389 194.475L854.2 196.743L853.894 199.753H842.416L842.847 195.524H846.394L846.274 196.733H850.046V196.582L848.376 194.465L850.327 192.353V192.203H846.7L846.61 193.432Z" fill="white"/>
<path d="M865.307 189.203H869.005L867.931 199.773H864.234L864.705 195.092H864.555L860.356 197.806L860.155 199.773H856.458L857.532 189.203H861.229L860.752 193.884H860.903L865.107 191.165L865.307 189.203Z" fill="white"/>
<path d="M882.499 199.773H878.797L879.138 196.452H875.124L874.788 199.773H871.086L872.16 189.203H875.862L875.43 193.432H879.444L879.87 189.203H883.573L882.499 199.773Z" fill="white"/>
<path d="M943.461 257.111H712.86C705.611 257.111 700.318 251.211 701.045 243.963L704.943 205.601C705.681 198.353 712.177 192.453 719.426 192.453H774.871L774.52 195.92H719.075C716.429 195.978 713.894 196.99 711.934 198.769C709.975 200.547 708.723 202.974 708.41 205.601L704.512 243.963C704.356 245.188 704.466 246.432 704.834 247.611C705.202 248.79 705.82 249.876 706.645 250.794C707.471 251.713 708.485 252.443 709.618 252.935C710.75 253.427 711.976 253.669 713.211 253.644H943.817C946.463 253.586 948.999 252.574 950.958 250.795C952.918 249.016 954.169 246.59 954.483 243.963L958.376 205.601C958.532 204.376 958.422 203.132 958.054 201.953C957.686 200.774 957.068 199.688 956.242 198.77C955.417 197.851 954.403 197.121 953.27 196.629C952.137 196.137 950.912 195.895 949.677 195.92H892.537L892.888 192.453H950.028C957.282 192.453 962.57 198.353 961.842 205.601L957.949 243.963C957.212 251.211 950.715 257.111 943.461 257.111Z" fill="white"/>
<defs>
<linearGradient id="paint0_linear_653_5688" x1="618.067" y1="150.438" x2="1078.14" y2="154.373" gradientUnits="userSpaceOnUse">
<stop offset="0.01" stop-color="#EAE3F8"/>
<stop offset="1" stop-color="#D9B6C2"/>
</linearGradient>
<linearGradient id="paint1_linear_653_5688" x1="1144.31" y1="439.555" x2="1004.13" y2="377.761" gradientUnits="userSpaceOnUse">
<stop stop-color="#856E7B"/>
<stop offset="0.99" stop-color="#573153"/>
</linearGradient>
<linearGradient id="paint2_linear_653_5688" x1="591.933" y1="319.665" x2="1036.24" y2="319.665" gradientUnits="userSpaceOnUse">
<stop stop-color="#AC2859"/>
<stop offset="0.23" stop-color="#C42F4E"/>
<stop offset="0.49" stop-color="#D83444"/>
<stop offset="0.75" stop-color="#E5383E"/>
<stop offset="1" stop-color="#E9393C"/>
</linearGradient>
<linearGradient id="paint3_linear_653_5688" x1="633.712" y1="-158.756" x2="155.725" y2="805.635" gradientUnits="userSpaceOnUse">
<stop stop-color="#856E7B"/>
<stop offset="0.99" stop-color="#573153"/>
</linearGradient>
<linearGradient id="paint4_linear_653_5688" x1="547.654" y1="48.9606" x2="529.383" y2="640.944" gradientUnits="userSpaceOnUse">
<stop offset="0.01" stop-color="#EAE3F8"/>
<stop offset="1" stop-color="#D9B6C2"/>
</linearGradient>
<linearGradient id="paint5_linear_653_5688" x1="256.229" y1="140.105" x2="242.169" y2="595.665" gradientUnits="userSpaceOnUse">
<stop offset="0.01" stop-color="#EAE3F8"/>
<stop offset="1" stop-color="#D9B6C2"/>
</linearGradient>
<linearGradient id="paint6_linear_653_5688" x1="157.143" y1="98.2108" x2="-0.952926" y2="482.372" gradientUnits="userSpaceOnUse">
<stop stop-color="#856E7B"/>
<stop offset="0.99" stop-color="#573153"/>
</linearGradient>
<linearGradient id="paint7_linear_653_5688" x1="1158.83" y1="30.5609" x2="-168.866" y2="466.798" gradientUnits="userSpaceOnUse">
<stop stop-color="#856E7B"/>
<stop offset="0.99" stop-color="#573153"/>
</linearGradient>
<linearGradient id="paint8_linear_653_5688" x1="260.16" y1="518.113" x2="253.959" y2="147.098" gradientUnits="userSpaceOnUse">
<stop stop-color="#782E41"/>
<stop offset="1" stop-color="#290253"/>
</linearGradient>
<linearGradient id="paint9_linear_653_5688" x1="370.269" y1="287.991" x2="132.318" y2="292.75" gradientUnits="userSpaceOnUse">
<stop stop-color="#59427B"/>
<stop offset="1" stop-color="#BE8380"/>
</linearGradient>
<linearGradient id="paint10_linear_653_5688" x1="216.807" y1="56.0256" x2="712.09" y2="212.503" gradientUnits="userSpaceOnUse">
<stop stop-color="#856E7B"/>
<stop offset="0.99" stop-color="#573153"/>
</linearGradient>
<linearGradient id="paint11_linear_653_5688" x1="548.801" y1="222.33" x2="549.383" y2="112.044" gradientUnits="userSpaceOnUse">
<stop stop-color="#782E41"/>
<stop offset="1" stop-color="#290253"/>
</linearGradient>
<linearGradient id="paint12_linear_653_5688" x1="583.32" y1="224.92" x2="471.092" y2="64.2853" gradientUnits="userSpaceOnUse">
<stop stop-color="#59427B"/>
<stop offset="1" stop-color="#BE8380"/>
</linearGradient>
<linearGradient id="paint13_linear_653_5688" x1="51.5961" y1="225.431" x2="787.235" y2="443.519" gradientUnits="userSpaceOnUse">
<stop stop-color="#856E7B"/>
<stop offset="0.99" stop-color="#573153"/>
</linearGradient>
<linearGradient id="paint14_linear_653_5688" x1="550.454" y1="495.331" x2="547.555" y2="264.323" gradientUnits="userSpaceOnUse">
<stop stop-color="#782E41"/>
<stop offset="1" stop-color="#290253"/>
</linearGradient>
<linearGradient id="paint15_linear_653_5688" x1="483.949" y1="382.888" x2="612.491" y2="381.699" gradientUnits="userSpaceOnUse">
<stop stop-color="#59427B"/>
<stop offset="1" stop-color="#BE8380"/>
</linearGradient>
<linearGradient id="paint16_linear_653_5688" x1="-227.309" y1="34.7812" x2="1365.66" y2="538.055" gradientUnits="userSpaceOnUse">
<stop stop-color="#856E7B"/>
<stop offset="0.99" stop-color="#573153"/>
</linearGradient>
<linearGradient id="paint17_linear_653_5688" x1="851.175" y1="497.127" x2="852.38" y2="267.604" gradientUnits="userSpaceOnUse">
<stop stop-color="#782E41"/>
<stop offset="1" stop-color="#290253"/>
</linearGradient>
<linearGradient id="paint18_linear_653_5688" x1="669.336" y1="471.77" x2="1028.89" y2="471.77" gradientUnits="userSpaceOnUse">
<stop stop-color="#AC2859"/>
<stop offset="0.23" stop-color="#C42F4E"/>
<stop offset="0.49" stop-color="#D83444"/>
<stop offset="0.75" stop-color="#E5383E"/>
<stop offset="1" stop-color="#E9393C"/>
</linearGradient>
<linearGradient id="paint19_linear_653_5688" x1="483.351" y1="357.222" x2="536.38" y2="357.675" gradientUnits="userSpaceOnUse">
<stop stop-color="#59427B"/>
<stop offset="1" stop-color="#BE8380"/>
</linearGradient>
<linearGradient id="paint20_linear_653_5688" x1="319.026" y1="55.3816" x2="672.213" y2="58.4023" gradientUnits="userSpaceOnUse">
<stop stop-color="#AC2859"/>
<stop offset="0.23" stop-color="#C42F4E"/>
<stop offset="0.49" stop-color="#D83444"/>
<stop offset="0.75" stop-color="#E5383E"/>
<stop offset="1" stop-color="#E9393C"/>
</linearGradient>
<linearGradient id="paint21_linear_653_5688" x1="1049.69" y1="215.925" x2="1066.13" y2="216.065" gradientUnits="userSpaceOnUse">
<stop offset="0.01" stop-color="#EAE3F8"/>
<stop offset="1" stop-color="#D9B6C2"/>
</linearGradient>
<linearGradient id="paint22_linear_653_5688" x1="1028.3" y1="204.367" x2="1047.47" y2="204.531" gradientUnits="userSpaceOnUse">
<stop offset="0.01" stop-color="#EAE3F8"/>
<stop offset="1" stop-color="#D9B6C2"/>
</linearGradient>
<linearGradient id="paint23_linear_653_5688" x1="751.988" y1="200.695" x2="306.196" y2="22.6776" gradientUnits="userSpaceOnUse">
<stop stop-color="#FD916A"/>
<stop offset="1" stop-color="#880050"/>
</linearGradient>
<linearGradient id="paint24_linear_653_5688" x1="842.1" y1="458.886" x2="840.881" y2="315.213" gradientUnits="userSpaceOnUse">
<stop stop-color="#804252"/>
<stop offset="1" stop-color="#330E5B"/>
</linearGradient>
<linearGradient id="paint25_linear_653_5688" x1="64.8329" y1="289.922" x2="20.9842" y2="256.771" gradientUnits="userSpaceOnUse">
<stop stop-color="#856E7B"/>
<stop offset="0.99" stop-color="#573153"/>
</linearGradient>
<linearGradient id="paint26_linear_653_5688" x1="2.68838" y1="269.519" x2="76.9375" y2="270.154" gradientUnits="userSpaceOnUse">
<stop offset="0.01" stop-color="#EAE3F8"/>
<stop offset="1" stop-color="#D9B6C2"/>
</linearGradient>
<linearGradient id="paint27_linear_653_5688" x1="80.2198" y1="360.311" x2="38.4993" y2="257.979" gradientUnits="userSpaceOnUse">
<stop stop-color="#856E7B"/>
<stop offset="0.99" stop-color="#573153"/>
</linearGradient>
<linearGradient id="paint28_linear_653_5688" x1="65.4021" y1="386.465" x2="37.3393" y2="365.244" gradientUnits="userSpaceOnUse">
<stop stop-color="#856E7B"/>
<stop offset="0.99" stop-color="#573153"/>
</linearGradient>
<linearGradient id="paint29_linear_653_5688" x1="21.092" y1="373.1" x2="78.6312" y2="373.592" gradientUnits="userSpaceOnUse">
<stop offset="0.01" stop-color="#EAE3F8"/>
<stop offset="1" stop-color="#D9B6C2"/>
</linearGradient>
<linearGradient id="paint30_linear_653_5688" x1="71.2477" y1="423.248" x2="48.3311" y2="367.045" gradientUnits="userSpaceOnUse">
<stop stop-color="#856E7B"/>
<stop offset="0.99" stop-color="#573153"/>
</linearGradient>
<linearGradient id="paint31_linear_653_5688" x1="781.758" y1="385.44" x2="1024.71" y2="383.188" gradientUnits="userSpaceOnUse">
<stop stop-color="#59427B"/>
<stop offset="1" stop-color="#BE8380"/>
</linearGradient>
<linearGradient id="paint32_linear_653_5688" x1="609.683" y1="345.545" x2="1164.86" y2="354.5" gradientUnits="userSpaceOnUse">
<stop offset="0.01" stop-color="#EAE3F8"/>
<stop offset="1" stop-color="#D9B6C2"/>
</linearGradient>
<linearGradient id="paint33_linear_653_5688" x1="724.711" y1="325.185" x2="627.306" y2="382.507" gradientUnits="userSpaceOnUse">
<stop stop-color="#FD916A"/>
<stop offset="1" stop-color="#880050"/>
</linearGradient>
<linearGradient id="paint34_linear_653_5688" x1="564.397" y1="42.3705" x2="633.189" y2="42.9589" gradientUnits="userSpaceOnUse">
<stop stop-color="#AC2859"/>
<stop offset="0.23" stop-color="#C42F4E"/>
<stop offset="0.49" stop-color="#D83444"/>
<stop offset="0.75" stop-color="#E5383E"/>
<stop offset="1" stop-color="#E9393C"/>
</linearGradient>
<linearGradient id="paint35_linear_653_5688" x1="600.748" y1="488.374" x2="523.88" y2="445.629" gradientUnits="userSpaceOnUse">
<stop stop-color="#FD916A"/>
<stop offset="1" stop-color="#880050"/>
</linearGradient>
<linearGradient id="paint36_linear_653_5688" x1="572.902" y1="493.366" x2="546.024" y2="478.422" gradientUnits="userSpaceOnUse">
<stop stop-color="#FD916A"/>
<stop offset="1" stop-color="#880050"/>
</linearGradient>
<linearGradient id="paint37_linear_653_5688" x1="582.625" y1="440.498" x2="564.896" y2="490.986" gradientUnits="userSpaceOnUse">
<stop stop-color="#FD916A"/>
<stop offset="1" stop-color="#880050"/>
</linearGradient>
</defs>
</svg>
