<svg width="359" height="471" viewBox="0 0 359 471" fill="none" xmlns="http://www.w3.org/2000/svg">
<mask id="mask0_813_5649" style="mask-type:alpha" maskUnits="userSpaceOnUse" x="0" y="0" width="359" height="471">
<rect width="359" height="471" fill="#D9D9D9"/>
</mask>
<g mask="url(#mask0_813_5649)">
<path d="M350.648 91.5234H256.401V112.529H350.648V91.5234Z" fill="#6B625E"/>
<path d="M359.144 471.021H231.287C234.084 431.814 240.277 340.894 242.275 277.733C243.436 240.844 243.169 213.419 239.963 211.282C226.645 202.391 146.858 191.879 143.471 191.43H143.205C143.075 191.458 142.949 191.506 142.834 191.573L142.406 191.879C140.713 193.081 138.391 194.368 136.983 194.368H87.7814C71.9896 194.368 38.6746 186.851 24.3668 181.013C23.5096 180.666 22.7309 180.149 22.0771 179.493C21.4234 178.838 20.9079 178.057 20.5615 177.197C19.9095 175.595 19.8723 173.808 20.4569 172.18L20.5901 171.817L40.2157 116.613C41.0194 114.327 42.6076 112.403 44.6964 111.185C47.0842 110.307 97.228 107.235 100.32 107.216L102.165 107.645L103.174 107.884L114.399 110.603C127.461 113.789 149.322 119.112 173.952 124.912C204.146 132.057 230.869 138.124 253.367 142.951L253.995 143.084C254.09 143.095 254.186 143.095 254.281 143.084H254.499C254.66 143.069 254.814 143.013 254.947 142.922C255.165 142.741 255.47 142.512 255.47 142.235V101.836H256.335L309.609 102.179H311.873H313.957H319.988L350.592 103.534L351.99 103.591L359.144 471.021Z" fill="#A5AABC"/>
<g style="mix-blend-mode:multiply" opacity="0.4">
<path d="M193.558 181.392C193.558 181.392 157.256 173.35 150.568 172.434C143.88 171.518 142.339 170.002 142.006 174.905C141.825 178.12 142.444 186.972 142.891 192.658C143.138 195.606 143.319 197.695 143.319 197.695L134.443 195.31L95.9434 184.959C95.9434 184.959 106.884 121.494 106.189 114.797C105.942 112.355 104.334 109.436 102.384 106.727C110.166 108.577 139.047 115.713 174.17 124.022C172.753 131.014 170.669 143.673 172.382 150.56C174.845 160.376 193.558 181.392 193.558 181.392Z" fill="#A5AABC"/>
</g>
<path d="M143.357 192.356C143.357 192.356 139.428 195.304 136.974 195.304H87.8288C71.9513 195.304 38.5507 187.796 24.0907 181.891C23.1176 181.501 22.2328 180.917 21.4892 180.177C20.7455 179.436 20.1582 178.553 19.7622 177.579C19.0083 175.755 18.9608 173.714 19.629 171.856C19.629 171.856 96.8948 168.88 98.6833 169.767L143.357 192.356Z" fill="#514C48"/>
<path d="M305.413 154.955C301.38 154.955 259.151 145.52 254.347 144.461C254.058 144.37 253.815 144.174 253.663 143.911C253.512 143.648 253.465 143.339 253.531 143.043C253.597 142.747 253.771 142.486 254.018 142.313C254.266 142.139 254.57 142.065 254.87 142.105C267.541 144.967 300.619 152.198 305.137 152.541C307.164 149.679 308.943 125.211 309.589 102.65C309.606 102.333 309.744 102.034 309.974 101.816C310.204 101.598 310.509 101.476 310.826 101.477C310.984 101.48 311.14 101.515 311.285 101.58C311.43 101.644 311.56 101.737 311.669 101.852C311.778 101.968 311.863 102.103 311.919 102.252C311.975 102.4 312.001 102.558 311.996 102.717C310.588 154.955 306.688 154.955 305.413 154.955Z" fill="#685B56"/>
<path d="M354.94 89.9187L347.329 100.937H320.131L302.779 100.641L254.652 99.8111L252.274 26.3574L184.093 16.0836L180.915 15.6066L180.487 7.31675C180.44 6.37508 180.584 5.43359 180.911 4.5496C181.238 3.66561 181.741 2.85769 182.39 2.17504C183.028 1.48665 183.801 0.938001 184.66 0.563692C185.52 0.189383 186.447 -0.00251472 187.384 2.48813e-05H231.659C233.178 0.0121185 234.696 0.101295 236.206 0.267157L237.462 0.429311C238.185 0.534245 238.936 0.648683 239.659 0.810853L343.353 21.397C346.114 21.9366 348.612 23.3957 350.442 25.5376C352.272 27.6795 353.328 30.3786 353.436 33.1972L353.598 39.3025L354.94 89.9187Z" fill="#A5AABC"/>
<path d="M305.195 101.002C304.94 101 304.693 100.917 304.489 100.765C304.284 100.613 304.133 100.4 304.056 100.157C303.979 99.9141 303.98 99.6526 304.06 99.4104C304.14 99.1681 304.294 98.9574 304.5 98.8081L304.748 98.6363C306.65 97.3008 308.001 96.3373 308.772 94.4676C309.344 93.0459 309.638 91.5269 309.637 89.9937V38.1278C309.641 35.9924 308.898 33.9234 307.537 32.2813C306.176 30.6391 304.283 29.528 302.189 29.1416L235.93 16.8166H184.159C183.992 16.8315 183.824 16.8114 183.665 16.7576C183.506 16.7037 183.36 16.6172 183.236 16.5037C183.113 16.3902 183.014 16.2521 182.946 16.0982C182.879 15.9443 182.844 15.7781 182.844 15.61C182.844 15.4418 182.879 15.2755 182.946 15.1216C183.014 14.9677 183.113 14.8296 183.236 14.7161C183.36 14.6026 183.506 14.5161 183.665 14.4623C183.824 14.4084 183.992 14.3883 184.159 14.4032H236.186L302.664 26.7472C305.309 27.2431 307.697 28.65 309.417 30.7246C311.137 32.7991 312.079 35.411 312.082 38.1087V89.9746C312.085 91.8231 311.726 93.6543 311.026 95.3644C310.008 97.8828 308.23 99.1801 306.165 100.592L305.927 100.754C305.718 100.916 305.46 101.004 305.195 101.002Z" fill="#685B56"/>
<g style="mix-blend-mode:multiply" opacity="0.7">
<path d="M310.855 38.1191V89.9945C310.854 91.6842 310.531 93.358 309.904 94.9263C308.953 97.2062 307.278 98.332 305.147 99.782L302.741 100.641L254.613 99.8105L252.264 26.9389V26.376L184.083 16.102L184.14 15.625H236.187L302.436 27.9595C303.136 28.0814 303.82 28.2863 304.472 28.5701C306.025 29.213 307.4 30.2245 308.477 31.5177C310.017 33.3704 310.859 35.707 310.855 38.1191Z" fill="#A5AABC"/>
</g>
<g style="mix-blend-mode:multiply" opacity="0.7">
<path d="M304.443 28.5727L252.673 26.97H252.302V26.4072L184.121 16.1332L184.178 15.6562H236.187L302.436 27.9908C303.126 28.1056 303.799 28.3009 304.443 28.5727Z" fill="#A5AABC"/>
</g>
<g style="mix-blend-mode:multiply" opacity="0.7">
<path d="M311.626 101.31C311.017 113.941 308.772 153.777 305.404 153.777C301.39 153.777 254.604 143.284 254.604 143.284L254.252 142.235L254.604 142.32V100.977L311.626 101.31Z" fill="#A5AABC"/>
</g>
<g style="mix-blend-mode:multiply" opacity="0.5">
<path d="M321.986 471.021H230.336C232.962 433.913 239.164 342.401 241.314 278.744C242.57 241.693 242.437 214.076 239.412 212.063C226.15 203.192 143.329 192.365 143.329 192.365C143.329 192.365 143.272 191.964 143.205 191.411C142.977 189.779 142.501 186.221 142.254 182.577C142.254 182.52 142.254 182.472 142.254 182.415C142.14 180.927 142.063 179.429 142.063 178.046C142.063 177.941 142.063 177.836 142.063 177.722C142.063 174.678 142.396 172.255 143.386 171.807C146.354 170.462 261.349 197.039 275.619 203.287C289.888 209.536 308.591 240.825 310.38 247.073C310.808 248.6 311.797 264.34 313.053 287.139C315.85 339.682 320.064 429.639 321.986 471.021Z" fill="#A5AABC"/>
</g>
<g style="mix-blend-mode:multiply" opacity="0.7">
<path d="M312.996 287.211C298.155 261.827 265.592 265.843 256.393 268.075C251.237 269.305 245.719 274.018 241.314 278.74C242.57 241.689 242.437 214.072 239.412 212.059C226.15 203.188 143.329 192.36 143.329 192.36C143.329 192.36 140.361 173.158 143.329 171.822C146.297 170.487 261.292 197.054 275.562 203.302C289.831 209.551 308.534 240.84 310.323 247.088C310.751 248.633 311.74 264.374 312.996 287.211Z" fill="#A5AABC"/>
</g>
<g style="mix-blend-mode:multiply" opacity="0.5">
<path d="M353.636 39.3237C347.928 25.9685 326.552 23.3165 308.315 20.531C288.052 17.3925 288.746 25.4151 288.746 25.4151L237.461 15.8757V0.421875C238.184 0.526809 238.935 0.641305 239.658 0.803476L343.352 21.3895C346.113 21.9292 348.611 23.3883 350.441 25.5302C352.272 27.6721 353.327 30.3712 353.436 33.1898L353.636 39.3237Z" fill="#A5AABC"/>
</g>
<g style="mix-blend-mode:multiply" opacity="0.7">
<path d="M263.441 29.4481L262.49 28.4941C262.2 28.2243 261.834 28.0517 261.442 28.0004C261.049 27.9491 260.651 28.0217 260.302 28.2079C253.785 31.3464 257.515 43.8239 257.648 49.2518C257.99 64.2574 257.191 79.2439 257.22 94.2494C257.244 94.4994 257.36 94.7314 257.546 94.9002C257.731 95.069 257.973 95.1625 258.223 95.1625C258.474 95.1625 258.715 95.069 258.901 94.9002C259.087 94.7314 259.203 94.4994 259.227 94.2494C259.522 84.2521 259.341 74.2166 259.522 64.2479C259.598 59.9552 258.39 32.7677 263.08 31.022C263.236 30.9745 263.377 30.8879 263.489 30.7702C263.602 30.6525 263.683 30.5078 263.724 30.3499C263.765 30.1919 263.765 30.0261 263.724 29.8682C263.683 29.7103 263.602 29.5657 263.489 29.4481H263.441Z" fill="#A5AABC"/>
</g>
<g style="mix-blend-mode:multiply" opacity="0.7">
<path d="M260.988 141.697C269.607 145.14 279.386 146.39 288.452 148.374C292.257 149.185 299.107 152.333 302.903 150.072C306.908 147.678 306.394 138.768 306.87 135.172C307.945 126.968 308.268 118.63 308.687 110.369C308.687 109.883 307.973 109.892 307.935 110.369C307.471 117.318 306.45 124.218 304.881 131.003C304.253 133.712 304.158 137.079 302.845 139.522C300.524 143.833 297.756 144.549 293.199 144.415C282.506 144.12 272.061 139.588 261.292 139.512C261.022 139.517 260.762 139.618 260.56 139.798C260.358 139.978 260.227 140.224 260.19 140.493C260.153 140.761 260.214 141.034 260.36 141.262C260.506 141.489 260.729 141.657 260.988 141.735V141.697Z" fill="#A5AABC"/>
</g>
<g style="mix-blend-mode:multiply" opacity="0.7">
<path d="M241.162 209.161C254.823 219.416 276.903 217.451 289.156 229.194C303.426 242.921 308.106 264.69 309.581 283.703C309.638 284.418 310.732 284.437 310.713 283.703C310.009 264.376 305.794 245.726 293.066 230.587C287.662 224.157 280.699 214.904 272.898 211.508C263.214 207.301 251.712 208.646 241.39 208.312C241.296 208.317 241.206 208.351 241.133 208.41C241.059 208.468 241.006 208.549 240.98 208.64C240.955 208.731 240.959 208.827 240.992 208.916C241.024 209.004 241.084 209.08 241.162 209.133V209.161Z" fill="#A5AABC"/>
</g>
<g style="mix-blend-mode:multiply" opacity="0.7">
<path d="M106.265 112.817C107.216 121.708 104.533 132.964 103.563 141.874C102.878 148.161 102.031 154.485 100.89 160.705C100.471 162.994 98.9873 166.057 100.89 167.974C101.186 168.267 101.57 168.454 101.982 168.508C102.394 168.561 102.813 168.477 103.173 168.27C105.808 166.867 104.99 162.145 105.161 159.684C105.618 153.007 106.236 146.243 106.95 139.566C107.799 132.985 108.145 126.348 107.987 119.714C107.901 117.52 108.577 114.391 106.969 112.55C106.913 112.493 106.841 112.454 106.763 112.438C106.685 112.422 106.603 112.43 106.53 112.46C106.456 112.491 106.393 112.544 106.349 112.611C106.305 112.678 106.283 112.756 106.284 112.836L106.265 112.817Z" fill="#A5AABC"/>
</g>
<path d="M91.3487 116.036C99.2351 118.688 88.6374 154.709 88.6279 162.121C88.6279 168.245 97.1137 169.075 98.9687 163.533C101.109 157.141 101.385 150.177 101.994 143.5C102.631 136.574 103.801 129.191 103.145 122.275C102.508 115.53 98.6072 109.959 91.3487 111.886C89.2368 112.439 89.446 115.358 91.3487 116.007V116.036Z" fill="#C3CCD1"/>
<path d="M254.537 151.331C265.239 155.967 278.377 156.606 289.793 159.02C295.186 160.155 303.663 163.856 308.6 159.21C313.832 154.288 311.901 143.203 312.082 137.022C312.272 130.182 310.541 117.485 313.889 111.466C315.078 109.319 317.504 108.346 319.645 106.619C321.386 105.217 319.949 102.107 317.837 102.222C315.452 102.327 313.077 102.604 310.731 103.052C310.08 103.23 309.506 103.618 309.097 104.156C308.687 104.694 308.466 105.352 308.467 106.028C309.491 115.533 310.002 125.086 309.998 134.646C309.951 143.652 311.473 158.6 297.803 155.395C284.617 152.304 268.141 147.763 254.689 150.177C254.572 150.212 254.467 150.281 254.388 150.375C254.309 150.468 254.258 150.583 254.242 150.705C254.226 150.826 254.245 150.95 254.297 151.061C254.35 151.172 254.433 151.266 254.537 151.331Z" fill="#C3CCD1"/>
<path d="M314.68 28.0829C313.338 39.1582 314.309 50.4624 313.928 61.614C313.548 72.7656 311.959 84.0222 312.52 95.1165C312.644 97.5014 316.23 98.2168 316.83 95.6984C321.643 75.4939 321.586 48.0013 316.278 27.8635C316.22 27.6787 316.099 27.5203 315.936 27.4166C315.772 27.3128 315.578 27.2704 315.386 27.2966C315.195 27.3229 315.019 27.4163 314.89 27.5602C314.76 27.7041 314.686 27.8893 314.68 28.0829Z" fill="#C3CCD1"/>
<path d="M332.631 471.017H324.326C322.509 456.527 323.555 440.749 323.203 426.668C322.718 406.845 322.319 387.051 321.225 367.238C319.056 327.868 313.481 288.06 313.795 248.615C313.807 248.454 313.873 248.303 313.983 248.186C314.094 248.069 314.241 247.995 314.4 247.974C314.559 247.954 314.721 247.99 314.857 248.075C314.992 248.161 315.095 248.291 315.146 248.443C323.023 286.296 324.022 326.285 326.562 364.824C327.941 385.458 329.587 406.082 330.776 426.726C331.623 440.72 333.687 456.403 332.631 471.017Z" fill="#C3CCD1"/>
<path opacity="0.6" d="M288.765 471.018H237.794C235.007 441.445 242.084 411.682 241.599 381.929C241.485 374.03 240.829 366.131 240.895 358.223C240.962 349.752 241.847 341.31 242.798 332.887C244.307 318.616 245.826 304.341 247.355 290.064C247.659 287.202 247.982 284.235 249.257 281.641C255.317 269.459 272.536 267.332 274.943 281.898C280.023 312.94 280.651 345.517 282.905 376.873C285.16 408.229 287.224 439.499 288.775 470.836C288.756 470.894 288.765 470.96 288.765 471.018Z" fill="#7C8299"/>
<path d="M309.019 29.5214C311.511 48.2759 312.006 66.8778 312.063 85.804C312.063 89.6198 317.619 89.5149 317.875 85.804C319.179 66.7252 317.542 47.6463 314.631 28.8059C314.146 25.6579 308.6 26.3639 309.019 29.5691V29.5214Z" fill="white"/>
<path d="M313.242 102.756C310.388 105.618 309.618 109.615 310.388 113.479C311.159 117.342 317.124 116.34 317.048 112.525C317.048 109.825 317.266 107.182 317.457 104.492C317.618 102.251 314.603 101.278 313.185 102.718L313.242 102.756Z" fill="white"/>
<path d="M87.8953 165.529L93.1656 168.334C93.456 168.524 93.7818 168.652 94.1233 168.712C94.4649 168.772 94.815 168.762 95.1524 168.682C95.4898 168.602 95.8075 168.454 96.0862 168.247C96.3648 168.04 96.5987 167.779 96.7736 167.478C96.9484 167.178 97.0606 166.846 97.1033 166.501C97.1461 166.156 97.1185 165.805 97.0221 165.472C96.9258 165.138 96.7628 164.827 96.5431 164.558C96.3233 164.289 96.0513 164.068 95.7436 163.907L90.3212 161.36C89.766 161.055 89.1152 160.975 88.5028 161.136C87.8905 161.298 87.3632 161.689 87.0296 162.228C86.7155 162.783 86.6302 163.439 86.792 164.056C86.9538 164.672 87.3498 165.201 87.8953 165.529Z" fill="white"/>
<path d="M228.509 5.33423C228.326 7.42927 228.416 9.53928 228.776 11.6111C229.632 14.9118 234.598 14.9213 235.435 11.6111C235.795 9.5393 235.885 7.42927 235.701 5.33423C235.701 4.37536 235.321 3.45576 234.645 2.77773C233.969 2.0997 233.052 1.71875 232.096 1.71875C231.14 1.71875 230.223 2.0997 229.546 2.77773C228.87 3.45576 228.49 4.37536 228.49 5.33423H228.509Z" fill="white"/>
<path d="M0.143556 468.519C28.8491 362.807 39.3819 299.419 49.6435 180.019C61.6436 171.019 116.644 173.519 116.644 193.519C105.257 300.327 102.438 360.559 103.644 468.519L84.6436 468.519C87.9451 444.919 89.5512 419.291 92.1436 358.519C82.1369 400.033 79.6353 424.442 76.6436 468.519L0.143556 468.519Z" fill="url(#paint0_linear_813_5649)"/>
</g>
<defs>
<linearGradient id="paint0_linear_813_5649" x1="23.1436" y1="259.519" x2="128.632" y2="273.606" gradientUnits="userSpaceOnUse">
<stop stop-color="#CEE7F9"/>
<stop offset="0.254632" stop-color="#84CBFF" stop-opacity="0.84"/>
<stop offset="0.469507" stop-color="white"/>
<stop offset="0.927873" stop-color="#51B6FF"/>
</linearGradient>
</defs>
</svg>
