<svg width="173" height="605" viewBox="0 0 173 605" fill="none" xmlns="http://www.w3.org/2000/svg">
<path d="M86.6322 442.396C83.5837 422.2 91.3954 399.368 95.6823 390.477C91.8718 390.477 82.8216 391.429 77.1058 395.24C63.7687 423.343 70.9136 468.117 69.4846 484.788C68.3414 498.126 58.8467 521.783 54.2423 531.944C62.0222 519.084 76.7247 487.265 73.2952 462.878C69.8656 438.49 80.7576 407.624 86.6322 395.24C84.7269 405.401 81.1069 429.059 81.869 442.396C82.8216 459.067 121.404 551.95 124.262 574.337C124.262 550.521 90.4428 467.641 86.6322 442.396Z" fill="#536D09"/>
<path d="M101.734 494.469C96.2242 488.87 83.0737 481.875 77.1872 479.077C76.6741 479.896 76.1974 482.69 78.3953 487.322C81.1426 493.111 95.8701 508.538 108.034 511.544C103.96 509.433 103.211 506.61 103.345 505.462L122.068 507.589C117.586 505.549 107.244 500.069 101.734 494.469Z" fill="#79A400"/>
<path d="M148.556 578.303C143.046 572.704 129.895 565.709 124.008 562.911C123.495 563.73 123.019 566.524 125.217 571.156C127.964 576.945 142.691 592.372 154.856 595.378C150.781 593.267 150.032 590.444 150.166 589.296L168.889 591.423C164.407 589.383 154.066 583.903 148.556 578.303Z" fill="#79A400"/>
<path d="M96.0799 517.95C93.2119 505.115 80.7258 483.528 74.8412 474.34C73.3875 475.048 70.2351 478.595 69.2549 487.122C68.0295 497.78 75.2867 532.743 89.905 547.788C85.987 541.18 87.4235 536.505 88.6314 534.993L113.346 554.6C108.785 547.731 98.9478 530.785 96.0799 517.95Z" fill="#618106"/>
<path d="M44.2377 436.385C47.6964 431.683 63.3722 421.6 70.7777 417.147C73.0954 422.688 73.1851 442.362 72.9403 451.507C71.6565 451.14 67.9782 447.75 63.5361 437.13C65.9002 476.832 56.3817 484.881 57.9662 482.184C59.2339 480.026 56.4152 462.262 54.8475 453.649C54.2079 454.821 52.4122 459.822 50.3463 470.452C47.7639 483.739 44.638 484.368 33.4935 499.88C32.0994 493.953 36.5084 474.657 38.8872 465.75C31.9645 471.358 18.31 481.41 19.0737 476.75C19.8374 472.09 41.3386 451.613 51.9937 441.957L36.9865 448.234C37.9624 446.244 40.7789 441.087 44.2377 436.385Z" fill="#638505"/>
<path d="M42.12 519.982C45.1318 516.714 57.8396 510.4 63.817 507.651C65.1057 512.039 63.5225 526.934 62.5698 533.833C61.6291 533.447 59.1303 530.574 56.6604 522.165C55.1173 552.405 47.2393 557.697 48.6646 555.789C49.8049 554.263 49.163 540.584 48.6995 533.935C48.1172 534.768 46.3387 538.402 43.8834 546.272C40.8142 556.109 38.3961 556.323 28.6615 567.125C28.104 562.523 33.0596 548.293 35.607 541.752C29.8981 545.415 18.7224 551.875 19.6914 548.413C20.6604 544.951 38.6484 531.261 47.5212 524.849L35.6388 528.339C36.5443 526.915 39.1082 523.249 42.12 519.982Z" fill="#79A400"/>
<path d="M84.911 441.748C86.1412 449.692 81.1461 467.701 78.4948 475.713C77.7626 471.279 76.3126 463.863 76.3708 469.667C76.429 475.471 70.5309 486.154 67.5746 490.771C67.0131 486.752 65.5166 477.631 64.0223 473.293C62.1543 467.87 68.8977 454.167 74.8343 447.353C79.5835 441.901 81.5531 435.36 81.9442 432.771C81.9319 433.626 82.508 436.618 84.911 441.748Z" fill="#79A400"/>
<path d="M75.5884 516.062C77.7288 529.883 69.0379 561.218 64.4249 575.157C63.1508 567.443 60.628 554.54 60.7292 564.638C60.8305 574.737 50.5684 593.325 45.4246 601.357C44.4477 594.365 41.844 578.495 39.2439 570.947C35.9937 561.511 47.7267 537.67 58.0558 525.814C66.319 516.329 69.746 504.947 70.4265 500.442C70.4051 501.93 71.4075 507.136 75.5884 516.062Z" fill="url(#paint0_linear_613_9691)"/>
<path d="M118.379 526.955C126.234 530.788 139.21 546.428 144.716 553.769C140.303 551.67 132.783 548.36 138 551.911C143.217 555.463 149.093 567.361 151.378 572.866C147.443 570.872 138.371 566.545 133.57 565.186C127.57 563.487 119.524 548.96 117.126 539.43C115.208 531.806 110.592 525.987 108.523 524.03C109.279 524.572 112.308 525.915 118.379 526.955Z" fill="#6A8D04"/>
<path d="M62.0786 513.339C62.5482 508.921 68.9852 496.275 72.1451 490.504C75.7956 493.258 83.4057 506.159 86.7545 512.266C85.7694 512.517 82.05 511.7 75.0532 506.422C91.8452 531.619 88.6763 540.565 88.6829 538.183C88.6882 536.278 80.0168 525.68 75.6805 520.619C75.7097 521.634 76.4484 525.612 79.1697 533.394C82.5714 543.121 80.7577 544.735 79.3836 559.211C76.1921 555.849 71.6853 541.47 69.8309 534.7C67.4316 541.045 62.3114 552.894 61.0252 549.537C59.7389 546.18 66.017 524.465 69.3169 514.027L61.8587 523.913C61.7363 522.23 61.6091 517.758 62.0786 513.339Z" fill="#79A400"/>
<path d="M12.2297 279.016C51.0419 192.802 73.6754 0.84375 82.2492 0.84375C89.4331 0.84375 129.543 36.0916 129.543 127.069C117.727 185.657 155.603 239.279 155.603 279.016C155.603 369.041 132.739 396.192 82.2492 398.097C31.759 400.002 -13.7166 336.651 12.2297 279.016Z" fill="#F4530A"/>
<path d="M119.403 373.326C108.924 388.569 93.682 396.19 68.4369 398.571C4.1333 387.616 -5.32882 280.378 13.6598 245.672C60.569 159.936 73.2001 9.41557 81.2976 2.27072C85.9109 -1.79987 112.488 32.7574 112.488 81.3392C112.488 129.924 120.747 192.715 132.74 214.234C163.862 270.076 133.827 352.346 119.403 373.326Z" fill="#FF6000"/>
<path d="M65.5783 389.519C49.9549 390.662 40.3332 383.962 37.4752 380.469C25.5672 373.225 -24.3503 325.438 14.6118 244.717C80.8242 107.539 76.0574 1.79239 80.8206 4.65033C89.8708 8.46092 126.301 256.15 111.782 281.396C85.1801 327.648 85.1075 388.09 65.5783 389.519Z" fill="url(#paint1_linear_613_9691)"/>
<path d="M78.6719 293.401C139.641 290.445 150.12 248.055 145.357 293.401C132.254 298.398 95.4407 295.483 78.6719 293.401Z" fill="#F4530A"/>
<path opacity="0.6" d="M97.7207 199.065C45.3822 196.081 40.0856 164.224 31.9881 200.9C43.2363 205.946 83.3257 201.168 97.7207 199.065Z" fill="url(#paint2_linear_613_9691)"/>
<path opacity="0.6" d="M86.5371 303.882C97.9689 300.759 101.462 299.198 104.637 303.882C101.081 308.88 91.0886 305.965 86.5371 303.882Z" fill="#F4530A"/>
<path d="M74.1514 369.617C88.5915 366.494 93.0037 364.932 97.0149 369.617C92.5224 374.614 79.9007 371.699 74.1514 369.617Z" fill="#F4530A"/>
<path d="M67.4834 311.931C78.9151 310.37 82.4082 309.589 85.5837 311.931C82.0271 314.43 72.0349 312.973 67.4834 311.931Z" fill="#F4530A"/>
<path d="M88.4414 338.607C103.483 337.046 108.079 336.265 112.258 338.607C107.578 341.106 94.4303 339.648 88.4414 338.607Z" fill="#F4530A"/>
<path opacity="0.6" d="M5.59912 289.289C2.7385 325.616 2.53352 353.96 31.3383 365.322C52.793 373.785 48.3235 239.871 42.0658 228.327C35.8082 216.782 9.1749 243.88 5.59912 289.289Z" fill="url(#paint3_linear_613_9691)"/>
<path opacity="0.6" d="M34.1416 251.948C71.4452 249.346 82.8435 248.044 93.2056 251.948C81.6001 256.113 48.994 253.683 34.1416 251.948Z" fill="#F4530A"/>
<path opacity="0.6" d="M92.959 121.433C114.017 118.83 120.452 117.529 126.302 121.433C119.75 125.597 101.343 123.168 92.959 121.433Z" fill="#F4530A"/>
<path opacity="0.6" d="M41.5146 170.972C61.9715 168.369 68.2222 167.068 73.9046 170.972C67.5403 175.136 49.6595 172.707 41.5146 170.972Z" fill="#F4530A"/>
<path opacity="0.6" d="M29.1318 356.342C73.6555 351.137 87.2599 348.534 99.6276 356.342C85.7758 364.67 46.8588 359.812 29.1318 356.342Z" fill="#F4530A"/>
<g style="mix-blend-mode:multiply" opacity="0.8">
<path d="M122.493 385.714C111.443 394.479 87.4041 396.987 76.7662 397.146C79.3066 395.241 88.2932 389.526 103.917 381.905C123.446 372.378 93.9138 364.757 62.0002 361.423C30.0866 358.089 69.145 303.788 84.3874 299.977C99.6297 296.167 96.7718 287.115 93.9138 253.296C91.6275 226.241 108.839 245.516 117.73 258.536C115.983 261.076 111.538 270.349 107.727 287.115C102.964 308.074 122.493 315.695 148.691 336.177C145.36 367.578 136.327 374.742 122.54 385.677L122.493 385.714Z" fill="url(#paint4_linear_613_9691)" style="mix-blend-mode:multiply"/>
<path d="M84.3874 165.654C80.1957 144.315 51.2036 174.546 37.2314 192.328C47.139 167.179 58.5072 113.258 62.9529 89.4414C61.5239 102.937 60.2855 131.453 66.7635 137.55C74.861 145.171 93.9138 138.503 102.964 150.887C112.014 163.271 96.7718 183.278 84.3874 165.654Z" fill="url(#paint5_linear_613_9691)" style="mix-blend-mode:multiply"/>
</g>
<defs>
<linearGradient id="paint0_linear_613_9691" x1="38.816" y1="598.602" x2="78.3529" y2="503.746" gradientUnits="userSpaceOnUse">
<stop stop-color="#79A400"/>
<stop offset="1" stop-color="#475C0B"/>
</linearGradient>
<linearGradient id="paint1_linear_613_9691" x1="37.7054" y1="201.375" x2="126.301" y2="201.375" gradientUnits="userSpaceOnUse">
<stop stop-color="#FF7200"/>
<stop offset="1" stop-color="#FF7200" stop-opacity="0"/>
</linearGradient>
<linearGradient id="paint2_linear_613_9691" x1="89.777" y1="190.408" x2="31.9914" y2="190.408" gradientUnits="userSpaceOnUse">
<stop stop-color="#FFE472"/>
<stop offset="1" stop-color="#FFE472" stop-opacity="0"/>
</linearGradient>
<linearGradient id="paint3_linear_613_9691" x1="9.54297" y1="275.437" x2="47.2292" y2="275.437" gradientUnits="userSpaceOnUse">
<stop stop-color="#FFE472"/>
<stop offset="1" stop-color="#FFE472" stop-opacity="0"/>
</linearGradient>
<linearGradient id="paint4_linear_613_9691" x1="91.5764" y1="396.894" x2="93.2735" y2="89.827" gradientUnits="userSpaceOnUse">
<stop stop-color="white"/>
<stop offset="1" stop-color="#BF6FAE"/>
</linearGradient>
<linearGradient id="paint5_linear_613_9691" x1="91.5764" y1="396.894" x2="93.2735" y2="89.827" gradientUnits="userSpaceOnUse">
<stop stop-color="white"/>
<stop offset="1" stop-color="#BF6FAE"/>
</linearGradient>
</defs>
</svg>
