<svg width="540" height="315" viewBox="0 0 540 315" fill="none" xmlns="http://www.w3.org/2000/svg">
<path d="M251.143 78.3242L251.252 85.3451L252.261 149.201H258.708L260.152 78.3242H251.143Z" fill="url(#paint0_linear_863_3555)"/>
<path d="M251.135 78.2928L251.244 85.2826C252.238 83.9856 253.488 82.7507 254.529 82.7507C256.735 82.7507 257.946 87.1621 257.946 89.562C257.946 91.5114 257.022 133.287 256.665 149.139H258.708L260.144 78.2617L251.135 78.2928Z" fill="url(#paint1_linear_863_3555)"/>
<path d="M1.52793 205.747C2.12596 206.982 2.91816 207.86 3.78801 207.937H4.29285L10.9876 208.085L253.862 213.607L528.019 208.046L535.786 207.883C538.17 207.937 539.343 203.806 539.11 200.715C539.074 200.105 538.954 199.504 538.752 198.928C538.442 198.004 537.898 197.375 537.121 197.375L521.852 197.235L508.145 197.111L260.253 194.781L253.823 194.727L247.167 194.796L22.3111 197.126L11.3681 197.251L2.37455 197.336C-0.328191 197.406 -0.00206587 202.664 1.52793 205.747Z" fill="url(#paint2_linear_863_3555)"/>
<path d="M117.621 198.09C117.621 198.09 112.324 201.927 112.511 203.208C112.697 204.489 117.808 210.33 117.808 210.33L82.3535 209.6C82.3535 209.6 76.5054 205.942 75.9617 203.938C75.4181 201.934 77.6082 198.09 77.6082 198.09H117.621Z" fill="#E3FADE"/>
<path d="M1.52789 205.747C2.12591 206.982 2.91812 207.86 3.78797 207.937H4.29281C3.33753 205.087 2.43658 202.338 2.21912 201.724C2.06145 201.372 1.99384 200.986 2.0223 200.601C2.05077 200.216 2.1744 199.844 2.38219 199.519C173.307 197.779 352.752 197.709 538.791 198.944C538.48 198.02 537.937 197.391 537.16 197.391L521.891 197.251L508.183 197.127L260.292 194.797L253.861 194.742L247.206 194.812L22.3499 197.142L11.4069 197.266L2.41328 197.352C-0.328291 197.406 -0.0021096 202.664 1.52789 205.747Z" fill="#E3FADE"/>
<path d="M1.52783 205.748C2.12585 206.982 2.91806 207.86 3.78791 207.938L10.9875 208.101L253.861 213.623L528.019 208.062L535.786 207.899C538.17 207.953 539.342 203.822 539.109 200.73L259.174 202.066C259.174 202.066 256.844 208.334 254.514 209.328C252.401 210.268 27.5145 206.221 1.52783 205.748Z" fill="url(#paint3_linear_863_3555)"/>
<path d="M44.5933 270.66L45.3 274.124L50.4104 298.93L51.3812 299.008L260.292 314.999V280.174L255.314 280.337L47.4125 270.784L44.5933 270.66Z" fill="url(#paint4_linear_863_3555)"/>
<path d="M44.5933 270.66L45.3 274.124L50.4104 298.93L51.3812 299.008L47.4125 270.784L44.5933 270.66Z" fill="#E0D42B"/>
<path d="M10.9951 208.102V208.156L11.8572 212.777L22.6371 269.651L24.2603 269.721L44.593 270.661L255.314 280.338L254.009 220.109L253.869 213.624L13.6435 208.156L10.9951 208.102Z" fill="url(#paint5_linear_863_3555)"/>
<path d="M123.788 210.466C123.788 210.466 103.145 214.481 101.429 215.902C99.7123 217.323 127.213 267.689 129.66 269.786C132.106 271.883 149.597 275.223 149.597 275.223L94.2602 272.636C94.2602 272.636 103.72 272.349 105.731 271.495C107.743 270.64 72.4674 217.013 70.1685 215.289C67.8697 213.564 53.8589 209.27 53.8589 209.27L123.788 210.466Z" fill="#E0D42B"/>
<path d="M176.491 276.669C176.491 276.669 161.362 278.222 160.104 278.805C158.846 279.387 170.302 304.038 172.026 305.133C173.75 306.228 186.619 309.016 186.619 309.016L146.629 306.034C146.629 306.034 153.347 305.141 154.8 304.83C156.252 304.52 139.267 277.989 137.651 277.073C136.036 276.156 126.001 274.207 126.001 274.207L176.491 276.669Z" fill="#E0D42B"/>
<path d="M10.9951 208.102V208.156L11.8572 212.777L22.6371 269.651L24.2603 269.721L13.6435 208.156L10.9951 208.102Z" fill="#E0D42B"/>
<path d="M44.5933 270.66L45.2922 274.124C77.4843 275.856 228.356 284.019 260.292 285.696V280.174L255.306 280.337L44.5933 270.66Z" fill="#48591C"/>
<path d="M10.9951 208.102V208.156L11.8572 212.777L254.009 220.109L253.869 213.624L10.9951 208.102Z" fill="#48591C"/>
<path d="M257.458 152.508L260.292 194.827L508.191 197.142L381.931 157.253L257.458 152.508Z" fill="#48591C"/>
<path d="M22.3496 197.188L247.205 194.843L249.66 152.453L128.277 158.666L22.3496 197.188Z" fill="#48591C"/>
<path d="M128.114 156.185L11.4067 197.278V197.317L22.3497 197.185L128.277 158.663L249.66 152.449L247.205 194.839L253.869 194.769L260.292 194.824L257.457 152.504L381.931 157.249L508.191 197.138L521.891 197.262L383.01 154.795L259.515 149.195H258.708H252.261H249.714L128.114 156.185Z" fill="url(#paint6_linear_863_3555)"/>
<path d="M260.292 280.174V314.999L479.517 302.797L483.726 273.456V273.199L260.292 280.174Z" fill="#48591C"/>
<path d="M253.87 213.623L255.314 280.338L260.293 280.174L483.727 273.2L516.37 272.175L528.027 208.117V208.062L253.87 213.623Z" fill="#48591C"/>
<path d="M302.651 71.4808C302.425 73.3632 301.519 75.0981 300.102 76.3585C298.686 77.6188 296.858 78.3176 294.962 78.3231H298.496C300.391 78.3176 302.22 77.6188 303.636 76.3585C305.053 75.0981 305.959 73.3632 306.184 71.4808L313.376 8.57215C313.502 7.437 313.375 6.28804 313.003 5.20806C312.632 4.12807 312.025 3.14402 311.227 2.32681C310.429 1.5096 309.46 0.879608 308.389 0.482265C307.318 0.0849214 306.173 -0.0699054 305.035 0.0289976L302.705 0.230934C307.419 -0.0253603 310.402 3.84238 309.858 8.60324L302.651 71.4808Z" fill="url(#paint7_linear_863_3555)"/>
<path d="M208.388 8.3971C207.361 8.49383 206.364 8.79415 205.454 9.28055C204.545 9.76695 203.741 10.4297 203.09 11.23C202.44 12.0304 201.955 12.9524 201.664 13.9421C201.374 14.9319 201.284 15.9695 201.398 16.9946L207.736 71.4999C207.965 73.3795 208.873 75.1107 210.289 76.3679C211.705 77.6251 213.531 78.3216 215.425 78.3267H294.977C296.873 78.3212 298.701 77.6224 300.118 76.362C301.534 75.1017 302.44 73.3668 302.666 71.4844L309.85 8.57571C310.394 3.81485 307.411 -0.0528435 302.697 0.203451H302.448L208.388 8.3971Z" fill="url(#paint8_linear_863_3555)"/>
<path opacity="0.9" d="M208.505 8.63411L302.48 0.479283H302.729C303.788 0.391499 304.853 0.5643 305.83 0.982607C306.808 1.40091 307.668 2.05204 308.336 2.87915C307.779 2.37978 307.121 2.00671 306.406 1.78552C305.692 1.56433 304.938 1.50024 304.196 1.59766C304.103 1.59766 303.195 1.79182 303.101 1.79182L208.956 9.99325C204.622 10.366 202.494 13.193 202.999 17.5112L209.049 72.2262C209.135 73.7657 209.66 75.2482 210.563 76.4978C209.053 75.2433 208.078 73.4601 207.837 71.5117L201.508 17.1928C201.39 16.1687 201.478 15.1313 201.769 14.1421C202.059 13.1529 202.544 12.232 203.197 11.4339C203.849 10.6358 204.655 9.97676 205.567 9.49585C206.479 9.01493 207.478 8.72189 208.505 8.63411Z" fill="#FFDE66"/>
<path d="M272.672 61.7637C276.115 59.234 278.836 55.8468 280.563 51.9391C283.444 45.1977 282.365 37.7341 278.466 31.6685C274.753 25.8902 265.985 24.2592 259.927 27.0086C254.491 29.4705 252.285 37.237 254.18 42.5959C250.095 40.4524 244.619 41.9591 241.8 45.6093C238.981 49.2596 238.802 54.5874 240.899 58.6959C242.012 60.7248 243.541 62.4949 245.387 63.8898C247.233 65.2847 249.354 66.2726 251.609 66.7886C256.146 67.7888 260.877 67.4378 265.216 65.779C267.888 64.821 270.402 63.4674 272.672 61.7637Z" fill="url(#paint9_linear_863_3555)"/>
<path d="M251.997 39.8544C250.638 34.8294 248.72 29.7579 244.914 26.1076C241.109 22.4574 234.966 20.7798 230.298 23.304C228.745 26.5348 229.894 30.8685 232.177 33.6489C234.461 36.4293 237.956 38.0525 241.497 38.8136C244.946 39.5576 248.469 39.9067 251.997 39.8544Z" fill="url(#paint10_linear_863_3555)"/>
<path d="M241.73 20.2628C241.684 20.356 241.645 20.4414 241.606 20.5346C240.783 17.2183 242.01 13.8477 244.231 11.2148C247.772 12.6516 250.102 16.1233 251.073 19.758C252.044 23.3927 251.85 27.2061 251.656 30.9573C249.243 26.655 245.841 22.9891 241.73 20.2628Z" fill="url(#paint11_linear_863_3555)"/>
<path d="M220.683 38.1151C223.199 35.6065 227.672 34.5735 231.237 35.0706C232.226 36.8286 233.711 38.2557 235.507 39.1731C237.303 40.0905 239.33 40.4573 241.334 40.2275C238.056 41.912 234.361 42.609 230.695 42.234C227.029 41.8591 223.551 40.4282 220.683 38.1151Z" fill="url(#paint12_linear_863_3555)"/>
<path d="M252.813 115.299C252.813 106.298 252.13 96.9854 253.131 88.0384C253.131 87.9064 253.714 88.085 253.729 88.2248C254.7 97.0087 254.164 106.088 254.203 114.903L254.25 128.385C254.25 132.968 254.599 137.705 254.04 142.218C254.04 142.427 253.155 142.148 253.131 141.938C252.627 137.729 252.852 133.449 252.844 129.216C252.839 124.582 252.829 119.943 252.813 115.299Z" fill="#E3FADE"/>
<path d="M268.137 194.864L304.973 195.128V194.919C301.96 188.092 303.241 179.766 307.567 173.7C307.917 173.234 308.258 172.761 308.655 172.31C309.143 171.719 309.661 171.154 310.208 170.617C310.604 170.237 310.985 169.84 311.412 169.499L311.652 169.305C311.955 169.033 312.297 168.761 312.623 168.528C312.859 168.333 313.105 168.152 313.361 167.984C313.78 167.666 314.192 167.394 314.627 167.107C315.062 166.819 315.675 166.454 316.219 166.167C316.763 165.88 317.283 165.584 317.827 165.336C318.37 165.087 319.085 164.753 319.722 164.505C319.594 163.905 319.431 163.314 319.233 162.734C317.928 158.711 315.473 155.158 312.173 152.513C310.01 150.773 307.523 149.48 304.857 148.708C301.347 147.761 297.655 147.718 294.124 148.583C290.593 149.449 287.339 151.193 284.664 153.655L283.887 154.432C281.279 157.223 279.459 160.657 278.616 164.383C277.772 168.109 277.935 171.992 279.088 175.634C277.685 176.09 276.355 176.741 275.134 177.568C272.433 179.477 270.337 182.123 269.097 185.189C267.856 188.255 267.523 191.614 268.137 194.864Z" fill="url(#paint13_linear_863_3555)"/>
<path d="M304.981 194.921V195.13L354.919 195.48C358.616 189.065 357.933 181.05 354.213 174.697C353.369 173.264 352.372 171.928 351.238 170.712C350.084 169.461 348.794 168.341 347.394 167.373C345.315 165.919 343.04 164.768 340.637 163.955C340.419 163.886 340.225 163.816 340.023 163.761C337.793 163.044 335.486 162.596 333.15 162.425C332.412 162.371 331.651 162.348 330.898 162.348C329.379 162.343 327.862 162.46 326.362 162.697C324.088 163.042 321.861 163.641 319.721 164.484C319.085 164.732 318.456 165.004 317.826 165.315C317.276 165.562 316.739 165.84 316.219 166.146C315.675 166.433 315.132 166.759 314.627 167.085C314.122 167.412 313.78 167.645 313.361 167.963C313.105 168.13 312.859 168.312 312.623 168.507C312.281 168.763 311.955 169.035 311.652 169.283L311.411 169.477C311 169.842 310.635 170.254 310.207 170.596C309.661 171.133 309.142 171.698 308.654 172.289C308.274 172.739 307.916 173.213 307.567 173.679C303.249 179.768 301.967 188.094 304.981 194.921Z" fill="url(#paint14_linear_863_3555)"/>
<path d="M347.409 167.352C348.806 168.328 350.09 169.456 351.238 170.715C351.813 171.338 352.349 171.994 352.846 172.68C353.094 173.006 353.335 173.332 353.553 173.674C353.77 174.016 353.98 174.327 354.182 174.668C354.182 174.668 354.182 174.707 354.182 174.723C354.438 175.119 354.655 175.499 354.873 175.95C354.871 175.981 354.871 176.012 354.873 176.043C355.09 176.493 355.308 176.928 355.486 177.379C355.492 177.402 355.492 177.426 355.486 177.449C355.681 177.899 355.844 178.35 356.007 178.8C356.142 179.156 356.256 179.519 356.349 179.887C356.403 180.066 356.457 180.268 356.512 180.447C356.62 180.858 356.729 181.223 356.807 181.674C356.884 182.124 356.985 182.544 357.04 182.955C357.04 183.211 357.11 183.46 357.125 183.732C357.141 184.004 357.203 184.345 357.218 184.633C357.257 185.122 357.273 185.604 357.273 186.093C357.298 189.397 356.452 192.649 354.819 195.521L421.548 196.003C423.244 192.996 423.703 189.448 422.83 186.108C422.004 182.767 420.092 179.795 417.393 177.658C415.267 175.881 412.832 174.509 410.209 173.612C409.39 173.337 408.551 173.122 407.701 172.967L407.74 172.789C409.906 168.573 410.375 163.687 409.052 159.135C408.463 156.876 407.494 154.733 406.186 152.798C402.264 146.965 395.818 143.16 389.053 141.319C383.578 139.836 377.458 139.618 372.472 142.344C371.465 142.903 370.523 143.57 369.66 144.332C366.43 147.341 364.209 151.274 363.3 155.594C362.645 158.605 362.384 161.688 362.523 164.766H362.453C361.528 163.475 360.262 162.467 358.796 161.856C357.33 161.245 355.722 161.054 354.154 161.306C352.586 161.558 351.119 162.242 349.918 163.281C348.717 164.32 347.829 165.673 347.355 167.189C347.366 167.246 347.385 167.3 347.409 167.352Z" fill="url(#paint15_linear_863_3555)"/>
<path d="M422.931 186.05C423.804 189.389 423.344 192.938 421.649 195.944L455.34 196.185C459.061 191.675 460.87 185.888 460.381 180.062C460.142 177.027 459.26 174.078 457.794 171.41C455.556 167.583 452.231 164.506 448.243 162.571C444.254 160.635 439.78 159.927 435.388 160.537C431.957 161.094 428.719 162.498 425.967 164.622C421.658 167.773 418.645 172.387 417.494 177.6C420.192 179.736 422.105 182.709 422.931 186.05Z" fill="url(#paint16_linear_863_3555)"/>
<path d="M425.135 177.422C426.518 180.482 428.536 183.214 431.054 185.437C434.026 188.343 437.666 190.477 441.655 191.65C445.667 192.795 449.969 192.324 453.639 190.337C457.235 188.24 459.331 184.357 460.38 180.101C460.141 177.066 459.259 174.117 457.794 171.449C455.555 167.622 452.231 164.546 448.242 162.61C444.253 160.674 439.779 159.966 435.387 160.576C431.956 161.133 428.718 162.537 425.967 164.661C425.331 165.585 424.832 166.594 424.483 167.659C423.529 170.887 423.76 174.349 425.135 177.422Z" fill="url(#paint17_linear_863_3555)"/>
<path d="M419.506 188.904C418.67 189.221 417.795 189.422 416.904 189.502C412.522 190.172 408.059 190.101 403.701 189.293C400.167 188.555 393.154 186.186 391.531 182.489C390.203 179.468 393.333 175.872 395.748 174.568C401.286 171.57 410.023 172.533 415.242 175.833C418.349 177.791 425.649 185.697 419.84 188.741C419.732 188.803 419.621 188.858 419.506 188.904Z" fill="url(#paint18_linear_863_3555)"/>
<path d="M364.022 162.486C365.319 165.36 368.278 167.092 371.221 168.249C376.081 170.127 381.286 170.949 386.488 170.66C391.691 170.371 396.772 168.977 401.394 166.571C404.625 164.855 407.763 162.432 409.161 159.077C408.571 156.817 407.602 154.674 406.295 152.739C402.372 146.907 395.926 143.101 389.162 141.26C383.686 139.777 377.566 139.56 372.58 142.286C371.574 142.844 370.631 143.511 369.769 144.274C367.26 147.135 365.355 150.474 364.169 154.091C363.276 156.817 362.841 159.838 364.022 162.486Z" fill="url(#paint19_linear_863_3555)"/>
<path d="M371.656 178.94C371.116 180.14 370.236 181.156 369.125 181.861C368.014 182.566 366.72 182.931 365.404 182.909C364.089 182.857 362.802 182.514 361.636 181.906C360.469 181.298 359.451 180.439 358.655 179.391C357.77 178.264 357.102 176.766 357.607 175.43C357.882 174.886 358.266 174.404 358.735 174.014C359.204 173.624 359.748 173.334 360.333 173.162C364.612 171.492 374.709 171.259 371.656 178.94Z" fill="url(#paint20_linear_863_3555)"/>
<path d="M309.299 175.725C309.105 180.712 313.866 183.368 318.13 184.789C325.765 187.361 333.895 188.111 341.872 186.979C346.042 186.381 352.232 184.486 354.298 180.409C354.726 179.516 354.944 178.538 354.935 177.548C354.925 176.559 354.689 175.584 354.244 174.7C353.001 171.702 350.112 168.922 347.51 167.136C346.87 166.676 346.201 166.258 345.507 165.885C343.964 165.085 342.349 164.433 340.684 163.936C340.466 163.866 340.272 163.796 340.07 163.742C337.817 163.12 335.519 162.673 333.197 162.406C332.459 162.352 331.698 162.328 330.945 162.328C329.426 162.323 327.909 162.44 326.409 162.678C324.135 163.022 321.908 163.621 319.768 164.464C319.132 164.713 318.503 164.984 317.873 165.295C317.323 165.543 316.786 165.82 316.266 166.126C315.722 166.413 315.178 166.74 314.674 167.066C314.169 167.392 313.827 167.625 313.408 167.943C313.152 168.111 312.906 168.292 312.67 168.487C312.328 168.743 312.002 169.015 311.699 169.264L311.458 169.458C311.047 169.823 310.682 170.235 310.254 170.576C309.701 172.241 309.379 173.973 309.299 175.725Z" fill="url(#paint21_linear_863_3555)"/>
<path d="M287.443 164.912C290.55 167.747 294.977 168.796 299.093 168.182C303.229 167.452 307.073 165.567 310.184 162.746C313.717 159.693 313.842 156.369 312.149 152.486C309.986 150.746 307.499 149.452 304.833 148.68C301.323 147.734 297.63 147.691 294.1 148.556C290.569 149.421 287.315 151.166 284.64 153.628C283.874 155.567 283.733 157.696 284.235 159.719C284.738 161.742 285.859 163.558 287.443 164.912Z" fill="url(#paint22_linear_863_3555)"/>
<path d="M296.181 180.389C297.222 182.261 297.307 184.793 295.909 186.408C294.799 187.705 293.028 188.187 291.35 188.474C286.978 189.238 282.502 189.191 278.147 188.334C276.724 188.118 275.357 187.625 274.124 186.882C273.512 186.506 272.995 185.993 272.614 185.384C272.233 184.775 271.997 184.086 271.926 183.371C271.979 181.957 272.548 180.612 273.526 179.589C278.901 173.127 291.692 172.265 296.181 180.389Z" fill="url(#paint23_linear_863_3555)"/>
<path d="M329.826 156.156L335.154 155.294L334.051 144.258L322.386 146.052L325.112 156.933L329.826 156.156Z" fill="url(#paint24_linear_863_3555)"/>
<path d="M287.848 143.624L292.702 141.263L288.477 131.004L277.829 136.044L283.553 145.721L287.848 143.624Z" fill="url(#paint25_linear_863_3555)"/>
<path d="M390.303 135.116L395.6 136.164L398.435 125.439L386.878 123.039L385.612 134.2L390.303 135.116Z" fill="url(#paint26_linear_863_3555)"/>
<path d="M54.1461 196.847L74.5098 196.614V195.752C74.3219 194.167 74.5126 192.56 75.0661 191.063C75.6196 189.565 76.5203 188.221 77.6941 187.139C76.6187 182.772 74.7523 178.64 72.1876 174.946C71.189 173.35 69.8884 171.965 68.3588 170.868C67.5913 170.352 66.7276 169.995 65.8191 169.82C65.1309 169.695 64.4259 169.695 63.7377 169.82C62.4929 170.008 61.3109 170.49 60.2894 171.226C58.7315 172.404 57.4289 173.886 56.4605 175.583C54.7331 178.448 53.605 181.635 53.1442 184.949C52.5163 188.938 52.8599 193.019 54.1461 196.847Z" fill="url(#paint27_linear_863_3555)"/>
<path d="M74.4864 195.755V196.617L119.478 196.127V192.516C117.501 190.955 116.012 188.862 115.187 186.483C114.361 184.103 114.233 181.537 114.818 179.088C116.208 173.651 120.254 170.545 124.961 169.372C124.282 164.21 122.421 159.275 119.524 154.95C117.53 151.975 115.058 149.351 112.208 147.183C111.163 146.285 109.835 145.784 108.457 145.77C104.574 146.01 102.244 150.305 101.7 154.056C101.562 154.898 101.526 155.753 101.591 156.604L101.506 156.767C100.512 156.247 99.5023 155.742 98.4538 155.291C97.7859 154.981 97.0946 154.693 96.4112 154.421C92.8541 153.031 88.6447 152.146 85.3983 154.134C82.5246 155.905 81.282 159.462 80.9403 162.817C80.6746 165.5 80.8558 168.208 81.4762 170.832C82.5957 175.596 85.104 179.921 88.6835 183.258C85.6117 183.162 82.5736 183.92 79.9074 185.449C79.1052 185.926 78.3667 186.502 77.7095 187.165C76.5321 188.24 75.6262 189.58 75.0659 191.073C74.5057 192.566 74.3071 194.17 74.4864 195.755Z" fill="url(#paint28_linear_863_3555)"/>
<path d="M114.623 184.335C115.157 187.564 116.884 190.474 119.462 192.49V196.102L240.472 194.789C241.24 190.674 241.016 186.436 239.819 182.425C238.65 178.067 235.933 174.285 232.177 171.785C230.865 170.971 229.427 170.381 227.921 170.037C230.129 166.558 231.413 162.572 231.649 158.458C231.886 154.344 231.067 150.238 229.272 146.528C227.812 143.546 225.482 140.765 222.283 139.826C222.184 139.79 222.083 139.761 221.98 139.74C217.359 138.583 212.73 141.721 209.631 145.332C207.552 147.744 205.814 150.431 204.466 153.316C202.829 156.771 201.779 160.475 201.36 164.275C201.018 164.15 200.653 164.018 200.296 163.91C198.347 163.387 196.309 163.279 194.316 163.594C192.322 163.908 190.417 164.637 188.724 165.735C187.233 160.825 184.589 156.343 181.011 152.664C178.834 150.405 176.331 148.484 173.587 146.963C170.542 145.262 166.892 144.051 163.552 145.138C159.506 146.435 157.122 150.839 156.834 155.102C156.795 155.788 156.795 156.475 156.834 157.16C157.013 160.663 158.186 164.096 159.343 167.412C159.236 167.382 159.127 167.358 159.017 167.342C155.83 166.91 152.593 167.608 149.868 169.315C147.983 170.454 146.374 171.995 145.154 173.827C144.686 174.558 144.275 175.324 143.926 176.119C142.853 174.535 141.478 173.179 139.88 172.127C136.699 169.997 132.952 168.871 129.123 168.896C127.705 168.89 126.291 169.06 124.914 169.401C120.184 170.542 116.161 173.68 114.771 179.116C114.358 180.827 114.308 182.605 114.623 184.335Z" fill="url(#paint29_linear_863_3555)"/>
<path d="M129.163 168.66V168.862C134.863 168.862 140.766 171.394 143.966 176.085C144.314 175.291 144.725 174.524 145.193 173.794C146.413 171.961 148.022 170.42 149.907 169.282C150.438 165.142 150.151 160.938 149.06 156.909C148.449 154.631 147.587 152.427 146.49 150.339C145.208 147.9 143.298 145.446 140.587 145.011C138.257 144.669 136.129 145.873 134.506 147.629C133.939 148.218 133.437 148.866 133.007 149.562C131.417 152.213 130.362 155.15 129.9 158.207C129.403 161.669 129.157 165.162 129.163 168.66Z" fill="url(#paint30_linear_863_3555)"/>
<path d="M205.445 158.877C207.193 162.224 211.402 163.793 215.122 163.156C218.843 162.519 222.035 160.05 224.31 157.005C226.733 153.926 228.429 150.339 229.273 146.513C227.813 143.53 225.483 140.75 222.283 139.81C222.184 139.774 222.083 139.746 221.98 139.725C217.359 138.567 212.73 141.705 209.632 145.317C207.553 147.729 205.815 150.415 204.467 153.3C204.255 155.215 204.594 157.149 205.445 158.877Z" fill="url(#paint31_linear_863_3555)"/>
<path d="M235.781 178.058C236.169 180.605 236.558 183.378 235.261 185.623C234.096 187.704 231.804 188.869 229.552 189.638C226.663 190.624 223.463 191.191 220.582 190.15C214.765 188.139 213.141 179.277 215.976 174.315C217.281 172.031 219.86 170.703 222.485 170.369C227.921 169.678 234.849 171.961 235.781 178.058Z" fill="url(#paint32_linear_863_3555)"/>
<path d="M204.676 181.335C203.099 183.668 200.975 185.58 198.49 186.905C196.004 188.23 193.233 188.928 190.417 188.938C187.217 188.938 183.722 187.921 182.037 185.203C180.134 182.096 180.724 176.698 182.215 173.553C183.928 169.943 186.817 167.023 190.409 165.274C194.51 163.293 201.508 162.167 205.049 165.825C208.591 169.483 207.13 177.529 204.676 181.335Z" fill="url(#paint33_linear_863_3555)"/>
<path d="M156.873 155.069C156.835 155.755 156.835 156.442 156.873 157.128C158.37 160.65 160.985 163.581 164.314 165.469C168.391 167.651 173.734 167.706 177.517 165.034C182.425 161.57 182.953 156.895 181.035 152.607C178.857 150.349 176.355 148.427 173.61 146.907C170.566 145.206 166.915 143.994 163.576 145.082C159.545 146.402 157.161 150.806 156.873 155.069Z" fill="url(#paint34_linear_863_3555)"/>
<path d="M164.018 182.782C162.711 184.449 161.053 185.809 159.162 186.763C157.271 187.717 155.192 188.243 153.075 188.304C150.015 188.366 146.761 187.279 144.99 184.778C143.312 182.448 143.266 179.186 144.213 176.437C145.005 174.19 146.368 172.189 148.168 170.63C149.969 169.07 152.144 168.007 154.481 167.544C158.108 166.869 164.026 167.855 166.294 171.187C168.561 174.519 166.084 180.103 164.018 182.782Z" fill="url(#paint35_linear_863_3555)"/>
<path d="M129.893 158.191C130.122 159.086 130.437 159.958 130.833 160.793C132.712 164.73 137.046 167.783 141.341 166.874C145.636 165.965 148.672 161.041 149.053 156.909C148.442 154.631 147.58 152.427 146.482 150.339C145.201 147.9 143.29 145.446 140.58 145.011C138.25 144.669 136.122 145.873 134.499 147.629C133.932 148.218 133.429 148.866 133 149.562C131.412 152.209 130.356 155.14 129.893 158.191Z" fill="url(#paint36_linear_863_3555)"/>
<path d="M114.624 184.338C115.279 185.369 116.189 186.214 117.264 186.793C119.843 188.214 122.988 187.895 125.807 187.134C129.312 186.316 132.564 184.655 135.283 182.296C138.046 179.836 139.721 176.381 139.942 172.689C139.962 172.484 139.962 172.279 139.942 172.075C136.761 169.945 133.014 168.82 129.186 168.844C127.767 168.839 126.354 169.008 124.976 169.349C120.247 170.491 116.224 173.628 114.833 179.065C114.392 180.788 114.321 182.585 114.624 184.338Z" fill="url(#paint37_linear_863_3555)"/>
<path d="M101.662 154.041C102.773 155.198 104.114 156.111 105.599 156.72C108.939 158.11 112.674 158.142 116.301 158.157C119.214 158.157 119.827 156.736 119.486 154.95C117.492 151.975 115.02 149.351 112.17 147.183C111.125 146.285 109.796 145.784 108.418 145.77C104.496 145.995 102.205 150.29 101.662 154.041Z" fill="url(#paint38_linear_863_3555)"/>
<path d="M81.4374 170.815C82.8385 173.075 84.689 175.023 86.874 176.539C90.3223 178.923 94.6017 180.329 98.749 179.645C102.896 178.962 106.748 175.964 107.743 171.879C108.265 169.356 107.975 166.732 106.912 164.384C105.223 160.432 102.199 157.2 98.3684 155.251C97.7005 154.94 97.0093 154.653 96.3258 154.381C92.7688 152.991 88.5593 152.105 85.3129 154.094C82.4393 155.864 81.1967 159.421 80.8549 162.777C80.6019 165.47 80.7988 168.186 81.4374 170.815Z" fill="url(#paint39_linear_863_3555)"/>
<path d="M102.119 190.419C101.825 191.199 101.356 191.9 100.749 192.471C100.142 193.042 99.4127 193.466 98.6168 193.712C97.0221 194.192 95.354 194.379 93.6928 194.264C89.5345 194.1 85.3871 193.727 81.2664 193.145C79.3714 192.912 77.0802 192.369 76.5677 190.52C76.1638 189.052 77.1812 187.569 78.3462 186.59C81.3441 184.051 85.5069 183.235 89.429 183.554C92.7686 183.818 103.82 185.014 102.119 190.419Z" fill="url(#paint40_linear_863_3555)"/>
<path d="M53.0977 184.933C53.9809 186.151 55.0595 187.214 56.2897 188.079C60.1729 190.782 65.827 190.984 69.617 188.133C76.0632 183.233 73.1197 175.777 68.3355 170.868C67.5681 170.352 66.7043 169.995 65.7959 169.82C65.1076 169.695 64.4027 169.695 63.7145 169.82C62.4698 170.008 61.2877 170.49 60.2661 171.226C58.7082 172.404 57.4057 173.886 56.4373 175.583C54.7037 178.442 53.5676 181.623 53.0977 184.933Z" fill="url(#paint41_linear_863_3555)"/>
<path d="M62.8989 163.669L68.2423 163.016L67.6287 151.949L55.8936 153.231L58.1536 164.244L62.8989 163.669Z" fill="url(#paint42_linear_863_3555)"/>
<path d="M131.741 142.07L136.603 139.709L132.394 129.449L121.723 134.49L127.462 144.167L131.741 142.07Z" fill="url(#paint43_linear_863_3555)"/>
<path d="M223.696 133.838L228.372 134.887L231.711 124.161L220.178 121.707L218.446 132.666L223.696 133.838Z" fill="url(#paint44_linear_863_3555)"/>
<defs>
<linearGradient id="paint0_linear_863_3555" x1="241.388" y1="114.136" x2="273.448" y2="113.25" gradientUnits="userSpaceOnUse">
<stop stop-color="#B5E3DB"/>
<stop offset="0.59" stop-color="#85ADB7"/>
<stop offset="1" stop-color="#62859C"/>
</linearGradient>
<linearGradient id="paint1_linear_863_3555" x1="252.533" y1="183.405" x2="255.904" y2="85.1118" gradientUnits="userSpaceOnUse">
<stop stop-color="#B5E3DB"/>
<stop offset="0.59" stop-color="#85ADB7"/>
<stop offset="1" stop-color="#62859C"/>
</linearGradient>
<linearGradient id="paint2_linear_863_3555" x1="269.457" y1="182.665" x2="270.614" y2="250.808" gradientUnits="userSpaceOnUse">
<stop stop-color="#B5E3DB"/>
<stop offset="0.59" stop-color="#85ADB7"/>
<stop offset="1" stop-color="#62859C"/>
</linearGradient>
<linearGradient id="paint3_linear_863_3555" x1="268.602" y1="172.453" x2="270.622" y2="208.272" gradientUnits="userSpaceOnUse">
<stop stop-color="#B5E3DB"/>
<stop offset="0.59" stop-color="#85ADB7"/>
<stop offset="1" stop-color="#62859C"/>
</linearGradient>
<linearGradient id="paint4_linear_863_3555" x1="152.765" y1="268.602" x2="151.336" y2="375.026" gradientUnits="userSpaceOnUse">
<stop stop-color="#B8A60B"/>
<stop offset="0.21" stop-color="#B4A40B"/>
<stop offset="0.43" stop-color="#A79F0B"/>
<stop offset="0.66" stop-color="#92960C"/>
<stop offset="0.88" stop-color="#758A0D"/>
<stop offset="1" stop-color="#63820D"/>
</linearGradient>
<linearGradient id="paint5_linear_863_3555" x1="126.118" y1="179.731" x2="162.45" y2="365.125" gradientUnits="userSpaceOnUse">
<stop stop-color="#B8A60B"/>
<stop offset="0.21" stop-color="#B4A40B"/>
<stop offset="0.43" stop-color="#A79F0B"/>
<stop offset="0.66" stop-color="#92960C"/>
<stop offset="0.88" stop-color="#758A0D"/>
<stop offset="1" stop-color="#63820D"/>
</linearGradient>
<linearGradient id="paint6_linear_863_3555" x1="265.899" y1="184.525" x2="270.365" y2="260.94" gradientUnits="userSpaceOnUse">
<stop stop-color="#B8A60B"/>
<stop offset="0.21" stop-color="#B4A40B"/>
<stop offset="0.43" stop-color="#A79F0B"/>
<stop offset="0.66" stop-color="#92960C"/>
<stop offset="0.88" stop-color="#758A0D"/>
<stop offset="1" stop-color="#63820D"/>
</linearGradient>
<linearGradient id="paint7_linear_863_3555" x1="356.263" y1="39.7935" x2="330.012" y2="39.4906" gradientUnits="userSpaceOnUse">
<stop stop-color="#9A6F93"/>
<stop offset="1" stop-color="#5A4C8B"/>
</linearGradient>
<linearGradient id="paint8_linear_863_3555" x1="246.972" y1="6.16812" x2="306.642" y2="171.812" gradientUnits="userSpaceOnUse">
<stop stop-color="#BD0E59"/>
<stop offset="0.26" stop-color="#DA1147"/>
<stop offset="0.51" stop-color="#EE133B"/>
<stop offset="0.76" stop-color="#FB1534"/>
<stop offset="1" stop-color="#FF1531"/>
</linearGradient>
<linearGradient id="paint9_linear_863_3555" x1="239.494" y1="46.5258" x2="282.202" y2="46.5258" gradientUnits="userSpaceOnUse">
<stop stop-color="#FFF1C9"/>
<stop offset="0.22" stop-color="#FFEEC5"/>
<stop offset="0.42" stop-color="#FFE6BA"/>
<stop offset="0.61" stop-color="#FFD7A8"/>
<stop offset="0.8" stop-color="#FFC38D"/>
<stop offset="0.99" stop-color="#FFA96C"/>
<stop offset="1" stop-color="#FFA769"/>
</linearGradient>
<linearGradient id="paint10_linear_863_3555" x1="229.568" y1="30.985" x2="251.997" y2="30.985" gradientUnits="userSpaceOnUse">
<stop stop-color="#FFF1C9"/>
<stop offset="0.22" stop-color="#FFEEC5"/>
<stop offset="0.42" stop-color="#FFE6BA"/>
<stop offset="0.61" stop-color="#FFD7A8"/>
<stop offset="0.8" stop-color="#FFC38D"/>
<stop offset="0.99" stop-color="#FFA96C"/>
<stop offset="1" stop-color="#FFA769"/>
</linearGradient>
<linearGradient id="paint11_linear_863_3555" x1="241.311" y1="21.0628" x2="251.78" y2="21.0628" gradientUnits="userSpaceOnUse">
<stop stop-color="#FFF1C9"/>
<stop offset="0.22" stop-color="#FFEEC5"/>
<stop offset="0.42" stop-color="#FFE6BA"/>
<stop offset="0.61" stop-color="#FFD7A8"/>
<stop offset="0.8" stop-color="#FFC38D"/>
<stop offset="0.99" stop-color="#FFA96C"/>
<stop offset="1" stop-color="#FFA769"/>
</linearGradient>
<linearGradient id="paint12_linear_863_3555" x1="220.683" y1="38.6354" x2="241.303" y2="38.6354" gradientUnits="userSpaceOnUse">
<stop stop-color="#FFF1C9"/>
<stop offset="0.22" stop-color="#FFEEC5"/>
<stop offset="0.42" stop-color="#FFE6BA"/>
<stop offset="0.61" stop-color="#FFD7A8"/>
<stop offset="0.8" stop-color="#FFC38D"/>
<stop offset="0.99" stop-color="#FFA96C"/>
<stop offset="1" stop-color="#FFA769"/>
</linearGradient>
<linearGradient id="paint13_linear_863_3555" x1="302.806" y1="46.1745" x2="291.195" y2="215.026" gradientUnits="userSpaceOnUse">
<stop offset="0.01" stop-color="#F75B34"/>
<stop offset="0.99" stop-color="#AB0568"/>
</linearGradient>
<linearGradient id="paint14_linear_863_3555" x1="339.821" y1="48.685" x2="328.21" y2="217.583" gradientUnits="userSpaceOnUse">
<stop offset="0.01" stop-color="#F75B34"/>
<stop offset="0.99" stop-color="#AB0568"/>
</linearGradient>
<linearGradient id="paint15_linear_863_3555" x1="394.055" y1="52.4391" x2="382.444" y2="221.306" gradientUnits="userSpaceOnUse">
<stop offset="0.01" stop-color="#F75B34"/>
<stop offset="0.99" stop-color="#AB0568"/>
</linearGradient>
<linearGradient id="paint16_linear_863_3555" x1="447.496" y1="56.1087" x2="435.885" y2="224.976" gradientUnits="userSpaceOnUse">
<stop offset="0.01" stop-color="#F75B34"/>
<stop offset="0.99" stop-color="#AB0568"/>
</linearGradient>
<linearGradient id="paint17_linear_863_3555" x1="443.721" y1="126.582" x2="440.614" y2="222.265" gradientUnits="userSpaceOnUse">
<stop stop-color="#FFAE78"/>
<stop offset="0.23" stop-color="#FDAA79"/>
<stop offset="0.44" stop-color="#F69F7B"/>
<stop offset="0.64" stop-color="#EA8D7F"/>
<stop offset="0.84" stop-color="#DA7385"/>
<stop offset="1" stop-color="#C9588B"/>
</linearGradient>
<linearGradient id="paint18_linear_863_3555" x1="408.493" y1="125.444" x2="405.394" y2="221.128" gradientUnits="userSpaceOnUse">
<stop stop-color="#FFAE78"/>
<stop offset="0.23" stop-color="#FDAA79"/>
<stop offset="0.44" stop-color="#F69F7B"/>
<stop offset="0.64" stop-color="#EA8D7F"/>
<stop offset="0.84" stop-color="#DA7385"/>
<stop offset="1" stop-color="#C9588B"/>
</linearGradient>
<linearGradient id="paint19_linear_863_3555" x1="387.337" y1="124.749" x2="384.23" y2="220.44" gradientUnits="userSpaceOnUse">
<stop stop-color="#FFAE78"/>
<stop offset="0.23" stop-color="#FDAA79"/>
<stop offset="0.44" stop-color="#F69F7B"/>
<stop offset="0.64" stop-color="#EA8D7F"/>
<stop offset="0.84" stop-color="#DA7385"/>
<stop offset="1" stop-color="#C9588B"/>
</linearGradient>
<linearGradient id="paint20_linear_863_3555" x1="366.523" y1="124.078" x2="363.424" y2="219.769" gradientUnits="userSpaceOnUse">
<stop stop-color="#FFAE78"/>
<stop offset="0.23" stop-color="#FDAA79"/>
<stop offset="0.44" stop-color="#F69F7B"/>
<stop offset="0.64" stop-color="#EA8D7F"/>
<stop offset="0.84" stop-color="#DA7385"/>
<stop offset="1" stop-color="#C9588B"/>
</linearGradient>
<linearGradient id="paint21_linear_863_3555" x1="333.841" y1="123.022" x2="330.743" y2="218.705" gradientUnits="userSpaceOnUse">
<stop stop-color="#FFAE78"/>
<stop offset="0.23" stop-color="#FDAA79"/>
<stop offset="0.44" stop-color="#F69F7B"/>
<stop offset="0.64" stop-color="#EA8D7F"/>
<stop offset="0.84" stop-color="#DA7385"/>
<stop offset="1" stop-color="#C9588B"/>
</linearGradient>
<linearGradient id="paint22_linear_863_3555" x1="299.722" y1="121.917" x2="296.623" y2="217.6" gradientUnits="userSpaceOnUse">
<stop stop-color="#FFAE78"/>
<stop offset="0.23" stop-color="#FDAA79"/>
<stop offset="0.44" stop-color="#F69F7B"/>
<stop offset="0.64" stop-color="#EA8D7F"/>
<stop offset="0.84" stop-color="#DA7385"/>
<stop offset="1" stop-color="#C9588B"/>
</linearGradient>
<linearGradient id="paint23_linear_863_3555" x1="286.442" y1="121.48" x2="283.335" y2="217.163" gradientUnits="userSpaceOnUse">
<stop stop-color="#FFAE78"/>
<stop offset="0.23" stop-color="#FDAA79"/>
<stop offset="0.44" stop-color="#F69F7B"/>
<stop offset="0.64" stop-color="#EA8D7F"/>
<stop offset="0.84" stop-color="#DA7385"/>
<stop offset="1" stop-color="#C9588B"/>
</linearGradient>
<linearGradient id="paint24_linear_863_3555" x1="327.488" y1="107.25" x2="329.857" y2="187.711" gradientUnits="userSpaceOnUse">
<stop stop-color="#FFF1C9"/>
<stop offset="0.22" stop-color="#FFEEC5"/>
<stop offset="0.42" stop-color="#FFE6BA"/>
<stop offset="0.61" stop-color="#FFD7A8"/>
<stop offset="0.8" stop-color="#FFC38D"/>
<stop offset="0.99" stop-color="#FFA96C"/>
<stop offset="1" stop-color="#FFA769"/>
</linearGradient>
<linearGradient id="paint25_linear_863_3555" x1="284.376" y1="108.512" x2="286.745" y2="188.973" gradientUnits="userSpaceOnUse">
<stop stop-color="#FFF1C9"/>
<stop offset="0.22" stop-color="#FFEEC5"/>
<stop offset="0.42" stop-color="#FFE6BA"/>
<stop offset="0.61" stop-color="#FFD7A8"/>
<stop offset="0.8" stop-color="#FFC38D"/>
<stop offset="0.99" stop-color="#FFA96C"/>
<stop offset="1" stop-color="#FFA769"/>
</linearGradient>
<linearGradient id="paint26_linear_863_3555" x1="391.297" y1="105.363" x2="393.666" y2="185.823" gradientUnits="userSpaceOnUse">
<stop stop-color="#FFF1C9"/>
<stop offset="0.22" stop-color="#FFEEC5"/>
<stop offset="0.42" stop-color="#FFE6BA"/>
<stop offset="0.61" stop-color="#FFD7A8"/>
<stop offset="0.8" stop-color="#FFC38D"/>
<stop offset="0.99" stop-color="#FFA96C"/>
<stop offset="1" stop-color="#FFA769"/>
</linearGradient>
<linearGradient id="paint27_linear_863_3555" x1="45.7894" y1="93.5682" x2="71.1626" y2="218.384" gradientUnits="userSpaceOnUse">
<stop stop-color="#DBD058"/>
<stop offset="0.23" stop-color="#D7CE59"/>
<stop offset="0.44" stop-color="#CCC95A"/>
<stop offset="0.64" stop-color="#BAC15D"/>
<stop offset="0.83" stop-color="#A0B561"/>
<stop offset="1" stop-color="#83A865"/>
</linearGradient>
<linearGradient id="paint28_linear_863_3555" x1="80.1715" y1="86.5811" x2="105.537" y2="211.396" gradientUnits="userSpaceOnUse">
<stop stop-color="#DBD058"/>
<stop offset="0.23" stop-color="#D7CE59"/>
<stop offset="0.44" stop-color="#CCC95A"/>
<stop offset="0.64" stop-color="#BAC15D"/>
<stop offset="0.83" stop-color="#A0B561"/>
<stop offset="1" stop-color="#83A865"/>
</linearGradient>
<linearGradient id="paint29_linear_863_3555" x1="154.52" y1="71.4649" x2="179.893" y2="196.28" gradientUnits="userSpaceOnUse">
<stop stop-color="#DBD058"/>
<stop offset="0.23" stop-color="#D7CE59"/>
<stop offset="0.44" stop-color="#CCC95A"/>
<stop offset="0.64" stop-color="#BAC15D"/>
<stop offset="0.83" stop-color="#A0B561"/>
<stop offset="1" stop-color="#83A865"/>
</linearGradient>
<linearGradient id="paint30_linear_863_3555" x1="121.901" y1="78.0873" x2="147.274" y2="202.91" gradientUnits="userSpaceOnUse">
<stop stop-color="#DBD058"/>
<stop offset="0.23" stop-color="#D7CE59"/>
<stop offset="0.44" stop-color="#CCC95A"/>
<stop offset="0.64" stop-color="#BAC15D"/>
<stop offset="0.83" stop-color="#A0B561"/>
<stop offset="1" stop-color="#83A865"/>
</linearGradient>
<linearGradient id="paint31_linear_863_3555" x1="211.224" y1="120.868" x2="230.71" y2="225.071" gradientUnits="userSpaceOnUse">
<stop stop-color="#DBD058"/>
<stop offset="0.23" stop-color="#D7CE59"/>
<stop offset="0.44" stop-color="#CCC95A"/>
<stop offset="0.64" stop-color="#BAC15D"/>
<stop offset="0.83" stop-color="#A0B561"/>
<stop offset="1" stop-color="#83A865"/>
</linearGradient>
<linearGradient id="paint32_linear_863_3555" x1="214.105" y1="120.33" x2="233.591" y2="224.533" gradientUnits="userSpaceOnUse">
<stop stop-color="#DBD058"/>
<stop offset="0.23" stop-color="#D7CE59"/>
<stop offset="0.44" stop-color="#CCC95A"/>
<stop offset="0.64" stop-color="#BAC15D"/>
<stop offset="0.83" stop-color="#A0B561"/>
<stop offset="1" stop-color="#83A865"/>
</linearGradient>
<linearGradient id="paint33_linear_863_3555" x1="184.608" y1="125.843" x2="204.094" y2="230.046" gradientUnits="userSpaceOnUse">
<stop stop-color="#DBD058"/>
<stop offset="0.23" stop-color="#D7CE59"/>
<stop offset="0.44" stop-color="#CCC95A"/>
<stop offset="0.64" stop-color="#BAC15D"/>
<stop offset="0.83" stop-color="#A0B561"/>
<stop offset="1" stop-color="#83A865"/>
</linearGradient>
<linearGradient id="paint34_linear_863_3555" x1="164.407" y1="129.619" x2="183.893" y2="233.822" gradientUnits="userSpaceOnUse">
<stop stop-color="#DBD058"/>
<stop offset="0.23" stop-color="#D7CE59"/>
<stop offset="0.44" stop-color="#CCC95A"/>
<stop offset="0.64" stop-color="#BAC15D"/>
<stop offset="0.83" stop-color="#A0B561"/>
<stop offset="1" stop-color="#83A865"/>
</linearGradient>
<linearGradient id="paint35_linear_863_3555" x1="147.056" y1="132.867" x2="166.534" y2="237.07" gradientUnits="userSpaceOnUse">
<stop stop-color="#DBD058"/>
<stop offset="0.23" stop-color="#D7CE59"/>
<stop offset="0.44" stop-color="#CCC95A"/>
<stop offset="0.64" stop-color="#BAC15D"/>
<stop offset="0.83" stop-color="#A0B561"/>
<stop offset="1" stop-color="#83A865"/>
</linearGradient>
<linearGradient id="paint36_linear_863_3555" x1="135.275" y1="135.07" x2="154.754" y2="239.273" gradientUnits="userSpaceOnUse">
<stop stop-color="#DBD058"/>
<stop offset="0.23" stop-color="#D7CE59"/>
<stop offset="0.44" stop-color="#CCC95A"/>
<stop offset="0.64" stop-color="#BAC15D"/>
<stop offset="0.83" stop-color="#A0B561"/>
<stop offset="1" stop-color="#83A865"/>
</linearGradient>
<linearGradient id="paint37_linear_863_3555" x1="119.742" y1="137.98" x2="139.22" y2="242.183" gradientUnits="userSpaceOnUse">
<stop stop-color="#DBD058"/>
<stop offset="0.23" stop-color="#D7CE59"/>
<stop offset="0.44" stop-color="#CCC95A"/>
<stop offset="0.64" stop-color="#BAC15D"/>
<stop offset="0.83" stop-color="#A0B561"/>
<stop offset="1" stop-color="#83A865"/>
</linearGradient>
<linearGradient id="paint38_linear_863_3555" x1="107.898" y1="140.193" x2="127.377" y2="244.396" gradientUnits="userSpaceOnUse">
<stop stop-color="#DBD058"/>
<stop offset="0.23" stop-color="#D7CE59"/>
<stop offset="0.44" stop-color="#CCC95A"/>
<stop offset="0.64" stop-color="#BAC15D"/>
<stop offset="0.83" stop-color="#A0B561"/>
<stop offset="1" stop-color="#83A865"/>
</linearGradient>
<linearGradient id="paint39_linear_863_3555" x1="89.8486" y1="143.562" x2="109.327" y2="247.765" gradientUnits="userSpaceOnUse">
<stop stop-color="#DBD058"/>
<stop offset="0.23" stop-color="#D7CE59"/>
<stop offset="0.44" stop-color="#CCC95A"/>
<stop offset="0.64" stop-color="#BAC15D"/>
<stop offset="0.83" stop-color="#A0B561"/>
<stop offset="1" stop-color="#83A865"/>
</linearGradient>
<linearGradient id="paint40_linear_863_3555" x1="81.0878" y1="145.203" x2="100.566" y2="249.406" gradientUnits="userSpaceOnUse">
<stop stop-color="#DBD058"/>
<stop offset="0.23" stop-color="#D7CE59"/>
<stop offset="0.44" stop-color="#CCC95A"/>
<stop offset="0.64" stop-color="#BAC15D"/>
<stop offset="0.83" stop-color="#A0B561"/>
<stop offset="1" stop-color="#83A865"/>
</linearGradient>
<linearGradient id="paint41_linear_863_3555" x1="57.0586" y1="149.689" x2="76.537" y2="253.892" gradientUnits="userSpaceOnUse">
<stop stop-color="#DBD058"/>
<stop offset="0.23" stop-color="#D7CE59"/>
<stop offset="0.44" stop-color="#CCC95A"/>
<stop offset="0.64" stop-color="#BAC15D"/>
<stop offset="0.83" stop-color="#A0B561"/>
<stop offset="1" stop-color="#83A865"/>
</linearGradient>
<linearGradient id="paint42_linear_863_3555" x1="55.2023" y1="125.225" x2="72.4207" y2="198.843" gradientUnits="userSpaceOnUse">
<stop stop-color="#FFF1C9"/>
<stop offset="0.22" stop-color="#FFEEC5"/>
<stop offset="0.42" stop-color="#FFE6BA"/>
<stop offset="0.61" stop-color="#FFD7A8"/>
<stop offset="0.8" stop-color="#FFC38D"/>
<stop offset="0.99" stop-color="#FFA96C"/>
<stop offset="1" stop-color="#FFA769"/>
</linearGradient>
<linearGradient id="paint43_linear_863_3555" x1="122.693" y1="109.443" x2="139.904" y2="183.061" gradientUnits="userSpaceOnUse">
<stop stop-color="#FFF1C9"/>
<stop offset="0.22" stop-color="#FFEEC5"/>
<stop offset="0.42" stop-color="#FFE6BA"/>
<stop offset="0.61" stop-color="#FFD7A8"/>
<stop offset="0.8" stop-color="#FFC38D"/>
<stop offset="0.99" stop-color="#FFA96C"/>
<stop offset="1" stop-color="#FFA769"/>
</linearGradient>
<linearGradient id="paint44_linear_863_3555" x1="215.557" y1="87.7286" x2="232.775" y2="161.347" gradientUnits="userSpaceOnUse">
<stop stop-color="#FFF1C9"/>
<stop offset="0.22" stop-color="#FFEEC5"/>
<stop offset="0.42" stop-color="#FFE6BA"/>
<stop offset="0.61" stop-color="#FFD7A8"/>
<stop offset="0.8" stop-color="#FFC38D"/>
<stop offset="0.99" stop-color="#FFA96C"/>
<stop offset="1" stop-color="#FFA769"/>
</linearGradient>
</defs>
</svg>
