<svg width="334" height="435" viewBox="0 0 334 435" fill="none" xmlns="http://www.w3.org/2000/svg">
<path d="M269.342 433.841C229.645 433.841 205.548 428.464 205.548 426.102V399.643C205.548 395.472 231.746 390.828 269.342 390.828C306.937 390.828 333.119 395.472 333.127 399.643V426.102C333.111 428.464 309.031 433.841 269.342 433.841Z" fill="#B0B4BD"/>
<path d="M269.342 391.505C286.498 391.505 302.612 392.491 314.725 394.275C331.686 396.767 332.452 399.619 332.452 399.643V425.931C330.301 428.522 305.17 433.165 269.342 433.165C233.515 433.165 208.375 428.522 206.224 425.931V399.643C206.224 399.643 206.99 396.767 223.951 394.275C236.064 392.491 252.186 391.505 269.342 391.505ZM269.342 390.145C233.735 390.145 204.872 394.397 204.872 399.643V426.102C204.872 429.825 233.735 434.518 269.342 434.518C304.95 434.518 333.812 429.825 333.812 426.102V399.643C333.812 394.397 304.942 390.145 269.342 390.145Z" fill="#535766"/>
<g style="mix-blend-mode:multiply" opacity="0.7">
<path d="M333.812 399.643C333.812 394.397 304.942 390.145 269.342 390.145C233.743 390.145 204.872 394.397 204.872 399.643V426.102C204.872 429.825 233.735 434.518 269.342 434.518C304.95 434.518 333.812 429.825 333.812 426.102V399.643ZM327.996 424.897C327.996 428.286 301.74 432.554 269.342 432.554C236.944 432.554 210.689 428.286 210.689 424.897V400.824C210.689 396.051 236.952 392.181 269.342 392.181C301.732 392.181 327.996 396.051 327.996 400.824V424.897Z" fill="#7F9DC1"/>
</g>
<path d="M269.342 408.383C228.325 408.383 205.646 403.218 205.646 399.65C205.646 396.082 228.325 390.934 269.342 390.934C310.359 390.934 333.03 396.09 333.03 399.65C333.03 403.21 310.351 408.383 269.342 408.383Z" fill="#7F9DC1"/>
<path d="M269.228 406.755C265.09 406.755 260.984 406.641 257.009 406.429C254.239 406.275 251.575 406.095 249.017 405.867C230.281 404.238 218.941 400.979 218.224 399.92V312.844C218.223 305.367 217.835 297.895 217.059 290.458C215.503 275.721 212.375 267.966 207.634 256.244C206.713 253.963 205.727 251.527 204.685 248.863C195.585 225.662 181.403 209.394 165.762 204.229L165.362 204.099C148.524 198.543 132.614 193.297 117.34 193.297C114.637 193.292 111.938 193.469 109.259 193.826C89.626 196.531 74.4087 209.516 61.3827 234.697C58.4419 235.21 51.1346 235.731 42.858 235.731C18.3701 235.731 2.63144 231.658 0.627441 224.734C0.945148 224.115 2.03676 222.054 3.88597 219.031C14.8265 200.759 55.7048 141.144 122.268 141.144C123.352 141.144 124.427 141.144 125.527 141.193C128.321 141.274 130.855 141.421 133.266 141.633C159.562 143.824 186.266 153.453 210.493 169.477C211.505 170.149 212.692 170.509 213.906 170.512C215.574 170.507 217.171 169.842 218.349 168.662C219.526 167.481 220.187 165.882 220.187 164.215V96.4941C220.66 96.1113 225.996 94.9626 242.638 94.2457C250.785 93.8792 260.65 93.6836 271.151 93.6836C299.997 93.6836 320.843 95.2314 322.187 96.6815L322.13 400.091C320.941 401.533 297.194 406.755 269.228 406.755Z" fill="#B0B4BD"/>
<path d="M271.199 94.2114C300.461 94.2114 318.741 95.751 321.601 96.9404V399.625C318.635 401.458 295.932 406.142 269.261 406.142C265.187 406.142 261.065 406.028 257.041 405.817C253.783 405.629 251.339 405.458 249.066 405.254C232.341 403.788 220.765 400.888 218.843 399.642V312.818C218.84 305.319 218.448 297.825 217.67 290.367C216.106 275.557 212.961 267.769 208.204 255.989C207.283 253.708 206.306 251.281 205.255 248.658C196.098 225.294 181.785 208.904 165.973 203.682L165.582 203.56C148.695 197.979 132.744 192.717 117.372 192.717C114.648 192.711 111.926 192.893 109.226 193.263C89.4549 195.984 74.1398 208.985 61.0486 234.182C55.0288 234.899 48.9688 235.225 42.9067 235.159C18.9565 235.159 3.49481 231.29 1.30344 224.797C1.71891 223.982 2.76163 222.06 4.40719 219.315C15.3151 201.116 56.0386 141.713 122.285 141.713C123.368 141.713 124.443 141.713 125.543 141.762C128.354 141.843 130.871 141.99 133.258 142.21C159.448 144.385 186.054 153.981 210.208 169.907C211.313 170.643 212.611 171.037 213.939 171.039C215.761 171.037 217.508 170.312 218.795 169.023C220.083 167.734 220.806 165.986 220.806 164.164V96.9404C222.216 96.3783 228.04 95.409 242.695 94.7736C250.842 94.407 260.691 94.2114 271.208 94.2114H271.199ZM271.199 93.0547C260.609 93.0547 250.834 93.242 242.687 93.6086C228.839 94.2114 219.682 95.2378 219.682 96.4435V164.164C219.684 165.032 219.487 165.889 219.108 166.67C218.728 167.451 218.175 168.134 217.491 168.669C216.484 169.445 215.251 169.869 213.98 169.874C212.881 169.873 211.807 169.547 210.892 168.938C188.742 154.274 162.259 143.407 133.396 141.004C130.814 140.776 128.231 140.637 125.616 140.556C124.517 140.556 123.425 140.507 122.358 140.507C55.6965 140.507 14.973 199.495 3.48665 218.712C1.25456 222.435 0.130371 224.667 0.130371 224.667C2.46837 234.051 25.4654 236.308 42.98 236.308C51.7536 236.308 59.1586 235.746 61.8958 235.216C76.0704 207.674 92.1187 196.79 109.462 194.403C112.113 194.043 114.786 193.866 117.462 193.874C132.769 193.874 148.956 199.258 165.696 204.781C182.804 210.427 196.131 228.333 204.261 249.073C210.705 265.504 214.762 273.032 216.603 290.522C217.378 297.939 217.767 305.392 217.768 312.851V400.073C217.768 401.466 230.647 404.847 249.058 406.452C251.616 406.688 254.296 406.859 257.066 407.014C260.984 407.234 265.098 407.348 269.285 407.348C297.797 407.348 322.79 401.931 322.79 400.073V96.4435C322.79 94.5617 299.703 93.0547 271.224 93.0547H271.199Z" fill="#5F6177"/>
<g style="mix-blend-mode:multiply" opacity="0.5">
<path d="M2.452 228.35C2.452 228.35 46.2386 141.942 127.963 144.28C159.855 145.2 189.117 156.719 213.238 172.645C214.097 173.196 215.087 173.507 216.107 173.544C217.126 173.582 218.137 173.346 219.034 172.86C219.931 172.374 220.681 171.656 221.206 170.782C221.731 169.907 222.012 168.908 222.02 167.888V100.151C222.02 98.2775 245.107 96.7622 273.594 96.7622C296.616 96.7622 316.11 97.7561 322.741 99.1247V96.4201C322.741 94.5465 299.646 93.0312 271.167 93.0312C242.687 93.0312 219.601 94.5465 219.601 96.4201V164.149C219.595 165.171 219.316 166.173 218.791 167.049C218.266 167.926 217.515 168.646 216.616 169.133C215.718 169.62 214.705 169.857 213.683 169.818C212.662 169.78 211.67 169.468 210.811 168.914C186.698 152.98 157.428 141.469 125.543 140.549C43.819 138.203 0.0244141 224.619 0.0244141 224.619C0.440232 226.105 1.29139 227.433 2.46831 228.431L2.452 228.35Z" fill="#7F9DC1"/>
<path d="M220.081 316.543C220.083 309.091 219.697 301.643 218.924 294.231C217.083 276.724 213.026 269.197 206.583 252.766C203.642 245.114 199.841 237.823 195.251 231.031C198.756 236.753 201.738 242.778 204.163 249.035C210.599 265.466 214.655 272.993 216.497 290.499C217.273 297.912 217.659 305.359 217.653 312.812V400.035C217.653 400.393 218.468 400.85 220.097 401.436L220.081 316.543Z" fill="#7F9DC1"/>
</g>
<g style="mix-blend-mode:multiply" opacity="0.8">
<path d="M59.3948 232.535C51.7862 234.018 6.80217 235.842 0.54579 223.574C0.187352 224.242 0 224.609 0 224.609C3.51921 238.685 53.5703 236.73 61.7818 235.199C88.5343 183.16 121.975 190.59 158.259 202.353C121.046 189.807 86.6362 178.5 59.3948 232.535Z" fill="#7F9DC1"/>
<path d="M271.2 93.0469C269.408 93.0469 267.64 93.0469 265.888 93.0469C290.857 93.2179 310.327 94.6761 310.327 96.3542V394.282C310.327 396.123 286.262 401.418 258.882 401.418C241.718 401.418 226.59 399.332 217.687 397.345V400.033C217.687 401.907 240.781 407.308 269.261 407.308C297.74 407.308 322.774 401.907 322.774 400.033V96.4357C322.742 94.562 299.647 93.0469 271.2 93.0469Z" fill="#7F9DC1"/>
</g>
<g style="mix-blend-mode:multiply" opacity="0.7">
<path d="M256.813 225.181C243.893 196.082 228.977 195.438 204.864 172.156C180.751 148.874 133.282 141.762 133.282 141.762V141.005C162.145 143.449 188.628 154.291 210.778 168.938C211.638 169.492 212.631 169.805 213.653 169.843C214.675 169.881 215.689 169.643 216.587 169.155C217.486 168.667 218.237 167.946 218.761 167.068C219.286 166.19 219.564 165.187 219.568 164.165V96.4443C219.568 95.2631 228.7 94.2122 242.573 93.6094L256.772 105.43C256.772 105.43 252.911 198.656 256.813 225.181Z" fill="#7F9DC1"/>
</g>
<g style="mix-blend-mode:multiply" opacity="0.7">
<path d="M256.968 406.984C234.411 405.787 217.67 401.632 217.67 400.043V312.821C217.669 305.362 217.28 297.909 216.505 290.492C214.664 273.001 210.607 265.474 204.163 249.043C196.017 228.302 182.714 210.397 165.599 204.751C126.496 191.856 90.351 179.669 61.7981 235.186C53.5948 236.758 3.54378 238.722 0.0327148 224.596C0.0327148 224.596 1.1569 222.364 3.389 218.641C3.81261 221.223 5.55592 224.131 11.071 225.158C21.7345 227.097 48.8944 234.371 57.1385 225.158C65.3825 215.944 83.3289 170.349 133.282 171.808C183.235 173.266 246.28 208.662 253.033 247.463C258.89 280.7 257.489 379.246 256.968 406.984Z" fill="#7F9DC1"/>
</g>
<path d="M271.672 107.784C237.881 107.784 218.094 105.185 216.798 103.303V75.5406C218.061 73.8217 237.849 71.2148 271.639 71.2148C305.227 71.2148 324.982 73.7891 326.481 75.6709V103.458C325.25 105.193 305.463 107.784 271.672 107.784Z" fill="#B0B4BD"/>
<path d="M271.672 72.1029C302.767 72.1029 322.497 74.384 325.642 76.1273V102.896C322.448 104.648 302.734 106.92 271.672 106.92C240.61 106.92 220.896 104.648 217.703 102.896V76.1191C220.896 74.3758 240.61 72.1029 271.672 72.1029ZM271.672 70.3516C240.912 70.3516 215.959 72.6814 215.959 75.5489V103.466C215.959 106.342 240.912 108.664 271.672 108.664C302.433 108.664 327.385 106.342 327.385 103.466V75.5489C327.4 75.5012 327.4 75.45 327.385 75.4022C326.57 72.6081 301.928 70.3516 271.705 70.3516H271.672Z" fill="#5F6177"/>
<g style="mix-blend-mode:multiply" opacity="0.8">
<path d="M271.672 70.3594C240.904 70.3594 215.959 72.6891 215.959 75.5566V103.466C215.959 106.342 240.904 108.671 271.672 108.671C302.441 108.671 327.385 106.342 327.385 103.466V75.5566C327.409 72.6891 302.441 70.3594 271.672 70.3594ZM321.691 101.087C321.691 103.596 299.296 105.633 271.672 105.633C244.048 105.633 221.654 103.596 221.654 101.087V76.7216C221.654 74.2207 244.048 72.1841 271.672 72.1841C299.296 72.1841 321.691 74.2207 321.691 76.7216V101.087Z" fill="#7F9DC1"/>
</g>
<path d="M271.672 80.1836C237.197 80.1836 217.189 77.4383 216.538 75.5402C217.197 73.6828 237.205 70.9375 271.672 70.9375C306.139 70.9375 326.146 73.6828 326.806 75.5809C326.155 77.4382 306.147 80.1836 271.672 80.1836Z" fill="#B0B4BD"/>
<g style="mix-blend-mode:multiply" opacity="0.8">
<path d="M272.713 70.3984C241.944 70.3984 217 72.7282 217 75.5957C217 78.4632 241.944 80.8012 272.713 80.8012C303.481 80.8012 328.425 78.4714 328.425 75.5957C328.425 72.72 303.481 70.3984 272.713 70.3984ZM272.713 79.6037C245.089 79.6037 222.694 77.8115 222.694 75.5957C222.694 73.3799 245.089 71.5959 272.713 71.5959C300.337 71.5959 322.731 73.388 322.731 75.5957C322.731 77.8034 300.337 79.6037 272.713 79.6037Z" fill="#7F9DC1"/>
</g>
<path d="M255.184 71.07V43.3073C255.184 34.1997 288.16 34.1997 288.16 43.3073V71.07C288.16 80.1776 255.184 80.1776 255.184 71.07Z" fill="#7A889C"/>
<g style="mix-blend-mode:multiply" opacity="0.8">
<path d="M255 52.5102V73.2866C255 80.1024 288 80.1024 288 73.2866V52.5102C288 45.6945 255 45.6945 255 52.5102ZM286.37 72.2624C286.37 78.4015 256.63 78.4015 256.63 72.2624V53.5344C256.63 47.3893 286.37 47.3893 286.37 53.5344V72.2624Z" fill="#7F9DC1"/>
</g>
<path d="M271.672 56.6089C260.618 56.6089 252.276 54.165 252.276 51.0368V45.3343C252.276 45.2398 252.25 45.1472 252.203 45.0655C249.034 39.065 243.838 34.3851 237.539 31.8604C226.696 27.3229 210.021 21.2701 190.494 21.2701C179.814 21.2523 169.213 23.1164 159.18 26.7771C140.85 22.8505 138.521 8.93662 138.244 4.78199C138.244 4.52945 138.244 4.30948 138.244 4.14655C140.59 3.44597 153.037 0 171.472 0C195.691 0 219.601 5.65364 242.549 16.7897C244.537 17.7591 246.516 18.7611 248.529 19.8282C250.128 20.6841 251.852 21.286 253.636 21.6122C255.71 21.9963 257.838 21.9686 259.901 21.5308C263.792 20.7748 267.749 20.4092 271.713 20.4392C282.768 20.4392 291.101 22.8831 291.101 26.0276V51.0531C291.069 54.2057 282.735 56.6089 271.672 56.6089Z" fill="#B0B4BD"/>
<g style="mix-blend-mode:multiply" opacity="0.8">
<path d="M291.655 26.0132V51.0387C291.655 59.242 251.689 59.242 251.689 51.0387V45.3362C248.579 39.4603 243.488 34.8767 237.319 32.3999C221.702 25.8828 192.155 15.2926 159.22 27.398C140.263 23.4226 137.933 8.9303 137.665 4.81641C137.665 4.81641 148.801 12.5391 158.267 12.7672C167.716 12.7672 176.246 -1.79837 242.768 16.262C244.764 17.2314 246.744 18.2416 248.764 19.3088C250.314 20.1348 251.982 20.7173 253.709 21.0358C253.709 21.0358 251.265 30.2248 263.892 32.4976C276.519 34.7704 288.306 31.4794 291.655 26.0132Z" fill="#7F9DC1"/>
</g>
<g style="mix-blend-mode:multiply" opacity="0.5">
<path d="M327.409 75.549V103.466C327.409 106.342 302.465 108.664 271.697 108.664C240.928 108.664 215.984 106.342 215.984 103.466V99.2548C239.185 106.904 273.383 95.6867 274.32 80.7544C315.051 80.2086 324.965 76.9909 327.377 75.4023C327.403 75.4466 327.414 75.4979 327.409 75.549Z" fill="#7F9DC1"/>
</g>
<g style="mix-blend-mode:multiply">
<path d="M195.96 164.427C204.229 172.9 213.988 178.488 223.479 185.388C234.46 193.371 241.604 203.188 250.362 213.232C251.738 214.812 254.027 213.11 253.62 211.326C247.918 184.85 214.518 179.026 196.107 164.224C195.968 164.11 195.773 164.289 195.903 164.427H195.96Z" fill="#7F9DC1"/>
</g>
<g style="mix-blend-mode:multiply" opacity="0.8">
<path d="M232.594 109.236C229.498 115.916 230.044 123.264 229.629 130.514C229.058 140.29 228.562 150.114 227.861 159.898C227.429 165.983 226.859 169.364 230.305 174.562C235.046 181.779 240.732 188.565 246.084 195.318C246.378 195.685 246.899 195.212 246.72 194.83C243.095 188.158 238.142 181.681 235.225 174.692C232.016 166.985 234.313 157.422 234.859 149.438C235.673 137.137 238.679 120.747 233.506 109.261C233.461 109.185 233.396 109.122 233.319 109.078C233.242 109.035 233.155 109.012 233.066 109.012C232.978 109.012 232.891 109.035 232.814 109.078C232.737 109.122 232.672 109.185 232.627 109.261L232.594 109.236Z" fill="#7F9DC1"/>
</g>
<g style="mix-blend-mode:multiply" opacity="0.8">
<path d="M29.1803 229.915C40.6422 229.19 53.0735 231.194 61.3421 222.184C71.9323 210.641 80.3474 196.841 91.63 185.974C110.367 167.938 145.037 175.115 168.092 179.457C168.189 179.474 168.29 179.454 168.373 179.401C168.457 179.347 168.518 179.265 168.545 179.17C168.571 179.074 168.561 178.972 168.516 178.884C168.472 178.795 168.396 178.727 168.303 178.691C150.129 171.237 121.478 167.62 102.652 174.512C91.0843 178.748 83.606 189.884 76.1928 199.057C71.2561 205.158 66.4172 211.317 61.6353 217.516C53.2853 228.302 41.8071 227.504 29.1803 228.921C28.5856 228.994 28.5612 229.907 29.1803 229.866V229.915Z" fill="#7F9DC1"/>
</g>
<g style="mix-blend-mode:multiply" opacity="0.7">
<path d="M227.136 211.658C233.742 219.063 241.09 223.999 244.406 233.946C247.347 242.76 247.51 252.479 248.544 261.644C250.507 279.126 252.951 296.469 256.308 313.78C256.356 314.025 256.739 313.967 256.739 313.723C256.462 290.555 255.265 266.947 251.99 243.982C250.027 230.248 242.434 214.24 227.494 211.087C227.416 211.066 227.333 211.071 227.259 211.101C227.184 211.131 227.121 211.186 227.08 211.255C227.039 211.325 227.023 211.406 227.033 211.486C227.043 211.566 227.079 211.641 227.136 211.698V211.658Z" fill="#7F9DC1"/>
</g>
<g style="mix-blend-mode:multiply">
<path d="M227.364 398.715C246.451 401.037 266.605 404.646 285.888 403.253C296.299 402.503 312.665 401.355 318.587 391.473C318.587 391.424 318.546 391.359 318.505 391.408C309.471 402.764 286.368 402.813 273.228 402.21C257.921 401.534 242.655 399.652 227.364 398.675C227.364 398.675 227.364 398.674 227.364 398.715Z" fill="#7F9DC1"/>
</g>
<g style="mix-blend-mode:multiply" opacity="0.9">
<path d="M147.277 11.658C148.776 13.1813 150.951 13.6456 152.915 14.3706C154.055 14.7861 155.171 15.1853 156.287 15.6822C157.688 16.3013 158.063 16.057 158.006 17.5722C157.949 19.2015 157.697 21.5802 159.326 22.631C159.569 22.7982 159.843 22.9149 160.132 22.9743C160.421 23.0337 160.719 23.0346 161.008 22.9769C161.298 22.9192 161.573 22.804 161.817 22.6383C162.061 22.4726 162.269 22.2595 162.43 22.0119C163.513 20.57 163.106 17.5722 162.796 15.9103C162.716 15.2135 162.425 14.5579 161.962 14.0309C161.499 13.504 160.886 13.1308 160.206 12.9613C158.088 12.3992 155.75 12.3422 153.591 11.9186C151.432 11.495 149.444 10.7782 147.375 11.2914C147.338 11.3016 147.305 11.3213 147.278 11.3486C147.251 11.3758 147.231 11.4096 147.221 11.4466C147.211 11.4837 147.211 11.5227 147.221 11.5598C147.231 11.5969 147.25 11.6307 147.277 11.658Z" fill="#7F9DC1"/>
</g>
<g style="mix-blend-mode:multiply" opacity="0.9">
<path d="M210.917 14.9905C220.749 13.6952 227.853 16.7989 236.17 21.5075C243.209 25.5318 252.593 26.7212 253.188 36.9286C253.188 37.1648 253.563 37.2381 253.62 36.9937C256.153 26.4035 253.848 23.6582 243.559 21.7112C237.856 20.6277 233.327 16.9293 227.91 15.1127C222.305 13.239 216.611 13.2797 210.868 14.3876C210.558 14.4528 210.623 15.0068 210.949 14.9579L210.917 14.9905Z" fill="#7F9DC1"/>
</g>
<g style="mix-blend-mode:multiply" opacity="0.9">
<path d="M261.31 58.637C260.789 60.7306 260.943 62.9872 260.886 65.1541C260.829 67.321 260.389 69.6753 261.098 71.6711C261.199 71.9916 261.4 72.2713 261.671 72.47C261.942 72.6686 262.269 72.7758 262.605 72.7758C262.941 72.7758 263.268 72.6686 263.539 72.47C263.81 72.2713 264.011 71.9916 264.112 71.6711C264.821 69.6346 264.389 67.2477 264.332 65.1541C264.275 63.0605 264.43 60.7469 263.909 58.637C263.823 58.3597 263.65 58.1171 263.416 57.9448C263.182 57.7726 262.9 57.6797 262.609 57.6797C262.319 57.6797 262.036 57.7726 261.802 57.9448C261.569 58.1171 261.396 58.3597 261.31 58.637Z" fill="#7F9DC1"/>
</g>
<g style="mix-blend-mode:multiply" opacity="0.9">
<path d="M308.673 81.7175C311.532 83.192 310.302 89.3424 310.302 91.7619C310.302 95.0639 310.329 98.3604 310.384 101.652C310.41 101.98 310.559 102.288 310.801 102.512C311.043 102.735 311.361 102.86 311.691 102.86C312.021 102.86 312.339 102.735 312.581 102.512C312.824 102.288 312.973 101.98 312.999 101.652C313.154 96.2994 313.862 90.5807 313.194 85.253C312.86 82.5891 311.94 80.4874 309.121 80.1615C308.307 80.0638 307.989 81.3509 308.698 81.7175H308.673Z" fill="#7F9DC1"/>
</g>
<g style="mix-blend-mode:multiply" opacity="0.7">
<path d="M248.96 406.421C230.549 404.792 217.67 401.435 217.67 400.042V312.82C217.67 305.361 217.281 297.908 216.505 290.491C214.664 273 210.607 265.473 204.164 249.042C196.017 228.301 182.714 210.396 165.599 204.75C145.909 198.233 126.977 191.944 109.389 194.372V191.928C109.389 191.928 189.329 186.503 214.664 229.401C239.999 272.3 229.173 379.033 232.342 386.145C235.258 392.906 235.168 401.476 248.96 406.421Z" fill="#7F9DC1"/>
</g>
<path d="M14.8833 208.552C13.808 210.1 12.7245 211.811 12.7653 213.668C12.8142 216.063 14.6878 218.018 16.6673 219.371C19.8238 221.489 23.4705 222.764 27.2595 223.074C31.0486 223.383 34.8537 222.717 38.3121 221.138C44.7315 218.108 49.2446 212.177 53.7332 206.711C71.4352 184.993 93.8864 165.597 121.111 158.974C127.376 157.45 133.795 156.628 140.06 155.121C141.355 154.803 142.805 154.306 143.318 153.125C144.369 150.811 141.355 148.824 138.903 148.156C90.0006 134.771 41.5788 170.232 14.8833 208.552Z" fill="#C0C9CE"/>
<path d="M260.552 133.446C260.618 156.044 260.686 178.644 260.756 201.248C260.943 263.07 261.139 324.999 266.809 386.569C267.004 388.695 267.289 391 268.805 392.507C270.32 394.014 272.487 394.259 274.507 394.479C284.69 395.603 298.083 394.747 301.023 384.923C301.578 382.61 301.759 380.223 301.561 377.852L293.863 133.462C292.918 102.791 260.455 102.791 260.552 133.446Z" fill="#C0C9CE"/>
<path d="M38.0187 226.068C46.2709 232.211 58.8977 214.924 63.2723 209.637C75.5732 194.672 88.3385 173.386 109.967 172.873C110.285 172.873 110.383 172.36 110.04 172.303C93.2834 169.223 82.913 182.518 72.9093 193.809C67.2069 200.22 62.0259 207.242 55.8673 213.205C51.9082 217.034 47.2891 218.777 42.662 221.352C39.99 222.834 39.2406 223.136 37.9942 225.832C37.9738 225.875 37.9692 225.924 37.9811 225.97C37.993 226.016 38.0207 226.057 38.0594 226.085L38.0187 226.068Z" fill="white"/>
<path d="M208.88 179.275C216.269 186.24 224.643 192.309 232.504 198.688C236.006 201.384 239.321 204.316 242.426 207.461C245.832 211.119 247.754 215.656 251.387 218.996C253.017 220.512 256.08 219.053 255.338 216.691C252.895 208.879 244.129 203.763 237.824 198.989C228.61 191.999 219.209 184.651 209.369 178.623C209.277 178.576 209.172 178.562 209.072 178.585C208.971 178.607 208.882 178.664 208.819 178.745C208.756 178.826 208.724 178.927 208.727 179.03C208.731 179.133 208.771 179.231 208.839 179.308L208.88 179.275Z" fill="white"/>
<path d="M222.46 82.8423C224.961 83.9095 223.975 90.2636 224.04 92.3084C224.138 95.1677 223.56 98.1737 224.855 100.764C224.928 100.882 225.03 100.979 225.151 101.047C225.273 101.114 225.409 101.15 225.548 101.15C225.686 101.15 225.823 101.114 225.944 101.047C226.065 100.979 226.167 100.882 226.24 100.764C227.552 98.6218 227.307 96.2431 227.543 93.7747C227.796 91.1027 228.358 88.39 228.081 85.7099C227.714 82.598 226.126 80.0074 222.729 80.5125C222.491 80.5841 222.279 80.723 222.119 80.9124C221.958 81.1017 221.855 81.3335 221.824 81.5798C221.792 81.8261 221.832 82.0763 221.939 82.3003C222.046 82.5243 222.216 82.7126 222.428 82.8423H222.46Z" fill="white"/>
<path d="M257.432 28.5932C265.024 32.6664 274.05 32.1939 281.57 28.3733C281.879 28.2185 281.651 27.7867 281.35 27.8437C273.358 29.3834 265.953 28.7154 258.1 27.0291C257.171 26.8254 256.52 28.137 257.432 28.6584V28.5932Z" fill="white"/>
<path d="M307.393 296.144C305.275 312.095 306.041 328.477 306.367 344.526C306.693 360.574 305.552 376.989 306.75 392.939C306.799 393.607 307.858 393.86 308.004 393.11C310.864 378.113 308.819 361.494 308.355 346.301C307.825 329.561 307.646 312.901 307.98 296.144C307.98 295.753 307.442 295.786 307.393 296.144Z" fill="white"/>
</svg>
