<svg width="662" height="272" viewBox="0 0 662 272" fill="none" xmlns="http://www.w3.org/2000/svg">
<path d="M601.123 89.1012C601.295 98.5846 594.935 106.401 586.92 106.565L421.172 109.903C413.157 110.064 406.522 102.509 406.353 93.0228L406.103 79.1954C405.934 69.712 412.294 61.8951 420.306 61.732L586.054 58.3931C594.072 58.2329 600.706 65.7904 600.875 75.2709L601.123 89.1012Z" fill="#094349"/>
<path d="M467.759 51.0776C467.858 56.7356 462.147 61.4409 455.001 61.5836L426.961 62.1488C419.812 62.2916 413.935 57.8194 413.836 52.1614C413.836 52.1614 419.372 37.9669 426.524 37.8241L454.566 37.2589C461.705 37.1133 467.759 51.0776 467.759 51.0776Z" fill="#0F3639"/>
<path d="M592.19 48.5697C592.292 54.2277 586.582 58.933 579.438 59.0787L551.396 59.6439C544.246 59.7866 538.37 55.3145 538.271 49.6565C538.271 49.6565 543.806 35.462 550.959 35.3163L579.001 34.7511C586.148 34.6083 592.19 48.5697 592.19 48.5697Z" fill="#0F3639"/>
<path d="M273.053 65.1836C256.738 65.1836 243.493 79.55 243.493 97.2728C243.493 114.995 256.729 129.359 273.053 129.359C289.378 129.359 302.614 114.993 302.614 97.2728C302.614 79.5529 289.378 65.1836 273.053 65.1836ZM273.053 125.015C258.94 125.015 247.496 112.595 247.496 97.2728C247.496 81.9507 258.94 69.5306 273.053 69.5306C287.166 69.5306 298.61 81.9507 298.61 97.2728C298.61 112.595 287.169 125.012 273.053 125.012V125.015Z" fill="#293B40"/>
<path d="M85.6962 271.253C116.446 271.253 141.373 248.964 141.373 221.47C141.373 193.976 116.446 171.688 85.6962 171.688C54.9468 171.688 30.0195 193.976 30.0195 221.47C30.0195 248.964 54.9468 271.253 85.6962 271.253Z" fill="#192529"/>
<path d="M290.356 79.6457L289.261 87.0605L287.918 96.2088L149.154 93.4876L105.082 90.5217C114.481 89.4 122.044 88.9572 125.543 88.9834C133.518 88.7794 142.675 88.5551 152.19 88.3337C154.265 86.6788 157.93 83.7683 162.72 80.0303C167.935 79.8962 172.334 79.8147 175.384 79.8147C175.384 79.8147 178.694 79.6923 183.956 79.5845C193.381 79.3718 209.061 79.2028 223.169 79.8147C223.169 79.8147 231.099 76.7817 244.163 76.0067C244.163 76.0067 270.632 74.0255 290.356 79.6457Z" fill="#2F454A"/>
<path d="M480.651 186.131C480.651 192.832 475.511 198.289 469.174 198.289H400.314C393.971 198.289 388.835 192.844 388.835 186.131C388.835 186.131 393.971 64.6211 400.314 64.6211H469.174C475.511 64.6211 480.651 186.131 480.651 186.131Z" fill="#0F3639"/>
<path d="M462.48 51.0103C462.48 58.801 456.522 65.1145 449.168 65.1145H420.324C412.977 65.1145 407.016 58.801 407.016 51.0103C407.016 51.0103 412.977 31.6211 420.324 31.6211H449.168C456.522 31.6182 462.48 51.0103 462.48 51.0103Z" fill="#0F3639"/>
<path d="M631.986 63.8568L631.112 62.167H553.887C550.697 62.1675 547.607 61.0504 545.155 59.0098C542.703 56.9691 541.043 54.1339 540.464 50.9967L537.391 34.4248C537.148 33.1049 537.198 31.7478 537.539 30.4497C537.879 29.1516 538.501 27.9443 539.36 26.9133C540.219 25.8824 541.295 25.0531 542.51 24.4842C543.725 23.9153 545.051 23.6208 546.393 23.6216H607.046L600.683 15.8979L559.058 10.9771L524.988 9.63686C514.182 6.43203 493.161 2.35315 454.071 0.896407C431.812 0.0485829 403.696 0.0223459 368.266 1.49948C333.956 2.92418 299.507 3.53892 267.278 13.1534C264.439 13.9906 261.614 14.9074 258.803 15.9038C236.305 23.8692 186.109 61.8203 162.719 80.0383C158.375 83.4296 154.958 86.1333 152.813 87.8435C152.592 88.0212 152.385 88.1902 152.19 88.3417C142.674 88.5631 133.517 88.7875 125.543 88.9915C122.047 88.9653 114.472 89.4081 105.082 90.5297C89.8092 92.3565 69.6858 95.9867 54.3609 102.332C49.2798 104.433 44.053 107.361 38.5436 110.557L38.3658 110.662C37.8239 110.974 37.282 111.294 36.7285 111.623C35.6058 112.29 34.4753 112.975 33.3371 113.68C32.9817 113.902 32.6175 114.126 32.2533 114.356L31.9853 114.516L30.179 115.682C29.7419 115.973 29.3049 116.265 28.8621 116.556C27.5976 117.386 26.3244 118.24 25.0425 119.129C24.5909 119.44 24.1276 119.761 23.6731 120.081C23.3818 120.268 23.1196 120.463 22.8544 120.664C21.5725 121.561 20.2906 122.497 18.9999 123.449C18.5366 123.787 18.0821 124.134 17.6218 124.481C16.8905 125.034 16.1651 125.594 15.4221 126.165C14.6792 126.736 13.945 127.313 13.205 127.913L12.6718 128.341C12.4504 128.519 12.2173 128.705 11.9959 128.9C11.7744 129.096 11.4976 129.32 11.2558 129.541C10.5081 130.205 9.80362 130.915 9.1465 131.668H9.129C8.45127 132.461 7.84669 133.313 7.32265 134.215C5.07927 138.069 3.94008 143.622 5.70274 152.584C5.81054 153.056 5.89794 153.511 5.99409 153.983C5.99409 153.983 3.16509 155.46 1.40243 161.831C1.16061 162.685 0.947941 163.62 0.761478 164.663C0.709035 164.937 0.653673 165.232 0.609971 165.537C0.406027 166.846 0.237046 168.297 0.137988 169.908C0.0768045 170.782 0.0389221 171.723 0.0214412 172.702C0.0214412 173.235 0.00396026 173.788 0.0214412 174.357C0.0214412 174.534 0.0214412 174.712 0.0214412 174.898C0.0214412 175.041 0.0214412 175.19 0.0214412 175.335C0.096327 179.016 0.382337 182.689 0.878024 186.337C0.98291 187.103 1.09071 187.884 1.20725 188.685C1.36749 189.719 1.53648 190.786 1.72294 191.89C2.26485 195.077 2.95826 198.521 3.8323 202.25C4.01003 203.005 4.18775 203.78 4.38296 204.564C4.87242 206.603 5.35314 208.712 5.94166 210.831C6.53537 213.132 7.29088 215.389 8.20253 217.584C8.90062 219.254 9.74904 220.857 10.7373 222.374C11.4589 223.481 12.2685 224.528 13.1583 225.506C19.0698 232.029 29.605 236.507 49.944 237.608C49.944 237.608 55.8701 238.01 72.4769 238.305L178.819 237.218L189.322 237.11C220.534 236.763 254.06 236.364 286.589 235.927C348.081 235.1 406.042 234.13 438.204 233.133L521.197 228.408L559.18 226.246C563.405 225.833 567.489 224.509 571.152 222.365C575.292 219.845 578.584 215.903 580.988 209.333C582.777 204.494 584.076 198.227 584.912 190.075C585.909 180.425 586.931 162.592 582.748 149.997C581.032 144.808 578.424 140.511 574.59 138.052C573.527 137.361 572.374 136.819 571.164 136.44C571.164 136.44 570.718 127.7 568.76 114.802L632.006 111.912L631.986 63.8568ZM502.079 53.951C502.079 53.951 496.677 56.1594 484.697 59.8508C484.333 59.9673 483.94 60.0839 483.558 60.2179C480.834 61.0453 477.818 61.9427 474.453 62.8954C472.469 63.4781 470.342 64.0607 468.125 64.6755C468.125 64.6755 451.277 69.4449 427.133 76.3294C427.133 76.3294 418.596 78.8817 406.295 81.7485L404.125 81.8563L402.79 81.9L406.1 75.7671C406.1 75.7671 341.202 84.7116 289.269 87.0802L273.452 87.7999C269.082 87.998 264.749 88.2019 260.522 88.3825L256.953 88.5428C241.911 89.2362 259.383 87.2696 250.803 87.5813C250.511 87.5988 250.179 87.6075 249.824 87.625L241.235 87.5463L229.336 87.2346C218.993 87.3774 192.428 87.4386 176.372 87.794C176.701 87.3861 177.057 86.9579 177.447 86.5034C179.078 84.6183 181.214 82.2962 183.964 79.5984C184.256 79.307 184.567 79.0157 184.888 78.6981C186.927 76.7053 189.302 74.5435 192.026 72.201C203.872 62.0038 222.385 47.1217 250.572 31.9104C262.186 25.6377 276.502 19.3358 300.376 17.2003C316.21 15.793 324.505 15.0268 349.398 14.8054C352.193 14.7782 355.216 14.7607 358.468 14.753C366.416 14.7267 375.814 14.7355 387.18 14.7879C391.291 14.8054 396.363 14.9307 402.015 15.1171C422.547 15.828 450.735 17.4945 468.758 18.794C469.139 18.8114 469.503 18.8464 469.879 18.8639C474.098 19.1756 477.728 19.4699 480.487 19.7175C482.48 19.8865 484.502 20.0089 487.296 24.2305C487.296 24.2305 494.772 33.6993 500.433 41.3181C500.555 41.4958 500.681 41.6473 500.788 41.8075C502.318 43.847 503.681 45.732 504.739 47.2645C504.73 47.2499 508.372 51.3609 502.079 53.9422V53.951Z" fill="#E23614"/>
<path d="M390.775 182.878C390.775 189.323 385.84 194.553 379.754 194.553H313.635C307.546 194.553 302.613 189.308 302.613 182.878C302.613 182.878 307.546 66.1875 313.635 66.1875H379.771C385.84 66.1875 390.775 182.878 390.775 182.878Z" fill="#0F3639"/>
<path d="M373.327 53.1122C373.327 60.5941 367.605 66.6541 360.542 66.6541H332.838C325.782 66.6541 320.057 60.5941 320.057 53.1122C320.057 53.1122 325.782 34.4922 332.838 34.4922H360.542C367.605 34.4922 373.327 53.1122 373.327 53.1122Z" fill="#0F3639"/>
<path d="M329.464 119.674C304.886 124.336 272.823 147.475 272.823 147.475C262.43 150.083 270.88 93.2084 270.265 90.3707C270.236 90.2425 270.218 90.1143 270.201 89.9802C280.87 81.8225 299.816 70.1219 317.982 69.7461C317.988 69.7344 316.484 92.142 329.464 119.674Z" fill="#0B2728"/>
<path d="M350.456 120.974C350.682 121.849 350.574 122.778 350.153 123.578C349.731 124.377 349.027 124.992 348.178 125.301C347.776 125.452 347.346 125.517 346.918 125.492C346.489 125.467 346.07 125.352 345.689 125.155C345.307 124.959 344.971 124.684 344.702 124.349C344.433 124.014 344.238 123.627 344.128 123.212L329.426 70.0085C329.201 69.1335 329.31 68.2061 329.731 67.4068C330.152 66.6075 330.856 65.9937 331.705 65.6849C332.107 65.5337 332.536 65.4685 332.965 65.4935C333.393 65.5185 333.812 65.6331 334.194 65.83C334.575 66.0269 334.911 66.3016 335.18 66.6364C335.449 66.9712 335.645 67.3587 335.754 67.7738L350.456 120.974Z" fill="#0B2728"/>
<path d="M345.29 105.809C345.494 106.549 343.183 108.026 340.127 109.107C337.071 110.188 334.425 110.465 334.219 109.722L328.074 87.483C327.87 86.7401 330.183 85.263 333.237 84.1821C336.293 83.1041 338.936 82.8273 339.142 83.5673L345.29 105.809Z" fill="#0B2728"/>
<path d="M304.781 95.529L331.664 87.75L337.299 105.761L308.406 119.294L304.781 95.529Z" fill="#0B2728"/>
<path opacity="0.87" d="M266.385 95.4925L490.006 85.5225L590.522 51.9097L571.048 15.089L482.452 9.67578L381.045 12.2863L350.579 24.048L313.315 44.0986L277.232 75.7507L266.385 95.4925Z" fill="#094349"/>
<g style="mix-blend-mode:screen" opacity="0.54">
<path d="M280.902 72.3291C280.902 72.3291 331.536 39.2436 587.264 39.0629L573.361 15.0908L525.97 9.67752L451.111 6.82812L384.506 12.2006L355.03 22.3308L321.039 39.937L280.902 72.3291Z" fill="#0C5961"/>
</g>
<path d="M508.022 215.731L521.888 231.957L636.28 225.063L644.656 212.288L639.619 186.649L626.712 162.435L607.506 148.214L590.821 141.426L562.802 143.92L545.487 151.396L527.857 166.351L518.097 186.69L508.022 215.731Z" fill="#101819"/>
<path d="M432.095 271.253C462.844 271.253 487.771 248.964 487.771 221.47C487.771 193.976 462.844 171.688 432.095 171.688C401.345 171.688 376.418 193.976 376.418 221.47C376.418 248.964 401.345 271.253 432.095 271.253Z" fill="#192529"/>
<path d="M159.197 220.474L176.13 237.204L286.552 235.945L297.078 225.456L295.481 206.941L290.351 184.155C290.351 184.155 284.498 169.911 283.554 169.2C282.61 168.489 270.647 154.245 270.647 154.245L251.756 145.341L234.441 141.07L213.662 144.631L200.126 151.751L186.272 161.721L176.827 175.61L169.901 191.989L164.235 208.013L159.197 220.474Z" fill="#101819"/>
<path opacity="0.87" d="M360.251 13.5826L360.108 13.67L358.471 14.7392L332.561 31.5763L328.077 34.4897L260.525 88.3717L260.266 88.5757C260.266 88.5757 259.173 88.5582 256.956 88.532C251.295 88.4621 238.292 88.3193 217.423 88.1678C205.932 88.0862 192.076 88.0075 175.725 87.9347C168.57 87.8997 160.936 87.8677 152.825 87.8385C154.97 86.1283 158.387 83.4247 162.731 80.0334C172.104 72.7351 185.774 62.2611 200.254 51.8279C221.898 36.2174 245.331 20.6536 258.815 15.8988C261.621 14.9024 262.99 14.4217 265.831 13.5855C271.008 13.2941 276.526 13.0785 282.222 12.8892C309.69 11.9743 341.328 12.1083 360.126 13.5767C360.158 13.5738 360.192 13.5826 360.251 13.5826Z" fill="#094349"/>
<path d="M297.442 30.129C297.497 32.5443 295.499 34.5749 293.008 34.639L276.532 35.0528C274.038 35.114 271.949 33.1882 271.897 30.77C271.844 28.3576 273.843 26.3298 276.334 26.2686L292.812 25.8549C293.993 25.8092 295.143 26.2334 296.011 27.0347C296.879 27.836 297.393 28.9488 297.442 30.129Z" fill="#0F3639"/>
<path d="M286.164 22.8077C286.196 24.2178 285.476 25.3745 284.559 25.3978C283.641 25.4211 282.869 24.3023 282.84 22.8893C282.811 21.4763 283.53 20.3284 284.448 20.305C285.366 20.2817 286.135 21.4034 286.164 22.8077Z" fill="#0F3639"/>
<g style="mix-blend-mode:screen" opacity="0.44">
<path d="M360.114 13.5741L360.096 13.6702L358.459 14.7395L332.549 31.5765C286.429 31.4163 238.423 41.2522 200.242 51.8252C221.886 36.2148 245.32 20.6509 258.803 15.8961C261.609 14.8997 262.978 14.419 265.819 13.5828C270.996 13.2915 276.514 13.0759 282.21 12.8865C309.678 11.9688 341.313 12.1057 360.114 13.5741Z" fill="#0C5961"/>
</g>
<path d="M605.732 213.267C605.91 189.003 592.962 168.079 574.389 159.111L574.196 154.449H552.596V154.49C525.031 155.411 502.819 180.831 502.586 212.291C502.35 244.083 524.641 270.123 552.596 271.07L578.328 271.236L578.503 264.218C594.573 254.463 605.566 235.351 605.732 213.267Z" fill="#172224"/>
<path d="M468.985 9.67578C468.985 9.67578 474.337 48.4892 476.54 85.5196L503.615 83.7424C503.615 83.7424 499.827 47.5977 486.3 9.67578H468.985Z" fill="#1C292B"/>
<path d="M259.311 97.2726L321.659 93.7123C321.659 93.7123 315.363 85.5196 309.064 47.5977C309.053 47.5977 254.905 92.9985 259.311 97.2726Z" fill="#1C292B"/>
<g style="mix-blend-mode:multiply" opacity="0.18">
<path d="M660.611 188.9C658.749 208.1 654.414 216.817 647.59 221.19C644.163 223.323 640.295 224.648 636.28 225.062C636.469 222.901 636.571 217.869 636.571 215.649C636.571 179.257 610.49 149.775 578.328 149.775C546.166 149.775 520.084 179.257 520.084 215.649C520.082 221.137 520.687 226.609 521.888 231.964C475.38 233.503 371.867 234.957 286.563 235.956C288.452 229.356 289.406 222.523 289.398 215.658C289.398 182.968 268.365 155.864 240.774 150.687C258.756 150.471 277.837 150.229 297.721 149.903C356.329 148.962 422.011 147.453 487.797 145.061C543.483 143.022 599.232 140.373 650.839 136.883C663.317 145.344 661.933 175.268 660.611 188.9Z" fill="#E23614"/>
</g>
<g style="mix-blend-mode:multiply" opacity="0.18">
<path d="M112.958 151.438C136.318 151.438 116.005 153.186 220.488 150.855C193.413 156.525 172.911 183.358 172.911 215.634C172.906 222.912 173.98 230.15 176.099 237.112L154.789 237.313C122.741 235.475 116.407 222.384 113.185 209.635C112.628 207.511 112.177 205.405 111.711 203.368C108.022 187.344 107.215 176.29 107.693 168.712C108.5 155.424 113.228 152.805 113.228 152.805C113.135 152.35 113.045 151.893 112.958 151.438Z" fill="#E23614"/>
</g>
<path d="M257.801 213.404C257.979 189.141 245.031 168.216 226.458 159.251L226.266 154.59H204.671V154.631C177.106 155.551 154.894 180.974 154.661 212.431C154.425 244.223 176.716 270.267 204.671 271.211L230.583 271.257V264.358C246.643 254.601 257.635 235.491 257.801 213.404Z" fill="#172224"/>
<path d="M650.836 136.867L650.755 136.811C649.779 136.149 648.716 135.625 647.596 135.256C647.596 135.256 646.883 120.499 643.252 100.99C643.162 100.483 643.066 99.9645 642.961 99.4488C642.606 97.5347 642.206 95.5768 641.778 93.5927L641.726 93.3539C641.038 90.184 640.292 86.9267 639.447 83.6257C639.028 81.9708 638.591 80.3131 638.127 78.6408C637.638 76.8927 637.14 75.162 636.598 73.4168C636.321 72.4816 636.03 71.5581 635.724 70.6228C634.931 68.1114 634.08 65.6136 633.169 63.1294C633.061 62.8613 632.965 62.5758 632.848 62.3019C628.656 50.9393 623.28 39.97 616.393 30.7867C614.015 27.5793 611.384 24.5669 608.527 21.7783C608.527 21.7783 612.238 16.3125 613.771 12.7639C613.771 12.7639 511.872 0.77493 454.039 0.891469H453.427C418.101 1.01384 384.896 1.84128 352.038 13.7953C351.31 14.0546 350.153 14.4974 349.369 14.7917L348.533 15.1122C348.555 15.1221 348.579 15.128 348.603 15.1297C304.638 34.6209 258.544 79.7712 250.774 87.5676L249.635 88.733C241.518 88.2785 228.774 88.2086 222.356 88.2086C215.733 88.2086 212.342 88.0047 195.488 88.4999C195.488 88.4999 180.224 90.7608 158.944 101.2C148.748 106.213 139.032 112.151 129.92 118.937C129.652 119.124 129.395 119.319 129.145 119.52C125.96 121.886 122.735 124.449 119.516 127.2C118.306 128.201 117.192 129.311 116.188 130.518H116.168C113.027 134.399 110.848 140.284 112.928 151.443C113.027 151.906 113.118 152.361 113.22 152.833C113.22 152.833 108.485 155.455 107.684 168.737C107.518 171.604 107.518 174.477 107.684 177.344C108.048 184.08 109.216 192.608 111.707 203.393C112.171 205.433 112.625 207.542 113.164 209.66C114.161 213.593 115.46 217.561 117.703 221.212C122.656 229.256 132.218 235.8 153.472 237.26L154.772 237.338C154.772 237.338 162.612 237.268 176.078 237.134C176.06 237.082 176.045 237.028 176.034 236.974C174.53 232.013 173.563 226.904 173.15 221.737C172.981 219.735 172.902 217.704 172.902 215.659C172.902 199.052 178.33 183.885 187.292 172.298C195.741 161.366 207.328 153.625 220.471 150.875C223.979 150.148 227.552 149.781 231.134 149.779C234.36 149.776 237.579 150.077 240.749 150.68C248.53 152.176 255.888 155.359 262.308 160.003C265.756 162.483 268.93 165.323 271.777 168.475C282.627 180.438 289.366 197.153 289.366 215.656C289.366 217.203 289.319 218.762 289.214 220.283C288.899 225.568 288.006 230.802 286.551 235.893C286.551 235.911 286.551 235.928 286.534 235.946C371.832 234.949 475.351 233.498 521.862 231.96C521.594 230.777 521.355 229.583 521.16 228.373C520.419 224.175 520.05 219.919 520.056 215.656C520.056 215.397 520.056 215.129 520.073 214.872C520.303 191.786 531.028 171.555 547.102 160.003C547.504 159.709 547.911 159.425 548.322 159.149C557.08 153.194 567.333 149.776 578.296 149.776C579.782 149.776 581.262 149.838 582.71 149.963C589.483 150.548 596.078 152.44 602.131 155.533C620.821 165.023 634.279 185.333 636.272 209.415C636.458 211.455 636.54 213.547 636.54 215.656C636.54 217.87 636.441 222.899 636.248 225.07C640.267 224.651 644.138 223.325 647.57 221.192C651.486 218.672 654.592 214.73 656.87 208.16C658.56 203.32 659.783 197.062 660.582 188.902C661.934 175.269 663.312 145.339 650.836 136.867ZM582.296 52.8039C582.296 52.8039 577.186 55.0124 565.859 58.7125C565.509 58.829 565.145 58.9456 564.781 59.0708C562.208 59.8983 559.35 60.7957 556.174 61.7484L554.802 62.1679L550.184 63.5285C550.184 63.5285 534.262 68.2979 511.435 75.1824C511.435 75.1824 503.373 77.7376 491.739 80.5928L489.685 80.7005L488.421 80.753L481.327 81.091C481.327 81.091 349.879 87.4278 306.06 89.5517C303.968 89.6508 300.889 89.811 297.401 89.98C296.982 89.98 296.565 90.0062 296.146 90.0237C286.071 90.5219 273.353 91.1367 271.381 91.2357C271.212 91.2357 271.122 91.2357 271.122 91.2357C271.122 91.2357 271.238 91.0114 271.532 90.5686C271.888 89.9859 272.511 89.0448 273.461 87.7716C273.997 87.0694 274.627 86.2508 275.358 85.3505C277.068 83.2528 279.364 80.6248 282.388 77.5365C284.328 75.5525 286.563 73.3906 289.136 71.0395C300.341 60.8423 317.848 45.9689 344.492 30.7489C355.473 24.4761 369.003 18.1743 391.583 16.0474C395.399 15.692 398.756 15.3715 402.022 15.0947C416.537 13.8565 429.371 13.4136 473.658 13.638C491.69 13.737 529.052 15.9862 550.796 17.644L551.853 17.7227C555.842 18.014 559.277 18.3287 561.885 18.5676C563.772 18.7366 565.672 18.8589 568.32 23.0806L568.72 23.6137C570.278 25.7056 576.143 33.6187 580.744 40.1682C580.86 40.3459 580.977 40.4974 581.081 40.6576C582.538 42.6971 583.814 44.5937 584.811 46.1146C584.796 46.1117 588.24 50.2226 582.296 52.8039Z" fill="#E23614"/>
<g style="mix-blend-mode:screen" opacity="0.82">
<path d="M638.134 78.6373C611.639 90.6 530.676 100.273 488.73 104.829C474.944 106.327 465.358 107.277 463.319 107.58C463.319 107.58 386.237 112.119 296.755 115.609C261.793 116.961 219.577 119.339 184.682 120.044C184.21 120.044 187.249 118.91 186.777 118.919C184.953 118.954 184.953 118.954 183.147 118.98C170.444 119.213 158.047 119.374 146.145 119.452C145.271 119.452 144.397 119.452 143.523 119.47C140.435 119.47 137.373 119.49 134.354 119.49C137.871 116.221 141.431 113.249 145.009 110.534C145.055 110.526 145.1 110.514 145.143 110.499C151.684 108.489 160.407 106.129 169.209 103.868L169.52 103.789C175.802 102.178 182.121 100.649 187.73 99.3492C187.925 99.3026 188.137 99.2589 188.371 99.2064C190.497 98.7519 194.198 98.111 198.043 97.5778C201.524 97.2573 205.107 96.9222 208.794 96.5726L213.628 96.1182C231.304 94.4517 250.92 92.5841 271.533 90.5826C271.242 91.0254 271.114 91.2497 271.114 91.2497C271.114 91.2497 271.221 91.2497 271.382 91.2497C273.374 91.1506 286.074 90.5359 296.146 90.0377C296.574 90.0202 296.991 90.0028 297.411 89.994C300.907 89.825 303.978 89.6648 306.07 89.5657C349.894 87.4389 481.33 81.1021 481.33 81.1021L488.433 80.764L489.689 80.7116L491.743 80.6039C503.377 77.7486 511.438 75.1935 511.438 75.1935C534.277 68.3118 550.187 63.5396 550.187 63.5396C552.288 62.9248 554.29 62.3304 556.178 61.7594C559.353 60.8067 562.211 59.9093 564.784 59.0819C565.148 58.9566 565.512 58.8401 565.862 58.7236C577.181 55.0234 582.3 52.815 582.3 52.815C588.243 50.2337 584.791 46.114 584.791 46.114C583.812 44.5931 582.513 42.7052 581.079 40.657C594.19 37.3211 606.266 33.991 616.414 30.7891C623.301 39.9724 628.677 50.9562 632.869 62.3042C632.986 62.5781 633.082 62.8637 633.19 63.1317C634.099 65.614 634.95 68.1118 635.745 70.6252C636.596 73.2968 637.388 75.9772 638.134 78.6373Z" fill="#E23614"/>
</g>
<g style="mix-blend-mode:multiply" opacity="0.18">
<path d="M548.352 159.141C547.942 159.414 547.535 159.699 547.131 159.994C531.057 171.546 520.327 191.777 520.103 214.864C520.085 215.12 520.085 215.388 520.085 215.648C520.082 221.136 520.688 226.608 521.891 231.963C475.381 233.502 371.847 234.952 286.563 235.949C288.028 230.842 288.927 225.589 289.244 220.286C289.349 218.765 289.395 217.206 289.395 215.659C289.395 197.156 282.656 180.441 271.807 168.478L548.352 159.141Z" fill="#E23614"/>
</g>
<path d="M643.252 100.987C638.436 101.299 633.256 101.503 627.878 101.529C612.64 101.582 624.673 85.8663 636.618 73.4141C637.157 75.1622 637.658 76.9103 638.145 78.638C638.605 80.3103 639.048 81.9681 639.465 83.6229C640.307 86.9239 641.061 90.1812 641.746 93.3511L641.798 93.5899C642.224 95.574 642.623 97.5319 642.979 99.4461C643.063 99.953 643.168 100.48 643.252 100.987Z" fill="#C20909"/>
<path d="M641.787 93.592C636.199 92.8899 636.458 88.8489 639.456 83.625C640.298 86.926 641.053 90.1833 641.738 93.3532L641.787 93.592Z" fill="#DB1414"/>
<g style="mix-blend-mode:multiply" opacity="0.18">
<path d="M173.167 221.739C173.58 226.907 174.547 232.015 176.051 236.976L153.489 237.268L72.4945 238.281C55.8877 237.99 49.9616 237.585 49.9616 237.585C29.6226 236.484 19.0787 232.006 13.176 225.483C12.2862 224.505 11.4765 223.458 10.7548 222.351C9.99513 221.19 9.32038 219.976 8.73581 218.717C8.55808 218.336 8.3891 217.954 8.22011 217.552C7.30846 215.357 6.55296 213.1 5.95925 210.799C5.37655 208.68 4.89001 206.571 4.40054 204.532C4.20534 203.748 4.02761 202.973 3.84989 202.218C2.97584 198.489 2.28244 195.045 1.74053 191.858C1.55406 190.763 1.38508 189.696 1.22484 188.653C1.1083 187.852 1.0005 187.071 0.89561 186.305C0.399923 182.657 0.113948 178.984 0.0390625 175.304C0.0390625 175.161 0.0390625 175.012 0.0390625 174.867C26.5168 177.049 63.553 178.616 107.704 177.343C131.245 176.676 157.661 175.117 187.324 172.297C178.347 183.863 172.914 199.04 172.914 215.65C172.914 216.672 172.931 217.689 172.975 218.7C173.018 219.711 173.08 220.731 173.167 221.739Z" fill="#E23614"/>
</g>
<path d="M475.493 203.809C469.978 212.369 459.577 212.868 459.137 212.885C454.161 213.823 348.532 215.731 310.943 215.731C302.38 215.731 301.584 208.369 301.156 204.41L301.083 203.71C294.382 145.983 295.163 107.14 296.13 90.0233L297.389 89.9767C296.43 106.913 295.6 145.697 302.324 203.527L302.403 204.238C302.843 208.255 303.496 214.307 310.94 214.307C348.503 214.307 453.992 212.413 459.006 211.46C459.195 211.46 469.32 210.962 474.482 202.97C482.681 190.279 490.463 170.255 488.412 80.7497L489.67 80.6914C491.739 170.669 483.82 190.92 475.493 203.809Z" fill="#AD2A0F"/>
<path d="M179.186 212.415C178.948 244.635 201.842 270.976 230.327 271.238C258.812 271.5 282.094 245.599 282.333 213.394C282.571 181.188 259.677 154.832 231.189 154.576C202.701 154.32 179.425 180.212 179.186 212.415Z" fill="#243638"/>
<path d="M192.502 212.92C192.502 236.81 209.63 256.191 230.759 256.191C251.888 256.191 269.016 236.819 269.016 212.92C269.016 189.02 251.89 169.648 230.759 169.648C209.627 169.648 192.502 189.023 192.502 212.92Z" fill="#9BA1A5"/>
<path d="M198.261 212.92C198.257 216.856 198.817 220.772 199.921 224.55C203.793 237.71 214.066 247.546 226.559 249.361C227.945 249.576 229.344 249.682 230.746 249.679C231.279 249.679 231.801 249.664 232.331 249.632C246.316 248.886 257.97 238.153 261.859 223.595C262.42 221.483 262.809 219.33 263.025 217.156C263.171 215.748 263.245 214.334 263.246 212.92C263.246 201.085 258.293 190.553 250.622 183.849C249.14 182.535 247.533 181.369 245.823 180.367C241.063 177.493 235.582 176.036 230.023 176.168C224.464 176.301 219.058 178.016 214.439 181.113C214.244 181.25 214.052 181.366 213.857 181.498C212.366 182.523 210.965 183.675 209.67 184.938C209.516 185.069 209.361 185.23 209.204 185.375C202.5 192.111 198.261 201.95 198.261 212.92Z" fill="#101819"/>
<path d="M260.799 221.028C260.799 222.444 259.878 223.595 258.745 223.595H252.691C251.557 223.595 250.651 222.444 250.651 221.028V201.84C250.651 200.424 251.569 199.273 252.691 199.273H258.745C259.878 199.273 260.799 200.439 260.799 201.84V221.028Z" fill="#172224"/>
<path d="M253.909 211.155C253.909 225.609 243.548 237.324 230.77 237.324C217.991 237.324 207.631 225.609 207.631 211.155C207.631 196.701 217.991 184.98 230.77 184.98C243.548 184.98 253.909 196.701 253.909 211.155Z" fill="#1C292B"/>
<path d="M231.723 207.541L234.179 208.759L250.64 183.849C249.158 182.535 247.551 181.369 245.841 180.367L231.723 207.541Z" fill="#B3B8BC"/>
<path d="M209.7 184.939L227.898 209.936L229.771 207.74L214.458 181.113C214.263 181.25 214.07 181.367 213.875 181.498C212.389 182.524 210.992 183.675 209.7 184.939Z" fill="#B3B8BC"/>
<path d="M198.588 218.115C198.855 220.293 199.303 222.446 199.925 224.551L227.641 213.188L226.391 209.773L198.588 218.115Z" fill="#B3B8BC"/>
<path d="M226.574 249.361C227.959 249.575 229.359 249.682 230.761 249.678C231.294 249.678 231.816 249.664 232.346 249.632L232.113 216.578H229.109L226.574 249.361Z" fill="#B3B8BC"/>
<path d="M235.015 213.2L261.874 223.595C262.435 221.484 262.824 219.33 263.04 217.156L235.816 209.785L235.015 213.2Z" fill="#B3B8BC"/>
<path d="M224.261 212.918C224.261 216.974 227.174 220.269 230.758 220.269C234.341 220.269 237.258 216.974 237.258 212.918C237.258 208.863 234.344 205.57 230.758 205.57C227.171 205.57 224.261 208.86 224.261 212.918Z" fill="#DDDDDD"/>
<path d="M226.047 212.919C226.047 215.858 228.156 218.247 230.758 218.247C233.36 218.247 235.469 215.858 235.469 212.919C235.469 209.979 233.36 207.59 230.758 207.59C228.156 207.59 226.047 209.973 226.047 212.919Z" fill="#101819"/>
<path d="M228.046 196.923C228.046 198.22 229.01 199.275 230.202 199.275C231.393 199.275 232.355 198.22 232.355 196.923C232.355 195.627 231.391 194.566 230.202 194.566C229.013 194.566 228.046 195.624 228.046 196.923Z" fill="#A7A8A8"/>
<path d="M217.383 205.572C217.383 206.723 218.21 207.655 219.23 207.655C220.25 207.655 221.071 206.723 221.071 205.572C221.071 204.422 220.247 203.48 219.23 203.48C218.213 203.48 217.383 204.416 217.383 205.572Z" fill="#A7A8A8"/>
<path d="M219.987 222.353C219.987 223.518 220.815 224.439 221.831 224.439C222.848 224.439 223.679 223.509 223.679 222.353C223.679 221.196 222.851 220.27 221.831 220.27C220.812 220.27 219.987 221.202 219.987 222.353Z" fill="#A7A8A8"/>
<path d="M236.79 222.353C236.79 223.518 237.615 224.439 238.634 224.439C239.654 224.439 240.481 223.509 240.481 222.353C240.481 221.196 239.657 220.27 238.634 220.27C237.612 220.27 236.79 221.202 236.79 222.353Z" fill="#A7A8A8"/>
<path d="M240.047 205.501C240.047 206.666 240.874 207.59 241.894 207.59C242.914 207.59 243.738 206.661 243.738 205.501C243.738 204.342 242.911 203.418 241.894 203.418C240.877 203.418 240.047 204.353 240.047 205.501Z" fill="#A7A8A8"/>
<path d="M231.723 196.653C231.674 196.26 231.512 195.89 231.257 195.587C231.129 195.427 230.967 195.298 230.782 195.209C230.597 195.12 230.395 195.074 230.19 195.074C229.992 195.087 229.798 195.139 229.62 195.229C229.442 195.319 229.284 195.443 229.156 195.596C228.893 195.878 228.703 196.22 228.603 196.592C228.914 196.406 229.185 196.199 229.447 196.053C229.68 195.916 229.939 195.831 230.208 195.806C230.689 195.771 231.184 196.164 231.723 196.653Z" fill="#2F302E"/>
<path d="M219.661 203.868C219.298 203.828 218.933 203.923 218.635 204.134C218.456 204.251 218.302 204.404 218.183 204.583C218.063 204.761 217.982 204.962 217.942 205.174C217.867 205.607 217.938 206.052 218.143 206.441C218.312 206.779 218.564 207.068 218.874 207.283C218.784 206.895 218.67 206.558 218.609 206.228C218.54 205.934 218.529 205.629 218.577 205.331C218.656 204.801 219.113 204.34 219.661 203.868Z" fill="#2F302E"/>
<path d="M220.654 221.129C220.448 221.473 220.347 221.87 220.363 222.271C220.355 222.715 220.523 223.144 220.829 223.466C220.97 223.605 221.138 223.714 221.323 223.786C221.508 223.858 221.706 223.892 221.904 223.885C222.261 223.881 222.61 223.775 222.909 223.579C222.571 223.477 222.254 223.428 221.968 223.32C221.704 223.243 221.461 223.104 221.26 222.915C220.884 222.571 220.75 221.901 220.654 221.129Z" fill="#2F302E"/>
<path d="M237.701 223.61C237.988 223.836 238.344 223.956 238.709 223.948C238.914 223.944 239.116 223.895 239.299 223.804C239.482 223.713 239.643 223.582 239.77 223.421C240.024 223.068 240.153 222.64 240.137 222.206C240.137 221.81 240.044 221.42 239.866 221.066C239.776 221.451 239.732 221.812 239.642 222.133C239.575 222.42 239.453 222.691 239.283 222.931C238.98 223.354 238.386 223.502 237.701 223.61Z" fill="#2F302E"/>
<path d="M241.894 207.269C242.257 207.205 242.588 207.019 242.832 206.741C243.137 206.417 243.303 205.986 243.295 205.541C243.278 205.112 243.117 204.701 242.838 204.375C242.606 204.093 242.305 203.876 241.963 203.746C242.124 204.099 242.304 204.399 242.433 204.705C242.561 204.979 242.635 205.276 242.651 205.579C242.671 206.094 242.328 206.663 241.894 207.269Z" fill="#2F302E"/>
<path d="M227.641 205.501C227.268 204.481 226.831 203.508 226.42 202.515L224.791 199.84L221.537 194.497L218.282 189.148L216.66 186.473C215.981 185.689 215.334 184.877 214.62 184.113C214.999 185.13 215.439 186.103 215.844 187.1L217.47 189.774L220.724 195.12L223.987 200.47L225.61 203.147C226.286 203.931 226.93 204.744 227.641 205.501Z" fill="#DDDDDD"/>
<path d="M221.831 214.586C220.861 214.705 219.914 214.918 218.955 215.087L216.234 216.118L210.789 218.175L205.344 220.232L202.625 221.261C201.766 221.779 200.901 222.254 200.056 222.808C201.026 222.68 201.973 222.47 202.931 222.307L205.655 221.275L211.098 219.236L216.54 217.173L219.264 216.153C220.112 215.62 220.986 215.148 221.831 214.586Z" fill="#727B76"/>
<path d="M260.047 220.803C259.173 220.276 258.299 219.836 257.425 219.361L254.672 218.458L249.16 216.64L243.653 214.822L240.897 213.913C239.93 213.788 238.98 213.622 238.007 213.531C238.881 214.05 239.755 214.49 240.629 214.97L243.385 215.879L248.895 217.697L254.404 219.51L257.157 220.422C258.116 220.556 259.071 220.722 260.047 220.803Z" fill="#727B76"/>
<path d="M230.717 248.319C230.927 247.236 231.055 246.155 231.218 245.074V241.825L231.239 235.337L231.259 228.846V225.603C231.099 224.513 230.968 223.432 230.784 222.352C230.58 223.432 230.452 224.513 230.283 225.597V228.84L230.263 235.334L230.245 241.822L230.228 245.068C230.394 246.152 230.516 247.236 230.717 248.319Z" fill="#DDDDDD"/>
<path d="M248.839 184.062C248.111 184.8 247.449 185.592 246.756 186.361L245.069 188.983L241.695 194.228L238.318 199.472L236.629 202.094C236.2 203.082 235.74 204.034 235.335 205.043C236.06 204.302 236.722 203.51 237.421 202.744L239.108 200.122L242.485 194.877L245.859 189.633L247.548 187.011C247.982 186.032 248.446 185.071 248.839 184.062Z" fill="#727B76"/>
<path d="M195.135 212.916C195.135 190.697 211.118 172.625 230.758 172.625C250.398 172.625 266.384 190.689 266.384 212.916C266.384 235.143 250.412 253.203 230.758 253.203C211.104 253.203 195.135 235.14 195.135 212.916ZM195.784 212.916C195.784 234.729 211.474 252.475 230.746 252.475C250.019 252.475 265.723 234.729 265.723 212.916C265.723 191.102 250.042 173.374 230.758 173.374C211.474 173.374 195.784 191.102 195.784 212.916Z" fill="#2B2B2B"/>
<g style="mix-blend-mode:screen" opacity="0.82">
<path d="M163.3 107.574L144.263 132.808C144.263 132.808 96.1904 133.857 7.3291 134.195C7.85314 133.293 8.45771 132.441 9.13545 131.648H9.15295C9.81006 130.895 10.5146 130.185 11.2623 129.522C11.5041 129.3 11.7517 129.087 12.0023 128.881C12.2529 128.674 12.4568 128.499 12.6783 128.321L13.2114 127.893C13.9515 127.299 14.6905 126.716 15.4286 126.145C16.1599 125.562 16.8853 125.014 17.6283 124.461C18.0886 124.114 18.5431 123.767 19.0063 123.429C20.297 122.477 21.5789 121.541 22.8609 120.644C23.126 120.446 23.3941 120.251 23.6796 120.061C24.1341 119.741 24.5973 119.42 25.0489 119.109C26.3308 118.235 27.6041 117.361 28.8685 116.536C29.3026 116.245 29.7426 115.953 30.1854 115.662L31.9918 114.497L32.2598 114.336C32.624 114.106 32.9881 113.882 33.3436 113.661C34.4837 112.955 35.6142 112.27 36.7349 111.604C37.2885 111.274 37.8304 110.954 38.3723 110.642L38.55 110.537C60.4303 111.356 98.2153 112.894 163.3 107.574Z" fill="#E23614"/>
</g>
<g style="mix-blend-mode:multiply" opacity="0.18">
<path d="M660.608 188.893C659.815 197.051 658.586 203.312 656.896 208.151C654.617 214.721 651.512 218.663 647.596 221.183C644.164 223.316 640.293 224.642 636.274 225.061C636.469 222.89 636.565 217.862 636.565 215.648C636.565 213.538 636.484 211.455 636.297 209.407C634.305 185.324 620.856 165.014 602.157 155.525C618.861 150.689 635.119 144.427 650.751 136.809L650.833 136.864C663.311 145.336 661.933 175.267 660.608 188.893Z" fill="#E23614"/>
</g>
<path d="M471.255 102.841C471.255 102.841 462.013 100.667 458.22 100.933C454.426 101.198 450.353 102.599 447.827 104.487L445.497 104.644C443.344 104.793 441.709 106.99 441.82 108.901C441.93 110.812 443.772 112.581 445.922 112.435L448.495 112.257C451.224 113.679 455.26 114.451 458.942 114.195C462.625 113.938 466.544 112.604 469.093 110.812L471.665 110.626C473.821 110.474 475.453 108.464 475.351 106.547C475.249 104.63 473.419 102.692 471.255 102.841Z" fill="#AD2A0F"/>
<path d="M442.842 108.829C442.944 110.638 444.654 111.987 446.679 111.842C446.679 111.842 455.784 109.98 458.834 109.767C461.838 109.554 470.899 110.146 470.899 110.146C472.918 110.003 474.474 108.43 474.375 106.618C474.273 104.826 472.557 103.477 470.541 103.62C470.541 103.62 461.491 105.17 458.461 105.368C455.431 105.566 446.324 105.304 446.324 105.304C444.299 105.447 442.746 107.026 442.842 108.82V108.829Z" fill="#E23614"/>
<path d="M344.711 72.3296C344.227 74.6884 343.471 76.9831 342.458 79.1675C342.143 79.8457 341.789 80.5052 341.398 81.1429C340.2 83.1066 338.837 84.4671 337.479 84.7701C331.294 86.1424 303.89 90.0465 298.52 84.0447C298.361 83.8747 298.214 83.6926 298.083 83.4999C293.777 77.5331 304.222 68.9937 315.235 63.1958C326.574 57.1824 333.275 56.5531 340.425 58.071C342.555 58.5226 343.892 60.0609 344.611 62.1645C345.567 64.9206 345.468 68.6731 344.711 72.3296Z" fill="#F0421F"/>
<path d="M344.71 72.3292C344.227 74.6881 343.471 76.9828 342.458 79.1671C342.143 79.8453 341.789 80.5048 341.398 81.1425C340.2 83.1062 338.837 84.4667 337.479 84.7697C331.294 86.142 303.89 90.0461 298.52 84.0443C298.36 83.8743 298.214 83.6922 298.083 83.4995C307.188 77.7454 329.187 64.6493 344.611 62.1641C345.567 64.9202 345.468 68.6728 344.71 72.3292Z" fill="#E23614"/>
<path d="M344.711 72.3281C344.228 74.687 343.472 76.9817 342.459 79.1661H321.694V72.3281H344.711Z" fill="#B3BACF"/>
<path d="M525.97 212.414C525.731 244.634 548.628 270.975 577.11 271.237C605.592 271.499 628.88 245.598 629.116 213.393C629.352 181.187 606.46 154.832 577.975 154.572C549.49 154.313 526.209 180.211 525.97 212.414Z" fill="#243638"/>
<path d="M539.287 212.916C539.287 236.806 556.416 256.19 577.544 256.19C598.673 256.19 615.801 236.815 615.801 212.916C615.801 189.016 598.673 169.645 577.544 169.645C556.416 169.645 539.287 189.022 539.287 212.916Z" fill="#9BA1A5"/>
<path d="M545.051 212.917C545.047 216.853 545.607 220.769 546.711 224.547C550.583 237.71 560.854 247.546 573.349 249.359C574.734 249.576 576.134 249.683 577.536 249.679C578.066 249.679 578.591 249.662 579.121 249.632C593.106 248.887 604.745 238.15 608.646 223.592C609.208 221.481 609.598 219.327 609.812 217.153C609.955 215.745 610.028 214.332 610.03 212.917C610.03 201.085 605.077 190.553 597.406 183.849C595.925 182.534 594.319 181.368 592.611 180.367C587.851 177.493 582.37 176.036 576.811 176.168C571.253 176.301 565.847 178.016 561.229 181.113C561.031 181.247 560.836 181.364 560.647 181.498C559.156 182.522 557.756 183.673 556.463 184.939C556.306 185.067 556.148 185.23 555.994 185.376C549.287 192.112 545.051 201.95 545.051 212.917Z" fill="#101819"/>
<path d="M607.585 221.027C607.585 222.443 606.665 223.591 605.528 223.591H599.477C598.344 223.591 597.438 222.443 597.438 221.027V201.836C597.438 200.42 598.358 199.27 599.477 199.27H605.528C606.665 199.27 607.585 200.42 607.585 201.836V221.027Z" fill="#172224"/>
<path d="M600.683 211.155C600.683 225.609 590.323 237.324 577.544 237.324C564.766 237.324 554.408 225.609 554.408 211.155C554.408 196.701 564.766 184.98 577.544 184.98C590.323 184.98 600.683 196.701 600.683 211.155Z" fill="#1C292B"/>
<path d="M578.512 207.538L580.965 208.759L597.423 183.849C595.943 182.534 594.336 181.368 592.628 180.367L578.512 207.538Z" fill="#B3B8BC"/>
<path d="M556.489 184.939L574.684 209.933L576.56 207.74L561.247 181.113C561.049 181.247 560.854 181.364 560.664 181.498C559.176 182.523 557.779 183.674 556.489 184.939Z" fill="#B3B8BC"/>
<path d="M545.374 218.112C545.641 220.29 546.088 222.443 546.711 224.548L574.427 213.2L573.18 209.785L545.374 218.112Z" fill="#B3B8BC"/>
<path d="M573.36 249.357C574.745 249.574 576.145 249.681 577.547 249.677C578.077 249.677 578.602 249.66 579.132 249.631L578.899 216.574H575.895L573.36 249.357Z" fill="#B3B8BC"/>
<path d="M581.801 213.199L608.657 223.591C609.219 221.48 609.609 219.327 609.823 217.152L582.605 209.793L581.801 213.199Z" fill="#B3B8BC"/>
<path d="M571.047 212.915C571.047 216.974 573.96 220.266 577.544 220.266C581.128 220.266 584.044 216.974 584.044 212.915C584.044 208.857 581.13 205.57 577.544 205.57C573.957 205.57 571.047 208.857 571.047 212.915Z" fill="#DDDDDD"/>
<path d="M572.833 212.916C572.833 215.855 574.942 218.247 577.544 218.247C580.146 218.247 582.255 215.855 582.255 212.916C582.255 209.976 580.143 207.59 577.544 207.59C574.945 207.59 572.833 209.973 572.833 212.916Z" fill="#101819"/>
<path d="M574.829 196.923C574.829 198.22 575.796 199.272 576.988 199.272C578.18 199.272 579.144 198.22 579.144 196.923C579.144 195.627 578.177 194.566 576.988 194.566C575.799 194.566 574.829 195.621 574.829 196.923Z" fill="#A7A8A8"/>
<path d="M564.169 205.571C564.169 206.719 564.996 207.654 566.016 207.654C567.036 207.654 567.857 206.719 567.857 205.571C567.857 204.423 567.03 203.477 566.016 203.477C565.002 203.477 564.169 204.412 564.169 205.571Z" fill="#A7A8A8"/>
<path d="M566.773 222.352C566.773 223.517 567.598 224.435 568.618 224.435C569.637 224.435 570.462 223.508 570.462 222.352C570.462 221.195 569.634 220.266 568.618 220.266C567.601 220.266 566.773 221.201 566.773 222.352Z" fill="#A7A8A8"/>
<path d="M583.575 222.352C583.575 223.517 584.4 224.435 585.417 224.435C586.433 224.435 587.264 223.508 587.264 222.352C587.264 221.195 586.439 220.266 585.417 220.266C584.394 220.266 583.575 221.201 583.575 222.352Z" fill="#A7A8A8"/>
<path d="M586.833 205.501C586.833 206.666 587.66 207.59 588.677 207.59C589.694 207.59 590.522 206.658 590.522 205.501C590.522 204.344 589.697 203.418 588.677 203.418C587.658 203.418 586.833 204.35 586.833 205.501Z" fill="#A7A8A8"/>
<path d="M578.512 196.652C578.46 196.259 578.298 195.888 578.043 195.583C577.915 195.424 577.753 195.296 577.569 195.207C577.385 195.118 577.184 195.072 576.979 195.07C576.78 195.083 576.585 195.137 576.406 195.227C576.227 195.317 576.069 195.442 575.939 195.595C575.678 195.878 575.49 196.22 575.389 196.591C575.7 196.405 575.971 196.198 576.234 196.052C576.465 195.912 576.725 195.827 576.994 195.805C577.475 195.77 577.973 196.163 578.512 196.652Z" fill="#2F302E"/>
<path d="M566.447 203.868C566.084 203.828 565.72 203.922 565.421 204.131C565.241 204.249 565.086 204.402 564.967 204.581C564.847 204.761 564.765 204.962 564.725 205.174C564.653 205.606 564.723 206.05 564.926 206.438C565.097 206.776 565.348 207.066 565.657 207.283C565.573 206.896 565.456 206.555 565.392 206.226C565.325 205.932 565.315 205.628 565.363 205.331C565.444 204.801 565.896 204.34 566.447 203.868Z" fill="#2F302E"/>
<path d="M567.441 221.129C567.234 221.473 567.133 221.87 567.149 222.271C567.143 222.715 567.311 223.143 567.615 223.466C567.757 223.604 567.925 223.713 568.11 223.785C568.295 223.856 568.492 223.89 568.69 223.882C569.046 223.886 569.395 223.785 569.693 223.591C569.355 223.489 569.04 223.442 568.755 223.334C568.49 223.257 568.247 223.118 568.047 222.929C567.668 222.571 567.537 221.901 567.441 221.129Z" fill="#2F302E"/>
<path d="M584.487 223.607C584.773 223.835 585.13 223.956 585.495 223.948C585.7 223.944 585.902 223.895 586.085 223.804C586.269 223.713 586.429 223.582 586.556 223.421C586.808 223.066 586.936 222.638 586.92 222.203C586.923 221.808 586.831 221.418 586.652 221.066C586.562 221.451 586.515 221.812 586.428 222.133C586.361 222.419 586.238 222.689 586.066 222.928C585.755 223.354 585.172 223.488 584.487 223.607Z" fill="#2F302E"/>
<path d="M588.668 207.269C589.032 207.205 589.364 207.019 589.609 206.741C589.914 206.417 590.08 205.986 590.072 205.541C590.055 205.112 589.892 204.701 589.612 204.375C589.382 204.091 589.08 203.874 588.738 203.746C588.901 204.096 589.082 204.399 589.213 204.705C589.339 204.98 589.412 205.276 589.428 205.579C589.46 206.094 589.111 206.663 588.668 207.269Z" fill="#2F302E"/>
<path d="M574.427 205.501C574.054 204.481 573.617 203.508 573.203 202.515L571.577 199.84L568.323 194.497L565.069 189.148L563.446 186.473C562.764 185.689 562.12 184.877 561.406 184.113C561.788 185.127 562.228 186.103 562.633 187.097L564.259 189.774L567.513 195.12L570.764 200.467L572.39 203.147C573.072 203.931 573.716 204.744 574.427 205.501Z" fill="#DDDDDD"/>
<path d="M568.617 214.586C567.644 214.705 566.697 214.918 565.739 215.084L563.017 216.118L557.575 218.175L552.13 220.232L549.412 221.261C548.537 221.776 547.684 222.254 546.842 222.805C547.812 222.68 548.759 222.47 549.717 222.304L552.442 221.275L557.884 219.236L563.326 217.173L566.05 216.151C566.91 215.62 567.772 215.148 568.617 214.586Z" fill="#727B76"/>
<path d="M606.834 220.8C605.959 220.273 605.085 219.836 604.211 219.344L601.455 218.443L595.952 216.64L590.442 214.822L587.689 213.913C586.722 213.788 585.769 213.622 584.796 213.531C585.67 214.05 586.544 214.49 587.418 214.97L590.174 215.879L595.684 217.697L601.19 219.51L603.943 220.422C604.902 220.553 605.858 220.722 606.834 220.8Z" fill="#727B76"/>
<path d="M577.504 248.319C577.714 247.236 577.845 246.155 578.005 245.074V241.825L578.029 235.334L578.049 228.846V225.603C577.892 224.513 577.758 223.432 577.574 222.352C577.37 223.432 577.245 224.513 577.073 225.597V228.84L577.055 235.334L577.032 241.822L577.015 245.068C577.181 246.149 577.306 247.236 577.504 248.319Z" fill="#DDDDDD"/>
<path d="M595.629 184.062C594.898 184.8 594.233 185.589 593.546 186.358L591.856 188.98L588.482 194.225L585.105 199.469L583.413 202.091C582.987 203.079 582.539 204.032 582.122 205.04C582.845 204.3 583.509 203.507 584.205 202.741L585.895 200.119L589.272 194.874L592.646 189.63L594.335 187.008C594.769 186.032 595.233 185.071 595.629 184.062Z" fill="#727B76"/>
<path d="M541.921 212.916C541.921 190.697 557.901 172.625 577.544 172.625C597.187 172.625 613.17 190.689 613.17 212.916C613.17 235.143 597.187 253.203 577.544 253.203C557.901 253.203 541.921 235.14 541.921 212.916ZM542.571 212.916C542.571 234.729 558.26 252.475 577.532 252.475C596.805 252.475 612.494 234.729 612.494 212.916C612.494 191.102 596.826 173.374 577.544 173.374C558.263 173.374 542.571 191.102 542.571 212.916Z" fill="#2B2B2B"/>
<g style="mix-blend-mode:multiply" opacity="0.36">
<path d="M520.085 215.646C520.083 221.135 520.687 226.606 521.889 231.962C475.381 233.5 371.867 234.954 286.563 235.953C288.03 230.845 288.929 225.59 289.244 220.284C293.276 220.242 297.34 220.189 301.437 220.127C360.735 219.343 427.215 218.003 493.779 215.798C502.559 215.499 511.332 215.19 520.1 214.871C520.085 215.119 520.085 215.39 520.085 215.646Z" fill="#E23614"/>
</g>
<g style="mix-blend-mode:multiply" opacity="0.36">
<path d="M656.896 208.152C654.618 214.719 651.518 218.664 647.591 221.187C644.164 223.32 640.295 224.644 636.28 225.059C636.47 222.897 636.572 217.866 636.572 215.646C636.572 213.536 636.483 211.457 636.306 209.408C643.231 209.01 650.094 208.591 656.896 208.152Z" fill="#E23614"/>
</g>
<path d="M210.207 97.2794C210.211 97.6891 210.104 98.0921 209.895 98.4448C207.582 103.092 192.889 114.064 189.303 116.468C188.265 117.034 187.402 117.875 186.809 118.897C186.657 119.175 186.535 119.468 186.445 119.772C186.274 120.351 186.229 120.961 186.311 121.56C186.394 122.158 186.604 122.733 186.925 123.244C187.054 123.444 187.2 123.631 187.362 123.804C191.508 128.253 185.323 129.252 185.323 129.252C158.988 133.602 154.903 133.666 154.903 133.666C132.732 136.04 120.326 134.893 117.497 134.563L124.303 126.813C126.433 124.553 128.586 122.426 130.756 120.404C134.389 117.031 138.198 113.852 142.166 110.88C142.477 110.775 142.815 110.676 143.191 110.559C143.237 110.551 143.281 110.539 143.325 110.524C149.866 108.514 158.589 106.154 167.391 103.893L167.702 103.814C173.984 102.203 180.303 100.674 185.912 99.3742C186.107 99.3276 186.319 99.2839 186.552 99.2315C188.679 98.777 192.379 98.136 196.225 97.6028C200.158 97.0492 204.255 96.6151 206.976 96.5977C208.517 96.5977 209.63 96.7113 210.029 97.0318C210.075 97.0574 210.115 97.093 210.146 97.1358C210.177 97.1786 210.197 97.2276 210.207 97.2794Z" fill="#C1CAE0"/>
<path d="M174.482 111.17L159.099 112.429C157.432 112.566 156.002 114.11 155.189 116.347C154.478 115.31 153.543 114.71 152.532 114.794L146.087 115.322C143.995 115.494 142.378 118.527 142.48 122.061C142.582 125.595 144.362 128.345 146.454 128.179L152.902 127.649C153.91 127.567 154.807 126.816 155.457 125.668C156.395 127.759 157.904 129.065 159.571 128.928L174.954 127.663C177.64 127.445 179.712 123.584 179.583 119.019C179.455 114.454 177.165 110.949 174.482 111.17Z" fill="#A9B6BF"/>
<path opacity="0.45" d="M210.207 97.2771C210.211 97.6867 210.103 98.0897 209.895 98.4425C197.16 102.073 172.684 109.158 169.791 110.047C169.019 110.297 168.279 110.528 167.533 110.769C166.143 111.186 164.765 111.644 163.411 112.078L163.367 112.095C160.867 112.888 158.455 113.697 156.104 114.499C155.41 114.729 154.725 114.971 154.047 115.21C150.763 116.34 147.637 117.47 144.686 118.575C144.036 118.814 143.395 119.038 142.78 119.294C141.819 119.653 140.875 120.008 139.951 120.372C134.066 122.624 128.88 124.786 124.329 126.799C126.459 124.539 128.612 122.412 130.782 120.39C134.415 117.017 138.224 113.838 142.192 110.866C142.541 110.752 142.932 110.635 143.357 110.51C148.118 109.088 157.187 106.594 167.422 103.879L167.734 103.8C174.016 102.189 180.335 100.66 185.943 99.3602C186.139 99.3136 186.351 99.2699 186.584 99.2175C192.12 98.0521 208.246 95.5931 210.061 97.0178C210.103 97.048 210.137 97.0869 210.162 97.1316C210.187 97.1764 210.203 97.226 210.207 97.2771Z" fill="#E4EBF9"/>
<path d="M33.9966 130.007C34.0121 130.286 33.9186 130.56 33.736 130.771C33.5533 130.982 33.2957 131.113 33.0178 131.138C31.7096 131.211 30.5704 130.686 14.3103 129.066C14.3103 129.066 13.8121 129.066 11.9795 128.868C12.2009 128.673 12.4339 128.487 12.6554 128.309L13.1886 127.881C13.9286 127.286 14.6676 126.704 15.4057 126.133C16.137 125.55 16.8624 125.002 17.6054 124.449C18.0657 124.102 18.5202 123.755 18.9835 123.417C20.2741 122.464 21.5561 121.529 22.838 120.632C23.1031 120.434 23.3712 120.239 23.6567 120.049C24.1112 119.729 24.5744 119.408 25.026 119.096C26.308 118.222 27.5812 117.348 28.8456 116.524C29.2797 116.232 29.7197 115.941 30.1625 115.65L31.9689 114.484L31.9951 114.537C32.0505 114.662 32.1116 114.796 32.1641 114.93C32.2544 115.125 32.3331 115.329 32.4059 115.533C32.4787 115.737 32.54 115.871 32.5924 116.052C32.8523 116.801 33.0663 117.564 33.2334 118.339C33.4963 119.563 33.6909 120.802 33.8161 122.048L33.9966 130.007Z" fill="#C1CAE0"/>
<path d="M25.0338 119.109C24.6521 121.816 23.309 123.739 21.7241 123.622L18.9912 123.427C20.2819 122.474 21.5638 121.539 22.8457 120.642C23.1109 120.444 23.3789 120.249 23.6645 120.059C24.119 119.742 24.5822 119.421 25.0338 119.109Z" fill="#A9B6BF"/>
<path opacity="0.45" d="M33.2499 118.362C31.834 117.78 30.3656 117.15 28.8535 116.536C29.2876 116.244 29.7276 115.953 30.1704 115.661L31.9768 114.496L32.003 114.549C32.0584 114.674 32.1195 114.808 32.1719 114.942C32.2623 115.137 32.3409 115.341 32.4138 115.545C32.4866 115.749 32.5478 115.883 32.6002 116.064C32.8635 116.816 33.0805 117.584 33.2499 118.362Z" fill="#E4EBF9"/>
<path d="M110.335 131.482C110.335 133.134 109.51 134.463 108.511 134.46L38.4622 134.137C37.4629 134.137 36.6617 132.794 36.6675 131.142C36.6557 130.401 36.8418 129.671 37.2065 129.026C37.5386 128.484 37.9902 128.152 38.4914 128.152L108.54 128.476C109.54 128.484 110.344 129.828 110.335 131.482Z" fill="#182527"/>
<path d="M110.335 131.485C110.335 133.137 109.511 134.466 108.512 134.463L38.4627 134.14C37.4634 134.14 36.6622 132.796 36.668 131.145L110.335 131.485Z" fill="#24373B"/>
<path d="M163.209 167.16C163.014 168.31 162.756 169.448 162.437 170.569C162.437 170.569 159.774 182.774 148.761 191.077C148.592 191.184 148.41 191.27 148.219 191.333C148.219 191.333 141.352 196.08 114.423 195.348C114.423 195.348 108.069 196.441 109.088 185.507L109.922 176.003L110.615 168.023C110.615 168.023 110.866 163.006 116.704 162.551C116.704 162.551 132.338 161.555 161.176 159.996C161.176 159.996 164.415 159.996 163.209 167.16Z" fill="#F74420"/>
<path d="M163.209 167.161L157.493 169.606L115.029 176.015H109.922L110.615 168.035C110.615 168.035 110.866 163.018 116.704 162.564C116.704 162.564 132.338 161.567 161.176 160.009C161.176 159.997 164.416 159.997 163.209 167.161Z" fill="#BF2E11"/>
<path d="M116.667 165.684C116.667 165.684 131.056 164.892 157.604 163.645C157.604 163.645 161.462 163.645 158.77 172.079C158.77 172.079 156.313 181.825 146.172 188.45C146.011 188.534 145.843 188.604 145.67 188.66C145.67 188.66 139.354 192.447 114.56 191.865C114.56 191.865 108.713 192.739 109.648 183.998L111.052 170.04C111.052 170.04 111.286 166.048 116.667 165.684Z" fill="#1B292B"/>
<path d="M137.078 172.614V182.812C137.077 184.114 136.69 185.386 135.967 186.469C135.243 187.551 134.215 188.395 133.012 188.894C131.809 189.392 130.486 189.524 129.208 189.271C127.931 189.018 126.757 188.392 125.835 187.473C125.472 187.112 125.154 186.707 124.891 186.267C124.242 185.234 123.899 184.038 123.903 182.817V172.62C123.902 171.317 124.287 170.042 125.01 168.958C125.733 167.874 126.762 167.029 127.966 166.529C129.17 166.03 130.495 165.9 131.773 166.154C133.051 166.408 134.225 167.036 135.147 167.959C135.31 168.125 135.455 168.291 135.604 168.471C136.556 169.642 137.077 171.105 137.078 172.614Z" fill="#BFC8DD"/>
<path d="M135.604 168.471L124.891 186.244C124.242 185.21 123.899 184.014 123.903 182.794V172.597C123.902 171.293 124.287 170.019 125.01 168.935C125.733 167.85 126.762 167.005 127.966 166.506C129.17 166.007 130.495 165.876 131.773 166.131C133.051 166.385 134.225 167.013 135.147 167.935C135.31 168.13 135.455 168.291 135.604 168.471Z" fill="#CFD9F0"/>
<path d="M7.69023 191.851C5.46432 191.95 3.48899 191.942 1.72633 191.851C1.53987 190.756 1.37088 189.69 1.21064 188.647C1.0941 187.845 0.986298 187.065 0.881413 186.298C0.385725 182.651 0.0997153 178.978 0.0248294 175.297C0.00734852 174.379 0.00734852 173.499 0.0248294 172.675C0.0423103 171.696 0.0801928 170.761 0.141376 169.881C0.240434 168.278 0.409415 166.828 0.613359 165.511C0.657061 165.219 0.712423 164.928 0.764866 164.637C0.951329 163.594 1.164 162.658 1.40582 161.805C4.69806 162.116 6.39954 162.285 6.39954 162.285C9.70052 162.696 9.8433 167.215 9.8433 167.215L10.2337 174.408L10.7057 182.968C11.2855 192.83 7.69023 191.851 7.69023 191.851Z" fill="#F74420"/>
<path d="M10.2333 174.415H7.34017L3.74494 173.541L0.0244141 172.667C0.041895 171.688 0.0797774 170.753 0.140961 169.873C0.240019 168.271 0.409 166.82 0.612944 165.503C0.656646 165.211 0.712008 164.92 0.764451 164.629C0.950914 163.586 1.16358 162.651 1.4054 161.797C4.69764 162.109 6.39912 162.278 6.39912 162.278C9.7001 162.688 9.84288 167.207 9.84288 167.207L10.2333 174.415Z" fill="#BF2E11"/>
<path d="M7.60855 188.701C5.16996 188.789 3.05186 188.762 1.19888 188.655C1.08234 187.853 0.974544 187.072 0.869658 186.306C0.373971 182.659 0.0879965 178.985 0.0131107 175.305C-0.00437023 174.387 -0.00437023 173.507 0.0131107 172.683C0.0305916 171.704 0.0684385 170.769 0.129622 169.889C0.22868 168.286 0.397661 166.835 0.601605 165.519C0.645307 165.227 0.700669 164.936 0.753112 164.645C4.46489 164.936 6.40528 165.114 6.40528 165.114C9.44696 165.443 9.58099 169.05 9.58099 169.05L9.91896 174.416L10.3735 181.624C10.9241 189.494 7.60855 188.701 7.60855 188.701Z" fill="#1B292B"/>
<path d="M3.74536 171.36V180.543C3.7573 181.606 3.56746 182.661 3.18595 183.652C3.04723 184.031 2.86851 184.395 2.6528 184.736C2.24974 185.438 1.62747 185.989 0.881413 186.303C0.385725 182.656 0.0997153 178.983 0.0248294 175.302C0.00734852 174.384 0.00734852 173.504 0.0248294 172.68C0.0423103 171.701 0.0801927 170.766 0.141376 169.886C0.240434 168.283 0.409415 166.833 0.613359 165.516C2.38476 165.958 3.74536 168.42 3.74536 171.36Z" fill="#BFC8DD"/>
<path d="M3.74536 171.36V180.543C3.7573 181.606 3.56746 182.661 3.18595 183.652L0.0248294 175.302C0.00734852 174.384 0.00734852 173.504 0.0248294 172.68C0.0423103 171.701 0.0801927 170.766 0.141376 169.886C0.240434 168.283 0.409415 166.833 0.613359 165.516C2.38476 165.958 3.74536 168.42 3.74536 171.36Z" fill="#CFD9F0"/>
<g style="mix-blend-mode:multiply" opacity="0.36">
<path d="M176.052 236.966L153.49 237.257L72.4951 238.271C55.8882 237.98 49.9621 237.575 49.9621 237.575C29.6231 236.473 19.0792 231.995 13.1765 225.472C12.2867 224.495 11.477 223.447 10.7554 222.34C9.99565 221.179 9.3209 219.965 8.73633 218.707H172.996C173.039 219.724 173.095 220.746 173.182 221.734C173.59 226.899 174.553 232.006 176.052 236.966Z" fill="#E23614"/>
</g>
<path d="M8.20617 217.541C7.29581 215.345 6.54034 213.088 5.9453 210.787C5.3626 208.669 4.87606 206.56 4.38659 204.52C4.19139 203.737 4.01366 202.962 3.83594 202.207L102.67 202.688C107.699 202.705 119.315 210.528 119.277 215.487V216.99C119.28 217.35 119.257 217.709 119.207 218.065C118.922 220.258 117.842 222.271 116.172 223.721C114.502 225.17 112.358 225.957 110.146 225.932L13.162 225.468L8.20617 217.541Z" fill="#182527"/>
<path d="M8.20605 217.543L119.21 218.067C118.925 220.261 117.845 222.273 116.174 223.723C114.504 225.173 112.36 225.959 110.149 225.934L13.1648 225.471L8.20605 217.543Z" fill="#24373B"/>
</svg>
