<svg width="288" height="86" viewBox="0 0 288 86" fill="none" xmlns="http://www.w3.org/2000/svg">
<path d="M151.612 4.61489C151.612 4.61489 147.925 4.61489 146.922 4.61489C142.404 4.73643 137.971 5.85194 133.949 7.87955C120.16 14.8934 114.843 31.4418 111.589 41.0109C111.589 41.0685 111.589 41.1031 111.53 41.1608C111.437 41.4723 111.343 41.7376 111.249 41.9914V42.026C111.026 42.6028 110.809 43.1796 110.622 43.6872L89.8627 44.2063L83.4492 44.4544C83.4492 44.4544 83.6075 43.8776 83.8889 42.9489C83.9827 42.7009 84.0764 42.424 84.1996 42.1183V42.0837C84.3872 41.6223 84.5454 41.132 84.7858 40.5783C87.5342 33.1371 91.2444 26.0749 95.8249 19.5655C96.3232 18.8618 96.886 18.1523 97.5133 17.414C105.017 7.75267 115.869 -0.61091 130.56 0.0351046L150.229 0.773424L151.571 4.46491L151.612 4.61489Z" fill="url(#paint0_radial_818_5730)"/>
<path d="M144.407 1.0666C142.103 4.49278 137.518 1.28579 137.899 1.14736C138.28 1.00893 144.407 1.0666 144.407 1.0666Z" fill="white"/>
<path style="mix-blend-mode:multiply" opacity="0.5" d="M151.611 4.61872C151.611 4.61872 147.924 4.61872 146.921 4.61872C142.403 4.74027 137.97 5.85578 133.948 7.88339C120.159 14.8973 114.842 31.4456 111.588 41.0147C111.588 41.0724 111.588 41.107 111.53 41.1647H109.185C109.113 41.1358 109.033 41.1358 108.962 41.1647L91.5151 41.0436H88.7363L88.8301 40.8878L107.15 9.54457L121.719 4.65333L151.547 4.46875L151.611 4.61872Z" fill="url(#paint1_linear_818_5730)"/>
<path d="M121.719 4.6516C104.366 11.354 94.5819 31.1036 90.6482 40.9899C90.5192 41.3591 90.3668 41.6994 90.273 42.0339H90.2378C90.144 42.2819 90.0854 42.4953 89.9916 42.7145L83.9239 42.8991H83.707L83.9884 42.0685C85.8292 37.085 89.6164 27.9139 95.8365 19.5157C96.3348 18.812 96.8976 18.1025 97.5249 17.3642C103.247 10.2292 110.909 4.04596 120.817 2.01562L121.719 4.6516Z" fill="url(#paint2_radial_818_5730)"/>
<path d="M146.922 4.61719L145.544 8.67785L134.382 8.82782L133.948 7.8761L132.447 4.70948L146.922 4.61719Z" fill="url(#paint3_radial_818_5730)"/>
<path d="M134.944 41.9062L133.977 46.5495L133.133 50.5467L113.464 51.931L78.8873 54.3305L65.4739 55.288L64.6297 50.7313L64.2194 48.6721L63.0352 42.212L78.1662 42.1485L83.9525 42.1197H84.1987L90.2019 42.0908H90.237L100.426 42.0562L111.248 41.9985L134.944 41.9062Z" fill="url(#paint4_radial_818_5730)"/>
<path d="M131.486 42.2109C128.918 44.5873 118.037 42.2109 118.037 42.2109H131.486Z" fill="white"/>
<path d="M79.0749 57.7451L64.9698 55.2879L64.2839 50.7312L64.0025 48.672L63.0352 42.2119L78.1662 42.1484L78.5121 48.0549L78.6352 50.1198L78.8873 54.3304L79.0749 57.7451Z" fill="url(#paint5_radial_818_5730)"/>
<path d="M111.589 41.0083C111.589 41.066 111.589 41.1006 111.53 41.1583C111.436 41.4698 111.342 41.7351 111.249 41.9889V42.0235H100.427L90.2376 42.0523H84.1992C84.3868 41.5909 84.5451 41.1006 84.7855 40.5469C86.04 40.668 87.3826 40.7603 88.8541 40.8526C89.4403 40.916 90.0265 40.9449 90.6655 40.9795C90.9565 40.9939 91.2481 40.9939 91.539 40.9795C96.6042 41.2563 102.578 41.3775 108.986 41.1006C109.057 41.0718 109.137 41.0718 109.209 41.1006C109.965 41.1006 110.78 41.066 111.589 41.0083Z" fill="url(#paint6_radial_818_5730)"/>
<path d="M253.476 75.0219C232.529 81.0783 198.884 85.7561 144.797 85.2947C144.328 85.2947 143.859 85.2947 143.39 85.2947L137.258 85.2024C130.223 85.0755 123.599 84.8909 117.279 84.6256L110.871 84.3487C109.529 84.2564 108.215 84.193 106.932 84.1295C104.211 83.9795 101.556 83.8238 98.9879 83.6393C84.2662 82.7426 69.6032 81.0791 55.0604 78.6557L51.9943 78.0789C51.9793 78.0622 51.9582 78.0519 51.9357 78.0501C51.606 78.0192 51.2802 77.9574 50.9625 77.8655C48.213 77.3694 45.5866 76.8157 43.1185 76.262C0.252078 66.6352 0 52.671 0 52.3595C0 52.3595 9.72584 51.5289 26.4808 50.4561C36.8632 49.7754 49.9307 49.0371 65.0031 48.3334H65.22C69.7869 48.1142 74.6 47.9297 79.5128 47.7163C91.2025 47.2548 103.807 46.8568 117.156 46.5627C122.971 46.4127 128.91 46.3204 134.978 46.2281C182.282 45.5186 236.469 46.3204 287.988 50.6868C287.994 50.6868 288.809 64.8356 253.476 75.0219Z" fill="url(#paint7_linear_818_5730)"/>
<path style="mix-blend-mode:screen" opacity="0.9" d="M232.427 49.3884C197.252 88.4723 205.94 48.0156 205.94 48.0156L232.427 49.3884Z" fill="url(#paint8_linear_818_5730)"/>
<path d="M234.689 50.0409C184.559 47.2549 243.84 48.5643 245.341 49.5737C246.841 50.5831 234.689 50.0409 234.689 50.0409Z" fill="white"/>
<path style="mix-blend-mode:multiply" opacity="0.4" d="M7 53.4299C10.9665 62.3821 40.9617 74.3639 58.8696 77.7127C79.5823 80.8792 84.8103 83.6504 124 84C113.233 74.6071 103.991 63.3903 97.719 50C60.0901 50.7954 28.0295 52.2545 7 53.4299Z" fill="url(#paint9_linear_818_5730)"/>
<defs>
<radialGradient id="paint0_radial_818_5730" cx="0" cy="0" r="1" gradientUnits="userSpaceOnUse" gradientTransform="translate(120.377 16.7507) scale(34.401 33.8465)">
<stop offset="0.01" stop-color="#BC98BD"/>
<stop offset="1" stop-color="#E0B8CA"/>
</radialGradient>
<linearGradient id="paint1_linear_818_5730" x1="115.563" y1="-0.02451" x2="121.319" y2="29.4683" gradientUnits="userSpaceOnUse">
<stop stop-color="#880041"/>
<stop offset="1" stop-color="white"/>
</linearGradient>
<radialGradient id="paint2_radial_818_5730" cx="0" cy="0" r="1" gradientUnits="userSpaceOnUse" gradientTransform="translate(102.696 22.5093) scale(19.9207 19.5996)">
<stop stop-color="#A77CA7"/>
<stop offset="0.99" stop-color="#715F84"/>
</radialGradient>
<radialGradient id="paint3_radial_818_5730" cx="0" cy="0" r="1" gradientUnits="userSpaceOnUse" gradientTransform="translate(138.562 7.39736) scale(11.9008 11.709)">
<stop stop-color="#A77CA7"/>
<stop offset="0.99" stop-color="#715F84"/>
</radialGradient>
<radialGradient id="paint4_radial_818_5730" cx="0" cy="0" r="1" gradientUnits="userSpaceOnUse" gradientTransform="translate(98.9897 48.5971) scale(25.877 25.4599)">
<stop stop-color="#E0B8CA"/>
<stop offset="0.99" stop-color="#BC98BD"/>
</radialGradient>
<radialGradient id="paint5_radial_818_5730" cx="0" cy="0" r="1" gradientUnits="userSpaceOnUse" gradientTransform="translate(71.055 49.9468) scale(7.97297 7.84446)">
<stop stop-color="#A77CA7"/>
<stop offset="0.99" stop-color="#715F84"/>
</radialGradient>
<radialGradient id="paint6_radial_818_5730" cx="0" cy="0" r="1" gradientUnits="userSpaceOnUse" gradientTransform="translate(22.9186 23.543) scale(52.7272 51.877)">
<stop stop-color="#A77CA7"/>
<stop offset="0.99" stop-color="#715F84"/>
</radialGradient>
<linearGradient id="paint7_linear_818_5730" x1="318.901" y1="72.6282" x2="13.975" y2="58.0249" gradientUnits="userSpaceOnUse">
<stop stop-color="#FFF29A"/>
<stop offset="0.13" stop-color="#FFEE9A"/>
<stop offset="0.26" stop-color="#FFE29A"/>
<stop offset="0.4" stop-color="#FFCD99"/>
<stop offset="0.53" stop-color="#FFB198"/>
<stop offset="0.55" stop-color="#FFAC98"/>
<stop offset="1" stop-color="#FFA981"/>
</linearGradient>
<linearGradient id="paint8_linear_818_5730" x1="197.674" y1="94.2287" x2="219.556" y2="46.3825" gradientUnits="userSpaceOnUse">
<stop/>
<stop offset="1" stop-color="#FF8E27"/>
</linearGradient>
<linearGradient id="paint9_linear_818_5730" x1="-43.3792" y1="54.1594" x2="129.071" y2="74.5762" gradientUnits="userSpaceOnUse">
<stop stop-color="#BF006D"/>
<stop offset="1" stop-color="white"/>
</linearGradient>
</defs>
</svg>
