<svg width="375" height="213" viewBox="0 0 375 213" fill="none" xmlns="http://www.w3.org/2000/svg">
<path d="M270.93 58.2693C270.933 58.2358 270.933 58.2022 270.93 58.1686C270.93 56.4175 269.503 54.7145 266.898 53.1603V22.3796C269.499 20.8255 270.93 19.14 270.93 17.3757C270.638 16.8582 270.484 16.2738 270.484 15.6793C270.484 15.0848 270.638 14.5003 270.93 13.9829C270.93 6.26469 243.613 0 209.912 0C176.211 0 148.915 6.28658 148.915 13.9829C149.205 14.5013 149.357 15.0853 149.357 15.6793C149.357 16.2732 149.205 16.8573 148.915 17.3757C148.915 19.1269 150.342 20.8255 152.947 22.3796V53.1603C150.342 54.7145 148.915 56.4 148.915 58.1686V58.37C149.174 58.8613 149.309 59.4083 149.309 59.9636C149.309 60.5189 149.174 61.0658 148.915 61.5571C148.915 63.3083 150.342 65.0068 152.947 66.5654V106.632C150.342 108.186 148.915 109.871 148.915 111.64V111.841C149.174 112.333 149.309 112.879 149.309 113.435C149.309 113.99 149.174 114.537 148.915 115.028C148.915 116.779 150.342 118.478 152.947 120.032V156.71C150.342 158.264 148.915 159.954 148.915 161.718C149.205 162.236 149.357 162.819 149.357 163.412C149.357 164.006 149.205 164.589 148.915 165.107C148.915 172.834 176.233 179.09 209.929 179.09C243.626 179.09 270.948 172.834 270.948 165.107C270.655 164.59 270.501 164.006 270.501 163.412C270.501 162.819 270.655 162.235 270.948 161.718C270.948 159.967 269.516 158.268 266.916 156.71V120.032C269.516 118.478 270.948 116.793 270.948 115.028C270.689 114.537 270.554 113.99 270.554 113.435C270.554 112.879 270.689 112.333 270.948 111.841C270.942 111.774 270.942 111.707 270.948 111.64C270.948 109.889 269.521 108.186 266.916 106.632V66.561C269.516 65.0069 270.948 63.3214 270.948 61.5571C270.689 61.0658 270.554 60.5189 270.554 59.9636C270.554 59.4083 270.689 58.8613 270.948 58.37C270.944 58.3361 270.938 58.3025 270.93 58.2693Z" fill="url(#paint0_linear_613_9448)"/>
<g style="mix-blend-mode:soft-light" opacity="0.44">
<path d="M270.935 58.1685C270.937 58.202 270.937 58.2356 270.935 58.2691C270.915 58.8272 270.765 59.3729 270.497 59.8627C269.893 61.0141 268.671 62.126 266.912 63.1767C258.121 68.4301 235.921 72.1513 209.925 72.1513C183.929 72.1513 161.729 68.4258 152.943 63.1767C151.192 62.126 149.961 61.0141 149.353 59.8627C149.087 59.3721 148.937 58.8268 148.915 58.2691V58.1685C148.915 56.4173 150.342 54.7143 152.947 53.1602V59.1972C155.298 65.8078 180.09 71.0175 210.367 71.0175C238.416 71.0175 261.781 66.5477 266.916 60.6332V53.1908C269.508 54.7143 270.935 56.3998 270.935 58.1685Z" fill="white"/>
</g>
<path d="M266.904 53.1581V60.6004C261.769 66.5149 238.405 70.9848 210.356 70.9848C180.096 70.9848 155.286 65.7882 152.936 59.1645V53.1274C161.722 47.874 183.922 44.1484 209.918 44.1484C235.914 44.1484 258.114 47.9046 266.904 53.1581Z" fill="#24247C"/>
<g style="mix-blend-mode:soft-light" opacity="0.44">
<path d="M270.931 111.738C270.933 111.771 270.933 111.805 270.931 111.839C270.926 112.431 270.776 113.013 270.493 113.533C269.889 114.689 268.668 115.801 266.908 116.847C258.117 122.1 235.917 125.821 209.921 125.821C183.925 125.821 161.725 122.096 152.939 116.847C151.188 115.796 149.957 114.689 149.349 113.533C149.066 113.013 148.915 112.431 148.911 111.839V111.637C148.911 109.886 150.338 108.183 152.943 106.629V112.666C155.294 119.277 180.086 124.486 210.363 124.486C238.412 124.486 261.777 120.016 266.912 114.102V106.66C269.517 108.214 270.944 109.899 270.944 111.668C270.941 111.691 270.936 111.715 270.931 111.738Z" fill="white"/>
</g>
<path d="M266.904 106.634V114.077C261.769 119.991 238.405 124.461 210.356 124.461C180.096 124.461 155.286 119.264 152.936 112.641V106.604C161.722 101.35 183.922 97.6289 209.918 97.6289C235.914 97.6289 258.114 101.385 266.904 106.634Z" fill="#24247C"/>
<g style="mix-blend-mode:soft-light" opacity="0.44">
<path d="M270.935 161.702C270.93 162.294 270.78 162.876 270.497 163.396C266.85 170.322 241.122 175.684 209.925 175.684C178.728 175.684 153.013 170.322 149.353 163.396C149.07 162.876 148.919 162.294 148.915 161.702C148.915 153.979 176.233 147.719 209.929 147.719C243.626 147.719 270.935 153.997 270.935 161.702Z" fill="white"/>
</g>
<g style="mix-blend-mode:multiply" opacity="0.27">
<path d="M270.935 165.108C270.935 172.835 243.617 179.091 209.916 179.091C176.215 179.091 148.915 172.835 148.915 165.108C148.919 164.516 149.07 163.934 149.353 163.414C153 170.34 178.728 175.703 209.925 175.703C241.122 175.703 266.837 170.34 270.497 163.414C270.78 163.934 270.93 164.516 270.935 165.108Z" fill="#950087"/>
</g>
<path d="M266.904 13.9873V60.6247C261.769 66.5392 238.405 71.009 210.356 71.009C180.096 71.009 155.286 65.8125 152.936 59.1888V13.9873C152.936 7.12286 178.445 1.55859 209.922 1.55859C241.399 1.55859 266.904 7.12286 266.904 13.9873Z" fill="url(#paint1_linear_613_9448)"/>
<path d="M266.904 63.1992V114.114C261.769 120.028 238.405 124.498 210.356 124.498C180.096 124.498 155.286 119.302 152.936 112.678V63.1992C161.722 68.4527 183.922 72.1738 209.918 72.1738C235.914 72.1738 258.114 68.4264 266.904 63.1992Z" fill="url(#paint2_linear_613_9448)"/>
<path d="M266.904 158.393H266.467C266.741 158.849 266.892 159.368 266.904 159.899C266.904 166.764 241.39 172.328 209.922 172.328C178.454 172.328 152.936 166.764 152.936 159.899C152.948 159.368 153.099 158.849 153.373 158.393H152.936V116.852C161.722 122.105 183.922 125.826 209.918 125.826C235.914 125.826 258.114 122.101 266.904 116.852V158.393Z" fill="url(#paint3_linear_613_9448)"/>
<g style="mix-blend-mode:soft-light" opacity="0.44">
<path d="M270.935 13.9829C270.93 14.5764 270.78 15.1597 270.497 15.6815C266.85 22.6029 241.122 27.9658 209.925 27.9658C178.728 27.9658 153.013 22.6029 149.353 15.6815C149.07 15.1598 148.919 14.5764 148.915 13.9829C148.915 6.26469 176.233 0 209.929 0C243.626 0 270.935 6.28658 270.935 13.9829Z" fill="white"/>
</g>
<g style="mix-blend-mode:multiply" opacity="0.27">
<path d="M270.935 61.5575C270.935 69.2801 243.617 75.5404 209.916 75.5404C176.215 75.5404 148.915 69.2801 148.915 61.5575C148.919 60.9653 149.07 60.3834 149.353 59.8633C153 66.7847 178.728 72.1519 209.925 72.1519C241.122 72.1519 266.837 66.7847 270.497 59.8633C270.78 60.3835 270.93 60.9654 270.935 61.5575Z" fill="#950087"/>
</g>
<g style="mix-blend-mode:multiply" opacity="0.27">
<path d="M270.935 115.026C270.935 122.749 243.617 129.009 209.916 129.009C176.215 129.009 148.915 122.736 148.915 115.026C148.919 114.434 149.07 113.852 149.353 113.332C153 120.253 178.728 125.616 209.925 125.616C241.122 125.616 266.837 120.253 270.497 113.332C270.78 113.852 270.93 114.434 270.935 115.026Z" fill="#950087"/>
</g>
<g style="mix-blend-mode:multiply" opacity="0.27">
<path d="M270.935 17.3739C270.935 25.0965 243.617 31.3568 209.916 31.3568C176.215 31.3568 148.915 25.1096 148.915 17.3739C148.919 16.7818 149.07 16.1998 149.353 15.6797C153 22.6011 178.728 27.964 209.925 27.964C241.122 27.964 266.837 22.6011 270.497 15.6797C270.78 16.1999 270.93 16.7818 270.935 17.3739Z" fill="#950087"/>
</g>
<path d="M221.496 102.945C221.496 106.016 220.276 108.961 218.104 111.133C215.933 113.304 212.988 114.524 209.916 114.524C206.845 114.524 203.9 113.304 201.728 111.133C199.557 108.961 198.337 106.016 198.337 102.945C198.337 96.5488 205.022 85.7179 209.916 81.0117C214.623 86.0944 221.496 96.5488 221.496 102.945Z" fill="#1E1E1E"/>
<path d="M210.355 26.6171C242.169 26.6171 267.959 20.8703 267.959 13.7812C267.959 6.69214 242.169 0.945312 210.355 0.945312C178.541 0.945312 152.751 6.69214 152.751 13.7812C152.751 20.8703 178.541 26.6171 210.355 26.6171Z" fill="#005887"/>
<g style="mix-blend-mode:multiply" opacity="0.27">
<path d="M252.5 9.35109V11.54C252.5 11.6259 252.482 11.7107 252.448 11.7895C251.9 13.0241 247.352 13.9785 241.823 13.9785C236.293 13.9785 231.753 13.0153 231.197 11.7895C231.16 11.7117 231.141 11.6264 231.141 11.54V9.35109H237.116C240.245 9.01839 243.4 9.01839 246.529 9.35109H252.5Z" fill="#950087"/>
</g>
<path d="M231.141 11.5391C231.141 11.6256 231.16 11.7109 231.198 11.7889H231.141V11.5391Z" fill="#1010BF"/>
<path d="M252.501 11.5391V11.7889H252.448C252.482 11.71 252.5 11.625 252.501 11.5391Z" fill="#1010BF"/>
<g style="mix-blend-mode:soft-light" opacity="0.44">
<path d="M241.823 11.5351C247.722 11.5351 252.505 10.4394 252.505 9.08785C252.505 7.73628 247.722 6.64062 241.823 6.64062C235.923 6.64062 231.141 7.73628 231.141 9.08785C231.141 10.4394 235.923 11.5351 241.823 11.5351Z" fill="white"/>
</g>
<path d="M270.935 58.3858C270.93 58.978 270.78 59.5599 270.497 60.0801C269.893 61.2358 268.671 62.3434 266.912 63.3941C258.121 68.6475 235.921 72.3687 209.925 72.3687C183.929 72.3687 161.729 68.6431 152.943 63.3941C151.192 62.3434 149.961 61.2358 149.353 60.0801C149.07 59.5599 148.919 58.978 148.915 58.3858V58.2852C148.937 58.8429 149.087 59.3881 149.353 59.8787C149.961 61.0301 151.183 62.142 152.943 63.1927C161.729 68.4462 183.929 72.1673 209.925 72.1673C235.921 72.1673 258.121 68.4418 266.912 63.1927C268.663 62.142 269.893 61.0301 270.497 59.8787C270.765 59.3889 270.915 58.8432 270.935 58.2852C270.937 58.3187 270.937 58.3523 270.935 58.3858Z" fill="url(#paint4_linear_613_9448)"/>
<path d="M374.533 79.7928C374.535 79.7578 374.535 79.7227 374.533 79.6877C374.533 77.9366 373.106 76.2335 370.501 74.6794V43.9031C373.101 42.3489 374.533 40.659 374.533 38.8948C374.24 38.3781 374.086 37.7944 374.086 37.2005C374.086 36.6067 374.24 36.023 374.533 35.5063C374.533 27.7838 347.215 21.5234 313.514 21.5234C279.813 21.5234 252.5 27.7838 252.5 35.5063C252.79 36.0239 252.942 36.6073 252.942 37.2005C252.942 37.7938 252.79 38.3771 252.5 38.8948C252.5 40.6459 253.927 42.3489 256.532 43.9031V74.6794C253.927 76.2335 252.5 77.9234 252.5 79.6877V79.8891C252.759 80.3804 252.894 80.9273 252.894 81.4826C252.894 82.0379 252.759 82.5849 252.5 83.0762C252.5 84.8273 253.927 86.5303 256.532 88.0844V128.151C253.927 129.705 252.5 131.395 252.5 133.159V133.36C252.759 133.852 252.894 134.399 252.894 134.954C252.894 135.509 252.759 136.056 252.5 136.547C252.5 138.299 253.927 140.001 256.532 141.556V178.233C253.927 179.787 252.5 181.473 252.5 183.237C252.79 183.756 252.942 184.34 252.942 184.934C252.942 185.528 252.79 186.112 252.5 186.63C252.5 194.353 279.813 200.613 313.514 200.613C347.215 200.613 374.533 194.353 374.533 186.63C374.24 186.113 374.086 185.528 374.086 184.934C374.086 184.339 374.24 183.755 374.533 183.237C374.533 181.486 373.101 179.787 370.501 178.233V141.564C373.101 140.01 374.533 138.32 374.533 136.556C374.274 136.065 374.139 135.518 374.139 134.963C374.139 134.407 374.274 133.86 374.533 133.369C374.535 133.337 374.535 133.305 374.533 133.273C374.535 133.238 374.535 133.203 374.533 133.168C374.533 131.416 373.106 129.714 370.501 128.159V88.0932C373.101 86.539 374.533 84.8492 374.533 83.0849C374.274 82.5936 374.139 82.0467 374.139 81.4914C374.139 80.9361 374.274 80.3891 374.533 79.8978C374.536 79.8629 374.536 79.8277 374.533 79.7928Z" fill="url(#paint5_linear_613_9448)"/>
<g style="mix-blend-mode:soft-light" opacity="0.44">
<path d="M374.537 79.688C374.54 79.723 374.54 79.7581 374.537 79.7931C374.518 80.3497 374.368 80.894 374.1 81.3822C373.495 82.538 372.27 83.6499 370.514 84.6962C361.723 89.9497 339.523 93.6709 313.527 93.6709C287.532 93.6709 265.332 89.9453 256.545 84.6962C254.794 83.6456 253.564 82.538 252.955 81.3822C252.689 80.8931 252.54 80.3494 252.518 79.7931V79.688C252.518 77.9368 253.945 76.2338 256.55 74.6797V80.7124C258.901 87.323 283.692 92.5326 313.965 92.5326C342.019 92.5326 365.383 88.0628 370.518 82.1483V74.706C373.11 76.2339 374.537 77.9237 374.537 79.688Z" fill="white"/>
</g>
<path d="M370.506 74.6771V82.1195C365.371 88.034 342.006 92.5037 313.953 92.5037C283.697 92.5037 258.888 87.3072 256.537 80.6835V74.6465C265.323 69.3931 287.524 65.6719 313.519 65.6719C339.515 65.6719 361.715 69.4281 370.506 74.6771Z" fill="#24247C"/>
<g style="mix-blend-mode:soft-light" opacity="0.44">
<path d="M374.534 133.242C374.536 133.274 374.536 133.307 374.534 133.339C374.529 133.932 374.379 134.515 374.096 135.037C373.492 136.189 372.266 137.301 370.51 138.351C361.719 143.605 339.519 147.321 313.524 147.321C287.528 147.321 265.328 143.596 256.541 138.351C254.79 137.296 253.56 136.189 252.951 135.037C252.668 134.515 252.518 133.932 252.514 133.339V133.137C252.514 131.386 253.941 129.683 256.546 128.129V134.166C258.897 140.777 283.688 145.986 313.961 145.986C342.015 145.986 365.379 141.516 370.515 135.602V128.16C373.141 129.714 374.547 131.404 374.547 133.168C374.543 133.193 374.539 133.218 374.534 133.242Z" fill="white"/>
</g>
<path d="M370.506 128.15V135.592C365.371 141.507 342.006 145.976 313.953 145.976C283.697 145.976 258.888 140.78 256.537 134.156V128.119C265.323 122.866 287.524 119.145 313.519 119.145C339.515 119.145 361.715 122.901 370.506 128.15Z" fill="#24247C"/>
<g style="mix-blend-mode:soft-light" opacity="0.44">
<path d="M374.537 183.237C374.533 183.83 374.383 184.414 374.1 184.935C370.453 191.857 344.724 197.22 313.527 197.22C282.331 197.22 256.615 191.857 252.955 184.935C252.672 184.414 252.522 183.83 252.518 183.237C252.518 175.514 279.831 169.254 313.532 169.254C347.233 169.254 374.537 175.514 374.537 183.237Z" fill="white"/>
</g>
<g style="mix-blend-mode:multiply" opacity="0.27">
<path d="M374.538 186.628C374.538 194.35 347.22 200.611 313.519 200.611C279.818 200.611 252.505 194.35 252.505 186.628C252.509 186.036 252.66 185.454 252.943 184.934C256.589 191.855 282.318 197.218 313.515 197.218C344.711 197.218 370.427 191.855 374.087 184.934C374.374 185.453 374.529 186.035 374.538 186.628Z" fill="#950087"/>
</g>
<path d="M370.506 35.4986V82.136C365.371 88.0505 342.006 92.5202 313.953 92.5202C283.697 92.5202 258.888 87.3237 256.537 80.7V35.4986C256.537 28.6385 282.047 23.0742 313.519 23.0742C344.992 23.0742 370.506 28.6385 370.506 35.4986Z" fill="url(#paint6_linear_613_9448)"/>
<path d="M370.506 84.6953V135.61C365.371 141.524 342.006 145.994 313.953 145.994C283.697 145.994 258.888 140.798 256.537 134.174V84.6953C265.323 89.9487 287.524 93.6699 313.519 93.6699C339.515 93.6699 361.715 89.9444 370.506 84.6953Z" fill="url(#paint7_linear_613_9448)"/>
<path d="M370.506 179.909H370.09C370.356 180.365 370.499 180.882 370.506 181.41C370.506 188.275 344.992 193.839 313.519 193.839C282.047 193.839 256.537 188.275 256.537 181.41C256.551 180.88 256.702 180.363 256.975 179.909H256.537V138.367C265.323 143.621 287.524 147.337 313.519 147.337C339.515 147.337 361.715 143.612 370.506 138.367V179.909Z" fill="url(#paint8_linear_613_9448)"/>
<g style="mix-blend-mode:soft-light" opacity="0.44">
<path d="M374.537 35.5063C374.533 36.0984 374.383 36.6803 374.1 37.2005C370.453 44.1263 344.724 49.4892 313.527 49.4892C282.331 49.4892 256.615 44.1263 252.955 37.2005C252.672 36.6804 252.522 36.0985 252.518 35.5063C252.518 27.7838 279.831 21.5234 313.532 21.5234C347.233 21.5234 374.537 27.7838 374.537 35.5063Z" fill="white"/>
</g>
<g style="mix-blend-mode:multiply" opacity="0.27">
<path d="M374.538 83.0731C374.538 90.7957 347.22 97.056 313.519 97.056C279.818 97.056 252.505 90.7957 252.505 83.0731C252.509 82.481 252.66 81.899 252.943 81.3789C256.589 88.3047 282.318 93.6675 313.515 93.6675C344.711 93.6675 370.427 88.3047 374.087 81.3789C374.374 81.8979 374.529 82.4799 374.538 83.0731Z" fill="#950087"/>
</g>
<g style="mix-blend-mode:multiply" opacity="0.27">
<path d="M374.538 136.546C374.538 144.268 347.22 150.529 313.519 150.529C279.818 150.529 252.505 144.268 252.505 136.546C252.509 135.954 252.66 135.372 252.943 134.852C256.589 141.777 282.318 147.14 313.515 147.14C344.711 147.14 370.427 141.777 374.087 134.852C374.374 135.371 374.529 135.953 374.538 136.546Z" fill="#950087"/>
</g>
<g style="mix-blend-mode:multiply" opacity="0.27">
<path d="M374.538 38.8934C374.538 46.616 347.22 52.8764 313.519 52.8764C279.818 52.8764 252.505 46.616 252.505 38.8934C252.509 38.3013 252.66 37.7193 252.943 37.1992C256.589 44.125 282.318 49.4879 313.515 49.4879C344.711 49.4879 370.427 44.125 374.087 37.1992C374.374 37.7182 374.529 38.3002 374.538 38.8934Z" fill="#950087"/>
</g>
<path d="M325.099 124.464C325.099 127.535 323.879 130.481 321.708 132.652C319.536 134.824 316.591 136.044 313.52 136.044C310.449 136.044 307.504 134.824 305.332 132.652C303.16 130.481 301.94 127.535 301.94 124.464C301.94 118.073 308.625 107.237 313.52 102.531C318.226 107.614 325.099 118.073 325.099 124.464Z" fill="#1E1E1E"/>
<path d="M313.953 48.1327C345.766 48.1327 371.556 42.3859 371.556 35.2968C371.556 28.2078 345.766 22.4609 313.953 22.4609C282.139 22.4609 256.349 28.2078 256.349 35.2968C256.349 42.3859 282.139 48.1327 313.953 48.1327Z" fill="#005887"/>
<g style="mix-blend-mode:multiply" opacity="0.27">
<path d="M356.103 30.8589V33.0478C356.103 33.1337 356.085 33.2187 356.05 33.2973C355.503 34.5319 350.954 35.4863 345.425 35.4863C339.896 35.4863 335.356 34.5231 334.8 33.2973C334.762 33.2197 334.743 33.1343 334.743 33.0478V30.8589H340.719C343.848 30.5262 347.003 30.5262 350.131 30.8589H356.103Z" fill="#950087"/>
</g>
<path d="M334.743 33.0586C334.743 33.1451 334.762 33.2306 334.8 33.3084H334.743V33.0586Z" fill="#1010BF"/>
<path d="M356.102 33.0586V33.3084H356.05C356.084 33.2296 356.102 33.1446 356.102 33.0586Z" fill="#1010BF"/>
<g style="mix-blend-mode:soft-light" opacity="0.44">
<path d="M345.425 33.0546C351.325 33.0546 356.107 31.9589 356.107 30.6074C356.107 29.2558 351.325 28.1602 345.425 28.1602C339.526 28.1602 334.743 29.2558 334.743 30.6074C334.743 31.9589 339.526 33.0546 345.425 33.0546Z" fill="white"/>
</g>
<path d="M374.537 79.8893C374.533 80.4814 374.383 81.0633 374.1 81.5835C373.495 82.7393 372.27 83.8513 370.514 84.8976C361.723 90.151 339.523 93.8722 313.528 93.8722C287.532 93.8722 265.332 90.1466 256.545 84.8976C254.794 83.8513 253.564 82.7393 252.955 81.5835C252.672 81.0634 252.522 80.4814 252.518 79.8893V79.793C252.54 80.3493 252.689 80.8931 252.955 81.3821C253.564 82.5379 254.785 83.6455 256.545 84.6962C265.332 89.9496 287.532 93.6708 313.528 93.6708C339.523 93.6708 361.723 89.9452 370.514 84.6962C372.265 83.6498 373.495 82.5379 374.1 81.3821C374.368 80.8939 374.518 80.3496 374.537 79.793C374.54 79.825 374.54 79.8572 374.537 79.8893Z" fill="url(#paint9_linear_613_9448)"/>
<path d="M69.032 208.471H68.9269C67.1758 208.65 65.3458 207.402 63.5334 204.968L32.9015 208.107C31.6188 210.852 30.0866 212.446 28.331 212.625C27.7414 212.68 27.1473 212.588 26.6018 212.358C26.1128 212.693 25.5491 212.904 24.9601 212.971C17.2769 213.759 8.26728 187.22 4.8219 153.695C1.37652 120.169 4.82188 92.361 12.5182 91.5729C13.1154 91.5166 13.7172 91.6099 14.2693 91.8444C14.7563 91.5046 15.3208 91.2923 15.911 91.2271C17.6621 91.0476 19.4877 92.2996 21.3002 94.7294L51.9189 91.5948C53.1972 88.8455 54.7339 87.252 56.4894 87.0725H56.5945H56.6908C57.2054 87.2813 57.7634 87.361 58.3159 87.3045C58.8684 87.2481 59.3986 87.0572 59.8604 86.7485C61.6115 86.569 63.4415 87.8211 65.2539 90.2508L105.092 86.1706C106.375 83.4213 107.912 81.8278 109.667 81.6483H109.768H109.864C110.38 81.8572 110.938 81.9368 111.491 81.8804C112.045 81.8239 112.576 81.633 113.038 81.3244C114.789 81.1449 116.615 82.3969 118.427 84.8266L154.917 81.0923C156.195 78.343 157.727 76.7495 159.483 76.57C160.028 76.8055 160.625 76.8974 161.216 76.8369C161.807 76.7763 162.372 76.5654 162.858 76.2241C170.542 75.4361 179.551 101.975 182.997 135.496C186.442 169.017 182.996 196.834 175.3 197.622C174.756 197.384 174.16 197.29 173.569 197.351C172.978 197.411 172.413 197.624 171.929 197.968C170.178 198.148 168.348 196.895 166.536 194.466L130.051 198.204C128.768 200.949 127.236 202.543 125.48 202.722C124.965 202.517 124.407 202.438 123.856 202.495C123.304 202.551 122.773 202.741 122.311 203.046H122.21H122.109C120.358 203.226 118.528 201.978 116.716 199.544L76.8771 203.629C75.5988 206.374 74.0622 207.967 72.3066 208.147C71.7914 207.94 71.2335 207.862 70.6812 207.919C70.129 207.976 69.599 208.167 69.1371 208.475L69.032 208.471Z" fill="url(#paint10_linear_613_9448)"/>
<g style="mix-blend-mode:soft-light" opacity="0.44">
<path d="M68.928 208.483H69.033C69.5849 208.405 70.1111 208.2 70.5697 207.883C71.6554 207.16 72.636 205.83 73.5028 203.973C77.8282 194.697 79.2728 172.234 76.6242 146.374C73.9756 120.514 68.0086 98.804 61.8927 90.5999C60.6669 88.9582 59.4411 87.855 58.2328 87.369C57.7191 87.1504 57.1615 87.0545 56.6043 87.0888H56.4992C54.7481 87.2683 53.207 88.84 51.9287 91.6112L57.9352 90.9939C64.7471 92.6619 72.4478 116.823 75.5254 146.912C78.3841 174.817 76.3222 198.519 70.9549 204.227L63.5126 204.989C65.3469 207.414 67.1725 208.662 68.928 208.483Z" fill="white"/>
</g>
<path d="M63.5479 204.983L70.9903 204.222C76.3575 198.53 78.4326 174.811 75.5607 146.907C72.4962 116.809 64.7825 92.6562 57.9705 90.9883L51.9641 91.6056C47.6344 100.882 46.1897 123.345 48.8383 149.205C51.4869 175.065 57.4189 196.771 63.5479 204.983Z" fill="#24247C"/>
<g style="mix-blend-mode:soft-light" opacity="0.44">
<path d="M122.211 203.023H122.311C122.901 202.958 123.465 202.748 123.953 202.411C125.039 201.688 126.019 200.362 126.882 198.505C131.207 189.224 132.652 166.762 130.008 140.902C127.363 115.042 121.392 93.3317 115.276 85.1276C114.05 83.4859 112.825 82.3827 111.612 81.8968C111.06 81.6623 110.458 81.569 109.861 81.6253H109.764H109.664C107.913 81.8048 106.372 83.3984 105.089 86.1477L111.095 85.5304C117.912 87.1984 125.608 111.36 128.69 141.449C131.549 169.353 129.482 193.051 124.119 198.764L116.677 199.521C118.489 201.955 120.315 203.203 122.071 203.023H122.211Z" fill="white"/>
</g>
<path d="M116.73 199.534L124.172 198.776C129.535 193.085 131.614 169.366 128.743 141.461C125.678 111.364 117.964 87.2109 111.148 85.543L105.142 86.1602C100.816 95.4369 99.3715 117.9 102.02 143.76C104.669 169.62 110.614 191.325 116.73 199.534Z" fill="#24247C"/>
<g style="mix-blend-mode:soft-light" opacity="0.44">
<path d="M171.943 197.938C172.533 197.872 173.097 197.659 173.584 197.321C180.099 192.987 182.813 166.847 179.634 135.812C176.456 104.778 168.502 79.7318 161.247 76.8073C160.695 76.5742 160.093 76.4824 159.496 76.5403C151.818 77.3239 148.368 105.136 151.805 138.662C155.241 172.188 164.26 198.726 171.943 197.938Z" fill="white"/>
</g>
<g style="mix-blend-mode:multiply" opacity="0.27">
<path d="M175.315 197.599C182.998 196.811 186.444 168.998 183.011 135.473C179.579 101.947 170.569 75.4127 162.873 76.2007C162.284 76.2671 161.72 76.4776 161.231 76.8136C168.49 79.738 176.449 104.788 179.618 135.818C182.788 166.849 180.083 192.993 173.568 197.327C174.119 197.562 174.719 197.655 175.315 197.599Z" fill="#950087"/>
</g>
<path d="M24.5846 208.983L70.9899 204.233C76.3572 198.542 78.4322 174.823 75.5604 146.918C72.4958 116.821 64.7821 92.668 57.9701 91L12.9569 95.5968C6.12747 96.2972 3.1943 122.245 6.39014 153.555C9.58598 184.866 17.7376 209.675 24.5846 208.983Z" fill="url(#paint11_linear_613_9448)"/>
<path d="M73.5027 203.96L124.15 198.776C129.513 193.085 131.593 169.366 128.721 141.461C125.656 111.364 117.942 87.2109 111.126 85.543L61.8926 90.5863C68.0216 98.7904 73.9755 120.496 76.6241 146.36C79.2727 172.225 77.828 194.683 73.5027 203.96Z" fill="url(#paint12_linear_613_9448)"/>
<path d="M168.222 194.26L168.182 193.849C168.664 194.066 169.193 194.155 169.719 194.107C176.549 193.407 179.482 167.463 176.286 136.153C173.09 104.842 164.947 80.0331 158.122 80.7291C157.595 80.7895 157.093 80.9855 156.664 81.2982L156.625 80.8824L115.298 85.1157C121.427 93.3198 127.381 115.025 130.029 140.89C132.678 166.754 131.229 189.213 126.904 198.494L168.222 194.26Z" fill="url(#paint13_linear_613_9448)"/>
<g style="mix-blend-mode:soft-light" opacity="0.44">
<path d="M24.9786 212.98C25.5677 212.913 26.1313 212.703 26.6203 212.368C33.1346 208.034 35.8488 181.893 32.6705 150.854C29.4922 119.815 21.5376 94.7738 14.2835 91.8538C13.7313 91.6193 13.1295 91.526 12.5323 91.5824C4.85355 92.3704 1.40381 120.183 4.83606 153.704C8.2683 187.226 17.2955 213.769 24.9786 212.98Z" fill="white"/>
</g>
<g style="mix-blend-mode:multiply" opacity="0.27">
<path d="M72.3029 208.138C79.9904 207.354 83.4314 179.542 79.9991 146.016C76.5669 112.49 67.5572 85.9517 59.8609 86.7398C59.2723 86.8059 58.7094 87.0181 58.2236 87.3571C65.4821 90.2771 73.4367 115.327 76.6107 146.357C79.7846 177.388 77.0747 203.537 70.5561 207.871C71.1071 208.104 71.7074 208.195 72.3029 208.138Z" fill="#950087"/>
</g>
<g style="mix-blend-mode:multiply" opacity="0.27">
<path d="M125.495 202.693C133.178 201.909 136.623 174.096 133.191 140.571C129.759 107.045 120.749 80.5064 113.053 81.2944C112.463 81.3597 111.898 81.5719 111.411 81.9117C118.67 84.8318 126.629 109.882 129.798 140.912C132.968 171.942 130.262 198.091 123.748 202.426C124.299 202.659 124.899 202.75 125.495 202.693Z" fill="#950087"/>
</g>
<g style="mix-blend-mode:multiply" opacity="0.27">
<path d="M28.3501 212.638C36.0333 211.854 39.4787 184.042 36.0465 150.516C32.6142 116.99 23.6046 90.4517 15.9083 91.2398C15.3181 91.305 14.7536 91.5172 14.2666 91.857C21.5251 94.777 29.484 119.827 32.6536 150.857C35.8232 181.888 33.1176 208.037 26.6034 212.371C27.1543 212.604 27.7547 212.696 28.3501 212.638Z" fill="#950087"/>
</g>
<path d="M108.438 154.741C111.459 154.387 114.22 152.859 116.123 150.486C118.027 148.114 118.921 145.088 118.611 142.062C118.302 139.036 116.814 136.253 114.47 134.315C112.126 132.377 109.113 131.439 106.083 131.704C99.7176 132.357 89.6223 140.11 85.4414 145.459C90.975 149.623 102.073 155.393 108.438 154.741Z" fill="#1E1E1E"/>
<path d="M24.5115 209.979C31.5637 209.257 34.6519 183.015 31.4093 151.367C28.1667 119.719 19.8212 94.6488 12.769 95.3714C5.71687 96.0939 2.62865 122.336 5.87125 153.984C9.11385 185.632 17.4594 210.702 24.5115 209.979Z" fill="#005887"/>
<g style="mix-blend-mode:multiply" opacity="0.27">
<path d="M18.4815 195.121L20.6704 194.893C20.7575 194.888 20.8417 194.861 20.9156 194.815C22.0845 194.145 22.5792 189.522 22.0144 184.023C21.4497 178.525 20.0313 174.094 18.7485 173.674C18.6666 173.648 18.5801 173.639 18.4946 173.648L16.3057 173.871L16.9142 179.812C16.902 181.385 16.978 182.958 17.1419 184.522C17.2997 186.086 17.5437 187.639 17.873 189.176L18.4815 195.121Z" fill="#950087"/>
</g>
<path d="M18.4902 173.647C18.5759 173.639 18.6624 173.648 18.7445 173.674V173.621L18.4902 173.647Z" fill="#1010BF"/>
<path d="M20.666 194.893H20.9158V194.836C20.8386 194.875 20.7527 194.895 20.666 194.893Z" fill="#1010BF"/>
<g style="mix-blend-mode:soft-light" opacity="0.44">
<path d="M18.2702 195.089C19.6147 194.951 20.2172 190.082 19.6159 184.213C19.0146 178.345 17.4372 173.699 16.0927 173.837C14.7481 173.974 14.1457 178.844 14.747 184.712C15.3483 190.581 16.9257 195.227 18.2702 195.089Z" fill="white"/>
</g>
<path d="M69.1295 208.469C69.7191 208.401 70.2828 208.189 70.7712 207.852C71.8569 207.129 72.8375 205.803 73.7043 203.947C78.0297 194.666 79.4744 172.203 76.8258 146.343C74.1772 120.483 68.2102 98.773 62.0943 90.5689C60.8729 88.9272 59.6426 87.824 58.4344 87.338C57.8821 87.1039 57.2804 87.0106 56.6832 87.0666H56.5869C57.1442 87.0322 57.7017 87.1282 58.2155 87.3468C59.4238 87.8327 60.6496 88.9359 61.8754 90.5776C68.0044 98.7817 73.9583 120.487 76.6069 146.352C79.2555 172.216 77.8108 194.674 73.4854 203.951C72.6099 205.807 71.638 207.138 70.5523 207.861C70.0937 208.177 69.5676 208.383 69.0157 208.46L69.1295 208.469Z" fill="url(#paint14_linear_613_9448)"/>
<defs>
<linearGradient id="paint0_linear_613_9448" x1="148.902" y1="89.5448" x2="270.935" y2="89.5448" gradientUnits="userSpaceOnUse">
<stop offset="0.01" stop-color="#007AB3"/>
<stop offset="0.76" stop-color="#004C79"/>
<stop offset="1" stop-color="#005887"/>
</linearGradient>
<linearGradient id="paint1_linear_613_9448" x1="152.936" y1="36.2838" x2="266.904" y2="36.2838" gradientUnits="userSpaceOnUse">
<stop offset="0.01" stop-color="#007AB3"/>
<stop offset="0.76" stop-color="#004C79"/>
<stop offset="1" stop-color="#005887"/>
</linearGradient>
<linearGradient id="paint2_linear_613_9448" x1="152.936" y1="93.8267" x2="266.904" y2="93.8267" gradientUnits="userSpaceOnUse">
<stop offset="0.01" stop-color="#007AB3"/>
<stop offset="0.76" stop-color="#004C79"/>
<stop offset="1" stop-color="#005887"/>
</linearGradient>
<linearGradient id="paint3_linear_613_9448" x1="152.936" y1="144.59" x2="266.904" y2="144.59" gradientUnits="userSpaceOnUse">
<stop offset="0.01" stop-color="#007AB3"/>
<stop offset="0.76" stop-color="#004C79"/>
<stop offset="1" stop-color="#005887"/>
</linearGradient>
<linearGradient id="paint4_linear_613_9448" x1="148.902" y1="65.316" x2="270.935" y2="65.316" gradientUnits="userSpaceOnUse">
<stop offset="0.01" stop-color="#007AB3"/>
<stop offset="0.76" stop-color="#004C79"/>
<stop offset="1" stop-color="#005887"/>
</linearGradient>
<linearGradient id="paint5_linear_613_9448" x1="252.504" y1="111.068" x2="374.537" y2="111.068" gradientUnits="userSpaceOnUse">
<stop offset="0.01" stop-color="#007AB3"/>
<stop offset="0.76" stop-color="#004C79"/>
<stop offset="1" stop-color="#005887"/>
</linearGradient>
<linearGradient id="paint6_linear_613_9448" x1="256.537" y1="57.795" x2="370.506" y2="57.795" gradientUnits="userSpaceOnUse">
<stop offset="0.01" stop-color="#007AB3"/>
<stop offset="0.76" stop-color="#004C79"/>
<stop offset="1" stop-color="#005887"/>
</linearGradient>
<linearGradient id="paint7_linear_613_9448" x1="256.537" y1="115.345" x2="370.506" y2="115.345" gradientUnits="userSpaceOnUse">
<stop offset="0.01" stop-color="#007AB3"/>
<stop offset="0.76" stop-color="#004C79"/>
<stop offset="1" stop-color="#005887"/>
</linearGradient>
<linearGradient id="paint8_linear_613_9448" x1="256.537" y1="166.101" x2="370.506" y2="166.101" gradientUnits="userSpaceOnUse">
<stop offset="0.01" stop-color="#007AB3"/>
<stop offset="0.76" stop-color="#004C79"/>
<stop offset="1" stop-color="#005887"/>
</linearGradient>
<linearGradient id="paint9_linear_613_9448" x1="252.504" y1="86.8326" x2="374.537" y2="86.8326" gradientUnits="userSpaceOnUse">
<stop offset="0.01" stop-color="#007AB3"/>
<stop offset="0.76" stop-color="#004C79"/>
<stop offset="1" stop-color="#005887"/>
</linearGradient>
<linearGradient id="paint10_linear_613_9448" x1="83.2425" y1="81.052" x2="95.4458" y2="201.865" gradientUnits="userSpaceOnUse">
<stop offset="0.01" stop-color="#007AB3"/>
<stop offset="0.76" stop-color="#004C79"/>
<stop offset="1" stop-color="#005887"/>
</linearGradient>
<linearGradient id="paint11_linear_613_9448" x1="30.9139" y1="90.3709" x2="42.3108" y2="203.2" gradientUnits="userSpaceOnUse">
<stop offset="0.01" stop-color="#007AB3"/>
<stop offset="0.76" stop-color="#004C79"/>
<stop offset="1" stop-color="#005887"/>
</linearGradient>
<linearGradient id="paint12_linear_613_9448" x1="87.8853" y1="84.6139" x2="99.2822" y2="197.443" gradientUnits="userSpaceOnUse">
<stop offset="0.01" stop-color="#007AB3"/>
<stop offset="0.76" stop-color="#004C79"/>
<stop offset="1" stop-color="#005887"/>
</linearGradient>
<linearGradient id="paint13_linear_613_9448" x1="138.139" y1="79.5353" x2="149.536" y2="192.364" gradientUnits="userSpaceOnUse">
<stop offset="0.01" stop-color="#007AB3"/>
<stop offset="0.76" stop-color="#004C79"/>
<stop offset="1" stop-color="#005887"/>
</linearGradient>
<linearGradient id="paint14_linear_613_9448" x1="59.2502" y1="83.4785" x2="71.4535" y2="204.291" gradientUnits="userSpaceOnUse">
<stop offset="0.01" stop-color="#007AB3"/>
<stop offset="0.76" stop-color="#004C79"/>
<stop offset="1" stop-color="#005887"/>
</linearGradient>
</defs>
</svg>
