<svg width="265" height="401" viewBox="0 0 265 401" fill="none" xmlns="http://www.w3.org/2000/svg">
<path d="M231.745 92.7656L207.051 382.678C206.847 392.734 166.225 400.874 116.145 400.874C65.9394 400.874 25.238 392.693 25.238 382.601C25.238 382.575 25.238 382.549 25.238 382.524L0.70166 92.7656L231.745 92.7656Z" fill="#999999"/>
<path d="M116.223 114.735C180.024 114.735 231.745 104.864 231.745 92.6879C231.745 80.5115 180.024 70.6406 116.223 70.6406C52.4224 70.6406 0.70166 80.5115 0.70166 92.6879C0.70166 104.864 52.4224 114.735 116.223 114.735Z" fill="#B3B3B3"/>
<path d="M116.223 111.096C174.554 111.096 221.841 102.854 221.841 92.6865C221.841 82.5194 174.554 74.2773 116.223 74.2773C57.892 74.2773 10.6055 82.5194 10.6055 92.6865C10.6055 102.854 57.892 111.096 116.223 111.096Z" fill="#808080"/>
<g opacity="0.31">
<path d="M117.675 139.926H116.025C113.293 139.926 111.078 142.141 111.078 144.874L111.078 372.075C111.078 374.808 113.293 377.023 116.025 377.023H117.675C120.408 377.023 122.623 374.808 122.623 372.075L122.623 144.874C122.623 142.141 120.408 139.926 117.675 139.926Z" fill="white"/>
</g>
<path d="M116.42 139.926H114.77C112.037 139.926 109.822 142.141 109.822 144.874L109.822 372.075C109.822 374.808 112.037 377.023 114.77 377.023H116.42C119.152 377.023 121.368 374.808 121.368 372.075L121.368 144.874C121.368 142.141 119.152 139.926 116.42 139.926Z" fill="#808080"/>
<path d="M115.595 139.926C114.933 139.925 114.275 140.038 113.65 140.259C114.766 140.649 115.733 141.374 116.418 142.336C117.104 143.298 117.474 144.449 117.478 145.63L117.478 371.321C117.474 372.502 117.104 373.653 116.418 374.615C115.733 375.577 114.766 376.303 113.65 376.692C114.275 376.913 114.933 377.026 115.595 377.025C118.784 377.025 121.369 374.472 121.369 371.324L121.369 145.634C121.365 142.48 118.783 139.926 115.595 139.926Z" fill="#717272"/>
<g opacity="0.31">
<path d="M187.524 372.084L186.04 371.971C184.86 371.88 183.764 371.325 182.993 370.426C182.222 369.528 181.84 368.36 181.93 367.179L199.307 139.841C199.398 138.661 199.953 137.565 200.851 136.794C201.749 136.024 202.917 135.642 204.097 135.732L205.581 135.839C206.165 135.884 206.735 136.043 207.258 136.308C207.781 136.573 208.246 136.938 208.628 137.383C209.01 137.828 209.3 138.344 209.482 138.901C209.665 139.458 209.736 140.045 209.691 140.63L192.314 367.973C192.269 368.558 192.11 369.128 191.845 369.65C191.58 370.173 191.215 370.639 190.77 371.021C190.325 371.402 189.81 371.693 189.253 371.875C188.696 372.057 188.108 372.128 187.524 372.084Z" fill="white"/>
</g>
<path d="M186.395 371.999L184.91 371.885C184.326 371.84 183.756 371.681 183.234 371.416C182.711 371.151 182.245 370.786 181.864 370.341C181.482 369.896 181.192 369.38 181.01 368.823C180.828 368.266 180.757 367.679 180.802 367.094L198.179 139.756C198.223 139.172 198.383 138.602 198.648 138.079C198.912 137.556 199.278 137.091 199.722 136.709C200.167 136.327 200.683 136.037 201.24 135.854C201.797 135.672 202.384 135.601 202.968 135.646L204.453 135.76C205.037 135.804 205.607 135.964 206.13 136.229C206.652 136.494 207.118 136.859 207.5 137.304C207.881 137.748 208.172 138.264 208.354 138.821C208.536 139.378 208.607 139.966 208.563 140.55L191.185 367.888C191.095 369.069 190.539 370.165 189.641 370.936C188.743 371.707 187.575 372.089 186.395 371.999Z" fill="#808080"/>
<path d="M204.039 135.803C203.44 135.757 202.838 135.824 202.264 136.001C204.21 136.94 205.491 139.149 205.297 141.616L188.108 366.487C187.92 368.954 186.324 370.944 184.256 371.576C184.796 371.838 185.38 371.996 185.977 372.041C188.845 372.256 191.364 369.89 191.604 366.755L208.793 141.883C209.036 138.744 206.906 136.022 204.039 135.803Z" fill="#717272"/>
<g opacity="0.31">
<path d="M153.268 376.427L151.619 376.352C150.97 376.322 150.333 376.165 149.744 375.889C149.156 375.613 148.628 375.224 148.19 374.744C147.752 374.264 147.413 373.702 147.192 373.091C146.971 372.48 146.872 371.831 146.902 371.182L157.335 143.164C157.365 142.515 157.522 141.878 157.798 141.289C158.074 140.701 158.463 140.172 158.943 139.734C159.423 139.296 159.985 138.957 160.596 138.736C161.207 138.515 161.856 138.417 162.505 138.447L164.152 138.523C165.463 138.583 166.697 139.161 167.581 140.131C168.466 141.1 168.929 142.381 168.869 143.692L158.436 371.71C158.376 373.021 157.798 374.254 156.828 375.139C155.859 376.024 154.578 376.487 153.268 376.427Z" fill="white"/>
</g>
<path d="M152.019 376.371L150.371 376.295C149.061 376.235 147.829 375.657 146.945 374.689C146.06 373.721 145.596 372.441 145.655 371.131L156.088 143.113C156.148 141.802 156.726 140.569 157.695 139.684C158.665 138.799 159.945 138.336 161.256 138.396L162.905 138.471C163.554 138.501 164.191 138.658 164.779 138.934C165.368 139.21 165.896 139.599 166.334 140.079C166.772 140.559 167.111 141.121 167.332 141.732C167.553 142.343 167.651 142.992 167.622 143.641L157.188 371.659C157.127 372.969 156.548 374.202 155.579 375.085C154.609 375.969 153.329 376.431 152.019 376.371Z" fill="#808080"/>
<path d="M162.326 138.573C161.664 138.542 161.001 138.625 160.367 138.817C161.465 139.262 162.398 140.035 163.039 141.032C163.679 142.028 163.996 143.198 163.945 144.382L153.586 370.839C153.529 372.022 153.107 373.159 152.379 374.093C151.65 375.027 150.65 375.712 149.516 376.054C150.129 376.304 150.781 376.447 151.443 376.477C152.966 376.551 154.455 376.017 155.585 374.993C156.714 373.97 157.391 372.539 157.466 371.016L167.83 144.559C167.894 143.035 167.349 141.549 166.317 140.426C165.285 139.303 163.849 138.637 162.326 138.573Z" fill="#717272"/>
<g opacity="0.31">
<path d="M43.5995 372.084L45.0838 371.971C46.2641 371.88 47.3601 371.325 48.1308 370.426C48.9015 369.528 49.2838 368.36 49.1937 367.179L31.8132 139.841C31.7228 138.661 31.1674 137.565 30.2692 136.794C29.3711 136.024 28.2036 135.642 27.0236 135.732L25.5393 135.839C24.9549 135.884 24.3851 136.043 23.8623 136.308C23.3395 136.573 22.874 136.938 22.4924 137.383C22.1108 137.828 21.8205 138.344 21.6381 138.901C21.4557 139.458 21.3848 140.045 21.4295 140.63L38.8067 367.968C38.8506 368.553 39.0095 369.124 39.2743 369.647C39.5391 370.171 39.9045 370.638 40.3497 371.02C40.7948 371.402 41.311 371.693 41.8687 371.875C42.4263 372.058 43.0145 372.129 43.5995 372.084Z" fill="white"/>
</g>
<path d="M44.7258 371.999L46.2101 371.885C46.7944 371.84 47.3642 371.681 47.8869 371.416C48.4097 371.151 48.8751 370.786 49.2566 370.341C49.6382 369.896 49.9284 369.38 50.1106 368.823C50.2929 368.266 50.3636 367.679 50.3189 367.094L32.9416 139.756C32.897 139.172 32.7377 138.602 32.4729 138.079C32.208 137.556 31.8428 137.091 31.398 136.709C30.9533 136.327 30.4377 136.037 29.8807 135.854C29.3238 135.672 28.7364 135.601 28.152 135.646L26.6677 135.76C26.0834 135.804 25.5135 135.964 24.9908 136.229C24.468 136.494 24.0025 136.859 23.6208 137.304C23.2392 137.748 22.9489 138.264 22.7665 138.821C22.5841 139.378 22.5132 139.966 22.5579 140.55L39.9362 367.888C39.9808 368.473 40.1401 369.043 40.405 369.566C40.6698 370.088 41.035 370.554 41.4798 370.936C41.9246 371.317 42.4401 371.608 42.9971 371.79C43.554 371.972 44.1414 372.043 44.7258 371.999Z" fill="#808080"/>
<path d="M27.0815 135.803C27.6802 135.757 28.2824 135.824 28.8562 136.001C26.9105 136.94 25.6294 139.149 25.823 141.616L43.012 366.487C43.2003 368.954 44.7964 370.944 46.8637 371.576C46.3243 371.838 45.7405 371.996 45.1428 372.041C42.2752 372.256 39.7562 369.89 39.5164 366.755L22.3241 141.883C22.0875 138.744 24.214 136.022 27.0815 135.803Z" fill="#717272"/>
<g opacity="0.31">
<path d="M77.8527 376.427L79.5016 376.352C80.1507 376.322 80.7876 376.165 81.3759 375.889C81.9643 375.613 82.4925 375.224 82.9305 374.744C83.3685 374.264 83.7076 373.702 83.9285 373.091C84.1494 372.48 84.2478 371.831 84.218 371.182L73.7848 143.164C73.7551 142.515 73.5978 141.878 73.322 141.289C73.0461 140.701 72.6571 140.172 72.1771 139.734C71.697 139.296 71.1354 138.957 70.5243 138.736C69.9133 138.515 69.2646 138.417 68.6155 138.447L66.9677 138.523C65.6569 138.583 64.4237 139.161 63.5392 140.131C62.6547 141.1 62.1914 142.381 62.2512 143.692L72.6845 371.71C72.7444 373.021 73.3226 374.254 74.2918 375.139C75.261 376.024 76.5419 376.487 77.8527 376.427Z" fill="white"/>
</g>
<path d="M79.1067 376.371L80.7545 376.294C82.0643 376.234 83.2967 375.657 84.1811 374.689C85.0654 373.721 85.5294 372.441 85.471 371.131L75.0378 143.113C74.9778 141.803 74.4004 140.57 73.4323 139.686C72.4643 138.801 71.1848 138.337 69.8749 138.396L68.2261 138.471C67.5769 138.501 66.94 138.658 66.3517 138.934C65.7633 139.21 65.2351 139.599 64.7971 140.079C64.3592 140.559 64.02 141.121 63.7991 141.732C63.5782 142.343 63.4798 142.992 63.5096 143.641L73.9428 371.659C74.0042 372.968 74.5824 374.2 75.5505 375.083C76.5186 375.966 77.7976 376.429 79.1067 376.371Z" fill="#808080"/>
<path d="M68.7941 138.573C69.4561 138.542 70.1185 138.624 70.7527 138.817C69.655 139.262 68.7217 140.035 68.0812 141.032C67.4407 142.028 67.1242 143.198 67.1753 144.382L77.5343 370.839C77.5911 372.022 78.0128 373.159 78.7416 374.093C79.4704 375.027 80.4704 375.712 81.6043 376.054C80.9907 376.304 80.3388 376.447 79.6769 376.477C78.9226 376.514 78.1682 376.403 77.457 376.148C76.7458 375.894 76.0916 375.502 75.5318 374.995C74.972 374.488 74.5175 373.876 74.1943 373.193C73.8711 372.511 73.6856 371.771 73.6482 371.016L63.2892 144.559C63.2576 143.805 63.3749 143.051 63.6345 142.342C63.894 141.633 64.2907 140.982 64.8019 140.426C65.3131 139.87 65.9287 139.42 66.6137 139.102C67.2987 138.784 68.0396 138.604 68.7941 138.573Z" fill="#717272"/>
<path opacity="0.09" d="M225.135 92.7461C217.48 203.201 131.388 412.437 22.3027 353.365L24.7766 382.54C24.7766 382.564 24.7766 382.591 24.7766 382.616C24.7766 392.711 65.478 400.886 115.684 400.886C165.764 400.886 206.386 392.747 206.59 382.69L231.29 92.7837L225.135 92.7461Z" fill="#333333"/>
<path d="M230.877 107.043L228.695 123.197L173.006 108.21L175.529 107.973L230.877 107.043Z" fill="#838484"/>
<path d="M250.397 108.793C253.563 97.1036 206.335 74.1398 144.911 57.5019C83.4873 40.8639 31.1274 36.8523 27.962 48.5416C24.7966 60.2309 72.0243 83.1947 133.448 99.8327C194.872 116.471 247.232 120.482 250.397 108.793Z" fill="#999999"/>
<path d="M257.435 81.4625L34.999 21.2109L28.2468 46.1457L250.683 106.397L257.435 81.4625Z" fill="#999999"/>
<path d="M259.129 82.9602C262.323 71.2103 214.861 48.0752 153.119 31.2864C91.3769 14.4976 38.7359 10.4127 35.5418 22.1625C32.3476 33.9124 79.81 57.0475 141.552 73.8363C203.294 90.6251 255.935 94.71 259.129 82.9602Z" fill="#B3B3B3"/>
<path d="M186.785 61.3009L177.703 58.8267L183.028 39.2354C183.263 38.3686 183.144 37.4441 182.698 36.6648C182.252 35.8855 181.515 35.315 180.649 35.0787L132.013 21.8568C131.146 21.6219 130.222 21.7406 129.443 22.1867C128.664 22.6329 128.093 23.37 127.857 24.2363L122.531 43.8277L113.448 41.3535L118.773 21.7621C119.668 18.4894 121.823 15.7049 124.767 14.0189C127.71 12.3328 131.202 11.883 134.477 12.7679L183.116 25.9995C186.389 26.8935 189.173 29.049 190.859 31.9932C192.545 34.9374 192.994 38.43 192.109 41.7053L186.785 61.3009Z" fill="#999999"/>
<g opacity="0.28">
<path d="M127.941 23.1409C127.074 22.9067 126.15 23.0256 125.371 23.4717C124.592 23.9177 124.022 24.6545 123.785 25.5205L119.064 42.8818L122.527 43.8242L127.854 24.2328C127.95 23.8786 128.103 23.5425 128.308 23.2378L127.941 23.1409Z" fill="#717272"/>
<path d="M183.119 25.9973L134.48 12.7657C131.409 11.9281 128.136 12.2696 125.304 13.7231C127.01 13.4837 128.748 13.5935 130.411 14.0458L179.051 27.2774C182.323 28.1715 185.108 30.327 186.793 33.2712C188.479 36.2155 188.928 39.7081 188.043 42.9832L183.319 60.3575L186.782 61.2988L192.109 41.7074C192.995 38.432 192.546 34.9386 190.861 31.9935C189.176 29.0484 186.392 26.892 183.119 25.9973Z" fill="#717272"/>
</g>
</svg>
