<svg width="154" height="155" viewBox="0 0 154 155" fill="none" xmlns="http://www.w3.org/2000/svg">
<path d="M98.8852 153.842C122.551 153.842 141.735 151.546 141.735 148.714C141.735 145.882 122.551 143.586 98.8852 143.586C75.2198 143.586 56.0352 145.882 56.0352 148.714C56.0352 151.546 75.2198 153.842 98.8852 153.842Z" fill="#231F20"/>
<path d="M138.149 80.9126C138.149 80.194 137.874 79.331 137.537 78.9948L134.938 76.402C134.907 76.3629 134.867 76.3305 134.82 76.3073C134.773 76.2841 134.721 76.2705 134.667 76.2677C134.529 76.2677 133.898 76.2631 133.818 76.2677C133.611 76.2788 133.475 76.5853 133.475 77.1011V84.3991L137.299 88.218H138.151L138.149 80.9126Z" fill="url(#paint0_linear_613_5859)"/>
<path d="M136.685 78.9936L134.086 76.4007C133.75 76.0646 133.475 76.3776 133.475 77.0962V84.3942L137.299 88.2131V80.9114C137.297 80.1928 137.022 79.3298 136.685 78.9936Z" fill="url(#paint1_linear_613_5859)"/>
<path d="M125.568 75.3203C127.669 76.5103 128.855 77.8604 128.855 79.2911C128.855 84.0944 115.498 87.9874 99.0225 87.9874C82.547 87.9874 69.1887 84.0981 69.1887 79.2911C69.1887 77.8604 70.3752 76.513 72.4763 75.3203C55.5265 84.5195 44.044 102.256 44.044 122.626C44.0423 126.103 44.3816 129.574 45.0578 132.998C48.0551 140.751 71.0749 146.782 99.0215 146.782C126.968 146.782 149.985 140.751 152.986 132.997C153.662 129.573 154.002 126.103 154 122.625C154 102.256 142.52 84.5195 125.568 75.3203Z" fill="url(#paint2_linear_613_5859)"/>
<path style="mix-blend-mode:screen" d="M70.3615 81.7109C61.0453 89.5053 56.2931 100.221 54.379 112.185C52.6737 122.844 52.034 131.729 52.1869 139.123C58.7757 142.323 69.2691 144.788 81.7975 145.984C81.8823 136.26 81.689 125.604 82.6812 116.826C84.1126 104.158 85.6174 94.1743 88.0555 87.3782C79.532 86.3966 72.934 84.3029 70.3615 81.7109Z" fill="url(#paint3_linear_613_5859)"/>
<path style="mix-blend-mode:screen" d="M73.1354 83.6172C64.86 90.3133 59.9156 101.828 58.2144 111.9C56.0739 124.575 55.6202 133.939 56.229 140.821C61.3315 142.684 67.8944 144.205 75.4257 145.245C75.5745 136.805 75.4991 126.068 76.4479 117.543C78.1346 102.382 81.168 92.2024 83.9926 86.8046C79.4906 86.0378 75.7358 84.9368 73.1354 83.6172Z" fill="url(#paint4_linear_613_5859)"/>
<path style="mix-blend-mode:screen" d="M127.763 81.6328C126.174 83.2997 122.933 84.7581 118.587 85.8601C122.721 92.1673 127.211 101.913 128.855 116.688C129.821 125.379 129.413 135.755 129.498 144.115C137.92 142.48 144.65 140.187 148.779 137.494C149.193 131.465 149.022 123.697 148.043 113.681C147.05 103.521 138.636 89.6448 127.763 81.6328Z" fill="url(#paint5_linear_613_5859)"/>
<path d="M99.0222 87.9864C115.498 87.9864 128.855 84.0929 128.855 79.2901C128.855 74.4872 115.498 70.5938 99.0222 70.5938C82.546 70.5938 69.1895 74.4872 69.1895 79.2901C69.1895 84.0929 82.546 87.9864 99.0222 87.9864Z" fill="url(#paint6_linear_613_5859)"/>
<mask id="mask0_613_5859" style="mask-type:luminance" maskUnits="userSpaceOnUse" x="69" y="70" width="60" height="18">
<path d="M99.0222 87.9864C115.498 87.9864 128.855 84.0929 128.855 79.2901C128.855 74.4872 115.498 70.5938 99.0222 70.5938C82.5461 70.5938 69.1895 74.4872 69.1895 79.2901C69.1895 84.0929 82.5461 87.9864 99.0222 87.9864Z" fill="white"/>
</mask>
<g mask="url(#mask0_613_5859)">
<path d="M99.0222 92.2833C115.498 92.2833 128.855 88.3898 128.855 83.5869C128.855 78.7841 115.498 74.8906 99.0222 74.8906C82.546 74.8906 69.1895 78.7841 69.1895 83.5869C69.1895 88.3898 82.546 92.2833 99.0222 92.2833Z" fill="url(#paint7_linear_613_5859)"/>
<path style="mix-blend-mode:color-burn" opacity="0.5" d="M96.6603 87.0807C98.4423 87.0807 99.8869 86.5065 99.8869 85.7982C99.8869 85.0898 98.4423 84.5156 96.6603 84.5156C94.8782 84.5156 93.4336 85.0898 93.4336 85.7982C93.4336 86.5065 94.8782 87.0807 96.6603 87.0807Z" fill="url(#paint8_linear_613_5859)"/>
<path d="M99.3597 85.4236C99.2038 84.8883 98.8542 84.4145 98.3656 84.0763C97.877 83.7381 97.277 83.5547 96.6596 83.5547C96.0422 83.5547 95.4422 83.7381 94.9536 84.0763C94.465 84.4145 94.1154 84.8883 93.9595 85.4236C93.92 85.56 93.893 85.699 93.8789 85.8394C94.0246 86.4135 95.2142 86.858 96.6601 86.858C98.106 86.858 99.2946 86.4107 99.4403 85.8394C99.4267 85.699 99.3998 85.5599 99.3597 85.4236Z" fill="url(#paint9_linear_613_5859)"/>
<path d="M95.1123 85.859C95.319 84.7478 96.0238 83.9144 96.8755 83.8218C96.8031 83.8153 96.7308 83.8125 96.6574 83.8125C96.066 83.8126 95.4961 84.0109 95.0595 84.3683C94.6229 84.7257 94.3512 85.2165 94.2979 85.7442C94.3599 85.9877 94.643 86.2072 95.0627 86.36C95.0627 86.3461 95.0575 86.3322 95.0544 86.3183C95.0644 86.1644 95.0837 86.0111 95.1123 85.859Z" fill="url(#paint10_linear_613_5859)"/>
<path style="mix-blend-mode:color-burn" opacity="0.5" d="M122.089 83.3113C123.77 83.3113 125.133 82.7694 125.133 82.1009C125.133 81.4325 123.77 80.8906 122.089 80.8906C120.407 80.8906 119.044 81.4325 119.044 82.1009C119.044 82.7694 120.407 83.3113 122.089 83.3113Z" fill="url(#paint11_linear_613_5859)"/>
<path d="M124.636 81.7535C124.477 81.2177 124.113 80.7492 123.607 80.4301C123.101 80.1109 122.486 79.9617 121.869 80.0084C121.253 80.0551 120.674 80.2949 120.235 80.6856C119.796 81.0764 119.525 81.5931 119.469 82.1452C119.606 82.687 120.729 83.1092 122.093 83.1092C123.457 83.1092 124.58 82.687 124.717 82.1452C124.702 82.0129 124.675 81.8818 124.636 81.7535Z" fill="url(#paint12_linear_613_5859)"/>
<path d="M120.63 82.1601C120.83 81.1128 121.491 80.3238 122.294 80.2349C122.226 80.2293 122.158 80.2266 122.088 80.2266C121.594 80.2265 121.114 80.3727 120.723 80.6424C120.332 80.9121 120.052 81.2901 119.925 81.7175C119.894 81.8265 119.873 81.9377 119.861 82.0499C119.919 82.2796 120.186 82.4833 120.585 82.6305C120.585 82.6176 120.585 82.6046 120.578 82.5916C120.586 82.447 120.603 82.3029 120.63 82.1601Z" fill="url(#paint13_linear_613_5859)"/>
<path style="mix-blend-mode:color-burn" opacity="0.5" d="M82.73 85.62C84.9561 85.62 86.7607 84.9023 86.7607 84.017C86.7607 83.1317 84.9561 82.4141 82.73 82.4141C80.5039 82.4141 78.6992 83.1317 78.6992 84.017C78.6992 84.9023 80.5039 85.62 82.73 85.62Z" fill="url(#paint14_linear_613_5859)"/>
<path d="M86.1032 83.5516C85.9057 82.885 85.4678 82.2955 84.8577 81.8751C84.2476 81.4546 83.4994 81.2266 82.7297 81.2266C81.96 81.2266 81.2118 81.4546 80.6017 81.8751C79.9916 82.2955 79.5537 82.885 79.3563 83.5516C79.306 83.7216 79.2714 83.895 79.2529 84.0701C79.4359 84.7878 80.921 85.3471 82.7276 85.3471C84.5342 85.3471 86.0194 84.7915 86.2024 84.0701C86.1858 83.8951 86.1526 83.7216 86.1032 83.5516Z" fill="url(#paint15_linear_613_5859)"/>
<path d="M80.7992 84.0986C81.0638 82.7096 81.9361 81.6687 83.0017 81.5511C82.9128 81.5437 82.8218 81.5391 82.7299 81.5391C82.0766 81.5394 81.4418 81.7331 80.9242 82.0902C80.4066 82.4472 80.0353 82.9476 79.868 83.5134C79.8261 83.6576 79.7974 83.8047 79.7822 83.9532C79.8597 84.2569 80.2132 84.5273 80.7382 84.7218C80.7382 84.7051 80.731 84.6876 80.7279 84.67C80.7398 84.4785 80.7636 84.2877 80.7992 84.0986Z" fill="url(#paint16_linear_613_5859)"/>
<path opacity="0.6" d="M90.5896 83.6641H90.5648C90.5152 84.7614 88.8512 85.3152 87.9096 85.6569C86.7283 86.0902 85.47 86.3308 84.1941 86.3671C82.9418 86.4175 81.6872 86.3392 80.4548 86.1338C79.8347 86.0236 79.2146 85.8717 78.6565 85.6004C78.3897 85.4801 78.155 85.3099 77.9681 85.1013C77.8648 84.9809 77.8079 84.7308 77.7139 84.6605C77.7521 85.7476 79.4399 86.2097 80.3918 86.4023C81.6909 86.6653 83.0634 86.6551 84.3801 86.506C85.6751 86.3588 87.057 86.1893 88.2817 85.7708C89.1829 85.4615 90.7715 84.7373 90.5896 83.6641Z" fill="#EAEBEB"/>
<path d="M88.2598 83.9219C88.3569 84.7747 87.2655 85.3405 86.5131 85.598C85.461 85.9573 84.2218 86.0295 83.1025 86.0934C82.008 86.1564 80.8659 86.0666 79.8324 85.723C79.08 85.473 77.9658 84.9405 78.0258 84.0867C78.0805 84.1339 78.094 84.2534 78.1291 84.3377C78.2156 84.5156 78.3456 84.6738 78.5095 84.8007C78.8619 85.0896 79.3197 85.2748 79.7652 85.4183C80.7987 85.7526 81.918 85.8906 83.0167 85.9397C84.1345 85.9835 85.2496 85.8078 86.2837 85.4248C87.0319 85.1618 88.114 84.746 88.2215 83.9228L88.2598 83.9219Z" fill="#EAEBEB"/>
<path style="mix-blend-mode:color-burn" opacity="0.5" d="M74.8601 82.2311C76.4423 82.2311 77.725 81.7212 77.725 81.0921C77.725 80.4631 76.4423 79.9531 74.8601 79.9531C73.2778 79.9531 71.9951 80.4631 71.9951 81.0921C71.9951 81.7212 73.2778 82.2311 74.8601 82.2311Z" fill="url(#paint17_linear_613_5859)"/>
<path d="M77.2585 80.6751C77.118 80.2015 76.8068 79.7828 76.3733 79.4841C75.9397 79.1854 75.4081 79.0234 74.8612 79.0234C74.3143 79.0234 73.7827 79.1854 73.3492 79.4841C72.9156 79.7828 72.6044 80.2015 72.464 80.6751C72.428 80.7965 72.4037 80.9204 72.3916 81.0455C72.5218 81.5548 73.5771 81.9521 74.8607 81.9521C76.1444 81.9521 77.2006 81.5548 77.3298 81.0455C77.318 80.9204 77.2942 80.7965 77.2585 80.6751Z" fill="url(#paint18_linear_613_5859)"/>
<path d="M73.489 81.0531C73.6771 80.0678 74.2983 79.326 75.0538 79.2427C74.9907 79.2371 74.9256 79.2344 74.8605 79.2344C74.3964 79.2345 73.9453 79.3721 73.5776 79.6259C73.2099 79.8796 72.9462 80.2352 72.8276 80.6373C72.7971 80.7399 72.7768 80.8446 72.7666 80.9503C72.8214 81.1661 73.0767 81.3578 73.4456 81.4967C73.4456 81.4837 73.4405 81.4717 73.4384 81.4596C73.4466 81.3234 73.4635 81.1876 73.489 81.0531Z" fill="url(#paint19_linear_613_5859)"/>
</g>
<path d="M116.394 81.6043C116.476 82.5757 115.181 83.1786 114.327 83.4564C113.224 83.8212 112.011 83.9194 110.843 83.875C109.7 83.8259 108.461 83.7601 107.367 83.436C106.51 83.1823 105.202 82.5711 105.3 81.6025C105.366 81.646 105.368 81.7877 105.403 81.8757C105.494 82.0707 105.63 82.246 105.802 82.3896C106.187 82.7258 106.692 82.9452 107.186 83.1249C108.289 83.524 109.423 83.7657 110.619 83.7379C111.82 83.7173 113.012 83.542 114.159 83.2175C115.004 82.9702 116.247 82.5193 116.364 81.6016L116.394 81.6043Z" fill="#EAEBEB"/>
<path opacity="0.6" d="M118.959 82.1875H118.93C118.82 83.3339 117.056 83.846 116.051 84.1535C114.762 84.5536 113.404 84.7461 112.041 84.722C110.696 84.7129 109.357 84.56 108.053 84.2664C107.368 84.1053 106.667 83.896 106.079 83.5256C105.829 83.3795 105.617 83.1861 105.459 82.9589C105.393 82.857 105.348 82.5811 105.267 82.5301C105.24 83.6821 106.974 84.2683 107.977 84.5276C109.3 84.8702 110.716 84.9461 112.085 84.8711C113.502 84.7933 115.017 84.6859 116.376 84.2933C117.358 84.0099 119.072 83.3339 118.959 82.1875Z" fill="#EAEBEB"/>
<path d="M98.7832 78.369C98.8752 79.3154 97.5988 79.9118 96.7627 80.16C95.6961 80.4767 94.4889 80.5369 93.3706 80.5869C92.2337 80.6378 91.0462 80.5359 89.9703 80.1803C89.1435 79.9025 87.8743 79.3173 87.958 78.3681C88.0232 78.4107 88.0221 78.5533 88.0614 78.6357C88.1489 78.8262 88.2823 78.9969 88.4521 79.1358C88.8283 79.4617 89.3254 79.6729 89.8101 79.8368C90.8974 80.2072 92.0684 80.3683 93.2208 80.435C94.3984 80.4954 95.5766 80.3271 96.6748 79.9414C97.4758 79.6729 98.6282 79.2423 98.7512 78.3672L98.7832 78.369Z" fill="#EAEBEB"/>
<path d="M113.025 76.6416C113.085 77.2083 112.37 77.5917 111.871 77.7713C111.1 78.0491 110.175 78.0926 109.352 78.1213C108.57 78.1491 107.753 78.0704 107.024 77.8046C106.507 77.6194 105.758 77.2277 105.811 76.6406C105.905 76.7805 105.945 76.9721 106.098 77.1166C106.348 77.3527 106.701 77.5018 107.036 77.6157C107.76 77.849 108.519 77.9838 109.287 78.0158C110.083 78.0599 110.879 77.9483 111.622 77.6889C112.154 77.5102 112.927 77.2259 113.006 76.6406L113.025 76.6416Z" fill="#EAEBEB"/>
<path d="M105.012 82.1347C105.072 82.7014 104.357 83.0838 103.857 83.2644C103.086 83.5422 102.16 83.5848 101.338 83.6145C100.555 83.6422 99.7398 83.5626 99.0101 83.2978C98.4933 83.1125 97.743 82.7208 97.7978 82.1337C97.8908 82.2726 97.9311 82.4653 98.084 82.6097C98.3342 82.8459 98.6866 82.994 99.0215 83.1088C99.7453 83.342 100.504 83.4768 101.272 83.5089C102.068 83.5531 102.865 83.4415 103.608 83.182C104.141 83.0033 104.914 82.719 104.992 82.1328L105.012 82.1347Z" fill="#EAEBEB"/>
<path d="M92.8389 81.7041C92.8988 82.2717 92.1836 82.6542 91.6845 82.8347C90.9124 83.1125 89.9874 83.1551 89.1647 83.1848C88.3823 83.2125 87.5658 83.1329 86.8362 82.8671C86.3194 82.6819 85.5701 82.2912 85.6238 81.7041C85.7179 81.843 85.7572 82.0356 85.9101 82.18C86.1602 82.4162 86.5137 82.5643 86.8486 82.6792C87.5725 82.9123 88.3312 83.0472 89.0996 83.0792C89.8951 83.1235 90.6918 83.0119 91.4343 82.7523C91.9676 82.5736 92.7397 82.2893 92.8193 81.7031L92.8389 81.7041Z" fill="#EAEBEB"/>
<path d="M85.904 78.4619C85.9639 78.9082 85.3976 79.2138 85.0038 79.3509C84.4343 79.549 83.7511 79.5694 83.1434 79.6018C82.5233 79.6351 81.8608 79.5824 81.2831 79.361C80.8924 79.2119 80.3364 78.9082 80.387 78.4609C80.6041 78.8313 80.8821 79.0388 81.3565 79.1944C81.9091 79.3667 82.4858 79.4695 83.0701 79.4999C83.6698 79.5372 84.271 79.45 84.827 79.2453C85.2301 79.1055 85.812 78.8999 85.8885 78.4609L85.904 78.4619Z" fill="#EAEBEB"/>
<path d="M79.0062 81.0046C79.0744 81.6816 78.2362 82.1455 77.6347 82.3557C76.8358 82.6335 75.9035 82.6983 75.0509 82.7261C74.1982 82.7539 73.3259 82.6733 72.5363 82.39C71.9162 82.1677 71.0387 81.7038 71.0997 81.0009C71.232 81.1796 71.2609 81.425 71.4625 81.613C71.734 81.846 72.0553 82.0275 72.4071 82.1464C73.2153 82.4529 74.1062 82.5844 74.9785 82.6261C75.8407 82.6655 76.7018 82.531 77.4983 82.2325C78.0998 82.014 78.9049 81.6566 78.9834 81L79.0062 81.0046Z" fill="#EAEBEB"/>
<path style="mix-blend-mode:color-burn" opacity="0.5" d="M101.238 83.1038C102.601 83.1038 103.707 82.6643 103.707 82.1222C103.707 81.5801 102.601 81.1406 101.238 81.1406C99.874 81.1406 98.7686 81.5801 98.7686 82.1222C98.7686 82.6643 99.874 83.1038 101.238 83.1038Z" fill="url(#paint20_linear_613_5859)"/>
<path d="M103.303 81.8342C103.182 81.4251 102.915 81.063 102.541 80.8047C102.167 80.5464 101.708 80.4063 101.236 80.4062C100.763 80.4062 100.304 80.5464 99.9305 80.8047C99.5565 81.063 99.2886 81.4251 99.1685 81.8342C99.1383 81.9384 99.1175 82.0447 99.1064 82.1519C99.2181 82.5908 100.129 82.9334 101.234 82.9334C102.34 82.9334 103.251 82.5908 103.363 82.1519C103.353 82.0446 103.333 81.9383 103.303 81.8342Z" fill="url(#paint21_linear_613_5859)"/>
<path d="M100.055 82.1693C100.217 81.3192 100.753 80.6803 101.405 80.6081C101.35 80.6081 101.294 80.6016 101.237 80.6016C100.837 80.6007 100.448 80.7183 100.131 80.936C99.8128 81.1537 99.5843 81.4593 99.4804 81.8054C99.4552 81.8939 99.4379 81.984 99.4287 82.0749C99.4752 82.2601 99.6923 82.4268 100.014 82.5462L100.007 82.5138C100.016 82.3983 100.032 82.2833 100.055 82.1693Z" fill="url(#paint22_linear_613_5859)"/>
<path style="mix-blend-mode:color-burn" opacity="0.5" d="M88.766 82.846C90.1296 82.846 91.2351 82.4065 91.2351 81.8644C91.2351 81.3223 90.1296 80.8828 88.766 80.8828C87.4023 80.8828 86.2969 81.3223 86.2969 81.8644C86.2969 82.4065 87.4023 82.846 88.766 82.846Z" fill="url(#paint23_linear_613_5859)"/>
<path d="M90.8319 81.5842C90.7118 81.1751 90.4438 80.813 90.0699 80.5547C89.6959 80.2964 89.237 80.1562 88.7648 80.1562C88.2926 80.1562 87.8337 80.2964 87.4597 80.5547C87.0858 80.813 86.8179 81.1751 86.6978 81.5842C86.667 81.6883 86.6462 81.7946 86.6357 81.9019C86.7474 82.3408 87.6579 82.6834 88.7638 82.6834C89.8697 82.6834 90.7802 82.3408 90.8918 81.9019C90.8815 81.7947 90.8615 81.6885 90.8319 81.5842Z" fill="url(#paint24_linear_613_5859)"/>
<path d="M87.5837 81.9115C87.7459 81.0614 88.2813 80.4225 88.9273 80.3502C88.8725 80.3502 88.8167 80.3438 88.7609 80.3438C88.3608 80.3426 87.9715 80.46 87.6537 80.6778C87.3359 80.8955 87.1074 81.2013 87.0039 81.5476C86.9778 81.6359 86.9602 81.7261 86.9512 81.8171C86.9987 82.0023 87.2147 82.169 87.5372 82.2884C87.5372 82.2773 87.532 82.2671 87.5299 82.256C87.541 82.1404 87.5589 82.0254 87.5837 81.9115Z" fill="url(#paint25_linear_613_5859)"/>
<path style="mix-blend-mode:color-burn" opacity="0.5" d="M83.003 79.31C84.1783 79.31 85.1311 78.931 85.1311 78.4636C85.1311 77.9961 84.1783 77.6172 83.003 77.6172C81.8277 77.6172 80.875 77.9961 80.875 78.4636C80.875 78.931 81.8277 79.31 83.003 79.31Z" fill="url(#paint26_linear_613_5859)"/>
<path d="M84.7832 78.2125C84.6791 77.8604 84.4479 77.5491 84.1258 77.3269C83.8036 77.1048 83.4085 76.9844 83.002 76.9844C82.5954 76.9844 82.2003 77.1048 81.8781 77.3269C81.556 77.5491 81.3248 77.8604 81.2207 78.2125C81.1945 78.3036 81.1768 78.3965 81.168 78.4903C81.2641 78.8691 82.0485 79.1635 83.0014 79.1635C83.9544 79.1635 84.7398 78.8691 84.836 78.4903C84.8271 78.3965 84.8095 78.3036 84.7832 78.2125Z" fill="url(#paint27_linear_613_5859)"/>
<path d="M81.9866 78.4995C82.1262 77.768 82.5871 77.217 83.1494 77.1549C83.1013 77.1504 83.053 77.1483 83.0047 77.1484C82.66 77.1486 82.325 77.2508 82.0519 77.4392C81.7788 77.6276 81.5829 77.8917 81.4947 78.1902C81.4721 78.2664 81.4569 78.3441 81.4492 78.4227C81.4895 78.5829 81.6766 78.7264 81.9536 78.8283C81.9513 78.8194 81.9495 78.8104 81.9484 78.8014C81.9547 78.7002 81.9674 78.5994 81.9866 78.4995Z" fill="url(#paint28_linear_613_5859)"/>
<path style="mix-blend-mode:color-burn" opacity="0.5" d="M102.564 78.1473C103.523 78.1473 104.301 77.838 104.301 77.4564C104.301 77.0749 103.523 76.7656 102.564 76.7656C101.604 76.7656 100.826 77.0749 100.826 77.4564C100.826 77.838 101.604 78.1473 102.564 78.1473Z" fill="url(#paint29_linear_613_5859)"/>
<path d="M104.017 77.2524C103.932 76.965 103.744 76.7109 103.481 76.5296C103.218 76.3483 102.895 76.25 102.563 76.25C102.232 76.25 101.909 76.3483 101.646 76.5296C101.383 76.7109 101.195 76.965 101.11 77.2524C101.088 77.3255 101.073 77.4002 101.066 77.4756C101.145 77.7849 101.785 78.0256 102.563 78.0256C103.341 78.0256 103.982 77.7849 104.061 77.4756C104.053 77.4002 104.039 77.3255 104.017 77.2524Z" fill="url(#paint30_linear_613_5859)"/>
<path d="M101.732 77.4889C101.846 76.8907 102.223 76.4416 102.681 76.3906C102.643 76.3906 102.603 76.3906 102.563 76.3906C102.282 76.3908 102.008 76.4742 101.785 76.6279C101.562 76.7816 101.402 76.9971 101.33 77.2407C101.312 77.303 101.3 77.3665 101.294 77.4306C101.327 77.5611 101.479 77.6778 101.707 77.7621C101.707 77.7547 101.707 77.7472 101.707 77.7398C101.71 77.6558 101.718 77.572 101.732 77.4889Z" fill="url(#paint31_linear_613_5859)"/>
<path style="mix-blend-mode:color-burn" opacity="0.5" d="M109.236 77.7142C110.735 77.7142 111.951 77.2308 111.951 76.6344C111.951 76.0381 110.735 75.5547 109.236 75.5547C107.736 75.5547 106.521 76.0381 106.521 76.6344C106.521 77.2308 107.736 77.7142 109.236 77.7142Z" fill="url(#paint32_linear_613_5859)"/>
<path d="M111.507 76.323C111.376 75.8724 111.081 75.4736 110.67 75.189C110.258 74.9044 109.753 74.75 109.234 74.75C108.714 74.75 108.209 74.9044 107.797 75.189C107.386 75.4736 107.091 75.8724 106.96 76.323C106.925 76.4373 106.903 76.5541 106.892 76.6721C107.015 77.1555 108.015 77.5323 109.232 77.5323C110.448 77.5323 111.448 77.1555 111.571 76.6721C111.561 76.5543 111.539 76.4376 111.507 76.323Z" fill="url(#paint33_linear_613_5859)"/>
<path d="M107.935 76.6843C108.113 75.7499 108.702 75.0471 109.418 74.9683C109.358 74.9683 109.297 74.9609 109.235 74.9609C108.796 74.9609 108.368 75.0912 108.019 75.3315C107.671 75.5719 107.421 75.9088 107.308 76.2898C107.279 76.387 107.26 76.4861 107.25 76.5861C107.303 76.7908 107.54 76.9732 107.894 77.1038C107.894 77.0926 107.889 77.0806 107.887 77.0686C107.895 76.9398 107.911 76.8114 107.935 76.6843Z" fill="url(#paint34_linear_613_5859)"/>
<path style="mix-blend-mode:color-burn" opacity="0.5" d="M118.167 78.5924C119.154 78.5924 119.954 78.2744 119.954 77.8821C119.954 77.4899 119.154 77.1719 118.167 77.1719C117.18 77.1719 116.38 77.4899 116.38 77.8821C116.38 78.2744 117.18 78.5924 118.167 78.5924Z" fill="url(#paint35_linear_613_5859)"/>
<path d="M119.661 77.6715C119.572 77.3776 119.377 77.1183 119.107 76.9334C118.836 76.7486 118.506 76.6484 118.166 76.6484C117.826 76.6484 117.495 76.7486 117.225 76.9334C116.955 77.1183 116.76 77.3776 116.67 77.6715C116.648 77.7467 116.633 77.8236 116.626 77.9012C116.707 78.2197 117.365 78.467 118.166 78.467C118.967 78.467 119.625 78.2197 119.706 77.9012C119.699 77.8236 119.684 77.7467 119.661 77.6715Z" fill="url(#paint36_linear_613_5859)"/>
<path d="M117.311 77.911C117.428 77.2961 117.816 76.834 118.288 76.7812C118.247 76.7812 118.207 76.7812 118.167 76.7812C117.877 76.7813 117.596 76.8672 117.366 77.0255C117.137 77.1837 116.972 77.4055 116.898 77.6563C116.879 77.7201 116.866 77.7851 116.86 77.8508C116.894 77.986 117.051 78.1055 117.284 78.1925C117.284 78.1842 117.284 78.1768 117.279 78.1694C117.284 78.0828 117.295 77.9965 117.311 77.911Z" fill="url(#paint37_linear_613_5859)"/>
<path style="mix-blend-mode:color-burn" opacity="0.5" d="M93.371 80.2006C95.9145 80.2006 97.9764 79.3809 97.9764 78.3698C97.9764 77.3587 95.9145 76.5391 93.371 76.5391C90.8275 76.5391 88.7656 77.3587 88.7656 78.3698C88.7656 79.3809 90.8275 80.2006 93.371 80.2006Z" fill="url(#paint38_linear_613_5859)"/>
<path d="M97.2252 77.842C96.9865 77.0291 96.4355 76.3178 95.6691 75.8331C94.9027 75.3485 93.97 75.1216 93.0353 75.1924C92.1006 75.2632 91.2237 75.6272 90.559 76.2202C89.8943 76.8133 89.4843 77.5974 89.4014 78.4346C89.6081 79.2542 91.3072 79.8931 93.3711 79.8931C95.4351 79.8931 97.1322 79.2542 97.3409 78.4346C97.321 78.2345 97.2823 78.0363 97.2252 77.842Z" fill="url(#paint39_linear_613_5859)"/>
<path d="M91.1655 78.4634C91.4684 76.879 92.4667 75.6854 93.6822 75.552C93.5788 75.5437 93.4755 75.5391 93.3721 75.5391C92.6259 75.5392 91.9008 75.7605 91.3095 76.1683C90.7183 76.5761 90.2941 77.1477 90.1031 77.7939C90.054 77.9586 90.0211 78.1269 90.0049 78.2968C90.0927 78.644 90.4968 78.9533 91.0963 79.1756C91.0963 79.1552 91.088 79.1357 91.0849 79.1163C91.0982 78.8975 91.1251 78.6796 91.1655 78.4634Z" fill="url(#paint40_linear_613_5859)"/>
<path style="mix-blend-mode:color-burn" opacity="0.5" d="M110.846 83.4271C113.389 83.4271 115.451 82.6075 115.451 81.5964C115.451 80.5853 113.389 79.7656 110.846 79.7656C108.302 79.7656 106.24 80.5853 106.24 81.5964C106.24 82.6075 108.302 83.4271 110.846 83.4271Z" fill="url(#paint41_linear_613_5859)"/>
<path d="M114.7 81.0607C114.461 80.2479 113.91 79.5365 113.144 79.0519C112.377 78.5672 111.445 78.3403 110.51 78.4111C109.575 78.4819 108.698 78.8459 108.034 79.439C107.369 80.032 106.959 80.8162 106.876 81.6534C107.083 82.4729 108.782 83.1119 110.846 83.1119C112.91 83.1119 114.608 82.4729 114.816 81.6534C114.796 81.4533 114.757 81.255 114.7 81.0607Z" fill="url(#paint42_linear_613_5859)"/>
<path d="M108.64 81.69C108.943 80.1047 109.942 78.9119 111.157 78.7786C111.053 78.7703 110.95 78.7656 110.847 78.7656C110.002 78.7645 109.188 79.0471 108.564 79.5577C107.941 80.0682 107.554 80.7696 107.479 81.5233C107.567 81.8706 107.971 82.179 108.572 82.4012C108.572 82.3818 108.563 82.3623 108.56 82.3419C108.573 82.1235 108.6 81.9059 108.64 81.69Z" fill="url(#paint43_linear_613_5859)"/>
<path d="M99.0223 70.5938C82.5458 70.5938 69.1885 74.4877 69.1885 79.2901C69.1885 84.0924 82.5458 87.9873 99.0223 87.9873C115.499 87.9873 128.855 84.098 128.855 79.291C128.855 74.484 115.498 70.5938 99.0223 70.5938ZM99.0223 86.9983C84.0558 86.9983 71.9232 83.4618 71.9232 79.0993C71.9232 74.7368 84.0558 71.2003 99.0223 71.2003C113.989 71.2003 126.118 74.7368 126.118 79.0975C126.118 83.4581 113.988 86.9983 99.0223 86.9983Z" fill="url(#paint44_linear_613_5859)"/>
<path opacity="0.6" d="M76.5852 62.6649C75.0018 64.3179 74.5119 66.62 77.2952 70.6139C78.0476 71.6927 81.326 73.8198 84.3377 74.8412C82.0474 72.1493 79.8935 69.662 79.756 68.4609C79.5348 66.5496 81.9636 63.1622 84.4885 62.6686C89.1684 61.7528 90.8117 58.7136 88.4935 56.2707C87.0517 54.752 83.5925 54.2168 83.5966 52.0527C83.5429 52.1036 83.7847 51.3479 83.6731 51.8943C84.2291 50.4043 85.6265 50.3506 87.2594 49.3875C90.1668 47.6735 90.8995 42.7979 89.7585 40.1125C86.414 32.2412 73.7523 35.461 78.8517 25.4062C68.1195 30.5966 75.441 36.5343 77.1185 39.3365C78.7266 42.0164 72.3033 44.9852 72.0738 48.8208C71.8899 51.911 73.004 54.5622 76.643 56.7495C78.1892 57.6783 78.2729 60.9027 76.5852 62.6649ZM84.1981 39.3467C82.7253 37.3742 84.9536 38.7281 85.4229 38.9762C86.9918 39.8013 86.7158 42.8174 85.9603 42.5766C84.6291 42.1627 85.3722 40.92 84.1981 39.3467ZM79.3333 63.7187C80.1601 62.4519 81.2557 61.2962 82.7274 60.3989C83.4323 59.9683 84.3645 59.6461 84.935 59.109C85.3619 58.7071 85.0384 58.1635 84.6818 57.706C84.6275 57.7089 84.5737 57.6954 84.529 57.6677C84.4842 57.64 84.4511 57.5998 84.4348 57.5533C84.3914 57.3912 84.3108 57.3106 84.3656 57.143C84.3967 57.0629 84.4545 56.9933 84.5312 56.9436C84.6079 56.8939 84.6998 56.8666 84.7945 56.8652C85.9376 56.7846 87.3328 57.431 87.6883 58.2635C88.1359 59.3238 87.0238 60.2934 85.9417 60.8508C84.9505 61.3629 83.7827 61.6843 82.7615 62.1612C81.6794 62.6705 80.8629 63.3502 80.1105 64.116C79.7829 64.4475 79.1059 64.0651 79.3333 63.7187ZM77.0471 52.0582C75.9981 51.1942 74.886 50.1988 74.9853 49.0023C75.2323 46.0511 78.8031 44.1009 77.3624 46.1316C76.8684 46.8289 77.1557 47.8615 77.3459 48.4467C77.4926 48.8986 78.6739 49.6663 78.769 50.2654C78.8615 50.8225 78.7413 51.3912 78.428 51.8795C78.1954 52.224 77.4389 52.3805 77.0471 52.0582Z" fill="url(#paint45_linear_613_5859)"/>
<path d="M95.6754 79.4045C105.023 83.016 113.928 84.7042 119.574 84.2541C123.653 82.8716 126.12 81.0723 126.12 79.1054C121.626 76.0866 75.0783 58.1772 74.4943 59.3866C74.3155 59.757 73.6189 61.2053 73.4391 61.5776C71.37 65.8762 81.3249 73.8586 95.6754 79.4045Z" fill="url(#paint46_linear_613_5859)"/>
<path d="M73.3275 58.3308C71.2046 62.7406 81.7476 71.0553 96.8764 76.9023C112.005 82.7492 125.991 83.9141 128.114 79.5044C128.746 78.1904 128.254 76.53 126.852 74.6891C126.676 74.4687 126.667 74.4492 126.487 74.2316C126.459 74.1974 126.263 73.9631 126.235 73.9279C120.964 67.5624 113.943 62.4007 105.439 59.1115C96.5994 55.6954 87.216 54.7165 78.1013 55.8463C75.6467 56.1982 73.96 57.0168 73.3275 58.3308Z" fill="url(#paint47_linear_613_5859)"/>
<mask id="mask1_613_5859" style="mask-type:luminance" maskUnits="userSpaceOnUse" x="73" y="55" width="56" height="28">
<path d="M73.3275 58.3308C71.2046 62.7406 81.7476 71.0553 96.8764 76.9023C112.005 82.7492 125.991 83.9141 128.114 79.5044C128.746 78.1904 128.254 76.53 126.852 74.6891C126.676 74.4687 126.667 74.4492 126.487 74.2316C126.459 74.1974 126.263 73.9631 126.235 73.9279C120.964 67.5624 113.943 62.4007 105.439 59.1115C96.5994 55.6954 87.216 54.7165 78.1013 55.8463C75.6467 56.1982 73.96 57.0168 73.3275 58.3308Z" fill="white"/>
</mask>
<g mask="url(#mask1_613_5859)">
<path style="mix-blend-mode:screen" d="M91.6894 57.716C81.534 57.3132 74.9019 60.3682 72.0772 61.3979C72.069 62.5925 72.7087 63.1639 73.2802 64.4696C74.5722 67.418 81.8306 71.0323 85.5503 74.0011C86.6655 72.9825 89.1439 70.0303 92.6889 67.218C99.6269 61.7146 104.195 61.7118 104.195 61.7118L104.565 60.3636C104.565 60.3636 100.749 58.08 91.6894 57.716Z" fill="url(#paint48_linear_613_5859)"/>
<path style="mix-blend-mode:screen" d="M116.767 68.0109C109.928 61.7389 105.433 60.6953 105.433 60.6953L105.207 61.889C105.207 61.889 109.39 65.6801 112.923 72.8161C115.379 77.7768 115.892 82.5393 116.231 85.1572C123.149 85.535 124.085 84.6618 126.083 81.2614C123.647 75.2126 119.82 70.8103 116.767 68.0109Z" fill="url(#paint49_linear_613_5859)"/>
<path style="mix-blend-mode:screen" d="M104.208 60.6065C104.208 60.6065 98.5893 58.2915 89.5697 59.3166C82.9551 60.0657 75.5478 63.4346 73.7236 64.1402C74.721 66.4192 78.2557 70.7048 80.7516 73.0468C85.5389 68.7176 86.9797 67.5665 90.3531 65.4274C97.2633 61.0436 103.755 61.0566 103.755 61.0566L104.208 60.6065Z" fill="url(#paint50_linear_613_5859)"/>
</g>
<path style="mix-blend-mode:multiply" d="M109.047 63.3548C108.693 63.9104 106.275 63.5641 103.766 62.614C101.257 61.6639 99.7941 60.5767 100.001 59.9664C100.215 59.3321 102.122 59.4368 104.784 60.4461C107.446 61.4555 109.414 62.7769 109.047 63.3548Z" fill="url(#paint51_linear_613_5859)"/>
<path d="M99.3037 50.4297C100.726 53.6958 100.868 56.9452 100.142 59.5159C100.098 59.6696 100.051 59.8208 100.001 59.9696C100.303 60.5743 101.888 61.5439 103.915 62.3217C105.943 63.0996 107.818 63.4681 108.514 63.2477C108.601 63.1125 108.692 62.978 108.785 62.844C110.367 60.6012 113.097 58.4565 116.724 57.1313L99.3037 50.4297Z" fill="url(#paint52_linear_613_5859)"/>
<path d="M116.753 57.0914C116.124 57.9452 111.876 57.1655 107.244 55.3819C102.612 53.5984 99.0576 51.3778 99.3171 50.3814C99.5878 49.3424 104.457 48.3914 109.64 50.3814C114.823 52.3714 117.407 56.1996 116.753 57.0914Z" fill="url(#paint53_linear_613_5859)"/>
<path style="mix-blend-mode:color-dodge" d="M109.288 51.4256C109.169 51.9905 107.286 52.2192 105.123 51.9544C103.004 51.696 101.343 51.0506 101.373 50.4977C101.403 49.9449 103.18 49.6643 105.387 49.9097C107.643 50.1616 109.409 50.8533 109.288 51.4256Z" fill="url(#paint54_linear_613_5859)"/>
<path opacity="0.6" d="M67.1464 70.1418C63.7678 71.2734 61.8093 68.6074 62.4284 64.3764C63.5446 56.745 53.7065 56.7987 53.5752 59.4684C56.188 60.0241 56.5807 61.9391 55.6164 66.559C54.7524 70.7011 59.3598 76.2416 64.6918 74.7257C68.4394 73.6598 74.0401 70.5585 74.407 75.8323C74.7739 81.106 78.9814 81.2606 78.9814 81.2606C74.2468 77.7352 77.3722 76.7231 76.6136 73.5468C75.8549 70.3706 73.8954 67.8823 67.1464 70.1418ZM57.2401 69.7835C56.1569 67.2924 58.47 65.0005 58.809 66.6655C59.148 68.3305 58.6477 68.9861 59.8311 70.7086C60.8202 72.1476 58.3191 72.2754 57.2401 69.7835ZM60.2456 66.9702C59.5459 65.6737 59.7019 64.4051 59.765 62.3206C59.8373 59.9509 57.6091 59.387 57.8127 59.2499C58.0163 59.1129 59.0735 59.3175 60.227 60.6871C61.3804 62.0567 60.4574 64.869 60.5856 65.8191C60.7138 66.7692 60.9453 68.2666 60.2456 66.9702ZM76.0048 75.2257C76.0048 75.2257 75.6813 73.2125 74.3904 71.6809C73.484 70.6058 71.6474 70.0557 71.6474 70.0557C71.6474 70.0557 73.668 69.6103 75.0137 71.2077C76.7727 73.2968 76.0048 75.2285 76.0048 75.2285V75.2257Z" fill="url(#paint55_linear_613_5859)"/>
<path opacity="0.6" d="M74.2573 62.9746C75.6226 60.8309 75.4655 58.8659 74.4723 56.8629C73.2383 54.3756 68.8613 53.6542 68.9646 51.5771C69.0762 49.4037 71.3728 44.0763 63.9892 42.7188C69.6902 48.3675 61.8188 48.6851 62.2581 54.5247C62.4079 56.5165 64.2218 59.5928 66.3074 60.1632C67.4815 60.4836 68.2629 60.2503 68.9946 61.1263C68.7745 60.7864 69.1258 61.2393 69.0824 61.2189C69.7098 62.6468 67.9673 63.6664 67.6159 64.9462C67.0505 67.0047 68.8292 68.6938 71.6601 68.3956C73.1866 68.2354 75.4975 70.0023 75.9285 71.3061C76.1993 72.1256 75.7373 74.1814 75.2588 76.3993C76.6169 75.1445 77.7982 73.1091 77.8995 72.2525C78.2715 69.0799 77.3383 67.6557 75.9926 66.8704C74.5632 66.0296 73.6785 63.8849 74.2573 62.9746ZM65.9664 57.4185C65.4754 57.8528 64.0182 55.0942 64.9039 53.8876C65.1685 53.5273 66.3508 51.6429 66.0129 53.9005C65.7431 55.7053 66.8356 56.6693 65.9674 57.4222L65.9664 57.4185ZM74.4878 68.5002C73.8542 68.14 73.2093 67.852 72.4693 67.7215C71.7706 67.6011 71.0379 67.6159 70.3475 67.4696C69.593 67.3103 68.7031 66.8843 68.6422 66.0991C68.5936 65.4823 69.1724 64.7869 69.8225 64.6174C69.8793 64.6029 69.9398 64.6047 69.9955 64.6226C70.0511 64.6406 70.099 64.6737 70.1325 64.7174C70.2111 64.8165 70.1904 64.886 70.2142 65.0008C70.2202 65.0313 70.2144 65.0628 70.1977 65.09C70.1809 65.1171 70.1543 65.1383 70.1222 65.1499C70.0581 65.5203 70.0385 65.9407 70.3888 66.1241C70.857 66.3685 71.4606 66.4019 71.9722 66.5491C73.0388 66.8584 73.971 67.4103 74.7916 68.0863C75.0211 68.2771 74.7606 68.6595 74.4878 68.504V68.5002ZM71.904 61.6041C71.379 61.1603 71.0049 60.5923 70.825 59.966C70.6265 59.2881 71.3262 58.0824 71.2446 57.5454C71.1412 56.8527 70.9077 55.6442 70.1325 55.0451C67.8774 53.3023 72.0177 54.2857 73.6393 57.4055C74.2987 58.6742 73.7695 60.1049 73.2352 61.3717C73.0378 61.8449 72.2822 61.9153 71.8998 61.6078L71.904 61.6041Z" fill="url(#paint56_linear_613_5859)"/>
<path d="M94.7646 149.199C94.7646 145.713 98.8855 142.008 98.8855 142.008C98.8855 142.008 103.005 145.713 103.005 149.199C103.005 152.685 101.16 154.631 98.8855 154.631C96.6109 154.631 94.7646 152.685 94.7646 149.199Z" fill="#EA5A29"/>
<path d="M95.5889 150.218C95.5889 147.385 98.4736 144.375 98.4736 144.375C98.4736 144.375 101.357 147.385 101.357 150.218C101.357 153.05 100.067 154.631 98.4736 154.631C96.8807 154.631 95.5889 153.05 95.5889 150.218Z" fill="#F99B2B"/>
<path d="M97.2363 151.237C97.2363 149.058 98.8849 146.742 98.8849 146.742C98.8849 146.742 100.532 149.058 100.532 151.237C100.532 153.416 99.7984 154.632 98.8849 154.632C97.9715 154.632 97.2363 153.416 97.2363 151.237Z" fill="#FFF069"/>
<path d="M106.44 148.96C107.051 145.475 111.714 142.008 111.714 142.008C111.714 142.008 115.077 145.944 114.467 149.432C113.857 152.919 111.718 154.755 109.501 154.624C107.285 154.494 105.832 152.443 106.44 148.96Z" fill="#EA5A29"/>
<path d="M106.438 150.045C106.987 147.213 110.751 144.375 110.751 144.375C110.751 144.375 113.358 147.556 112.82 150.387C112.282 153.218 110.544 154.722 108.781 154.627C107.019 154.532 105.895 152.876 106.438 150.045Z" fill="#F99B2B"/>
<path d="M108.036 151.118C108.339 148.94 110.247 146.742 110.247 146.742C110.247 146.742 111.503 149.173 111.198 151.351C110.892 153.53 110.014 154.694 109.14 154.629C108.267 154.565 107.73 153.297 108.036 151.118Z" fill="#FFF069"/>
<path d="M118.198 147.969C119.141 144.491 123.561 141.219 123.561 141.219C123.561 141.219 125.978 145.343 125.036 148.826C124.095 152.309 122.035 154.057 120.145 153.821C118.255 153.585 117.255 151.448 118.198 147.969Z" fill="#EA5A29"/>
<path d="M118.996 149.112C119.802 146.283 123.27 143.586 123.27 143.586C123.27 143.586 125.025 146.903 124.218 149.731C123.412 152.559 121.794 154 120.357 153.829C118.921 153.657 118.19 151.94 118.996 149.112Z" fill="#F99B2B"/>
<path d="M119.012 150.233C119.776 148.057 122.768 145.953 122.768 145.953C122.768 145.953 124.138 148.477 123.375 150.653C122.612 152.83 121.209 153.95 120.004 153.834C118.799 153.718 118.25 152.409 119.012 150.233Z" fill="#FFF069"/>
<path d="M137.656 143.663C139.956 140.866 145.7 138.852 145.7 138.852C145.7 138.852 146.555 142.784 144.254 145.581C141.954 148.378 139.193 149.511 137.371 148.981C135.548 148.452 135.355 146.46 137.656 143.663Z" fill="#EA5A29"/>
<path d="M137.522 144.598C139.51 142.226 144.167 140.43 144.167 140.43C144.167 140.43 144.601 143.678 142.614 146.051C140.626 148.424 138.377 149.423 136.971 149.022C135.565 148.62 135.535 146.97 137.522 144.598Z" fill="#F99B2B"/>
<path d="M137.817 145.897C139.044 144.168 141.734 142.797 141.734 142.797C141.734 142.797 141.815 145.102 140.589 146.831C139.363 148.561 138.057 149.317 137.292 149.059C136.526 148.802 136.591 147.626 137.817 145.897Z" fill="#FFF069"/>
<path d="M127.491 146.103C128.768 143.066 133.755 140.43 133.755 140.43C133.755 140.43 136.033 144.252 134.752 147.289C133.472 150.326 131.138 151.757 129.132 151.429C127.127 151.101 126.215 149.141 127.491 146.103Z" fill="#EA5A29"/>
<path d="M127.533 147.308C128.785 144.92 133.287 142.797 133.287 142.797C133.287 142.797 135.135 145.752 133.885 148.14C132.634 150.528 130.516 151.675 128.756 151.447C126.997 151.218 126.282 149.696 127.533 147.308Z" fill="#F99B2B"/>
<path d="M129.05 148.109C129.961 146.154 132.966 144.375 132.966 144.375C132.966 144.375 134.038 146.754 133.127 148.711C132.216 150.667 130.797 151.624 129.67 151.457C128.544 151.29 128.141 150.065 129.05 148.109Z" fill="#FFF069"/>
<path d="M92.152 148.96C91.5405 145.475 86.8779 142.008 86.8779 142.008C86.8779 142.008 83.5146 145.944 84.1261 149.432C84.7376 152.919 86.874 154.755 89.0905 154.624C91.3069 154.494 92.7635 152.443 92.152 148.96Z" fill="#EA5A29"/>
<path d="M90.5235 150.045C90.0434 147.213 86.7499 144.375 86.7499 144.375C86.7499 144.375 84.4694 147.556 84.9399 150.387C85.4104 153.218 86.9323 154.722 88.4735 154.627C90.0146 154.532 91 152.876 90.5235 150.045Z" fill="#F99B2B"/>
<path d="M90.5586 151.118C90.2552 148.94 88.3472 146.742 88.3472 146.742C88.3472 146.742 87.0904 149.173 87.3968 151.351C87.7031 153.53 88.5808 154.694 89.4534 154.629C90.326 154.565 90.8639 153.297 90.5586 151.118Z" fill="#FFF069"/>
<path d="M80.3967 147.969C79.4549 144.491 75.0331 141.219 75.0331 141.219C75.0331 141.219 72.6159 145.343 73.5576 148.826C74.4994 152.309 76.5597 154.057 78.4498 153.821C80.34 153.585 81.3384 151.448 80.3967 147.969Z" fill="#EA5A29"/>
<path d="M79.5964 149.112C78.7905 146.283 75.3237 143.586 75.3237 143.586C75.3237 143.586 73.5699 146.903 74.3759 149.731C75.1818 152.559 76.7994 154 78.241 153.829C79.6827 153.657 80.4024 151.94 79.5964 149.112Z" fill="#F99B2B"/>
<path d="M79.5809 150.233C78.8174 148.057 75.8243 145.953 75.8243 145.953C75.8243 145.953 74.4554 148.477 75.2189 150.653C75.9823 152.83 77.3851 153.95 78.5888 153.834C79.7925 153.718 80.3443 152.409 79.5809 150.233Z" fill="#FFF069"/>
<path d="M60.9393 143.663C58.6384 140.866 52.8939 138.852 52.8939 138.852C52.8939 138.852 52.0387 142.784 54.3383 145.581C56.6379 148.378 59.4015 149.511 61.223 148.981C63.0446 148.452 63.2389 146.46 60.9393 143.663Z" fill="#EA5A29"/>
<path d="M61.0724 144.598C59.0839 142.226 54.4265 140.43 54.4265 140.43C54.4265 140.43 53.994 143.678 55.9812 146.051C57.9684 148.424 60.2166 149.423 61.6223 149.022C63.028 148.62 63.0596 146.97 61.0724 144.598Z" fill="#F99B2B"/>
<path d="M60.6062 145.897C59.1743 144.168 56.0365 142.797 56.0365 142.797C56.0365 142.797 55.9405 145.102 57.3724 146.831C58.8042 148.561 60.327 149.317 61.2193 149.059C62.1115 148.802 62.038 147.626 60.6062 145.897Z" fill="#FFF069"/>
<path d="M71.1026 146.103C69.8269 143.066 64.8393 140.43 64.8393 140.43C64.8393 140.43 62.5613 144.252 63.8417 147.289C65.1222 150.326 67.4566 151.757 69.4612 151.429C71.4659 151.101 72.3795 149.141 71.1026 146.103Z" fill="#EA5A29"/>
<path d="M69.5531 147.308C68.5805 144.92 65.0776 142.797 65.0776 142.797C65.0776 142.797 63.64 145.752 64.6137 148.14C65.5874 150.528 67.2335 151.675 68.6013 151.447C69.969 151.218 70.5268 149.696 69.5531 147.308Z" fill="#F99B2B"/>
<path d="M69.5432 148.109C68.6338 146.154 65.6272 144.375 65.6272 144.375C65.6272 144.375 64.5558 146.754 65.4665 148.711C66.3772 150.667 67.7981 151.624 68.9231 151.457C70.0481 151.29 70.4539 150.065 69.5432 148.109Z" fill="#FFF069"/>
<path d="M48.0961 128.511C48.0961 128.511 38.7881 126.566 34.961 116.988C32.0371 109.672 32.4578 96.165 28.1521 86.075C25.1466 79.0307 19.6307 77.7213 18.1579 76.2202C16.6851 74.7191 29.2259 75.0164 31.9296 75.6091C36.0958 78.9715 37.0394 81.8403 41.3348 89.1216C46.7318 98.2615 54.0317 97.5874 54.0317 97.5874C54.0317 97.5874 55.7649 99.0922 55.9757 103.403C56.3602 111.147 54.5278 124.34 48.0961 128.511Z" fill="url(#paint57_linear_613_5859)"/>
<path style="mix-blend-mode:screen" d="M28.4883 80.0876C28.4883 80.0876 33.8357 84.2093 35.663 93.8659C37.7931 105.13 44.8252 113.913 47.5961 115.35C50.367 116.786 52.6036 104.753 51.9638 102.462C51.3241 100.171 44.8325 99.6934 40.8854 92.3426C36.9384 84.9918 34.6677 80.696 32.9273 79.0078C32.6441 79.2921 31.0101 80.3413 28.4883 80.0876Z" fill="url(#paint58_linear_613_5859)"/>
<path d="M25.0297 77.5773C28.9186 77.5773 32.0711 76.8447 32.0711 75.941C32.0711 75.0373 28.9186 74.3047 25.0297 74.3047C21.1408 74.3047 17.9883 75.0373 17.9883 75.941C17.9883 76.8447 21.1408 77.5773 25.0297 77.5773Z" fill="url(#paint59_linear_613_5859)"/>
<path d="M25.0297 74.3047C21.1405 74.3047 17.9883 75.0372 17.9883 75.941C17.9883 76.8448 21.1405 77.5763 25.0297 77.5763C28.9189 77.5763 32.0711 76.8438 32.0711 75.941C32.0711 75.0381 28.9189 74.3047 25.0297 74.3047ZM25.0297 76.8327C21.896 76.8327 19.3556 76.3836 19.3556 75.8299C19.3556 75.2761 21.896 74.827 25.0297 74.827C28.1634 74.827 30.7027 75.2752 30.7027 75.8299C30.7027 76.3845 28.1572 76.8327 25.0245 76.8327H25.0297Z" fill="#DFE0E1"/>
<path d="M97.6325 26.8438H97.0476C76.6964 26.9651 58.6127 33.1935 53.874 38.2996C49.0929 43.4548 54.9075 56.2469 58.6551 65.0294C62.4027 73.8118 62.1577 80.5579 62.1577 80.5579L66.1523 83.4703C66.1523 83.4703 66.7084 76.9696 62.4998 67.9889C58.4391 59.3213 52.9387 46.4125 57.7198 41.2592C62.4585 36.1531 80.539 29.9283 100.9 29.8061H101.484C118.498 29.8061 134.007 34.1084 141.577 38.5108C141.84 38.6673 145.733 41.8519 145.617 41.713C144.672 40.5779 143.634 39.5075 142.511 38.5108C137.259 33.751 118.222 26.8438 97.6325 26.8438Z" fill="url(#paint60_linear_613_5859)"/>
<path d="M131.699 79.1946C133.057 80.1824 134.366 81.2285 135.627 82.3329C135.707 80.0281 136.221 74.5821 139.03 67.9879C142.771 59.2054 148.591 46.4114 143.81 41.2581C142.983 40.3626 141.743 39.4329 140.148 38.5078C144.592 43.7917 138.876 56.3616 135.187 65.0283C132.411 71.5401 131.821 76.8166 131.699 79.1946Z" fill="#A0A2A5"/>
<path d="M131.699 79.1946C133.057 80.1824 134.366 81.2285 135.627 82.3329C135.707 80.0281 136.221 74.5821 139.03 67.9879C142.771 59.2054 148.591 46.4114 143.81 41.2581C142.983 40.3626 141.743 39.4329 140.148 38.5078C144.592 43.7917 138.876 56.3616 135.187 65.0283C132.411 71.5401 131.821 76.8166 131.699 79.1946Z" fill="url(#paint61_linear_613_5859)"/>
<path d="M145.239 41.2606C140.458 36.1054 122.072 29.8047 101.483 29.8047H100.898C80.54 29.9297 62.4595 36.1544 57.7239 41.2606C52.9448 46.413 58.7998 59.1921 62.5039 67.9894C64.5844 72.926 65.9073 77.3571 65.9073 80.3694C65.9073 82.7539 65.9539 84.0828 65.9539 85.883C65.9539 85.9604 65.9881 86.0347 66.0491 86.0896C66.1102 86.1444 66.193 86.1754 66.2794 86.1756H67.0081C67.051 86.1755 67.0935 86.1678 67.133 86.1529C67.1726 86.138 67.2085 86.1162 67.2387 86.0889C67.2688 86.0615 67.2927 86.029 67.3088 85.9934C67.3249 85.9577 67.333 85.9196 67.3326 85.8811C67.3326 85.5052 67.3719 82.4798 67.3719 82.277C67.3719 77.52 66.6815 74.3132 63.7979 67.5467C63.6222 67.1319 63.4403 66.7087 63.2563 66.2781C61.3691 61.8693 59.2308 56.8724 58.0887 52.2951C56.8485 47.3325 57.0852 43.8849 58.7874 42.0495C59.854 40.9003 61.7484 39.6419 64.2651 38.4204C66.9243 37.124 70.2482 35.8887 73.8769 34.8404C82.174 32.4457 91.7724 31.0974 100.903 31.0437H101.223H101.482C110.709 31.0437 120.433 32.3716 128.863 34.7802C132.544 35.8313 135.916 37.0786 138.617 38.3852C141.171 39.6224 143.09 40.8901 144.168 42.0514C145.87 43.8868 146.106 47.3344 144.867 52.2969C143.73 56.8715 141.587 61.8683 139.699 66.2799C139.514 66.7121 139.334 67.1353 139.157 67.5495C136.274 74.316 135.691 79.8712 135.583 82.2798L136.948 83.5207C136.948 83.5207 136.712 76.7727 140.454 67.9894C144.195 59.206 150.015 46.413 145.239 41.2606Z" fill="#DFE0E1"/>
<path d="M65.9529 80.9106C65.9529 80.192 65.6779 79.3289 65.341 78.9928L62.7417 76.3999C62.7103 76.3606 62.6695 76.3282 62.6223 76.3049C62.5751 76.2817 62.5226 76.2683 62.4688 76.2656C62.3314 76.2656 61.7237 76.2656 61.642 76.2656C61.4291 76.2656 61.2803 76.5675 61.2803 77.099V84.3971L65.1043 88.216H65.957L65.9529 80.9106Z" fill="url(#paint62_linear_613_5859)"/>
<path d="M64.4894 78.9936L61.8912 76.4007C61.5542 76.0646 61.2793 76.3776 61.2793 77.0962V84.3942L65.1033 88.2131V80.9114C65.1013 80.1928 64.8305 79.3298 64.4894 78.9936Z" fill="url(#paint63_linear_613_5859)"/>
<path d="M64.2466 81.6892C64.259 82.6671 63.796 83.4653 63.2131 83.4708C62.6301 83.4764 62.1464 82.6883 62.134 81.7114C62.1216 80.7344 62.5847 79.9353 63.1676 79.9297C63.7505 79.9242 64.2342 80.7104 64.2466 81.6892Z" fill="url(#paint64_linear_613_5859)"/>
<path d="M63.1581 81.7079C63.1653 82.3043 62.9669 82.7895 62.7137 82.7923C62.4605 82.7951 62.2496 82.3136 62.2424 81.7172C62.2351 81.1208 62.4336 80.6356 62.6858 80.6328C62.9379 80.63 63.1498 81.1116 63.1581 81.7079Z" fill="url(#paint65_linear_613_5859)"/>
<path d="M134.892 34.0041C134.864 33.2809 133.169 31.2566 131.274 30.3722C131.09 30.2827 130.897 30.2095 130.697 30.1537C115.1 25.268 99.02 25.4032 99.02 25.4032C99.02 25.4032 79.4501 24.8716 64.25 30.7269L72.0542 32.8929L72.4914 35.9636L73.1673 36.334C73.1673 36.334 81.7311 37.06 87.0734 35.3005C92.4157 33.5411 93.9433 36.4849 101.259 36.4849C108.574 36.4849 110.101 33.5328 115.444 35.3005C120.786 37.0683 124.349 36.6414 127.279 36.7313C129.194 36.7905 132.588 36.7859 132.756 36.7729C133.426 36.7563 134.923 34.7801 134.892 34.0041Z" fill="#414042"/>
<path d="M101.479 29.8021C89.4821 29.5669 78.7334 31.368 71.9834 32.8691L72.0547 32.8885L72.4919 35.9593L73.1678 36.3297C73.1678 36.3297 81.7316 37.0575 87.0739 35.2981C92.4162 33.5386 93.9438 36.4825 101.259 36.4825C108.574 36.4825 110.102 33.5303 115.444 35.2981C120.787 37.0659 124.349 36.639 127.279 36.7288C129.194 36.788 132.588 36.7834 132.757 36.7704C133.421 36.7584 134.918 34.7823 134.887 34.0072C134.887 34.001 134.887 33.9948 134.887 33.9887C130.471 32.8987 117.685 30.1207 101.479 29.8021Z" fill="url(#paint66_linear_613_5859)"/>
<path d="M101.479 29.8018C117.684 30.1204 130.47 32.8984 134.889 33.9837C134.835 33.2429 133.153 31.2473 131.278 30.3722C131.094 30.2827 130.901 30.2095 130.7 30.1537C115.103 25.268 99.0239 25.4032 99.0239 25.4032C99.0239 25.4032 79.454 24.8716 64.2539 30.7269L71.9847 32.8707C78.7326 31.3677 89.4813 29.5666 101.479 29.8018Z" fill="url(#paint67_linear_613_5859)"/>
<path style="mix-blend-mode:color-dodge" d="M100.407 28.4371C114.348 28.6713 126.065 31.1707 129.863 31.9698C129.815 31.4263 128.226 30.0372 126.614 29.3918C126.47 29.3353 125.068 29.0103 125.068 29.0103C111.235 25.558 98.3703 26.0924 98.3703 26.0924C98.3703 26.0924 81.0381 25.8636 67.9629 30.1715C67.9629 30.1715 69.4346 30.3373 70.3069 30.6234C71.6019 31.0484 72.7285 31.5439 72.6107 31.5365C78.6847 30.2632 90.0876 28.2639 100.407 28.4371Z" fill="url(#paint68_linear_613_5859)"/>
<path d="M65.0533 32.1707L72.0544 34.0801V35.3932L70.1145 36.034C70.1145 36.034 72.4916 36.3896 73.1675 36.3267C73.8435 36.2637 73.9189 33.6847 73.706 32.9217C73.4931 32.1586 71.3413 31.0779 69.082 30.5686C66.8227 30.0593 64.8911 30.3269 64.2523 30.7279C63.6787 31.0872 63.7532 32.654 63.7532 32.654L65.0533 32.1707Z" fill="url(#paint69_linear_613_5859)"/>
<path opacity="0.6" d="M32.857 15.5086C36.3853 13.8214 37.3012 8.0255 31.1221 4.65839C27.4913 2.67976 23.491 2.98917 21.6601 3.67256C18.7775 4.74824 20.2306 8.54894 21.9398 11.9832C23.1283 14.3714 10.5565 13.0763 14.5836 19.8369C15.2417 20.9404 18.8603 22.7867 19.0494 24.2704C19.3272 26.4462 14.2714 26.8483 13.4558 28.8439C11.5174 33.5877 17.6771 36.5065 20.1877 39.2205C21.3248 40.4488 22.8598 42.4293 21.8915 45.1521C24.76 43.8572 24.4163 42.0123 24.2349 41.0586C23.8914 39.2359 22.8152 37.763 21.5092 36.0654C18.2163 31.7849 27.7142 29.6311 31.4452 27.206C36.9947 23.5995 20.929 21.2094 32.857 15.5086ZM20.9359 27.8297C16.5865 29.6442 16.5319 33.3718 16.5319 33.3718C16.5319 33.3718 14.4679 30.1942 17.058 29.0285C19.9342 27.7368 22.4805 26.6104 22.3681 24.4108C22.3058 23.159 19.1879 21.5403 18.373 19.6503C17.1846 16.8955 20.6229 16.8408 20.6229 16.8408C19.1097 19.0711 20.6886 19.7389 24.0034 21.8337C27.8716 24.2779 26.4901 25.5142 20.9359 27.8297ZM25.8045 16.1526C23.2103 16.3042 25.9661 13.8707 28.1004 12.465C30.2347 11.0594 28.3321 9.91411 26.7236 8.54846C24.8294 6.93944 33.0607 10.4162 32.7968 12.5999C32.5328 14.7836 28.3936 15.9993 25.8008 16.1506L25.8045 16.1526Z" fill="url(#paint70_linear_613_5859)"/>
<path opacity="0.6" d="M19.892 52.6259C13.537 50.4142 18.5008 44.415 16.599 39.5208C15.7491 37.3336 13.7609 35.9956 11.4924 35.5398C8.40653 34.9213 5.67778 35.9434 6.54269 40.3218C6.93944 42.3273 5.30042 45.1354 4.37731 46.7072C2.90228 49.223 -0.24968 52.4118 3.75309 56.9758C7.75587 61.5397 12.9013 57.3178 15.5286 57.9821C18.156 58.6464 12.6588 64.5468 18.2574 66.7317C23.856 68.9165 19.2184 70.0737 22.3378 73.2087C23.7396 74.5279 27.1632 74.7348 27.0062 73.6748C24.8109 70.2482 26.9498 66.6353 23.8772 64.2277C21.3732 62.2656 24.5772 61.7001 23.3984 56.847C22.6984 53.9679 21.6333 53.2309 19.892 52.6259ZM8.99373 55.2751C7.64919 55.9379 6.34873 54.8699 5.78534 53.9505C4.47606 51.8178 5.94756 49.9908 6.37517 49.7799C6.80278 49.569 6.66965 52.7333 7.23392 53.6503C7.79818 54.5674 9.42134 55.0627 8.99373 55.2751Z" fill="url(#paint71_linear_613_5859)"/>
<path opacity="0.6" d="M28.3767 54.8191C30.6379 56.9599 32.0803 60.262 30.964 66.6628C30.6624 68.3905 28.2825 72.1319 25.7056 74.1958C26.869 69.8023 27.9816 65.7418 27.6216 63.946C27.05 61.0881 23.2266 56.5445 20.5087 56.2878C15.4714 55.8071 12.5754 51.6333 13.8702 47.605C14.6762 45.0988 17.8981 43.6681 16.999 40.4873C17.0736 40.5526 16.5193 39.4835 16.8577 40.2679C15.6855 38.1761 14.2727 38.3557 12.2474 37.2384C8.64312 35.253 5.89291 28.2075 5.91455 24.0367C5.94342 18.8108 8.50807 16.2581 10.7135 13.9651C13.6289 10.9312 18.8481 15.4238 18.1932 20.417L18.1774 20.5513C17.6871 24.7981 25.3115 27.9779 27.1305 33.5908C28.595 38.1093 28.5871 42.2244 25.8691 46.1199C24.7125 47.7693 25.9665 52.54 28.3767 54.8191ZM11.1312 21.8736C11.7799 18.6934 10.1219 21.1013 9.75942 21.552C8.53955 23.0582 10.0649 27.4507 10.717 26.9557C11.8693 26.1022 10.6135 24.4075 11.1312 21.8736ZM26.0779 56.881C24.7262 55.1692 23.159 53.6682 21.3224 52.6175C20.4376 52.1156 19.3794 51.8123 18.5885 51.1264C17.9962 50.6085 18.0937 49.7531 18.2601 49.0137C18.3153 49.0074 18.3632 48.9774 18.3963 48.9283C18.4295 48.8792 18.446 48.8139 18.4435 48.7424C18.4188 48.4953 18.4652 48.3615 18.3409 48.1237C18.2764 48.0123 18.19 47.9213 18.0932 47.8631C17.9965 47.8048 17.894 47.7821 17.7997 47.7979C16.6283 47.8906 15.5076 49.1017 15.5022 50.3922C15.4966 52.0372 17.006 53.2604 18.3124 53.8826C19.509 54.447 20.8053 54.7037 22.022 55.2221C23.3113 55.774 24.4078 56.6231 25.4727 57.6118C25.9319 58.0373 26.4441 57.3502 26.0779 56.881ZM23.5196 39.2768C24.2059 37.8097 24.9043 36.1353 24.3034 34.3874C22.8348 30.085 18.4708 27.8724 20.7409 30.5936C21.5217 31.5294 21.6626 33.1025 21.716 33.9991C21.7567 34.693 20.8987 36.0425 21.0513 36.9422C21.191 37.7802 21.5465 38.5958 22.0607 39.2575C22.4466 39.7336 23.2637 39.8238 23.5196 39.2768Z" fill="url(#paint72_linear_613_5859)"/>
<defs>
<linearGradient id="paint0_linear_613_5859" x1="138.183" y1="77.6308" x2="134.446" y2="87.0838" gradientUnits="userSpaceOnUse">
<stop stop-color="#B90508"/>
<stop offset="0.01" stop-color="#BD0D10"/>
<stop offset="0.08" stop-color="#CC292D"/>
<stop offset="0.15" stop-color="#D74043"/>
<stop offset="0.22" stop-color="#E05053"/>
<stop offset="0.31" stop-color="#E4595D"/>
<stop offset="0.42" stop-color="#E65C60"/>
<stop offset="0.49" stop-color="#E6565A"/>
<stop offset="0.58" stop-color="#E4464B"/>
<stop offset="0.67" stop-color="#E32C31"/>
<stop offset="0.78" stop-color="#E0050B"/>
<stop offset="0.85" stop-color="#DC050B"/>
<stop offset="0.92" stop-color="#CF050A"/>
<stop offset="0.99" stop-color="#BB0508"/>
<stop offset="1" stop-color="#B90508"/>
</linearGradient>
<linearGradient id="paint1_linear_613_5859" x1="138.55" y1="79.9352" x2="134.067" y2="85.2064" gradientUnits="userSpaceOnUse">
<stop stop-color="#E65C60"/>
<stop offset="0.15" stop-color="#E6565A"/>
<stop offset="0.33" stop-color="#E4464B"/>
<stop offset="0.55" stop-color="#E32C31"/>
<stop offset="0.77" stop-color="#E0070D"/>
<stop offset="0.78" stop-color="#E0050B"/>
<stop offset="0.85" stop-color="#DC050B"/>
<stop offset="0.92" stop-color="#CF050A"/>
<stop offset="0.99" stop-color="#BB0508"/>
<stop offset="1" stop-color="#B90508"/>
</linearGradient>
<linearGradient id="paint2_linear_613_5859" x1="44.044" y1="111.051" x2="154" y2="111.051" gradientUnits="userSpaceOnUse">
<stop stop-color="#B90508"/>
<stop offset="0.01" stop-color="#BD0D10"/>
<stop offset="0.08" stop-color="#CC292D"/>
<stop offset="0.15" stop-color="#D74043"/>
<stop offset="0.22" stop-color="#E05053"/>
<stop offset="0.31" stop-color="#E4595D"/>
<stop offset="0.42" stop-color="#E65C60"/>
<stop offset="0.47" stop-color="#E6565A"/>
<stop offset="0.53" stop-color="#E4464B"/>
<stop offset="0.59" stop-color="#E32C31"/>
<stop offset="0.66" stop-color="#E0070D"/>
<stop offset="0.67" stop-color="#E0050B"/>
<stop offset="0.73" stop-color="#DC050B"/>
<stop offset="0.8" stop-color="#CF050A"/>
<stop offset="0.87" stop-color="#B90508"/>
<stop offset="1" stop-color="#890504"/>
</linearGradient>
<linearGradient id="paint3_linear_613_5859" x1="91.922" y1="117.189" x2="55.068" y2="108.447" gradientUnits="userSpaceOnUse">
<stop offset="0.14" stop-color="#B8373A"/>
<stop offset="1"/>
</linearGradient>
<linearGradient id="paint4_linear_613_5859" x1="84.9052" y1="117.014" x2="58.5373" y2="109.68" gradientUnits="userSpaceOnUse">
<stop offset="0.29" stop-color="#B8373A"/>
<stop offset="1"/>
</linearGradient>
<linearGradient id="paint5_linear_613_5859" x1="116.132" y1="114.06" x2="147.99" y2="109.591" gradientUnits="userSpaceOnUse">
<stop stop-color="#B8373A"/>
<stop offset="1"/>
</linearGradient>
<linearGradient id="paint6_linear_613_5859" x1="266.713" y1="96.5271" x2="326.38" y2="96.5271" gradientUnits="userSpaceOnUse">
<stop stop-color="#8C8E91"/>
<stop offset="0.26" stop-color="#A1A3A6"/>
<stop offset="0.45" stop-color="#B1B3B5"/>
<stop offset="1" stop-color="#DFE0E1"/>
</linearGradient>
<linearGradient id="paint7_linear_613_5859" x1="69.1884" y1="83.5869" x2="128.855" y2="83.5869" gradientUnits="userSpaceOnUse">
<stop stop-color="#7FBCE3"/>
<stop offset="0.4" stop-color="#ABCDE2"/>
<stop offset="0.79" stop-color="#D1DBE1"/>
<stop offset="1" stop-color="#DFE0E1"/>
</linearGradient>
<linearGradient id="paint8_linear_613_5859" x1="93.4336" y1="85.7982" x2="99.8869" y2="85.7982" gradientUnits="userSpaceOnUse">
<stop stop-color="#C4E0E1"/>
<stop offset="0.27" stop-color="#B6D2E4"/>
<stop offset="0.78" stop-color="#91ADEE"/>
<stop offset="1" stop-color="#809BF2"/>
</linearGradient>
<linearGradient id="paint9_linear_613_5859" x1="93.8789" y1="85.2115" x2="99.4403" y2="85.2115" gradientUnits="userSpaceOnUse">
<stop stop-color="#DFE0E1"/>
<stop offset="0.25" stop-color="#D1D9DD"/>
<stop offset="0.72" stop-color="#ACC5D1"/>
<stop offset="1" stop-color="#93B8C9"/>
</linearGradient>
<linearGradient id="paint10_linear_613_5859" x1="95.5898" y1="86.3609" x2="95.5898" y2="83.8134" gradientUnits="userSpaceOnUse">
<stop stop-color="#EAEBEB"/>
<stop offset="0.25" stop-color="#EAEBEB"/>
<stop offset="0.46" stop-color="#F1F2F2"/>
<stop offset="1" stop-color="white"/>
</linearGradient>
<linearGradient id="paint11_linear_613_5859" x1="119.044" y1="82.1009" x2="125.133" y2="82.1009" gradientUnits="userSpaceOnUse">
<stop stop-color="#C4E0E1"/>
<stop offset="0.27" stop-color="#B6D2E4"/>
<stop offset="0.78" stop-color="#91ADEE"/>
<stop offset="1" stop-color="#809BF2"/>
</linearGradient>
<linearGradient id="paint12_linear_613_5859" x1="119.465" y1="81.5526" x2="124.713" y2="81.5526" gradientUnits="userSpaceOnUse">
<stop stop-color="#DFE0E1"/>
<stop offset="0.25" stop-color="#D1D9DD"/>
<stop offset="0.72" stop-color="#ACC5D1"/>
<stop offset="1" stop-color="#93B8C9"/>
</linearGradient>
<linearGradient id="paint13_linear_613_5859" x1="121.078" y1="82.6305" x2="121.078" y2="80.2266" gradientUnits="userSpaceOnUse">
<stop stop-color="#EAEBEB"/>
<stop offset="0.25" stop-color="#EAEBEB"/>
<stop offset="0.46" stop-color="#F1F2F2"/>
<stop offset="1" stop-color="white"/>
</linearGradient>
<linearGradient id="paint14_linear_613_5859" x1="78.6992" y1="84.017" x2="86.7607" y2="84.017" gradientUnits="userSpaceOnUse">
<stop stop-color="#C4E0E1"/>
<stop offset="0.27" stop-color="#B6D2E4"/>
<stop offset="0.78" stop-color="#91ADEE"/>
<stop offset="1" stop-color="#809BF2"/>
</linearGradient>
<linearGradient id="paint15_linear_613_5859" x1="79.255" y1="83.2858" x2="86.2044" y2="83.2858" gradientUnits="userSpaceOnUse">
<stop stop-color="#DFE0E1"/>
<stop offset="0.25" stop-color="#D1D9DD"/>
<stop offset="0.72" stop-color="#ACC5D1"/>
<stop offset="1" stop-color="#93B8C9"/>
</linearGradient>
<linearGradient id="paint16_linear_613_5859" x1="81.3925" y1="84.7218" x2="81.3925" y2="81.5391" gradientUnits="userSpaceOnUse">
<stop stop-color="#EAEBEB"/>
<stop offset="0.25" stop-color="#EAEBEB"/>
<stop offset="0.46" stop-color="#F1F2F2"/>
<stop offset="1" stop-color="white"/>
</linearGradient>
<linearGradient id="paint17_linear_613_5859" x1="71.9962" y1="81.0921" x2="77.725" y2="81.0921" gradientUnits="userSpaceOnUse">
<stop stop-color="#C4E0E1"/>
<stop offset="0.27" stop-color="#B6D2E4"/>
<stop offset="0.78" stop-color="#91ADEE"/>
<stop offset="1" stop-color="#809BF2"/>
</linearGradient>
<linearGradient id="paint18_linear_613_5859" x1="72.3916" y1="80.4834" x2="77.3298" y2="80.4834" gradientUnits="userSpaceOnUse">
<stop stop-color="#DFE0E1"/>
<stop offset="0.25" stop-color="#D1D9DD"/>
<stop offset="0.72" stop-color="#ACC5D1"/>
<stop offset="1" stop-color="#93B8C9"/>
</linearGradient>
<linearGradient id="paint19_linear_613_5859" x1="73.9097" y1="81.4967" x2="73.9097" y2="79.2344" gradientUnits="userSpaceOnUse">
<stop stop-color="#EAEBEB"/>
<stop offset="0.25" stop-color="#EAEBEB"/>
<stop offset="0.46" stop-color="#F1F2F2"/>
<stop offset="1" stop-color="white"/>
</linearGradient>
<linearGradient id="paint20_linear_613_5859" x1="98.7696" y1="82.1222" x2="103.707" y2="82.1222" gradientUnits="userSpaceOnUse">
<stop stop-color="#C4E0E1"/>
<stop offset="0.27" stop-color="#B6D2E4"/>
<stop offset="0.78" stop-color="#91ADEE"/>
<stop offset="1" stop-color="#809BF2"/>
</linearGradient>
<linearGradient id="paint21_linear_613_5859" x1="99.1085" y1="81.6712" x2="103.365" y2="81.6712" gradientUnits="userSpaceOnUse">
<stop stop-color="#DFE0E1"/>
<stop offset="0.25" stop-color="#D1D9DD"/>
<stop offset="0.72" stop-color="#ACC5D1"/>
<stop offset="1" stop-color="#93B8C9"/>
</linearGradient>
<linearGradient id="paint22_linear_613_5859" x1="100.419" y1="82.5509" x2="100.419" y2="80.6016" gradientUnits="userSpaceOnUse">
<stop stop-color="#EAEBEB"/>
<stop offset="0.25" stop-color="#EAEBEB"/>
<stop offset="0.46" stop-color="#F1F2F2"/>
<stop offset="1" stop-color="white"/>
</linearGradient>
<linearGradient id="paint23_linear_613_5859" x1="86.2969" y1="81.8644" x2="91.2351" y2="81.8644" gradientUnits="userSpaceOnUse">
<stop stop-color="#C4E0E1"/>
<stop offset="0.27" stop-color="#B6D2E4"/>
<stop offset="0.78" stop-color="#91ADEE"/>
<stop offset="1" stop-color="#809BF2"/>
</linearGradient>
<linearGradient id="paint24_linear_613_5859" x1="86.6378" y1="81.4212" x2="90.8939" y2="81.4212" gradientUnits="userSpaceOnUse">
<stop stop-color="#DFE0E1"/>
<stop offset="0.25" stop-color="#D1D9DD"/>
<stop offset="0.72" stop-color="#ACC5D1"/>
<stop offset="1" stop-color="#93B8C9"/>
</linearGradient>
<linearGradient id="paint25_linear_613_5859" x1="87.9465" y1="82.293" x2="87.9465" y2="80.3438" gradientUnits="userSpaceOnUse">
<stop stop-color="#EAEBEB"/>
<stop offset="0.25" stop-color="#EAEBEB"/>
<stop offset="0.46" stop-color="#F1F2F2"/>
<stop offset="1" stop-color="white"/>
</linearGradient>
<linearGradient id="paint26_linear_613_5859" x1="80.875" y1="78.4636" x2="85.13" y2="78.4636" gradientUnits="userSpaceOnUse">
<stop stop-color="#C4E0E1"/>
<stop offset="0.27" stop-color="#B6D2E4"/>
<stop offset="0.78" stop-color="#91ADEE"/>
<stop offset="1" stop-color="#809BF2"/>
</linearGradient>
<linearGradient id="paint27_linear_613_5859" x1="81.168" y1="78.0727" x2="84.836" y2="78.0727" gradientUnits="userSpaceOnUse">
<stop stop-color="#DFE0E1"/>
<stop offset="0.25" stop-color="#D1D9DD"/>
<stop offset="0.72" stop-color="#ACC5D1"/>
<stop offset="1" stop-color="#93B8C9"/>
</linearGradient>
<linearGradient id="paint28_linear_613_5859" x1="82.2957" y1="78.8283" x2="82.2957" y2="77.1484" gradientUnits="userSpaceOnUse">
<stop stop-color="#EAEBEB"/>
<stop offset="0.25" stop-color="#EAEBEB"/>
<stop offset="0.46" stop-color="#F1F2F2"/>
<stop offset="1" stop-color="white"/>
</linearGradient>
<linearGradient id="paint29_linear_613_5859" x1="100.827" y1="77.4564" x2="104.301" y2="77.4564" gradientUnits="userSpaceOnUse">
<stop stop-color="#C4E0E1"/>
<stop offset="0.27" stop-color="#B6D2E4"/>
<stop offset="0.78" stop-color="#91ADEE"/>
<stop offset="1" stop-color="#809BF2"/>
</linearGradient>
<linearGradient id="paint30_linear_613_5859" x1="101.066" y1="77.1376" x2="104.061" y2="77.1376" gradientUnits="userSpaceOnUse">
<stop stop-color="#DFE0E1"/>
<stop offset="0.25" stop-color="#D1D9DD"/>
<stop offset="0.72" stop-color="#ACC5D1"/>
<stop offset="1" stop-color="#93B8C9"/>
</linearGradient>
<linearGradient id="paint31_linear_613_5859" x1="101.987" y1="77.7574" x2="101.987" y2="76.386" gradientUnits="userSpaceOnUse">
<stop stop-color="#EAEBEB"/>
<stop offset="0.25" stop-color="#EAEBEB"/>
<stop offset="0.46" stop-color="#F1F2F2"/>
<stop offset="1" stop-color="white"/>
</linearGradient>
<linearGradient id="paint32_linear_613_5859" x1="106.521" y1="76.6344" x2="111.95" y2="76.6344" gradientUnits="userSpaceOnUse">
<stop stop-color="#C4E0E1"/>
<stop offset="0.27" stop-color="#B6D2E4"/>
<stop offset="0.78" stop-color="#91ADEE"/>
<stop offset="1" stop-color="#809BF2"/>
</linearGradient>
<linearGradient id="paint33_linear_613_5859" x1="106.896" y1="76.1415" x2="111.576" y2="76.1415" gradientUnits="userSpaceOnUse">
<stop stop-color="#DFE0E1"/>
<stop offset="0.25" stop-color="#D1D9DD"/>
<stop offset="0.72" stop-color="#ACC5D1"/>
<stop offset="1" stop-color="#93B8C9"/>
</linearGradient>
<linearGradient id="paint34_linear_613_5859" x1="108.334" y1="77.1038" x2="108.334" y2="74.9609" gradientUnits="userSpaceOnUse">
<stop stop-color="#EAEBEB"/>
<stop offset="0.25" stop-color="#EAEBEB"/>
<stop offset="0.46" stop-color="#F1F2F2"/>
<stop offset="1" stop-color="white"/>
</linearGradient>
<linearGradient id="paint35_linear_613_5859" x1="116.38" y1="77.8821" x2="119.954" y2="77.8821" gradientUnits="userSpaceOnUse">
<stop stop-color="#C4E0E1"/>
<stop offset="0.27" stop-color="#B6D2E4"/>
<stop offset="0.78" stop-color="#91ADEE"/>
<stop offset="1" stop-color="#809BF2"/>
</linearGradient>
<linearGradient id="paint36_linear_613_5859" x1="116.626" y1="77.5539" x2="119.706" y2="77.5539" gradientUnits="userSpaceOnUse">
<stop stop-color="#DFE0E1"/>
<stop offset="0.25" stop-color="#D1D9DD"/>
<stop offset="0.72" stop-color="#ACC5D1"/>
<stop offset="1" stop-color="#93B8C9"/>
</linearGradient>
<linearGradient id="paint37_linear_613_5859" x1="117.573" y1="78.1879" x2="117.573" y2="76.7766" gradientUnits="userSpaceOnUse">
<stop stop-color="#EAEBEB"/>
<stop offset="0.25" stop-color="#EAEBEB"/>
<stop offset="0.46" stop-color="#F1F2F2"/>
<stop offset="1" stop-color="white"/>
</linearGradient>
<linearGradient id="paint38_linear_613_5859" x1="88.7656" y1="78.3698" x2="97.9764" y2="78.3698" gradientUnits="userSpaceOnUse">
<stop stop-color="#C4E0E1"/>
<stop offset="0.27" stop-color="#B6D2E4"/>
<stop offset="0.78" stop-color="#91ADEE"/>
<stop offset="1" stop-color="#809BF2"/>
</linearGradient>
<linearGradient id="paint39_linear_613_5859" x1="89.4014" y1="77.5382" x2="97.3409" y2="77.5382" gradientUnits="userSpaceOnUse">
<stop stop-color="#DFE0E1"/>
<stop offset="0.25" stop-color="#D1D9DD"/>
<stop offset="0.72" stop-color="#ACC5D1"/>
<stop offset="1" stop-color="#93B8C9"/>
</linearGradient>
<linearGradient id="paint40_linear_613_5859" x1="91.8425" y1="79.1756" x2="91.8425" y2="75.5391" gradientUnits="userSpaceOnUse">
<stop stop-color="#EAEBEB"/>
<stop offset="0.25" stop-color="#EAEBEB"/>
<stop offset="0.46" stop-color="#F1F2F2"/>
<stop offset="1" stop-color="white"/>
</linearGradient>
<linearGradient id="paint41_linear_613_5859" x1="106.24" y1="81.5964" x2="115.451" y2="81.5964" gradientUnits="userSpaceOnUse">
<stop stop-color="#C4E0E1"/>
<stop offset="0.27" stop-color="#B6D2E4"/>
<stop offset="0.78" stop-color="#91ADEE"/>
<stop offset="1" stop-color="#809BF2"/>
</linearGradient>
<linearGradient id="paint42_linear_613_5859" x1="106.876" y1="80.7579" x2="114.816" y2="80.7579" gradientUnits="userSpaceOnUse">
<stop stop-color="#DFE0E1"/>
<stop offset="0.25" stop-color="#D1D9DD"/>
<stop offset="0.72" stop-color="#ACC5D1"/>
<stop offset="1" stop-color="#93B8C9"/>
</linearGradient>
<linearGradient id="paint43_linear_613_5859" x1="109.318" y1="82.4012" x2="109.318" y2="78.7656" gradientUnits="userSpaceOnUse">
<stop stop-color="#EAEBEB"/>
<stop offset="0.25" stop-color="#EAEBEB"/>
<stop offset="0.46" stop-color="#F1F2F2"/>
<stop offset="1" stop-color="white"/>
</linearGradient>
<linearGradient id="paint44_linear_613_5859" x1="69.1885" y1="79.2901" x2="128.855" y2="79.2901" gradientUnits="userSpaceOnUse">
<stop stop-color="#EAEBEB"/>
<stop offset="1" stop-color="#A0A2A5"/>
</linearGradient>
<linearGradient id="paint45_linear_613_5859" x1="81.1627" y1="25.4062" x2="81.1627" y2="74.8412" gradientUnits="userSpaceOnUse">
<stop stop-color="#C9E5F1"/>
<stop offset="1" stop-color="#BAD2E2"/>
</linearGradient>
<linearGradient id="paint46_linear_613_5859" x1="73.1673" y1="71.8259" x2="126.12" y2="71.8259" gradientUnits="userSpaceOnUse">
<stop stop-color="#DFE0E1"/>
<stop offset="1" stop-color="#B1B3B5"/>
</linearGradient>
<linearGradient id="paint47_linear_613_5859" x1="73.0557" y1="68.7912" x2="128.386" y2="68.7912" gradientUnits="userSpaceOnUse">
<stop offset="0.13" stop-color="#E65C60"/>
<stop offset="0.28" stop-color="#E6585C"/>
<stop offset="0.43" stop-color="#E54D51"/>
<stop offset="0.58" stop-color="#E4393E"/>
<stop offset="0.72" stop-color="#E21F24"/>
<stop offset="0.83" stop-color="#E0050B"/>
<stop offset="0.9" stop-color="#DC050B"/>
<stop offset="0.96" stop-color="#CF050A"/>
<stop offset="1" stop-color="#C40509"/>
</linearGradient>
<linearGradient id="paint48_linear_613_5859" x1="93.9821" y1="71.4167" x2="86.5388" y2="54.8765" gradientUnits="userSpaceOnUse">
<stop offset="0.14" stop-color="#B8373A"/>
<stop offset="1"/>
</linearGradient>
<linearGradient id="paint49_linear_613_5859" x1="120.736" y1="70.0912" x2="110.592" y2="75.0541" gradientUnits="userSpaceOnUse">
<stop/>
<stop offset="1" stop-color="#B8373A"/>
</linearGradient>
<linearGradient id="paint50_linear_613_5859" x1="86.1398" y1="57.7885" x2="91.1197" y2="67.9535" gradientUnits="userSpaceOnUse">
<stop/>
<stop offset="0.1" stop-color="#060202"/>
<stop offset="0.23" stop-color="#170707"/>
<stop offset="0.38" stop-color="#330F10"/>
<stop offset="0.55" stop-color="#5A1B1D"/>
<stop offset="0.72" stop-color="#8C2A2C"/>
<stop offset="0.86" stop-color="#B8373A"/>
</linearGradient>
<linearGradient id="paint51_linear_613_5859" x1="101.009" y1="60.1512" x2="110.421" y2="61.8489" gradientUnits="userSpaceOnUse">
<stop stop-color="#E61C24"/>
<stop offset="0.26" stop-color="#E11A22"/>
<stop offset="0.57" stop-color="#D3131B"/>
<stop offset="0.9" stop-color="#BB090F"/>
<stop offset="1" stop-color="#B3050B"/>
</linearGradient>
<linearGradient id="paint52_linear_613_5859" x1="99.4165" y1="55.3452" x2="117.526" y2="58.6118" gradientUnits="userSpaceOnUse">
<stop stop-color="#414042"/>
<stop offset="1"/>
</linearGradient>
<linearGradient id="paint53_linear_613_5859" x1="100.207" y1="50.9751" x2="118.381" y2="54.2534" gradientUnits="userSpaceOnUse">
<stop stop-color="#6D6E71"/>
<stop offset="1" stop-color="#231F20"/>
</linearGradient>
<linearGradient id="paint54_linear_613_5859" x1="102.541" y1="49.5791" x2="110.393" y2="50.9954" gradientUnits="userSpaceOnUse">
<stop stop-color="#6D6E71"/>
<stop offset="1" stop-color="#414042"/>
</linearGradient>
<linearGradient id="paint55_linear_613_5859" x1="54.9243" y1="57.9624" x2="73.2765" y2="85.0946" gradientUnits="userSpaceOnUse">
<stop stop-color="#C9E5F1"/>
<stop offset="1" stop-color="#BAD2E2"/>
</linearGradient>
<linearGradient id="paint56_linear_613_5859" x1="70.1209" y1="42.722" x2="70.1206" y2="76.3998" gradientUnits="userSpaceOnUse">
<stop stop-color="#C9E5F1"/>
<stop offset="1" stop-color="#BAD2E2"/>
</linearGradient>
<linearGradient id="paint57_linear_613_5859" x1="27.9134" y1="72.0253" x2="49.2324" y2="128.079" gradientUnits="userSpaceOnUse">
<stop stop-color="#E0070D"/>
<stop offset="0.09" stop-color="#E32C31"/>
<stop offset="0.17" stop-color="#E4464B"/>
<stop offset="0.24" stop-color="#E6565A"/>
<stop offset="0.29" stop-color="#E65C60"/>
<stop offset="0.48" stop-color="#E4595D"/>
<stop offset="0.62" stop-color="#E05053"/>
<stop offset="0.75" stop-color="#D74043"/>
<stop offset="0.87" stop-color="#CC292D"/>
<stop offset="0.98" stop-color="#BD0D10"/>
<stop offset="1" stop-color="#B90508"/>
</linearGradient>
<linearGradient id="paint58_linear_613_5859" x1="28.4883" y1="97.2339" x2="52.0744" y2="97.2339" gradientUnits="userSpaceOnUse">
<stop offset="0.29" stop-color="#B8373A"/>
<stop offset="1"/>
</linearGradient>
<linearGradient id="paint59_linear_613_5859" x1="19.2957" y1="73.4351" x2="30.2467" y2="79.3965" gradientUnits="userSpaceOnUse">
<stop stop-color="#8C8E91"/>
<stop offset="0.26" stop-color="#A1A3A6"/>
<stop offset="0.45" stop-color="#B1B3B5"/>
<stop offset="1" stop-color="#DFE0E1"/>
</linearGradient>
<linearGradient id="paint60_linear_613_5859" x1="67.6065" y1="84.3148" x2="106.621" y2="17.2634" gradientUnits="userSpaceOnUse">
<stop stop-color="#A0A2A5"/>
<stop offset="0.06" stop-color="#C8C9CA"/>
<stop offset="0.09" stop-color="#D9DADB"/>
<stop offset="0.3" stop-color="#CACCCD"/>
<stop offset="0.36" stop-color="#DDDEDF"/>
<stop offset="0.41" stop-color="#EAEBEB"/>
<stop offset="0.46" stop-color="#E2E3E4"/>
<stop offset="0.53" stop-color="#DFE0E1"/>
<stop offset="1" stop-color="#B1B3B5"/>
</linearGradient>
<linearGradient id="paint61_linear_613_5859" x1="127.252" y1="78.3455" x2="145.104" y2="40.8721" gradientUnits="userSpaceOnUse">
<stop offset="0.09" stop-color="#6D6E71"/>
<stop offset="0.19" stop-color="#797B7E"/>
<stop offset="0.3" stop-color="#8C8E91"/>
</linearGradient>
<linearGradient id="paint62_linear_613_5859" x1="64.4387" y1="76.474" x2="63.1881" y2="88.0016" gradientUnits="userSpaceOnUse">
<stop stop-color="#E65C60"/>
<stop offset="0.62" stop-color="#D03236"/>
<stop offset="1" stop-color="#C21619"/>
</linearGradient>
<linearGradient id="paint63_linear_613_5859" x1="64.8435" y1="78.0809" x2="60.5837" y2="85.8025" gradientUnits="userSpaceOnUse">
<stop stop-color="#E65C60"/>
<stop offset="0.33" stop-color="#E4595D"/>
<stop offset="0.59" stop-color="#DF4F53"/>
<stop offset="0.83" stop-color="#D73F42"/>
<stop offset="1" stop-color="#CE2E31"/>
</linearGradient>
<linearGradient id="paint64_linear_613_5859" x1="62.134" y1="81.6994" x2="64.2466" y2="81.6994" gradientUnits="userSpaceOnUse">
<stop stop-color="#DFE0E1"/>
<stop offset="0.78" stop-color="#B1B3B5"/>
<stop offset="1" stop-color="#8C8E91"/>
</linearGradient>
<linearGradient id="paint65_linear_613_5859" x1="61.4897" y1="80.7134" x2="62.4041" y2="80.7134" gradientUnits="userSpaceOnUse">
<stop stop-color="#DFE0E1"/>
<stop offset="0.78" stop-color="#B1B3B5"/>
<stop offset="1" stop-color="#8C8E91"/>
</linearGradient>
<linearGradient id="paint66_linear_613_5859" x1="71.9834" y1="33.2775" x2="134.893" y2="33.2775" gradientUnits="userSpaceOnUse">
<stop/>
<stop offset="1" stop-color="#414042"/>
</linearGradient>
<linearGradient id="paint67_linear_613_5859" x1="64.2518" y1="29.686" x2="134.889" y2="29.686" gradientUnits="userSpaceOnUse">
<stop stop-color="#414042"/>
<stop offset="1" stop-color="#231F20"/>
</linearGradient>
<linearGradient id="paint68_linear_613_5859" x1="67.9639" y1="29.0158" x2="129.867" y2="29.0158" gradientUnits="userSpaceOnUse">
<stop stop-color="#6D6E71"/>
<stop offset="1" stop-color="#414042"/>
</linearGradient>
<linearGradient id="paint69_linear_613_5859" x1="65.2363" y1="29.7667" x2="72.3654" y2="37.1862" gradientUnits="userSpaceOnUse">
<stop stop-color="#6D6E71"/>
<stop offset="1" stop-color="#231F20"/>
</linearGradient>
<linearGradient id="paint70_linear_613_5859" x1="24.7256" y1="14.2162" x2="20.0327" y2="36.6241" gradientUnits="userSpaceOnUse">
<stop stop-color="#C9E5F1"/>
<stop offset="1" stop-color="#BAD2E2"/>
</linearGradient>
<linearGradient id="paint71_linear_613_5859" x1="7.53379" y1="43.3369" x2="22.5748" y2="74.1161" gradientUnits="userSpaceOnUse">
<stop stop-color="#C9E5F1"/>
<stop offset="1" stop-color="#BAD2E2"/>
</linearGradient>
<linearGradient id="paint72_linear_613_5859" x1="10.241" y1="12.3104" x2="21.4905" y2="74.1265" gradientUnits="userSpaceOnUse">
<stop stop-color="#C9E5F1"/>
<stop offset="1" stop-color="#BAD2E2"/>
</linearGradient>
</defs>
</svg>
