<svg width="198" height="195" viewBox="0 0 198 195" fill="none" xmlns="http://www.w3.org/2000/svg">
<path d="M178.739 2.76562H22.1143V31.1185H178.739V2.76562Z" fill="#0078DC"/>
<path d="M177.915 190.536L179.422 30.8086H22.0273L23.5343 190.536H177.915Z" fill="#825283"/>
<path d="M170.277 190.536L171.639 34.3281H29.3096L30.6716 190.536H170.277Z" fill="url(#paint0_radial_652_2381)"/>
<path d="M170.799 127.304L30.5596 128.309L30.5613 128.553L170.8 127.548L170.799 127.304Z" fill="#A87CAA"/>
<path d="M170.99 98.4137L29.749 99.4258L29.7508 99.6704L170.992 98.6582L170.99 98.4137Z" fill="#A87CAA"/>
<path d="M171.672 64.6898L29.7188 65.707L29.7205 65.9516L171.674 64.9344L171.672 64.6898Z" fill="#A87CAA"/>
<path d="M171.499 46.7601L29.5459 47.7773L29.5476 48.0219L171.501 47.0047L171.499 46.7601Z" fill="#A87CAA"/>
<path d="M171.291 111.443L171.296 111.198L29.8977 108.512L29.8936 108.756L171.291 111.443Z" fill="#A87CAA"/>
<path d="M171.137 82.3146V82.07L29.7148 81.332V81.5766L171.137 82.3146Z" fill="#A87CAA"/>
<path d="M170.799 173.186L30.5596 174.191L30.5613 174.436L170.8 173.431L170.799 173.186Z" fill="#A87CAA"/>
<path d="M170.991 144.3L29.75 145.312L29.7517 145.557L170.993 144.545L170.991 144.3Z" fill="#A87CAA"/>
<path d="M171.291 157.326L171.296 157.077L29.8977 154.391L29.8936 154.635L171.291 157.326Z" fill="#A87CAA"/>
<path d="M129.299 94.2383L128.462 116.194L71.3965 116.024V94.7441L129.299 94.2383Z" fill="url(#paint1_linear_652_2381)"/>
<path d="M127.333 96.375L126.55 115.267L73.2393 115.122V96.8062L127.333 96.375Z" fill="url(#paint2_linear_652_2381)"/>
<path d="M100.095 82.7212C100.685 82.7212 101.164 82.2424 101.164 81.6516C101.164 81.0609 100.685 80.582 100.095 80.582C99.5056 80.582 99.0273 81.0609 99.0273 81.6516C99.0273 82.2424 99.5056 82.7212 100.095 82.7212Z" fill="#825283"/>
<path d="M99.4697 127.652C99.4697 127.863 99.5324 128.07 99.6497 128.246C99.7671 128.422 99.9339 128.559 100.129 128.64C100.324 128.721 100.539 128.742 100.746 128.701C100.953 128.659 101.144 128.558 101.293 128.408C101.442 128.258 101.544 128.068 101.585 127.86C101.627 127.653 101.606 127.438 101.525 127.242C101.444 127.047 101.307 126.88 101.131 126.762C100.956 126.645 100.749 126.582 100.538 126.582C100.254 126.582 99.9829 126.695 99.7826 126.895C99.5822 127.096 99.4697 127.368 99.4697 127.652Z" fill="#825283"/>
<path d="M99.4082 65.4368C99.4082 65.6484 99.4709 65.8551 99.5882 66.031C99.7056 66.2069 99.8724 66.344 100.068 66.425C100.263 66.506 100.478 66.5271 100.685 66.4859C100.892 66.4446 101.082 66.3427 101.232 66.1931C101.381 66.0436 101.483 65.8529 101.524 65.6455C101.565 65.438 101.544 65.2229 101.463 65.0275C101.382 64.832 101.245 64.665 101.07 64.5475C100.894 64.4299 100.688 64.3672 100.476 64.3672C100.336 64.3666 100.197 64.394 100.067 64.4475C99.9372 64.5011 99.8192 64.5798 99.7199 64.6792C99.6206 64.7787 99.5419 64.8968 99.4885 65.0268C99.435 65.1569 99.4077 65.2962 99.4082 65.4368Z" fill="#825283"/>
<path d="M99.4082 47.5774C99.4082 47.789 99.4709 47.9958 99.5882 48.1717C99.7056 48.3476 99.8724 48.4847 100.068 48.5656C100.263 48.6466 100.478 48.6677 100.685 48.6265C100.892 48.5852 101.082 48.4833 101.232 48.3338C101.381 48.1842 101.483 47.9936 101.524 47.7861C101.565 47.5786 101.544 47.3636 101.463 47.1681C101.382 46.9727 101.245 46.8056 101.07 46.6881C100.894 46.5706 100.688 46.5078 100.476 46.5078C100.336 46.5073 100.197 46.5346 100.067 46.5881C99.9372 46.6417 99.8192 46.7205 99.7199 46.8199C99.6206 46.9193 99.5419 47.0374 99.4885 47.1675C99.435 47.2975 99.4077 47.4368 99.4082 47.5774Z" fill="#825283"/>
<path d="M168.624 34.3281L166.869 190.536H170.276L171.638 34.3281H168.624Z" fill="url(#paint3_radial_652_2381)"/>
<path d="M31.8184 34.3281L33.8263 190.536H30.3115L29.3096 34.3281H31.8184Z" fill="url(#paint4_radial_652_2381)"/>
<path style="mix-blend-mode:multiply" opacity="0.5" d="M129.299 94.2383L127.332 96.3775L73.2388 96.8087L71.3965 94.7441L129.299 94.2383Z" fill="url(#paint5_linear_652_2381)"/>
<path style="mix-blend-mode:multiply" opacity="0.5" d="M179.422 30.8055L171.639 34.3253L170.277 190.533L161.032 190.931L155.261 40.2537L35.7722 41.0082V190.683L30.3116 190.533L29.3097 34.3253L20.21 30.4531L179.422 30.8055Z" fill="url(#paint6_linear_652_2381)"/>
<g style="mix-blend-mode:multiply" opacity="0.2">
<path d="M178.532 77.0534L19.5309 72.0867L19.4936 67.2901L180.412 67.1782L180.631 59.6495L180.896 56.5774L20.3092 57.3859L20.1353 51.217L191.561 49.0114L191.238 41.8102L20.8184 39.9364L21.0047 33.4358L185.893 36.8643L184.092 25.7703L19.4854 24.8292L20.9509 16.9979L188.327 13.9922L178.532 77.0534Z" fill="#999ED6"/>
</g>
<path d="M179.753 194.918L181.43 0.191406L179.339 2.95248L177.327 195.005L179.753 194.918Z" fill="#825283"/>
<path d="M197.998 0.357237L181.43 0.191406L179.753 194.918H192.724L197.998 0.357237Z" fill="url(#paint7_radial_652_2381)"/>
<path d="M185.049 15.543L183.459 17.2179V40.0942H194.422L195.676 38.5436L185.049 15.543Z" fill="#825283"/>
<path d="M196.177 15.5838L195.676 38.543H184.796V15.418L196.177 15.5838Z" fill="url(#paint8_radial_652_2381)"/>
<path d="M185.715 36.2383H188.729V34.9407H185.715V36.2383Z" fill="#FF8FC7"/>
<path d="M191.697 36.1953H194.711V34.8977H191.697V36.1953Z" fill="#FF1A88"/>
<path d="M184.278 111.355C184.586 111.343 184.879 111.222 185.106 111.015C192.699 104.768 188.613 42.3241 188.418 39.7081L187.682 39.7579C187.723 40.4005 191.921 104.457 184.622 110.464C184.328 110.708 184.171 110.634 184.105 110.601C179.575 108.387 179.443 48.2857 180.457 8.4325L180.13 8.31641C179.869 18.515 177.369 108.13 183.782 111.264C183.938 111.334 184.108 111.365 184.278 111.355Z" fill="#825283"/>
<path d="M186.452 143.608C186.622 143.6 186.789 143.555 186.941 143.476C187.092 143.397 187.225 143.287 187.33 143.152C194.873 134.964 192.55 43.8732 192.447 40.001L192.099 39.9679C192.124 40.9131 194.132 134.682 186.787 142.65C186.539 142.92 186.423 142.874 186.373 142.857C181.683 140.996 180.648 61.3931 181.099 8.33984H180.362C180.246 21.9006 179.43 140.905 186.104 143.55C186.215 143.593 186.333 143.613 186.452 143.608Z" fill="#825283"/>
<path d="M21.6962 194.731L20.0195 0L22.1144 2.76522L24.1223 194.813L21.6962 194.731Z" fill="#825283"/>
<path d="M3.45508 0.169976L6.07984 97.2057L7.22249 139.086L7.25975 140.749L7.58267 152.742L8.72531 194.735H21.6918L20.0234 0L3.45508 0.169976Z" fill="url(#paint9_radial_652_2381)"/>
<path d="M16.4008 15.3555L17.9906 17.0304V39.9067H7.032L5.77344 38.3561L16.4008 15.3555Z" fill="#825283"/>
<path d="M5.27246 15.3965L5.7734 38.3558H16.6533V15.2266L5.27246 15.3965Z" fill="url(#paint10_radial_652_2381)"/>
<path d="M15.7346 34.7539H12.7207V36.0515H15.7346V34.7539Z" fill="#FF1A88"/>
<path d="M9.75221 34.707H6.73828V36.0047H9.75221V34.707Z" fill="#FF1A88"/>
<path d="M3.26889 65.0676C3.58048 65.0685 3.88192 64.9566 4.11761 64.7525C11.8884 58.7329 9.54107 41.3829 9.44171 38.7462L8.70477 38.7752C8.72961 39.4178 11.139 58.3805 3.66632 64.168C3.3641 64.4043 3.20687 64.3255 3.14063 64.2882C-1.31816 61.9417 1.43492 46.1546 3.63326 6.34702L3.31033 6.22266C2.74729 16.4088 -3.51653 61.6183 2.80112 64.9432C2.94511 65.021 3.10535 65.0636 3.26889 65.0676Z" fill="#825283"/>
<path style="mix-blend-mode:color-dodge" opacity="0.2" d="M20.7106 126.711L7.25977 140.748L7.58269 152.742L20.7106 140.533V126.711Z" fill="url(#paint11_linear_652_2381)"/>
<path style="mix-blend-mode:color-dodge" opacity="0.2" d="M6.08008 97.2047L7.22272 139.077L20.7109 119.662L19.9657 77.4336C19.9657 77.4336 11.5076 89.3651 6.08008 97.2047Z" fill="url(#paint12_linear_652_2381)"/>
<path d="M18.2016 194.668L17.8663 159.641L11.1719 160.146L12.0082 195.004L18.2016 194.668Z" fill="#825283"/>
<path style="mix-blend-mode:color-dodge" opacity="0.2" d="M180.792 126.711L194.243 140.748L193.916 152.742L180.792 140.533V126.711Z" fill="url(#paint13_linear_652_2381)"/>
<path style="mix-blend-mode:color-dodge" opacity="0.2" d="M195.423 97.2052L194.284 139.077L180.792 119.663L181.525 77.4258C181.525 77.4258 189.995 89.3656 195.423 97.2052Z" fill="url(#paint14_linear_652_2381)"/>
<path d="M183.301 194.668L183.636 159.641L190.331 160.146L189.494 195.004L183.301 194.668Z" fill="#825283"/>
<path style="mix-blend-mode:multiply" opacity="0.5" d="M177.853 72.7295C177.853 72.7295 176.851 10.6426 175.091 7.87735C173.332 5.11213 33.0147 5.36504 27.9928 7.37573C22.971 9.38643 22.9628 76.2493 22.9628 75.4947C22.9628 74.7402 22.1348 2.76562 22.1348 2.76562L179.36 2.95219L177.853 72.7295Z" fill="url(#paint15_linear_652_2381)"/>
<path style="mix-blend-mode:multiply" opacity="0.5" d="M7.98857 44.5923L18.5414 44.4596L17.9908 17.0312L17.2249 39.8329L7.03223 39.9076L7.98857 44.5923Z" fill="url(#paint16_linear_652_2381)"/>
<path style="mix-blend-mode:multiply" opacity="0.5" d="M193.167 44.473L182.614 44.5932L183.459 17.2188L183.823 39.9375L194.016 39.7675L193.167 44.473Z" fill="url(#paint17_linear_652_2381)"/>
<path d="M194.5 20.6836L194.413 23.6768L186.501 23.6478L186.41 20.7126L194.5 20.6836Z" fill="#FBF9D1"/>
<path d="M185.719 36.2383H189.006V34.9448H185.719V36.2383Z" fill="#FF9D7C"/>
<defs>
<radialGradient id="paint0_radial_652_2381" cx="0" cy="0" r="1" gradientUnits="userSpaceOnUse" gradientTransform="translate(100.472 143.606) rotate(180) scale(192.659 192.927)">
<stop stop-color="#F9D997"/>
<stop offset="1" stop-color="#FFAD8C"/>
</radialGradient>
<linearGradient id="paint1_linear_652_2381" x1="100.439" y1="119.345" x2="100.314" y2="99.8641" gradientUnits="userSpaceOnUse">
<stop stop-color="#E14C49"/>
<stop offset="1" stop-color="#E6757D"/>
</linearGradient>
<linearGradient id="paint2_linear_652_2381" x1="73.2393" y1="105.823" x2="127.333" y2="105.823" gradientUnits="userSpaceOnUse">
<stop stop-color="#804252"/>
<stop offset="1" stop-color="#330E5B"/>
</linearGradient>
<radialGradient id="paint3_radial_652_2381" cx="0" cy="0" r="1" gradientUnits="userSpaceOnUse" gradientTransform="translate(169.254 112.434) rotate(180) scale(55.178 55.2547)">
<stop stop-color="#E2E0EA"/>
<stop offset="0.98" stop-color="#9A80BB"/>
</radialGradient>
<radialGradient id="paint4_radial_652_2381" cx="0" cy="0" r="1" gradientUnits="userSpaceOnUse" gradientTransform="translate(31.5659 112.434) rotate(180) scale(55.1739 55.2506)">
<stop stop-color="#E2E0EA"/>
<stop offset="0.98" stop-color="#9A80BB"/>
</radialGradient>
<linearGradient id="paint5_linear_652_2381" x1="97.0231" y1="126.795" x2="94.8852" y2="147.536" gradientUnits="userSpaceOnUse">
<stop stop-color="#B5465D"/>
<stop offset="1" stop-color="white"/>
</linearGradient>
<linearGradient id="paint6_linear_652_2381" x1="99.7892" y1="17.2696" x2="100.13" y2="208.46" gradientUnits="userSpaceOnUse">
<stop stop-color="#B5465D"/>
<stop offset="1" stop-color="white"/>
</linearGradient>
<radialGradient id="paint7_radial_652_2381" cx="0" cy="0" r="1" gradientUnits="userSpaceOnUse" gradientTransform="translate(167.37 116.492) rotate(180) scale(119.725 119.891)">
<stop stop-color="#E2E0EA"/>
<stop offset="0.98" stop-color="#9A80BB"/>
</radialGradient>
<radialGradient id="paint8_radial_652_2381" cx="0" cy="0" r="1" gradientUnits="userSpaceOnUse" gradientTransform="translate(223.037 54.84) rotate(180) scale(75.9898 76.0954)">
<stop stop-color="#E2E0EA"/>
<stop offset="0.98" stop-color="#9A80BB"/>
</radialGradient>
<radialGradient id="paint9_radial_652_2381" cx="0" cy="0" r="1" gradientUnits="userSpaceOnUse" gradientTransform="translate(-8.92768 116.305) rotate(180) scale(119.725 119.891)">
<stop stop-color="#E2E0EA"/>
<stop offset="0.98" stop-color="#9A80BB"/>
</radialGradient>
<radialGradient id="paint10_radial_652_2381" cx="0" cy="0" r="1" gradientUnits="userSpaceOnUse" gradientTransform="translate(-21.5879 54.6527) scale(75.9898 76.0954)">
<stop stop-color="#E2E0EA"/>
<stop offset="0.98" stop-color="#9A80BB"/>
</radialGradient>
<linearGradient id="paint11_linear_652_2381" x1="2.0889" y1="158.194" x2="18.6348" y2="133.851" gradientUnits="userSpaceOnUse">
<stop/>
<stop offset="1" stop-color="#A8A661"/>
</linearGradient>
<linearGradient id="paint12_linear_652_2381" x1="-11.3453" y1="144.947" x2="21.929" y2="95.979" gradientUnits="userSpaceOnUse">
<stop/>
<stop offset="1" stop-color="#A8A661"/>
</linearGradient>
<linearGradient id="paint13_linear_652_2381" x1="199.41" y1="158.194" x2="182.868" y2="133.851" gradientUnits="userSpaceOnUse">
<stop/>
<stop offset="1" stop-color="#A8A661"/>
</linearGradient>
<linearGradient id="paint14_linear_652_2381" x1="212.848" y1="144.948" x2="179.574" y2="95.9795" gradientUnits="userSpaceOnUse">
<stop/>
<stop offset="1" stop-color="#A8A661"/>
</linearGradient>
<linearGradient id="paint15_linear_652_2381" x1="103.598" y1="-40.5369" x2="97.8105" y2="84.3949" gradientUnits="userSpaceOnUse">
<stop stop-color="#7D4B8B"/>
<stop offset="1" stop-color="white"/>
</linearGradient>
<linearGradient id="paint16_linear_652_2381" x1="9.93023" y1="20.3313" x2="23.1541" y2="65.4977" gradientUnits="userSpaceOnUse">
<stop stop-color="#7D4B8B"/>
<stop offset="1" stop-color="white"/>
</linearGradient>
<linearGradient id="paint17_linear_652_2381" x1="191.152" y1="20.2155" x2="178.925" y2="66.0035" gradientUnits="userSpaceOnUse">
<stop stop-color="#7D4B8B"/>
<stop offset="1" stop-color="white"/>
</linearGradient>
</defs>
</svg>
